solid ArmLink
   facet normal 0.000000e+00 0.000000e+00 1.000000e+00
      outer loop
         vertex -3.690734e-03 3.982937e-02 8.000000e-02
         vertex -7.814168e-03 4.431635e-02 8.000000e-02
         vertex -1.094652e-02 3.847302e-02 8.000000e-02
      endloop
   endfacet
   facet normal 0.000000e+00 -0.000000e+00 1.000000e+00
      outer loop
         vertex -1.094652e-02 3.847302e-02 8.000000e-02
         vertex -7.814168e-03 4.431635e-02 8.000000e-02
         vertex -1.539091e-02 4.228617e-02 8.000000e-02
      endloop
   endfacet
   facet normal 0.000000e+00 0.000000e+00 1.000000e+00
      outer loop
         vertex -1.094652e-02 3.847302e-02 8.000000e-02
         vertex -1.539091e-02 4.228617e-02 8.000000e-02
         vertex -1.782953e-02 3.580653e-02 8.000000e-02
      endloop
   endfacet
   facet normal 0.000000e+00 -0.000000e+00 1.000000e+00
      outer loop
         vertex -1.782953e-02 3.580653e-02 8.000000e-02
         vertex -1.539091e-02 4.228617e-02 8.000000e-02
         vertex -2.250000e-02 3.897114e-02 8.000000e-02
      endloop
   endfacet
   facet normal 0.000000e+00 0.000000e+00 1.000000e+00
      outer loop
         vertex -1.782953e-02 3.580653e-02 8.000000e-02
         vertex -2.250000e-02 3.897114e-02 8.000000e-02
         vertex -2.410538e-02 3.192069e-02 8.000000e-02
      endloop
   endfacet
   facet normal 0.000000e+00 -0.000000e+00 1.000000e+00
      outer loop
         vertex -2.410538e-02 3.192069e-02 8.000000e-02
         vertex -2.250000e-02 3.897114e-02 8.000000e-02
         vertex -2.892544e-02 3.447200e-02 8.000000e-02
      endloop
   endfacet
   facet normal 0.000000e+00 0.000000e+00 1.000000e+00
      outer loop
         vertex -2.410538e-02 3.192069e-02 8.000000e-02
         vertex -2.892544e-02 3.447200e-02 8.000000e-02
         vertex -2.956036e-02 2.694783e-02 8.000000e-02
      endloop
   endfacet
   facet normal 0.000000e+00 -0.000000e+00 1.000000e+00
      outer loop
         vertex -2.956036e-02 2.694783e-02 8.000000e-02
         vertex -2.892544e-02 3.447200e-02 8.000000e-02
         vertex -3.447200e-02 2.892544e-02 8.000000e-02
      endloop
   endfacet
   facet normal 0.000000e+00 0.000000e+00 1.000000e+00
      outer loop
         vertex -2.956036e-02 2.694783e-02 8.000000e-02
         vertex -3.447200e-02 2.892544e-02 8.000000e-02
         vertex -3.400869e-02 2.105729e-02 8.000000e-02
      endloop
   endfacet
   facet normal 0.000000e+00 0.000000e+00 1.000000e+00
      outer loop
         vertex -3.400869e-02 2.105729e-02 8.000000e-02
         vertex -3.447200e-02 2.892544e-02 8.000000e-02
         vertex -3.897114e-02 2.250000e-02 8.000000e-02
      endloop
   endfacet
   facet normal 0.000000e+00 0.000000e+00 1.000000e+00
      outer loop
         vertex -3.400869e-02 2.105729e-02 8.000000e-02
         vertex -3.897114e-02 2.250000e-02 8.000000e-02
         vertex -3.729889e-02 1.444967e-02 8.000000e-02
      endloop
   endfacet
   facet normal 0.000000e+00 0.000000e+00 1.000000e+00
      outer loop
         vertex -3.729889e-02 1.444967e-02 8.000000e-02
         vertex -3.897114e-02 2.250000e-02 8.000000e-02
         vertex -4.228617e-02 1.539091e-02 8.000000e-02
      endloop
   endfacet
   facet normal 0.000000e+00 0.000000e+00 1.000000e+00
      outer loop
         vertex -3.729889e-02 1.444967e-02 8.000000e-02
         vertex -4.228617e-02 1.539091e-02 8.000000e-02
         vertex -3.931892e-02 7.349981e-03 8.000000e-02
      endloop
   endfacet
   facet normal 0.000000e+00 0.000000e+00 1.000000e+00
      outer loop
         vertex -3.931892e-02 7.349981e-03 8.000000e-02
         vertex -4.228617e-02 1.539091e-02 8.000000e-02
         vertex -4.431635e-02 7.814168e-03 8.000000e-02
      endloop
   endfacet
   facet normal 0.000000e+00 0.000000e+00 1.000000e+00
      outer loop
         vertex -3.931892e-02 7.349981e-03 8.000000e-02
         vertex -4.431635e-02 7.814168e-03 8.000000e-02
         vertex -4.000000e-02 0.000000e+00 8.000000e-02
      endloop
   endfacet
   facet normal 0.000000e+00 0.000000e+00 1.000000e+00
      outer loop
         vertex -4.000000e-02 0.000000e+00 8.000000e-02
         vertex -4.431635e-02 7.814168e-03 8.000000e-02
         vertex -4.500000e-02 0.000000e+00 8.000000e-02
      endloop
   endfacet
   facet normal 0.000000e+00 0.000000e+00 1.000000e+00
      outer loop
         vertex -4.000000e-02 0.000000e+00 8.000000e-02
         vertex -4.500000e-02 0.000000e+00 8.000000e-02
         vertex -3.931892e-02 -7.349981e-03 8.000000e-02
      endloop
   endfacet
   facet normal 0.000000e+00 0.000000e+00 1.000000e+00
      outer loop
         vertex -3.931892e-02 -7.349981e-03 8.000000e-02
         vertex -4.500000e-02 0.000000e+00 8.000000e-02
         vertex -4.431635e-02 -7.814168e-03 8.000000e-02
      endloop
   endfacet
   facet normal 0.000000e+00 0.000000e+00 1.000000e+00
      outer loop
         vertex -3.931892e-02 -7.349981e-03 8.000000e-02
         vertex -4.431635e-02 -7.814168e-03 8.000000e-02
         vertex -3.729889e-02 -1.444967e-02 8.000000e-02
      endloop
   endfacet
   facet normal 0.000000e+00 0.000000e+00 1.000000e+00
      outer loop
         vertex -3.729889e-02 -1.444967e-02 8.000000e-02
         vertex -4.431635e-02 -7.814168e-03 8.000000e-02
         vertex -4.228617e-02 -1.539091e-02 8.000000e-02
      endloop
   endfacet
   facet normal 0.000000e+00 0.000000e+00 1.000000e+00
      outer loop
         vertex -3.729889e-02 -1.444967e-02 8.000000e-02
         vertex -4.228617e-02 -1.539091e-02 8.000000e-02
         vertex -3.400869e-02 -2.105729e-02 8.000000e-02
      endloop
   endfacet
   facet normal 0.000000e+00 0.000000e+00 1.000000e+00
      outer loop
         vertex -3.400869e-02 -2.105729e-02 8.000000e-02
         vertex -4.228617e-02 -1.539091e-02 8.000000e-02
         vertex -3.897114e-02 -2.250000e-02 8.000000e-02
      endloop
   endfacet
   facet normal 0.000000e+00 0.000000e+00 1.000000e+00
      outer loop
         vertex -3.400869e-02 -2.105729e-02 8.000000e-02
         vertex -3.897114e-02 -2.250000e-02 8.000000e-02
         vertex -2.956036e-02 -2.694783e-02 8.000000e-02
      endloop
   endfacet
   facet normal 0.000000e+00 0.000000e+00 1.000000e+00
      outer loop
         vertex -2.956036e-02 -2.694783e-02 8.000000e-02
         vertex -3.897114e-02 -2.250000e-02 8.000000e-02
         vertex -3.447200e-02 -2.892544e-02 8.000000e-02
      endloop
   endfacet
   facet normal 0.000000e+00 0.000000e+00 1.000000e+00
      outer loop
         vertex -2.956036e-02 -2.694783e-02 8.000000e-02
         vertex -3.447200e-02 -2.892544e-02 8.000000e-02
         vertex -2.410538e-02 -3.192069e-02 8.000000e-02
      endloop
   endfacet
   facet normal 0.000000e+00 0.000000e+00 1.000000e+00
      outer loop
         vertex -2.410538e-02 -3.192069e-02 8.000000e-02
         vertex -3.447200e-02 -2.892544e-02 8.000000e-02
         vertex -2.892544e-02 -3.447200e-02 8.000000e-02
      endloop
   endfacet
   facet normal 0.000000e+00 0.000000e+00 1.000000e+00
      outer loop
         vertex -2.410538e-02 -3.192069e-02 8.000000e-02
         vertex -2.892544e-02 -3.447200e-02 8.000000e-02
         vertex -1.782953e-02 -3.580653e-02 8.000000e-02
      endloop
   endfacet
   facet normal 0.000000e+00 0.000000e+00 1.000000e+00
      outer loop
         vertex -1.782953e-02 -3.580653e-02 8.000000e-02
         vertex -2.892544e-02 -3.447200e-02 8.000000e-02
         vertex -2.250000e-02 -3.897114e-02 8.000000e-02
      endloop
   endfacet
   facet normal 0.000000e+00 0.000000e+00 1.000000e+00
      outer loop
         vertex -1.782953e-02 -3.580653e-02 8.000000e-02
         vertex -2.250000e-02 -3.897114e-02 8.000000e-02
         vertex -1.094652e-02 -3.847302e-02 8.000000e-02
      endloop
   endfacet
   facet normal 0.000000e+00 0.000000e+00 1.000000e+00
      outer loop
         vertex -1.094652e-02 -3.847302e-02 8.000000e-02
         vertex -2.250000e-02 -3.897114e-02 8.000000e-02
         vertex -1.539091e-02 -4.228617e-02 8.000000e-02
      endloop
   endfacet
   facet normal 0.000000e+00 0.000000e+00 1.000000e+00
      outer loop
         vertex -1.094652e-02 -3.847302e-02 8.000000e-02
         vertex -1.539091e-02 -4.228617e-02 8.000000e-02
         vertex -3.690734e-03 -3.982937e-02 8.000000e-02
      endloop
   endfacet
   facet normal 0.000000e+00 0.000000e+00 1.000000e+00
      outer loop
         vertex -3.690734e-03 -3.982937e-02 8.000000e-02
         vertex -1.539091e-02 -4.228617e-02 8.000000e-02
         vertex -7.814168e-03 -4.431635e-02 8.000000e-02
      endloop
   endfacet
   facet normal -0.000000e+00 0.000000e+00 1.000000e+00
      outer loop
         vertex -3.690734e-03 -3.982937e-02 8.000000e-02
         vertex -7.814168e-03 -4.431635e-02 8.000000e-02
         vertex 3.690734e-03 -3.982937e-02 8.000000e-02
      endloop
   endfacet
   facet normal -0.000000e+00 0.000000e+00 1.000000e+00
      outer loop
         vertex -7.814168e-03 -4.431635e-02 8.000000e-02
         vertex 8.266366e-18 -4.500000e-02 8.000000e-02
         vertex 3.690734e-03 -3.982937e-02 8.000000e-02
      endloop
   endfacet
   facet normal 0.000000e+00 0.000000e+00 1.000000e+00
      outer loop
         vertex 3.690734e-03 -3.982937e-02 8.000000e-02
         vertex 8.266366e-18 -4.500000e-02 8.000000e-02
         vertex 7.814168e-03 -4.431635e-02 8.000000e-02
      endloop
   endfacet
   facet normal -0.000000e+00 0.000000e+00 1.000000e+00
      outer loop
         vertex 3.690734e-03 -3.982937e-02 8.000000e-02
         vertex 7.814168e-03 -4.431635e-02 8.000000e-02
         vertex 1.094652e-02 -3.847302e-02 8.000000e-02
      endloop
   endfacet
   facet normal 0.000000e+00 0.000000e+00 1.000000e+00
      outer loop
         vertex 1.094652e-02 -3.847302e-02 8.000000e-02
         vertex 7.814168e-03 -4.431635e-02 8.000000e-02
         vertex 1.539091e-02 -4.228617e-02 8.000000e-02
      endloop
   endfacet
   facet normal -0.000000e+00 0.000000e+00 1.000000e+00
      outer loop
         vertex 1.094652e-02 -3.847302e-02 8.000000e-02
         vertex 1.539091e-02 -4.228617e-02 8.000000e-02
         vertex 1.782953e-02 -3.580653e-02 8.000000e-02
      endloop
   endfacet
   facet normal 0.000000e+00 0.000000e+00 1.000000e+00
      outer loop
         vertex 1.782953e-02 -3.580653e-02 8.000000e-02
         vertex 1.539091e-02 -4.228617e-02 8.000000e-02
         vertex 2.250000e-02 -3.897114e-02 8.000000e-02
      endloop
   endfacet
   facet normal -0.000000e+00 0.000000e+00 1.000000e+00
      outer loop
         vertex 1.782953e-02 -3.580653e-02 8.000000e-02
         vertex 2.250000e-02 -3.897114e-02 8.000000e-02
         vertex 2.410538e-02 -3.192069e-02 8.000000e-02
      endloop
   endfacet
   facet normal 0.000000e+00 0.000000e+00 1.000000e+00
      outer loop
         vertex 2.410538e-02 -3.192069e-02 8.000000e-02
         vertex 2.250000e-02 -3.897114e-02 8.000000e-02
         vertex 2.892544e-02 -3.447200e-02 8.000000e-02
      endloop
   endfacet
   facet normal -0.000000e+00 0.000000e+00 1.000000e+00
      outer loop
         vertex 2.410538e-02 -3.192069e-02 8.000000e-02
         vertex 2.892544e-02 -3.447200e-02 8.000000e-02
         vertex 2.956036e-02 -2.694783e-02 8.000000e-02
      endloop
   endfacet
   facet normal 0.000000e+00 0.000000e+00 1.000000e+00
      outer loop
         vertex 2.956036e-02 -2.694783e-02 8.000000e-02
         vertex 2.892544e-02 -3.447200e-02 8.000000e-02
         vertex 3.447200e-02 -2.892544e-02 8.000000e-02
      endloop
   endfacet
   facet normal -0.000000e+00 0.000000e+00 1.000000e+00
      outer loop
         vertex 2.956036e-02 -2.694783e-02 8.000000e-02
         vertex 3.447200e-02 -2.892544e-02 8.000000e-02
         vertex 3.400869e-02 -2.105729e-02 8.000000e-02
      endloop
   endfacet
   facet normal 0.000000e+00 0.000000e+00 1.000000e+00
      outer loop
         vertex 3.400869e-02 -2.105729e-02 8.000000e-02
         vertex 3.447200e-02 -2.892544e-02 8.000000e-02
         vertex 3.897114e-02 -2.250000e-02 8.000000e-02
      endloop
   endfacet
   facet normal -0.000000e+00 0.000000e+00 1.000000e+00
      outer loop
         vertex 3.400869e-02 -2.105729e-02 8.000000e-02
         vertex 3.897114e-02 -2.250000e-02 8.000000e-02
         vertex 3.729889e-02 -1.444967e-02 8.000000e-02
      endloop
   endfacet
   facet normal 0.000000e+00 0.000000e+00 1.000000e+00
      outer loop
         vertex 3.729889e-02 -1.444967e-02 8.000000e-02
         vertex 3.897114e-02 -2.250000e-02 8.000000e-02
         vertex 4.228617e-02 -1.539091e-02 8.000000e-02
      endloop
   endfacet
   facet normal -0.000000e+00 0.000000e+00 1.000000e+00
      outer loop
         vertex 3.729889e-02 -1.444967e-02 8.000000e-02
         vertex 4.228617e-02 -1.539091e-02 8.000000e-02
         vertex 3.931892e-02 -7.349981e-03 8.000000e-02
      endloop
   endfacet
   facet normal 0.000000e+00 0.000000e+00 1.000000e+00
      outer loop
         vertex 3.931892e-02 -7.349981e-03 8.000000e-02
         vertex 4.228617e-02 -1.539091e-02 8.000000e-02
         vertex 4.431635e-02 -7.814168e-03 8.000000e-02
      endloop
   endfacet
   facet normal -0.000000e+00 0.000000e+00 1.000000e+00
      outer loop
         vertex 3.931892e-02 -7.349981e-03 8.000000e-02
         vertex 4.431635e-02 -7.814168e-03 8.000000e-02
         vertex 4.000000e-02 1.469576e-17 8.000000e-02
      endloop
   endfacet
   facet normal 0.000000e+00 0.000000e+00 1.000000e+00
      outer loop
         vertex 4.000000e-02 1.469576e-17 8.000000e-02
         vertex 4.431635e-02 -7.814168e-03 8.000000e-02
         vertex 4.500000e-02 5.510911e-18 8.000000e-02
      endloop
   endfacet
   facet normal -0.000000e+00 -0.000000e+00 1.000000e+00
      outer loop
         vertex 4.000000e-02 1.469576e-17 8.000000e-02
         vertex 4.500000e-02 5.510911e-18 8.000000e-02
         vertex 3.931892e-02 7.349981e-03 8.000000e-02
      endloop
   endfacet
   facet normal -0.000000e+00 0.000000e+00 1.000000e+00
      outer loop
         vertex 3.931892e-02 7.349981e-03 8.000000e-02
         vertex 4.500000e-02 5.510911e-18 8.000000e-02
         vertex 4.431635e-02 7.814168e-03 8.000000e-02
      endloop
   endfacet
   facet normal 0.000000e+00 -0.000000e+00 1.000000e+00
      outer loop
         vertex 3.931892e-02 7.349981e-03 8.000000e-02
         vertex 4.431635e-02 7.814168e-03 8.000000e-02
         vertex 3.729889e-02 1.444967e-02 8.000000e-02
      endloop
   endfacet
   facet normal -0.000000e+00 0.000000e+00 1.000000e+00
      outer loop
         vertex 3.729889e-02 1.444967e-02 8.000000e-02
         vertex 4.431635e-02 7.814168e-03 8.000000e-02
         vertex 4.228617e-02 1.539091e-02 8.000000e-02
      endloop
   endfacet
   facet normal 0.000000e+00 -0.000000e+00 1.000000e+00
      outer loop
         vertex 3.729889e-02 1.444967e-02 8.000000e-02
         vertex 4.228617e-02 1.539091e-02 8.000000e-02
         vertex 3.400869e-02 2.105729e-02 8.000000e-02
      endloop
   endfacet
   facet normal -0.000000e+00 0.000000e+00 1.000000e+00
      outer loop
         vertex 3.400869e-02 2.105729e-02 8.000000e-02
         vertex 4.228617e-02 1.539091e-02 8.000000e-02
         vertex 3.897114e-02 2.250000e-02 8.000000e-02
      endloop
   endfacet
   facet normal 0.000000e+00 -0.000000e+00 1.000000e+00
      outer loop
         vertex 3.400869e-02 2.105729e-02 8.000000e-02
         vertex 3.897114e-02 2.250000e-02 8.000000e-02
         vertex 2.956036e-02 2.694783e-02 8.000000e-02
      endloop
   endfacet
   facet normal -0.000000e+00 0.000000e+00 1.000000e+00
      outer loop
         vertex 2.956036e-02 2.694783e-02 8.000000e-02
         vertex 3.897114e-02 2.250000e-02 8.000000e-02
         vertex 3.447200e-02 2.892544e-02 8.000000e-02
      endloop
   endfacet
   facet normal 0.000000e+00 -0.000000e+00 1.000000e+00
      outer loop
         vertex 2.956036e-02 2.694783e-02 8.000000e-02
         vertex 3.447200e-02 2.892544e-02 8.000000e-02
         vertex 2.410538e-02 3.192069e-02 8.000000e-02
      endloop
   endfacet
   facet normal -0.000000e+00 0.000000e+00 1.000000e+00
      outer loop
         vertex 2.410538e-02 3.192069e-02 8.000000e-02
         vertex 3.447200e-02 2.892544e-02 8.000000e-02
         vertex 2.892544e-02 3.447200e-02 8.000000e-02
      endloop
   endfacet
   facet normal 0.000000e+00 -0.000000e+00 1.000000e+00
      outer loop
         vertex 2.410538e-02 3.192069e-02 8.000000e-02
         vertex 2.892544e-02 3.447200e-02 8.000000e-02
         vertex 1.782953e-02 3.580653e-02 8.000000e-02
      endloop
   endfacet
   facet normal -0.000000e+00 0.000000e+00 1.000000e+00
      outer loop
         vertex 1.782953e-02 3.580653e-02 8.000000e-02
         vertex 2.892544e-02 3.447200e-02 8.000000e-02
         vertex 2.250000e-02 3.897114e-02 8.000000e-02
      endloop
   endfacet
   facet normal 0.000000e+00 -0.000000e+00 1.000000e+00
      outer loop
         vertex 1.782953e-02 3.580653e-02 8.000000e-02
         vertex 2.250000e-02 3.897114e-02 8.000000e-02
         vertex 1.094652e-02 3.847302e-02 8.000000e-02
      endloop
   endfacet
   facet normal 0.000000e+00 0.000000e+00 1.000000e+00
      outer loop
         vertex 1.094652e-02 3.847302e-02 8.000000e-02
         vertex 2.250000e-02 3.897114e-02 8.000000e-02
         vertex 1.539091e-02 4.228617e-02 8.000000e-02
      endloop
   endfacet
   facet normal 0.000000e+00 -0.000000e+00 1.000000e+00
      outer loop
         vertex 1.094652e-02 3.847302e-02 8.000000e-02
         vertex 1.539091e-02 4.228617e-02 8.000000e-02
         vertex 3.690734e-03 3.982937e-02 8.000000e-02
      endloop
   endfacet
   facet normal 0.000000e+00 0.000000e+00 1.000000e+00
      outer loop
         vertex 3.690734e-03 3.982937e-02 8.000000e-02
         vertex 1.539091e-02 4.228617e-02 8.000000e-02
         vertex 7.814168e-03 4.431635e-02 8.000000e-02
      endloop
   endfacet
   facet normal 0.000000e+00 -0.000000e+00 1.000000e+00
      outer loop
         vertex 3.690734e-03 3.982937e-02 8.000000e-02
         vertex 7.814168e-03 4.431635e-02 8.000000e-02
         vertex -3.690734e-03 3.982937e-02 8.000000e-02
      endloop
   endfacet
   facet normal 0.000000e+00 0.000000e+00 1.000000e+00
      outer loop
         vertex -3.690734e-03 3.982937e-02 8.000000e-02
         vertex 7.814168e-03 4.431635e-02 8.000000e-02
         vertex -2.755455e-18 4.500000e-02 8.000000e-02
      endloop
   endfacet
   facet normal 0.000000e+00 -0.000000e+00 1.000000e+00
      outer loop
         vertex -3.690734e-03 3.982937e-02 8.000000e-02
         vertex -2.755455e-18 4.500000e-02 8.000000e-02
         vertex -7.814168e-03 4.431635e-02 8.000000e-02
      endloop
   endfacet
   facet normal -0.000000e+00 0.000000e+00 -1.000000e+00
      outer loop
         vertex 3.690734e-03 -3.982937e-02 0.000000e+00
         vertex 8.266366e-18 -4.500000e-02 0.000000e+00
         vertex -3.690734e-03 -3.982937e-02 0.000000e+00
      endloop
   endfacet
   facet normal 0.000000e+00 -0.000000e+00 -1.000000e+00
      outer loop
         vertex -3.690734e-03 -3.982937e-02 0.000000e+00
         vertex 8.266366e-18 -4.500000e-02 0.000000e+00
         vertex -7.814168e-03 -4.431635e-02 0.000000e+00
      endloop
   endfacet
   facet normal -0.000000e+00 0.000000e+00 -1.000000e+00
      outer loop
         vertex -3.690734e-03 -3.982937e-02 0.000000e+00
         vertex -7.814168e-03 -4.431635e-02 0.000000e+00
         vertex -1.094652e-02 -3.847302e-02 0.000000e+00
      endloop
   endfacet
   facet normal 0.000000e+00 -0.000000e+00 -1.000000e+00
      outer loop
         vertex -1.094652e-02 -3.847302e-02 0.000000e+00
         vertex -7.814168e-03 -4.431635e-02 0.000000e+00
         vertex -1.539091e-02 -4.228617e-02 0.000000e+00
      endloop
   endfacet
   facet normal -0.000000e+00 0.000000e+00 -1.000000e+00
      outer loop
         vertex -1.094652e-02 -3.847302e-02 0.000000e+00
         vertex -1.539091e-02 -4.228617e-02 0.000000e+00
         vertex -1.782953e-02 -3.580653e-02 0.000000e+00
      endloop
   endfacet
   facet normal 0.000000e+00 -0.000000e+00 -1.000000e+00
      outer loop
         vertex -1.782953e-02 -3.580653e-02 0.000000e+00
         vertex -1.539091e-02 -4.228617e-02 0.000000e+00
         vertex -2.250000e-02 -3.897114e-02 0.000000e+00
      endloop
   endfacet
   facet normal -0.000000e+00 0.000000e+00 -1.000000e+00
      outer loop
         vertex -1.782953e-02 -3.580653e-02 0.000000e+00
         vertex -2.250000e-02 -3.897114e-02 0.000000e+00
         vertex -2.410538e-02 -3.192069e-02 0.000000e+00
      endloop
   endfacet
   facet normal 0.000000e+00 -0.000000e+00 -1.000000e+00
      outer loop
         vertex -2.410538e-02 -3.192069e-02 0.000000e+00
         vertex -2.250000e-02 -3.897114e-02 0.000000e+00
         vertex -2.892544e-02 -3.447200e-02 0.000000e+00
      endloop
   endfacet
   facet normal -0.000000e+00 0.000000e+00 -1.000000e+00
      outer loop
         vertex -2.410538e-02 -3.192069e-02 0.000000e+00
         vertex -2.892544e-02 -3.447200e-02 0.000000e+00
         vertex -2.956036e-02 -2.694783e-02 0.000000e+00
      endloop
   endfacet
   facet normal 0.000000e+00 -0.000000e+00 -1.000000e+00
      outer loop
         vertex -2.956036e-02 -2.694783e-02 0.000000e+00
         vertex -2.892544e-02 -3.447200e-02 0.000000e+00
         vertex -3.447200e-02 -2.892544e-02 0.000000e+00
      endloop
   endfacet
   facet normal -0.000000e+00 0.000000e+00 -1.000000e+00
      outer loop
         vertex -2.956036e-02 -2.694783e-02 0.000000e+00
         vertex -3.447200e-02 -2.892544e-02 0.000000e+00
         vertex -3.400869e-02 -2.105729e-02 0.000000e+00
      endloop
   endfacet
   facet normal 0.000000e+00 0.000000e+00 -1.000000e+00
      outer loop
         vertex -3.400869e-02 -2.105729e-02 0.000000e+00
         vertex -3.447200e-02 -2.892544e-02 0.000000e+00
         vertex -3.897114e-02 -2.250000e-02 0.000000e+00
      endloop
   endfacet
   facet normal -0.000000e+00 0.000000e+00 -1.000000e+00
      outer loop
         vertex -3.400869e-02 -2.105729e-02 0.000000e+00
         vertex -3.897114e-02 -2.250000e-02 0.000000e+00
         vertex -3.729889e-02 -1.444967e-02 0.000000e+00
      endloop
   endfacet
   facet normal 0.000000e+00 0.000000e+00 -1.000000e+00
      outer loop
         vertex -3.729889e-02 -1.444967e-02 0.000000e+00
         vertex -3.897114e-02 -2.250000e-02 0.000000e+00
         vertex -4.228617e-02 -1.539091e-02 0.000000e+00
      endloop
   endfacet
   facet normal -0.000000e+00 0.000000e+00 -1.000000e+00
      outer loop
         vertex -3.729889e-02 -1.444967e-02 0.000000e+00
         vertex -4.228617e-02 -1.539091e-02 0.000000e+00
         vertex -3.931892e-02 -7.349981e-03 0.000000e+00
      endloop
   endfacet
   facet normal 0.000000e+00 0.000000e+00 -1.000000e+00
      outer loop
         vertex -3.931892e-02 -7.349981e-03 0.000000e+00
         vertex -4.228617e-02 -1.539091e-02 0.000000e+00
         vertex -4.431635e-02 -7.814168e-03 0.000000e+00
      endloop
   endfacet
   facet normal -0.000000e+00 0.000000e+00 -1.000000e+00
      outer loop
         vertex -3.931892e-02 -7.349981e-03 0.000000e+00
         vertex -4.431635e-02 -7.814168e-03 0.000000e+00
         vertex -4.000000e-02 0.000000e+00 0.000000e+00
      endloop
   endfacet
   facet normal -0.000000e+00 0.000000e+00 -1.000000e+00
      outer loop
         vertex -4.000000e-02 0.000000e+00 0.000000e+00
         vertex -4.431635e-02 -7.814168e-03 0.000000e+00
         vertex -4.500000e-02 0.000000e+00 0.000000e+00
      endloop
   endfacet
   facet normal 0.000000e+00 0.000000e+00 -1.000000e+00
      outer loop
         vertex -4.000000e-02 0.000000e+00 0.000000e+00
         vertex -4.500000e-02 0.000000e+00 0.000000e+00
         vertex -3.931892e-02 7.349981e-03 0.000000e+00
      endloop
   endfacet
   facet normal -0.000000e+00 0.000000e+00 -1.000000e+00
      outer loop
         vertex -3.931892e-02 7.349981e-03 0.000000e+00
         vertex -4.500000e-02 0.000000e+00 0.000000e+00
         vertex -4.431635e-02 7.814168e-03 0.000000e+00
      endloop
   endfacet
   facet normal 0.000000e+00 0.000000e+00 -1.000000e+00
      outer loop
         vertex -3.931892e-02 7.349981e-03 0.000000e+00
         vertex -4.431635e-02 7.814168e-03 0.000000e+00
         vertex -3.729889e-02 1.444967e-02 0.000000e+00
      endloop
   endfacet
   facet normal -0.000000e+00 0.000000e+00 -1.000000e+00
      outer loop
         vertex -3.729889e-02 1.444967e-02 0.000000e+00
         vertex -4.431635e-02 7.814168e-03 0.000000e+00
         vertex -4.228617e-02 1.539091e-02 0.000000e+00
      endloop
   endfacet
   facet normal 0.000000e+00 0.000000e+00 -1.000000e+00
      outer loop
         vertex -3.729889e-02 1.444967e-02 0.000000e+00
         vertex -4.228617e-02 1.539091e-02 0.000000e+00
         vertex -3.400869e-02 2.105729e-02 0.000000e+00
      endloop
   endfacet
   facet normal -0.000000e+00 0.000000e+00 -1.000000e+00
      outer loop
         vertex -3.400869e-02 2.105729e-02 0.000000e+00
         vertex -4.228617e-02 1.539091e-02 0.000000e+00
         vertex -3.897114e-02 2.250000e-02 0.000000e+00
      endloop
   endfacet
   facet normal 0.000000e+00 0.000000e+00 -1.000000e+00
      outer loop
         vertex -3.400869e-02 2.105729e-02 0.000000e+00
         vertex -3.897114e-02 2.250000e-02 0.000000e+00
         vertex -2.956036e-02 2.694783e-02 0.000000e+00
      endloop
   endfacet
   facet normal -0.000000e+00 0.000000e+00 -1.000000e+00
      outer loop
         vertex -2.956036e-02 2.694783e-02 0.000000e+00
         vertex -3.897114e-02 2.250000e-02 0.000000e+00
         vertex -3.447200e-02 2.892544e-02 0.000000e+00
      endloop
   endfacet
   facet normal 0.000000e+00 0.000000e+00 -1.000000e+00
      outer loop
         vertex -2.956036e-02 2.694783e-02 0.000000e+00
         vertex -3.447200e-02 2.892544e-02 0.000000e+00
         vertex -2.410538e-02 3.192069e-02 0.000000e+00
      endloop
   endfacet
   facet normal -0.000000e+00 0.000000e+00 -1.000000e+00
      outer loop
         vertex -2.410538e-02 3.192069e-02 0.000000e+00
         vertex -3.447200e-02 2.892544e-02 0.000000e+00
         vertex -2.892544e-02 3.447200e-02 0.000000e+00
      endloop
   endfacet
   facet normal 0.000000e+00 0.000000e+00 -1.000000e+00
      outer loop
         vertex -2.410538e-02 3.192069e-02 0.000000e+00
         vertex -2.892544e-02 3.447200e-02 0.000000e+00
         vertex -1.782953e-02 3.580653e-02 0.000000e+00
      endloop
   endfacet
   facet normal -0.000000e+00 0.000000e+00 -1.000000e+00
      outer loop
         vertex -1.782953e-02 3.580653e-02 0.000000e+00
         vertex -2.892544e-02 3.447200e-02 0.000000e+00
         vertex -2.250000e-02 3.897114e-02 0.000000e+00
      endloop
   endfacet
   facet normal 0.000000e+00 0.000000e+00 -1.000000e+00
      outer loop
         vertex -1.782953e-02 3.580653e-02 0.000000e+00
         vertex -2.250000e-02 3.897114e-02 0.000000e+00
         vertex -1.094652e-02 3.847302e-02 0.000000e+00
      endloop
   endfacet
   facet normal 0.000000e+00 0.000000e+00 -1.000000e+00
      outer loop
         vertex -1.094652e-02 3.847302e-02 0.000000e+00
         vertex -2.250000e-02 3.897114e-02 0.000000e+00
         vertex -1.539091e-02 4.228617e-02 0.000000e+00
      endloop
   endfacet
   facet normal 0.000000e+00 0.000000e+00 -1.000000e+00
      outer loop
         vertex -1.094652e-02 3.847302e-02 0.000000e+00
         vertex -1.539091e-02 4.228617e-02 0.000000e+00
         vertex -3.690734e-03 3.982937e-02 0.000000e+00
      endloop
   endfacet
   facet normal 0.000000e+00 0.000000e+00 -1.000000e+00
      outer loop
         vertex -1.539091e-02 4.228617e-02 0.000000e+00
         vertex -7.814168e-03 4.431635e-02 0.000000e+00
         vertex -3.690734e-03 3.982937e-02 0.000000e+00
      endloop
   endfacet
   facet normal 0.000000e+00 0.000000e+00 -1.000000e+00
      outer loop
         vertex -3.690734e-03 3.982937e-02 0.000000e+00
         vertex -7.814168e-03 4.431635e-02 0.000000e+00
         vertex -2.755455e-18 4.500000e-02 0.000000e+00
      endloop
   endfacet
   facet normal 0.000000e+00 0.000000e+00 -1.000000e+00
      outer loop
         vertex -3.690734e-03 3.982937e-02 0.000000e+00
         vertex -2.755455e-18 4.500000e-02 0.000000e+00
         vertex 3.690734e-03 3.982937e-02 0.000000e+00
      endloop
   endfacet
   facet normal 0.000000e+00 0.000000e+00 -1.000000e+00
      outer loop
         vertex 3.690734e-03 3.982937e-02 0.000000e+00
         vertex -2.755455e-18 4.500000e-02 0.000000e+00
         vertex 7.814168e-03 4.431635e-02 0.000000e+00
      endloop
   endfacet
   facet normal 0.000000e+00 0.000000e+00 -1.000000e+00
      outer loop
         vertex 3.690734e-03 3.982937e-02 0.000000e+00
         vertex 7.814168e-03 4.431635e-02 0.000000e+00
         vertex 1.094652e-02 3.847302e-02 0.000000e+00
      endloop
   endfacet
   facet normal 0.000000e+00 0.000000e+00 -1.000000e+00
      outer loop
         vertex 1.094652e-02 3.847302e-02 0.000000e+00
         vertex 7.814168e-03 4.431635e-02 0.000000e+00
         vertex 1.539091e-02 4.228617e-02 0.000000e+00
      endloop
   endfacet
   facet normal 0.000000e+00 0.000000e+00 -1.000000e+00
      outer loop
         vertex 1.094652e-02 3.847302e-02 0.000000e+00
         vertex 1.539091e-02 4.228617e-02 0.000000e+00
         vertex 1.782953e-02 3.580653e-02 0.000000e+00
      endloop
   endfacet
   facet normal 0.000000e+00 0.000000e+00 -1.000000e+00
      outer loop
         vertex 1.782953e-02 3.580653e-02 0.000000e+00
         vertex 1.539091e-02 4.228617e-02 0.000000e+00
         vertex 2.250000e-02 3.897114e-02 0.000000e+00
      endloop
   endfacet
   facet normal 0.000000e+00 0.000000e+00 -1.000000e+00
      outer loop
         vertex 1.782953e-02 3.580653e-02 0.000000e+00
         vertex 2.250000e-02 3.897114e-02 0.000000e+00
         vertex 2.410538e-02 3.192069e-02 0.000000e+00
      endloop
   endfacet
   facet normal 0.000000e+00 0.000000e+00 -1.000000e+00
      outer loop
         vertex 2.410538e-02 3.192069e-02 0.000000e+00
         vertex 2.250000e-02 3.897114e-02 0.000000e+00
         vertex 2.892544e-02 3.447200e-02 0.000000e+00
      endloop
   endfacet
   facet normal 0.000000e+00 0.000000e+00 -1.000000e+00
      outer loop
         vertex 2.410538e-02 3.192069e-02 0.000000e+00
         vertex 2.892544e-02 3.447200e-02 0.000000e+00
         vertex 2.956036e-02 2.694783e-02 0.000000e+00
      endloop
   endfacet
   facet normal 0.000000e+00 0.000000e+00 -1.000000e+00
      outer loop
         vertex 2.956036e-02 2.694783e-02 0.000000e+00
         vertex 2.892544e-02 3.447200e-02 0.000000e+00
         vertex 3.447200e-02 2.892544e-02 0.000000e+00
      endloop
   endfacet
   facet normal 0.000000e+00 0.000000e+00 -1.000000e+00
      outer loop
         vertex 2.956036e-02 2.694783e-02 0.000000e+00
         vertex 3.447200e-02 2.892544e-02 0.000000e+00
         vertex 3.400869e-02 2.105729e-02 0.000000e+00
      endloop
   endfacet
   facet normal 0.000000e+00 0.000000e+00 -1.000000e+00
      outer loop
         vertex 3.400869e-02 2.105729e-02 0.000000e+00
         vertex 3.447200e-02 2.892544e-02 0.000000e+00
         vertex 3.897114e-02 2.250000e-02 0.000000e+00
      endloop
   endfacet
   facet normal 0.000000e+00 0.000000e+00 -1.000000e+00
      outer loop
         vertex 3.400869e-02 2.105729e-02 0.000000e+00
         vertex 3.897114e-02 2.250000e-02 0.000000e+00
         vertex 3.729889e-02 1.444967e-02 0.000000e+00
      endloop
   endfacet
   facet normal 0.000000e+00 0.000000e+00 -1.000000e+00
      outer loop
         vertex 3.729889e-02 1.444967e-02 0.000000e+00
         vertex 3.897114e-02 2.250000e-02 0.000000e+00
         vertex 4.228617e-02 1.539091e-02 0.000000e+00
      endloop
   endfacet
   facet normal 0.000000e+00 0.000000e+00 -1.000000e+00
      outer loop
         vertex 3.729889e-02 1.444967e-02 0.000000e+00
         vertex 4.228617e-02 1.539091e-02 0.000000e+00
         vertex 3.931892e-02 7.349981e-03 0.000000e+00
      endloop
   endfacet
   facet normal 0.000000e+00 0.000000e+00 -1.000000e+00
      outer loop
         vertex 3.931892e-02 7.349981e-03 0.000000e+00
         vertex 4.228617e-02 1.539091e-02 0.000000e+00
         vertex 4.431635e-02 7.814168e-03 0.000000e+00
      endloop
   endfacet
   facet normal 0.000000e+00 0.000000e+00 -1.000000e+00
      outer loop
         vertex 3.931892e-02 7.349981e-03 0.000000e+00
         vertex 4.431635e-02 7.814168e-03 0.000000e+00
         vertex 4.000000e-02 4.898587e-18 0.000000e+00
      endloop
   endfacet
   facet normal 0.000000e+00 0.000000e+00 -1.000000e+00
      outer loop
         vertex 4.000000e-02 4.898587e-18 0.000000e+00
         vertex 4.431635e-02 7.814168e-03 0.000000e+00
         vertex 4.500000e-02 1.653273e-17 0.000000e+00
      endloop
   endfacet
   facet normal 0.000000e+00 -0.000000e+00 -1.000000e+00
      outer loop
         vertex 4.000000e-02 4.898587e-18 0.000000e+00
         vertex 4.500000e-02 1.653273e-17 0.000000e+00
         vertex 3.931892e-02 -7.349981e-03 0.000000e+00
      endloop
   endfacet
   facet normal 0.000000e+00 0.000000e+00 -1.000000e+00
      outer loop
         vertex 3.931892e-02 -7.349981e-03 0.000000e+00
         vertex 4.500000e-02 1.653273e-17 0.000000e+00
         vertex 4.431635e-02 -7.814168e-03 0.000000e+00
      endloop
   endfacet
   facet normal 0.000000e+00 -0.000000e+00 -1.000000e+00
      outer loop
         vertex 3.931892e-02 -7.349981e-03 0.000000e+00
         vertex 4.431635e-02 -7.814168e-03 0.000000e+00
         vertex 3.729889e-02 -1.444967e-02 0.000000e+00
      endloop
   endfacet
   facet normal 0.000000e+00 0.000000e+00 -1.000000e+00
      outer loop
         vertex 3.729889e-02 -1.444967e-02 0.000000e+00
         vertex 4.431635e-02 -7.814168e-03 0.000000e+00
         vertex 4.228617e-02 -1.539091e-02 0.000000e+00
      endloop
   endfacet
   facet normal 0.000000e+00 -0.000000e+00 -1.000000e+00
      outer loop
         vertex 3.729889e-02 -1.444967e-02 0.000000e+00
         vertex 4.228617e-02 -1.539091e-02 0.000000e+00
         vertex 3.400869e-02 -2.105729e-02 0.000000e+00
      endloop
   endfacet
   facet normal 0.000000e+00 0.000000e+00 -1.000000e+00
      outer loop
         vertex 3.400869e-02 -2.105729e-02 0.000000e+00
         vertex 4.228617e-02 -1.539091e-02 0.000000e+00
         vertex 3.897114e-02 -2.250000e-02 0.000000e+00
      endloop
   endfacet
   facet normal 0.000000e+00 -0.000000e+00 -1.000000e+00
      outer loop
         vertex 3.400869e-02 -2.105729e-02 0.000000e+00
         vertex 3.897114e-02 -2.250000e-02 0.000000e+00
         vertex 2.956036e-02 -2.694783e-02 0.000000e+00
      endloop
   endfacet
   facet normal 0.000000e+00 0.000000e+00 -1.000000e+00
      outer loop
         vertex 2.956036e-02 -2.694783e-02 0.000000e+00
         vertex 3.897114e-02 -2.250000e-02 0.000000e+00
         vertex 3.447200e-02 -2.892544e-02 0.000000e+00
      endloop
   endfacet
   facet normal 0.000000e+00 -0.000000e+00 -1.000000e+00
      outer loop
         vertex 2.956036e-02 -2.694783e-02 0.000000e+00
         vertex 3.447200e-02 -2.892544e-02 0.000000e+00
         vertex 2.410538e-02 -3.192069e-02 0.000000e+00
      endloop
   endfacet
   facet normal 0.000000e+00 0.000000e+00 -1.000000e+00
      outer loop
         vertex 2.410538e-02 -3.192069e-02 0.000000e+00
         vertex 3.447200e-02 -2.892544e-02 0.000000e+00
         vertex 2.892544e-02 -3.447200e-02 0.000000e+00
      endloop
   endfacet
   facet normal 0.000000e+00 -0.000000e+00 -1.000000e+00
      outer loop
         vertex 2.410538e-02 -3.192069e-02 0.000000e+00
         vertex 2.892544e-02 -3.447200e-02 0.000000e+00
         vertex 1.782953e-02 -3.580653e-02 0.000000e+00
      endloop
   endfacet
   facet normal 0.000000e+00 0.000000e+00 -1.000000e+00
      outer loop
         vertex 1.782953e-02 -3.580653e-02 0.000000e+00
         vertex 2.892544e-02 -3.447200e-02 0.000000e+00
         vertex 2.250000e-02 -3.897114e-02 0.000000e+00
      endloop
   endfacet
   facet normal 0.000000e+00 -0.000000e+00 -1.000000e+00
      outer loop
         vertex 1.782953e-02 -3.580653e-02 0.000000e+00
         vertex 2.250000e-02 -3.897114e-02 0.000000e+00
         vertex 1.094652e-02 -3.847302e-02 0.000000e+00
      endloop
   endfacet
   facet normal 0.000000e+00 0.000000e+00 -1.000000e+00
      outer loop
         vertex 1.094652e-02 -3.847302e-02 0.000000e+00
         vertex 2.250000e-02 -3.897114e-02 0.000000e+00
         vertex 1.539091e-02 -4.228617e-02 0.000000e+00
      endloop
   endfacet
   facet normal 0.000000e+00 -0.000000e+00 -1.000000e+00
      outer loop
         vertex 1.094652e-02 -3.847302e-02 0.000000e+00
         vertex 1.539091e-02 -4.228617e-02 0.000000e+00
         vertex 3.690734e-03 -3.982937e-02 0.000000e+00
      endloop
   endfacet
   facet normal 0.000000e+00 0.000000e+00 -1.000000e+00
      outer loop
         vertex 3.690734e-03 -3.982937e-02 0.000000e+00
         vertex 1.539091e-02 -4.228617e-02 0.000000e+00
         vertex 7.814168e-03 -4.431635e-02 0.000000e+00
      endloop
   endfacet
   facet normal 0.000000e+00 -0.000000e+00 -1.000000e+00
      outer loop
         vertex 3.690734e-03 -3.982937e-02 0.000000e+00
         vertex 7.814168e-03 -4.431635e-02 0.000000e+00
         vertex 8.266366e-18 -4.500000e-02 0.000000e+00
      endloop
   endfacet
   facet normal -9.961947e-01 8.715612e-02 0.000000e+00
      outer loop
         vertex -4.500000e-02 0.000000e+00 0.000000e+00
         vertex -4.431635e-02 7.814168e-03 8.000000e-02
         vertex -4.431635e-02 7.814168e-03 0.000000e+00
      endloop
   endfacet
   facet normal -9.659259e-01 2.588188e-01 0.000000e+00
      outer loop
         vertex -4.431635e-02 7.814168e-03 0.000000e+00
         vertex -4.431635e-02 7.814168e-03 8.000000e-02
         vertex -4.228617e-02 1.539091e-02 8.000000e-02
      endloop
   endfacet
   facet normal -9.659259e-01 2.588188e-01 0.000000e+00
      outer loop
         vertex -4.431635e-02 7.814168e-03 0.000000e+00
         vertex -4.228617e-02 1.539091e-02 8.000000e-02
         vertex -4.228617e-02 1.539091e-02 0.000000e+00
      endloop
   endfacet
   facet normal -9.063078e-01 4.226181e-01 0.000000e+00
      outer loop
         vertex -4.228617e-02 1.539091e-02 0.000000e+00
         vertex -4.228617e-02 1.539091e-02 8.000000e-02
         vertex -3.897114e-02 2.250000e-02 8.000000e-02
      endloop
   endfacet
   facet normal -9.063078e-01 4.226181e-01 0.000000e+00
      outer loop
         vertex -4.228617e-02 1.539091e-02 0.000000e+00
         vertex -3.897114e-02 2.250000e-02 8.000000e-02
         vertex -3.897114e-02 2.250000e-02 0.000000e+00
      endloop
   endfacet
   facet normal -8.191519e-01 5.735766e-01 0.000000e+00
      outer loop
         vertex -3.897114e-02 2.250000e-02 0.000000e+00
         vertex -3.897114e-02 2.250000e-02 8.000000e-02
         vertex -3.447200e-02 2.892544e-02 8.000000e-02
      endloop
   endfacet
   facet normal -8.191519e-01 5.735766e-01 0.000000e+00
      outer loop
         vertex -3.897114e-02 2.250000e-02 0.000000e+00
         vertex -3.447200e-02 2.892544e-02 8.000000e-02
         vertex -3.447200e-02 2.892544e-02 0.000000e+00
      endloop
   endfacet
   facet normal -7.071068e-01 7.071068e-01 0.000000e+00
      outer loop
         vertex -3.447200e-02 2.892544e-02 0.000000e+00
         vertex -3.447200e-02 2.892544e-02 8.000000e-02
         vertex -2.892544e-02 3.447200e-02 8.000000e-02
      endloop
   endfacet
   facet normal -7.071068e-01 7.071068e-01 0.000000e+00
      outer loop
         vertex -3.447200e-02 2.892544e-02 0.000000e+00
         vertex -2.892544e-02 3.447200e-02 8.000000e-02
         vertex -2.892544e-02 3.447200e-02 0.000000e+00
      endloop
   endfacet
   facet normal -5.735766e-01 8.191519e-01 0.000000e+00
      outer loop
         vertex -2.892544e-02 3.447200e-02 0.000000e+00
         vertex -2.892544e-02 3.447200e-02 8.000000e-02
         vertex -2.250000e-02 3.897114e-02 8.000000e-02
      endloop
   endfacet
   facet normal -5.735766e-01 8.191519e-01 0.000000e+00
      outer loop
         vertex -2.892544e-02 3.447200e-02 0.000000e+00
         vertex -2.250000e-02 3.897114e-02 8.000000e-02
         vertex -2.250000e-02 3.897114e-02 0.000000e+00
      endloop
   endfacet
   facet normal -4.226181e-01 9.063078e-01 0.000000e+00
      outer loop
         vertex -2.250000e-02 3.897114e-02 0.000000e+00
         vertex -2.250000e-02 3.897114e-02 8.000000e-02
         vertex -1.539091e-02 4.228617e-02 8.000000e-02
      endloop
   endfacet
   facet normal -4.226181e-01 9.063078e-01 0.000000e+00
      outer loop
         vertex -2.250000e-02 3.897114e-02 0.000000e+00
         vertex -1.539091e-02 4.228617e-02 8.000000e-02
         vertex -1.539091e-02 4.228617e-02 0.000000e+00
      endloop
   endfacet
   facet normal -2.588188e-01 9.659259e-01 0.000000e+00
      outer loop
         vertex -1.539091e-02 4.228617e-02 0.000000e+00
         vertex -1.539091e-02 4.228617e-02 8.000000e-02
         vertex -7.814168e-03 4.431635e-02 8.000000e-02
      endloop
   endfacet
   facet normal -2.588188e-01 9.659259e-01 0.000000e+00
      outer loop
         vertex -1.539091e-02 4.228617e-02 0.000000e+00
         vertex -7.814168e-03 4.431635e-02 8.000000e-02
         vertex -7.814168e-03 4.431635e-02 0.000000e+00
      endloop
   endfacet
   facet normal -8.715612e-02 9.961947e-01 0.000000e+00
      outer loop
         vertex -7.814168e-03 4.431635e-02 0.000000e+00
         vertex -7.814168e-03 4.431635e-02 8.000000e-02
         vertex -2.755455e-18 4.500000e-02 8.000000e-02
      endloop
   endfacet
   facet normal -8.715612e-02 9.961947e-01 0.000000e+00
      outer loop
         vertex -7.814168e-03 4.431635e-02 0.000000e+00
         vertex -2.755455e-18 4.500000e-02 8.000000e-02
         vertex -2.755455e-18 4.500000e-02 0.000000e+00
      endloop
   endfacet
   facet normal 8.715612e-02 9.961947e-01 -0.000000e+00
      outer loop
         vertex -2.755455e-18 4.500000e-02 0.000000e+00
         vertex -2.755455e-18 4.500000e-02 8.000000e-02
         vertex 7.814168e-03 4.431635e-02 8.000000e-02
      endloop
   endfacet
   facet normal 8.715612e-02 9.961947e-01 0.000000e+00
      outer loop
         vertex -2.755455e-18 4.500000e-02 0.000000e+00
         vertex 7.814168e-03 4.431635e-02 8.000000e-02
         vertex 7.814168e-03 4.431635e-02 0.000000e+00
      endloop
   endfacet
   facet normal 2.588188e-01 9.659259e-01 -0.000000e+00
      outer loop
         vertex 7.814168e-03 4.431635e-02 0.000000e+00
         vertex 7.814168e-03 4.431635e-02 8.000000e-02
         vertex 1.539091e-02 4.228617e-02 8.000000e-02
      endloop
   endfacet
   facet normal 2.588188e-01 9.659259e-01 0.000000e+00
      outer loop
         vertex 7.814168e-03 4.431635e-02 0.000000e+00
         vertex 1.539091e-02 4.228617e-02 8.000000e-02
         vertex 1.539091e-02 4.228617e-02 0.000000e+00
      endloop
   endfacet
   facet normal 4.226181e-01 9.063078e-01 -0.000000e+00
      outer loop
         vertex 1.539091e-02 4.228617e-02 0.000000e+00
         vertex 1.539091e-02 4.228617e-02 8.000000e-02
         vertex 2.250000e-02 3.897114e-02 8.000000e-02
      endloop
   endfacet
   facet normal 4.226181e-01 9.063078e-01 0.000000e+00
      outer loop
         vertex 1.539091e-02 4.228617e-02 0.000000e+00
         vertex 2.250000e-02 3.897114e-02 8.000000e-02
         vertex 2.250000e-02 3.897114e-02 0.000000e+00
      endloop
   endfacet
   facet normal 5.735766e-01 8.191519e-01 -0.000000e+00
      outer loop
         vertex 2.250000e-02 3.897114e-02 0.000000e+00
         vertex 2.250000e-02 3.897114e-02 8.000000e-02
         vertex 2.892544e-02 3.447200e-02 8.000000e-02
      endloop
   endfacet
   facet normal 5.735766e-01 8.191519e-01 0.000000e+00
      outer loop
         vertex 2.250000e-02 3.897114e-02 0.000000e+00
         vertex 2.892544e-02 3.447200e-02 8.000000e-02
         vertex 2.892544e-02 3.447200e-02 0.000000e+00
      endloop
   endfacet
   facet normal 7.071068e-01 7.071068e-01 -0.000000e+00
      outer loop
         vertex 2.892544e-02 3.447200e-02 0.000000e+00
         vertex 2.892544e-02 3.447200e-02 8.000000e-02
         vertex 3.447200e-02 2.892544e-02 8.000000e-02
      endloop
   endfacet
   facet normal 7.071068e-01 7.071068e-01 0.000000e+00
      outer loop
         vertex 2.892544e-02 3.447200e-02 0.000000e+00
         vertex 3.447200e-02 2.892544e-02 8.000000e-02
         vertex 3.447200e-02 2.892544e-02 0.000000e+00
      endloop
   endfacet
   facet normal 8.191519e-01 5.735766e-01 -0.000000e+00
      outer loop
         vertex 3.447200e-02 2.892544e-02 0.000000e+00
         vertex 3.447200e-02 2.892544e-02 8.000000e-02
         vertex 3.897114e-02 2.250000e-02 8.000000e-02
      endloop
   endfacet
   facet normal 8.191519e-01 5.735766e-01 0.000000e+00
      outer loop
         vertex 3.447200e-02 2.892544e-02 0.000000e+00
         vertex 3.897114e-02 2.250000e-02 8.000000e-02
         vertex 3.897114e-02 2.250000e-02 0.000000e+00
      endloop
   endfacet
   facet normal 9.063078e-01 4.226181e-01 -0.000000e+00
      outer loop
         vertex 3.897114e-02 2.250000e-02 0.000000e+00
         vertex 3.897114e-02 2.250000e-02 8.000000e-02
         vertex 4.228617e-02 1.539091e-02 8.000000e-02
      endloop
   endfacet
   facet normal 9.063078e-01 4.226181e-01 0.000000e+00
      outer loop
         vertex 3.897114e-02 2.250000e-02 0.000000e+00
         vertex 4.228617e-02 1.539091e-02 8.000000e-02
         vertex 4.228617e-02 1.539091e-02 0.000000e+00
      endloop
   endfacet
   facet normal 9.659259e-01 2.588188e-01 -0.000000e+00
      outer loop
         vertex 4.228617e-02 1.539091e-02 0.000000e+00
         vertex 4.228617e-02 1.539091e-02 8.000000e-02
         vertex 4.431635e-02 7.814168e-03 8.000000e-02
      endloop
   endfacet
   facet normal 9.659259e-01 2.588188e-01 0.000000e+00
      outer loop
         vertex 4.228617e-02 1.539091e-02 0.000000e+00
         vertex 4.431635e-02 7.814168e-03 8.000000e-02
         vertex 4.431635e-02 7.814168e-03 0.000000e+00
      endloop
   endfacet
   facet normal 9.961947e-01 8.715612e-02 -0.000000e+00
      outer loop
         vertex 4.431635e-02 7.814168e-03 0.000000e+00
         vertex 4.431635e-02 7.814168e-03 8.000000e-02
         vertex 4.500000e-02 5.510911e-18 8.000000e-02
      endloop
   endfacet
   facet normal 9.961947e-01 8.715612e-02 0.000000e+00
      outer loop
         vertex 4.431635e-02 7.814168e-03 0.000000e+00
         vertex 4.500000e-02 5.510911e-18 8.000000e-02
         vertex 4.500000e-02 5.510911e-18 0.000000e+00
      endloop
   endfacet
   facet normal 9.961947e-01 -8.715612e-02 0.000000e+00
      outer loop
         vertex 4.500000e-02 5.510911e-18 0.000000e+00
         vertex 4.500000e-02 5.510911e-18 8.000000e-02
         vertex 4.431635e-02 -7.814168e-03 8.000000e-02
      endloop
   endfacet
   facet normal 9.961947e-01 -8.715612e-02 0.000000e+00
      outer loop
         vertex 4.500000e-02 5.510911e-18 0.000000e+00
         vertex 4.431635e-02 -7.814168e-03 8.000000e-02
         vertex 4.431635e-02 -7.814168e-03 0.000000e+00
      endloop
   endfacet
   facet normal 9.659259e-01 -2.588188e-01 0.000000e+00
      outer loop
         vertex 4.431635e-02 -7.814168e-03 0.000000e+00
         vertex 4.431635e-02 -7.814168e-03 8.000000e-02
         vertex 4.228617e-02 -1.539091e-02 8.000000e-02
      endloop
   endfacet
   facet normal 9.659259e-01 -2.588188e-01 0.000000e+00
      outer loop
         vertex 4.431635e-02 -7.814168e-03 0.000000e+00
         vertex 4.228617e-02 -1.539091e-02 8.000000e-02
         vertex 4.228617e-02 -1.539091e-02 0.000000e+00
      endloop
   endfacet
   facet normal 9.063078e-01 -4.226181e-01 0.000000e+00
      outer loop
         vertex 4.228617e-02 -1.539091e-02 0.000000e+00
         vertex 4.228617e-02 -1.539091e-02 8.000000e-02
         vertex 3.897114e-02 -2.250000e-02 8.000000e-02
      endloop
   endfacet
   facet normal 9.063078e-01 -4.226181e-01 0.000000e+00
      outer loop
         vertex 4.228617e-02 -1.539091e-02 0.000000e+00
         vertex 3.897114e-02 -2.250000e-02 8.000000e-02
         vertex 3.897114e-02 -2.250000e-02 0.000000e+00
      endloop
   endfacet
   facet normal 8.191519e-01 -5.735766e-01 0.000000e+00
      outer loop
         vertex 3.897114e-02 -2.250000e-02 0.000000e+00
         vertex 3.897114e-02 -2.250000e-02 8.000000e-02
         vertex 3.447200e-02 -2.892544e-02 8.000000e-02
      endloop
   endfacet
   facet normal 8.191519e-01 -5.735766e-01 0.000000e+00
      outer loop
         vertex 3.897114e-02 -2.250000e-02 0.000000e+00
         vertex 3.447200e-02 -2.892544e-02 8.000000e-02
         vertex 3.447200e-02 -2.892544e-02 0.000000e+00
      endloop
   endfacet
   facet normal 7.071068e-01 -7.071068e-01 0.000000e+00
      outer loop
         vertex 3.447200e-02 -2.892544e-02 0.000000e+00
         vertex 3.447200e-02 -2.892544e-02 8.000000e-02
         vertex 2.892544e-02 -3.447200e-02 8.000000e-02
      endloop
   endfacet
   facet normal 7.071068e-01 -7.071068e-01 0.000000e+00
      outer loop
         vertex 3.447200e-02 -2.892544e-02 0.000000e+00
         vertex 2.892544e-02 -3.447200e-02 8.000000e-02
         vertex 2.892544e-02 -3.447200e-02 0.000000e+00
      endloop
   endfacet
   facet normal 5.735766e-01 -8.191519e-01 0.000000e+00
      outer loop
         vertex 2.892544e-02 -3.447200e-02 0.000000e+00
         vertex 2.892544e-02 -3.447200e-02 8.000000e-02
         vertex 2.250000e-02 -3.897114e-02 8.000000e-02
      endloop
   endfacet
   facet normal 5.735766e-01 -8.191519e-01 0.000000e+00
      outer loop
         vertex 2.892544e-02 -3.447200e-02 0.000000e+00
         vertex 2.250000e-02 -3.897114e-02 8.000000e-02
         vertex 2.250000e-02 -3.897114e-02 0.000000e+00
      endloop
   endfacet
   facet normal 4.226181e-01 -9.063078e-01 0.000000e+00
      outer loop
         vertex 2.250000e-02 -3.897114e-02 0.000000e+00
         vertex 2.250000e-02 -3.897114e-02 8.000000e-02
         vertex 1.539091e-02 -4.228617e-02 8.000000e-02
      endloop
   endfacet
   facet normal 4.226181e-01 -9.063078e-01 0.000000e+00
      outer loop
         vertex 2.250000e-02 -3.897114e-02 0.000000e+00
         vertex 1.539091e-02 -4.228617e-02 8.000000e-02
         vertex 1.539091e-02 -4.228617e-02 0.000000e+00
      endloop
   endfacet
   facet normal 2.588188e-01 -9.659259e-01 0.000000e+00
      outer loop
         vertex 1.539091e-02 -4.228617e-02 0.000000e+00
         vertex 1.539091e-02 -4.228617e-02 8.000000e-02
         vertex 7.814168e-03 -4.431635e-02 8.000000e-02
      endloop
   endfacet
   facet normal 2.588188e-01 -9.659259e-01 0.000000e+00
      outer loop
         vertex 1.539091e-02 -4.228617e-02 0.000000e+00
         vertex 7.814168e-03 -4.431635e-02 8.000000e-02
         vertex 7.814168e-03 -4.431635e-02 0.000000e+00
      endloop
   endfacet
   facet normal 8.715612e-02 -9.961947e-01 0.000000e+00
      outer loop
         vertex 7.814168e-03 -4.431635e-02 0.000000e+00
         vertex 7.814168e-03 -4.431635e-02 8.000000e-02
         vertex 8.266366e-18 -4.500000e-02 8.000000e-02
      endloop
   endfacet
   facet normal 8.715612e-02 -9.961947e-01 0.000000e+00
      outer loop
         vertex 7.814168e-03 -4.431635e-02 0.000000e+00
         vertex 8.266366e-18 -4.500000e-02 8.000000e-02
         vertex 8.266366e-18 -4.500000e-02 0.000000e+00
      endloop
   endfacet
   facet normal -8.715612e-02 -9.961947e-01 0.000000e+00
      outer loop
         vertex 8.266366e-18 -4.500000e-02 0.000000e+00
         vertex 8.266366e-18 -4.500000e-02 8.000000e-02
         vertex -7.814168e-03 -4.431635e-02 8.000000e-02
      endloop
   endfacet
   facet normal -8.715612e-02 -9.961947e-01 0.000000e+00
      outer loop
         vertex 8.266366e-18 -4.500000e-02 0.000000e+00
         vertex -7.814168e-03 -4.431635e-02 8.000000e-02
         vertex -7.814168e-03 -4.431635e-02 0.000000e+00
      endloop
   endfacet
   facet normal -2.588188e-01 -9.659259e-01 0.000000e+00
      outer loop
         vertex -7.814168e-03 -4.431635e-02 0.000000e+00
         vertex -7.814168e-03 -4.431635e-02 8.000000e-02
         vertex -1.539091e-02 -4.228617e-02 8.000000e-02
      endloop
   endfacet
   facet normal -2.588188e-01 -9.659259e-01 0.000000e+00
      outer loop
         vertex -7.814168e-03 -4.431635e-02 0.000000e+00
         vertex -1.539091e-02 -4.228617e-02 8.000000e-02
         vertex -1.539091e-02 -4.228617e-02 0.000000e+00
      endloop
   endfacet
   facet normal -4.226181e-01 -9.063078e-01 0.000000e+00
      outer loop
         vertex -1.539091e-02 -4.228617e-02 0.000000e+00
         vertex -1.539091e-02 -4.228617e-02 8.000000e-02
         vertex -2.250000e-02 -3.897114e-02 8.000000e-02
      endloop
   endfacet
   facet normal -4.226181e-01 -9.063078e-01 0.000000e+00
      outer loop
         vertex -1.539091e-02 -4.228617e-02 0.000000e+00
         vertex -2.250000e-02 -3.897114e-02 8.000000e-02
         vertex -2.250000e-02 -3.897114e-02 0.000000e+00
      endloop
   endfacet
   facet normal -5.735766e-01 -8.191519e-01 0.000000e+00
      outer loop
         vertex -2.250000e-02 -3.897114e-02 0.000000e+00
         vertex -2.250000e-02 -3.897114e-02 8.000000e-02
         vertex -2.892544e-02 -3.447200e-02 8.000000e-02
      endloop
   endfacet
   facet normal -5.735766e-01 -8.191519e-01 0.000000e+00
      outer loop
         vertex -2.250000e-02 -3.897114e-02 0.000000e+00
         vertex -2.892544e-02 -3.447200e-02 8.000000e-02
         vertex -2.892544e-02 -3.447200e-02 0.000000e+00
      endloop
   endfacet
   facet normal -7.071068e-01 -7.071068e-01 0.000000e+00
      outer loop
         vertex -2.892544e-02 -3.447200e-02 0.000000e+00
         vertex -2.892544e-02 -3.447200e-02 8.000000e-02
         vertex -3.447200e-02 -2.892544e-02 8.000000e-02
      endloop
   endfacet
   facet normal -7.071068e-01 -7.071068e-01 0.000000e+00
      outer loop
         vertex -2.892544e-02 -3.447200e-02 0.000000e+00
         vertex -3.447200e-02 -2.892544e-02 8.000000e-02
         vertex -3.447200e-02 -2.892544e-02 0.000000e+00
      endloop
   endfacet
   facet normal -8.191519e-01 -5.735766e-01 0.000000e+00
      outer loop
         vertex -3.447200e-02 -2.892544e-02 0.000000e+00
         vertex -3.447200e-02 -2.892544e-02 8.000000e-02
         vertex -3.897114e-02 -2.250000e-02 8.000000e-02
      endloop
   endfacet
   facet normal -8.191519e-01 -5.735766e-01 0.000000e+00
      outer loop
         vertex -3.447200e-02 -2.892544e-02 0.000000e+00
         vertex -3.897114e-02 -2.250000e-02 8.000000e-02
         vertex -3.897114e-02 -2.250000e-02 0.000000e+00
      endloop
   endfacet
   facet normal -9.063078e-01 -4.226181e-01 0.000000e+00
      outer loop
         vertex -3.897114e-02 -2.250000e-02 0.000000e+00
         vertex -3.897114e-02 -2.250000e-02 8.000000e-02
         vertex -4.228617e-02 -1.539091e-02 8.000000e-02
      endloop
   endfacet
   facet normal -9.063078e-01 -4.226181e-01 0.000000e+00
      outer loop
         vertex -3.897114e-02 -2.250000e-02 0.000000e+00
         vertex -4.228617e-02 -1.539091e-02 8.000000e-02
         vertex -4.228617e-02 -1.539091e-02 0.000000e+00
      endloop
   endfacet
   facet normal -9.659259e-01 -2.588188e-01 0.000000e+00
      outer loop
         vertex -4.228617e-02 -1.539091e-02 0.000000e+00
         vertex -4.228617e-02 -1.539091e-02 8.000000e-02
         vertex -4.431635e-02 -7.814168e-03 8.000000e-02
      endloop
   endfacet
   facet normal -9.659259e-01 -2.588188e-01 0.000000e+00
      outer loop
         vertex -4.228617e-02 -1.539091e-02 0.000000e+00
         vertex -4.431635e-02 -7.814168e-03 8.000000e-02
         vertex -4.431635e-02 -7.814168e-03 0.000000e+00
      endloop
   endfacet
   facet normal -9.961947e-01 -8.715612e-02 0.000000e+00
      outer loop
         vertex -4.431635e-02 -7.814168e-03 0.000000e+00
         vertex -4.431635e-02 -7.814168e-03 8.000000e-02
         vertex -4.500000e-02 0.000000e+00 8.000000e-02
      endloop
   endfacet
   facet normal -9.961947e-01 -8.715612e-02 0.000000e+00
      outer loop
         vertex -4.431635e-02 -7.814168e-03 0.000000e+00
         vertex -4.500000e-02 0.000000e+00 8.000000e-02
         vertex -4.500000e-02 0.000000e+00 0.000000e+00
      endloop
   endfacet
   facet normal -9.961947e-01 8.715612e-02 0.000000e+00
      outer loop
         vertex -4.500000e-02 0.000000e+00 0.000000e+00
         vertex -4.500000e-02 0.000000e+00 8.000000e-02
         vertex -4.431635e-02 7.814168e-03 8.000000e-02
      endloop
   endfacet
   facet normal 9.957342e-01 -9.226839e-02 0.000000e+00
      outer loop
         vertex -4.000000e-02 -9.797174e-18 8.000000e-02
         vertex -4.000000e-02 -9.797174e-18 0.000000e+00
         vertex -3.931892e-02 7.349981e-03 8.000000e-02
      endloop
   endfacet
   facet normal 9.957342e-01 -9.226839e-02 0.000000e+00
      outer loop
         vertex -3.931892e-02 7.349981e-03 8.000000e-02
         vertex -4.000000e-02 -9.797174e-18 0.000000e+00
         vertex -3.931892e-02 7.349981e-03 0.000000e+00
      endloop
   endfacet
   facet normal 9.618256e-01 -2.736630e-01 0.000000e+00
      outer loop
         vertex -3.931892e-02 7.349981e-03 8.000000e-02
         vertex -3.931892e-02 7.349981e-03 0.000000e+00
         vertex -3.729889e-02 1.444967e-02 8.000000e-02
      endloop
   endfacet
   facet normal 9.618256e-01 -2.736630e-01 0.000000e+00
      outer loop
         vertex -3.729889e-02 1.444967e-02 8.000000e-02
         vertex -3.931892e-02 7.349981e-03 0.000000e+00
         vertex -3.729889e-02 1.444967e-02 0.000000e+00
      endloop
   endfacet
   facet normal 8.951634e-01 -4.457382e-01 0.000000e+00
      outer loop
         vertex -3.729889e-02 1.444967e-02 8.000000e-02
         vertex -3.729889e-02 1.444967e-02 0.000000e+00
         vertex -3.400869e-02 2.105729e-02 8.000000e-02
      endloop
   endfacet
   facet normal 8.951634e-01 -4.457382e-01 0.000000e+00
      outer loop
         vertex -3.400869e-02 2.105729e-02 8.000000e-02
         vertex -3.729889e-02 1.444967e-02 0.000000e+00
         vertex -3.400869e-02 2.105729e-02 0.000000e+00
      endloop
   endfacet
   facet normal 7.980172e-01 -6.026346e-01 0.000000e+00
      outer loop
         vertex -3.400869e-02 2.105729e-02 8.000000e-02
         vertex -3.400869e-02 2.105729e-02 0.000000e+00
         vertex -2.956036e-02 2.694783e-02 8.000000e-02
      endloop
   endfacet
   facet normal 7.980172e-01 -6.026346e-01 0.000000e+00
      outer loop
         vertex -2.956036e-02 2.694783e-02 8.000000e-02
         vertex -3.400869e-02 2.105729e-02 0.000000e+00
         vertex -2.956036e-02 2.694783e-02 0.000000e+00
      endloop
   endfacet
   facet normal 6.736956e-01 -7.390089e-01 0.000000e+00
      outer loop
         vertex -2.956036e-02 2.694783e-02 8.000000e-02
         vertex -2.956036e-02 2.694783e-02 0.000000e+00
         vertex -2.410538e-02 3.192069e-02 8.000000e-02
      endloop
   endfacet
   facet normal 6.736956e-01 -7.390089e-01 0.000000e+00
      outer loop
         vertex -2.410538e-02 3.192069e-02 8.000000e-02
         vertex -2.956036e-02 2.694783e-02 0.000000e+00
         vertex -2.410538e-02 3.192069e-02 0.000000e+00
      endloop
   endfacet
   facet normal 5.264322e-01 -8.502171e-01 0.000000e+00
      outer loop
         vertex -2.410538e-02 3.192069e-02 8.000000e-02
         vertex -2.410538e-02 3.192069e-02 0.000000e+00
         vertex -1.782953e-02 3.580653e-02 8.000000e-02
      endloop
   endfacet
   facet normal 5.264322e-01 -8.502171e-01 0.000000e+00
      outer loop
         vertex -1.782953e-02 3.580653e-02 8.000000e-02
         vertex -2.410538e-02 3.192069e-02 0.000000e+00
         vertex -1.782953e-02 3.580653e-02 0.000000e+00
      endloop
   endfacet
   facet normal 3.612415e-01 -9.324723e-01 0.000000e+00
      outer loop
         vertex -1.782953e-02 3.580653e-02 8.000000e-02
         vertex -1.782953e-02 3.580653e-02 0.000000e+00
         vertex -1.094652e-02 3.847302e-02 8.000000e-02
      endloop
   endfacet
   facet normal 3.612415e-01 -9.324723e-01 0.000000e+00
      outer loop
         vertex -1.094652e-02 3.847302e-02 8.000000e-02
         vertex -1.782953e-02 3.580653e-02 0.000000e+00
         vertex -1.094652e-02 3.847302e-02 0.000000e+00
      endloop
   endfacet
   facet normal 1.837495e-01 -9.829731e-01 0.000000e+00
      outer loop
         vertex -1.094652e-02 3.847302e-02 8.000000e-02
         vertex -1.094652e-02 3.847302e-02 0.000000e+00
         vertex -3.690734e-03 3.982937e-02 8.000000e-02
      endloop
   endfacet
   facet normal 1.837495e-01 -9.829731e-01 0.000000e+00
      outer loop
         vertex -3.690734e-03 3.982937e-02 8.000000e-02
         vertex -1.094652e-02 3.847302e-02 0.000000e+00
         vertex -3.690734e-03 3.982937e-02 0.000000e+00
      endloop
   endfacet
   facet normal 0.000000e+00 -1.000000e+00 0.000000e+00
      outer loop
         vertex -3.690734e-03 3.982937e-02 8.000000e-02
         vertex -3.690734e-03 3.982937e-02 0.000000e+00
         vertex 3.690734e-03 3.982937e-02 8.000000e-02
      endloop
   endfacet
   facet normal 0.000000e+00 -1.000000e+00 -0.000000e+00
      outer loop
         vertex 3.690734e-03 3.982937e-02 8.000000e-02
         vertex -3.690734e-03 3.982937e-02 0.000000e+00
         vertex 3.690734e-03 3.982937e-02 0.000000e+00
      endloop
   endfacet
   facet normal -1.837495e-01 -9.829731e-01 -0.000000e+00
      outer loop
         vertex 3.690734e-03 3.982937e-02 8.000000e-02
         vertex 3.690734e-03 3.982937e-02 0.000000e+00
         vertex 1.094652e-02 3.847302e-02 8.000000e-02
      endloop
   endfacet
   facet normal -1.837495e-01 -9.829731e-01 -0.000000e+00
      outer loop
         vertex 1.094652e-02 3.847302e-02 8.000000e-02
         vertex 3.690734e-03 3.982937e-02 0.000000e+00
         vertex 1.094652e-02 3.847302e-02 0.000000e+00
      endloop
   endfacet
   facet normal -3.612415e-01 -9.324723e-01 -0.000000e+00
      outer loop
         vertex 1.094652e-02 3.847302e-02 8.000000e-02
         vertex 1.094652e-02 3.847302e-02 0.000000e+00
         vertex 1.782953e-02 3.580653e-02 8.000000e-02
      endloop
   endfacet
   facet normal -3.612415e-01 -9.324723e-01 -0.000000e+00
      outer loop
         vertex 1.782953e-02 3.580653e-02 8.000000e-02
         vertex 1.094652e-02 3.847302e-02 0.000000e+00
         vertex 1.782953e-02 3.580653e-02 0.000000e+00
      endloop
   endfacet
   facet normal -5.264322e-01 -8.502171e-01 -0.000000e+00
      outer loop
         vertex 1.782953e-02 3.580653e-02 8.000000e-02
         vertex 1.782953e-02 3.580653e-02 0.000000e+00
         vertex 2.410538e-02 3.192069e-02 8.000000e-02
      endloop
   endfacet
   facet normal -5.264322e-01 -8.502171e-01 -0.000000e+00
      outer loop
         vertex 2.410538e-02 3.192069e-02 8.000000e-02
         vertex 1.782953e-02 3.580653e-02 0.000000e+00
         vertex 2.410538e-02 3.192069e-02 0.000000e+00
      endloop
   endfacet
   facet normal -6.736956e-01 -7.390089e-01 -0.000000e+00
      outer loop
         vertex 2.410538e-02 3.192069e-02 8.000000e-02
         vertex 2.410538e-02 3.192069e-02 0.000000e+00
         vertex 2.956036e-02 2.694783e-02 8.000000e-02
      endloop
   endfacet
   facet normal -6.736956e-01 -7.390089e-01 -0.000000e+00
      outer loop
         vertex 2.956036e-02 2.694783e-02 8.000000e-02
         vertex 2.410538e-02 3.192069e-02 0.000000e+00
         vertex 2.956036e-02 2.694783e-02 0.000000e+00
      endloop
   endfacet
   facet normal -7.980172e-01 -6.026346e-01 -0.000000e+00
      outer loop
         vertex 2.956036e-02 2.694783e-02 8.000000e-02
         vertex 2.956036e-02 2.694783e-02 0.000000e+00
         vertex 3.400869e-02 2.105729e-02 8.000000e-02
      endloop
   endfacet
   facet normal -7.980172e-01 -6.026346e-01 -0.000000e+00
      outer loop
         vertex 3.400869e-02 2.105729e-02 8.000000e-02
         vertex 2.956036e-02 2.694783e-02 0.000000e+00
         vertex 3.400869e-02 2.105729e-02 0.000000e+00
      endloop
   endfacet
   facet normal -8.951634e-01 -4.457382e-01 -0.000000e+00
      outer loop
         vertex 3.400869e-02 2.105729e-02 8.000000e-02
         vertex 3.400869e-02 2.105729e-02 0.000000e+00
         vertex 3.729889e-02 1.444967e-02 8.000000e-02
      endloop
   endfacet
   facet normal -8.951634e-01 -4.457382e-01 -0.000000e+00
      outer loop
         vertex 3.729889e-02 1.444967e-02 8.000000e-02
         vertex 3.400869e-02 2.105729e-02 0.000000e+00
         vertex 3.729889e-02 1.444967e-02 0.000000e+00
      endloop
   endfacet
   facet normal -9.618256e-01 -2.736630e-01 -0.000000e+00
      outer loop
         vertex 3.729889e-02 1.444967e-02 8.000000e-02
         vertex 3.729889e-02 1.444967e-02 0.000000e+00
         vertex 3.931892e-02 7.349981e-03 8.000000e-02
      endloop
   endfacet
   facet normal -9.618256e-01 -2.736630e-01 -0.000000e+00
      outer loop
         vertex 3.931892e-02 7.349981e-03 8.000000e-02
         vertex 3.729889e-02 1.444967e-02 0.000000e+00
         vertex 3.931892e-02 7.349981e-03 0.000000e+00
      endloop
   endfacet
   facet normal -9.957342e-01 -9.226839e-02 -0.000000e+00
      outer loop
         vertex 3.931892e-02 7.349981e-03 8.000000e-02
         vertex 3.931892e-02 7.349981e-03 0.000000e+00
         vertex 4.000000e-02 4.898587e-18 8.000000e-02
      endloop
   endfacet
   facet normal -9.957342e-01 -9.226839e-02 -0.000000e+00
      outer loop
         vertex 4.000000e-02 4.898587e-18 8.000000e-02
         vertex 3.931892e-02 7.349981e-03 0.000000e+00
         vertex 4.000000e-02 4.898587e-18 0.000000e+00
      endloop
   endfacet
   facet normal -9.957342e-01 9.226839e-02 0.000000e+00
      outer loop
         vertex 4.000000e-02 4.898587e-18 8.000000e-02
         vertex 4.000000e-02 4.898587e-18 0.000000e+00
         vertex 3.931892e-02 -7.349981e-03 8.000000e-02
      endloop
   endfacet
   facet normal -9.957342e-01 9.226839e-02 0.000000e+00
      outer loop
         vertex 3.931892e-02 -7.349981e-03 8.000000e-02
         vertex 4.000000e-02 4.898587e-18 0.000000e+00
         vertex 3.931892e-02 -7.349981e-03 0.000000e+00
      endloop
   endfacet
   facet normal -9.618256e-01 2.736630e-01 0.000000e+00
      outer loop
         vertex 3.931892e-02 -7.349981e-03 8.000000e-02
         vertex 3.931892e-02 -7.349981e-03 0.000000e+00
         vertex 3.729889e-02 -1.444967e-02 8.000000e-02
      endloop
   endfacet
   facet normal -9.618256e-01 2.736630e-01 0.000000e+00
      outer loop
         vertex 3.729889e-02 -1.444967e-02 8.000000e-02
         vertex 3.931892e-02 -7.349981e-03 0.000000e+00
         vertex 3.729889e-02 -1.444967e-02 0.000000e+00
      endloop
   endfacet
   facet normal -8.951634e-01 4.457382e-01 0.000000e+00
      outer loop
         vertex 3.729889e-02 -1.444967e-02 8.000000e-02
         vertex 3.729889e-02 -1.444967e-02 0.000000e+00
         vertex 3.400869e-02 -2.105729e-02 8.000000e-02
      endloop
   endfacet
   facet normal -8.951634e-01 4.457382e-01 0.000000e+00
      outer loop
         vertex 3.400869e-02 -2.105729e-02 8.000000e-02
         vertex 3.729889e-02 -1.444967e-02 0.000000e+00
         vertex 3.400869e-02 -2.105729e-02 0.000000e+00
      endloop
   endfacet
   facet normal -7.980172e-01 6.026346e-01 0.000000e+00
      outer loop
         vertex 3.400869e-02 -2.105729e-02 8.000000e-02
         vertex 3.400869e-02 -2.105729e-02 0.000000e+00
         vertex 2.956036e-02 -2.694783e-02 8.000000e-02
      endloop
   endfacet
   facet normal -7.980172e-01 6.026346e-01 0.000000e+00
      outer loop
         vertex 2.956036e-02 -2.694783e-02 8.000000e-02
         vertex 3.400869e-02 -2.105729e-02 0.000000e+00
         vertex 2.956036e-02 -2.694783e-02 0.000000e+00
      endloop
   endfacet
   facet normal -6.736956e-01 7.390089e-01 0.000000e+00
      outer loop
         vertex 2.956036e-02 -2.694783e-02 8.000000e-02
         vertex 2.956036e-02 -2.694783e-02 0.000000e+00
         vertex 2.410538e-02 -3.192069e-02 8.000000e-02
      endloop
   endfacet
   facet normal -6.736956e-01 7.390089e-01 0.000000e+00
      outer loop
         vertex 2.410538e-02 -3.192069e-02 8.000000e-02
         vertex 2.956036e-02 -2.694783e-02 0.000000e+00
         vertex 2.410538e-02 -3.192069e-02 0.000000e+00
      endloop
   endfacet
   facet normal -5.264322e-01 8.502171e-01 0.000000e+00
      outer loop
         vertex 2.410538e-02 -3.192069e-02 8.000000e-02
         vertex 2.410538e-02 -3.192069e-02 0.000000e+00
         vertex 1.782953e-02 -3.580653e-02 8.000000e-02
      endloop
   endfacet
   facet normal -5.264322e-01 8.502171e-01 0.000000e+00
      outer loop
         vertex 1.782953e-02 -3.580653e-02 8.000000e-02
         vertex 2.410538e-02 -3.192069e-02 0.000000e+00
         vertex 1.782953e-02 -3.580653e-02 0.000000e+00
      endloop
   endfacet
   facet normal -3.612415e-01 9.324723e-01 0.000000e+00
      outer loop
         vertex 1.782953e-02 -3.580653e-02 8.000000e-02
         vertex 1.782953e-02 -3.580653e-02 0.000000e+00
         vertex 1.094652e-02 -3.847302e-02 8.000000e-02
      endloop
   endfacet
   facet normal -3.612415e-01 9.324723e-01 0.000000e+00
      outer loop
         vertex 1.094652e-02 -3.847302e-02 8.000000e-02
         vertex 1.782953e-02 -3.580653e-02 0.000000e+00
         vertex 1.094652e-02 -3.847302e-02 0.000000e+00
      endloop
   endfacet
   facet normal -1.837495e-01 9.829731e-01 0.000000e+00
      outer loop
         vertex 1.094652e-02 -3.847302e-02 8.000000e-02
         vertex 1.094652e-02 -3.847302e-02 0.000000e+00
         vertex 3.690734e-03 -3.982937e-02 8.000000e-02
      endloop
   endfacet
   facet normal -1.837495e-01 9.829731e-01 0.000000e+00
      outer loop
         vertex 3.690734e-03 -3.982937e-02 8.000000e-02
         vertex 1.094652e-02 -3.847302e-02 0.000000e+00
         vertex 3.690734e-03 -3.982937e-02 0.000000e+00
      endloop
   endfacet
   facet normal 0.000000e+00 1.000000e+00 0.000000e+00
      outer loop
         vertex 3.690734e-03 -3.982937e-02 8.000000e-02
         vertex 3.690734e-03 -3.982937e-02 0.000000e+00
         vertex -3.690734e-03 -3.982937e-02 8.000000e-02
      endloop
   endfacet
   facet normal 0.000000e+00 1.000000e+00 0.000000e+00
      outer loop
         vertex -3.690734e-03 -3.982937e-02 8.000000e-02
         vertex 3.690734e-03 -3.982937e-02 0.000000e+00
         vertex -3.690734e-03 -3.982937e-02 0.000000e+00
      endloop
   endfacet
   facet normal 1.837495e-01 9.829731e-01 0.000000e+00
      outer loop
         vertex -3.690734e-03 -3.982937e-02 8.000000e-02
         vertex -3.690734e-03 -3.982937e-02 0.000000e+00
         vertex -1.094652e-02 -3.847302e-02 8.000000e-02
      endloop
   endfacet
   facet normal 1.837495e-01 9.829731e-01 0.000000e+00
      outer loop
         vertex -1.094652e-02 -3.847302e-02 8.000000e-02
         vertex -3.690734e-03 -3.982937e-02 0.000000e+00
         vertex -1.094652e-02 -3.847302e-02 0.000000e+00
      endloop
   endfacet
   facet normal 3.612415e-01 9.324723e-01 0.000000e+00
      outer loop
         vertex -1.094652e-02 -3.847302e-02 8.000000e-02
         vertex -1.094652e-02 -3.847302e-02 0.000000e+00
         vertex -1.782953e-02 -3.580653e-02 8.000000e-02
      endloop
   endfacet
   facet normal 3.612415e-01 9.324723e-01 0.000000e+00
      outer loop
         vertex -1.782953e-02 -3.580653e-02 8.000000e-02
         vertex -1.094652e-02 -3.847302e-02 0.000000e+00
         vertex -1.782953e-02 -3.580653e-02 0.000000e+00
      endloop
   endfacet
   facet normal 5.264322e-01 8.502171e-01 0.000000e+00
      outer loop
         vertex -1.782953e-02 -3.580653e-02 8.000000e-02
         vertex -1.782953e-02 -3.580653e-02 0.000000e+00
         vertex -2.410538e-02 -3.192069e-02 8.000000e-02
      endloop
   endfacet
   facet normal 5.264322e-01 8.502171e-01 0.000000e+00
      outer loop
         vertex -2.410538e-02 -3.192069e-02 8.000000e-02
         vertex -1.782953e-02 -3.580653e-02 0.000000e+00
         vertex -2.410538e-02 -3.192069e-02 0.000000e+00
      endloop
   endfacet
   facet normal 6.736956e-01 7.390089e-01 0.000000e+00
      outer loop
         vertex -2.410538e-02 -3.192069e-02 8.000000e-02
         vertex -2.410538e-02 -3.192069e-02 0.000000e+00
         vertex -2.956036e-02 -2.694783e-02 8.000000e-02
      endloop
   endfacet
   facet normal 6.736956e-01 7.390089e-01 0.000000e+00
      outer loop
         vertex -2.956036e-02 -2.694783e-02 8.000000e-02
         vertex -2.410538e-02 -3.192069e-02 0.000000e+00
         vertex -2.956036e-02 -2.694783e-02 0.000000e+00
      endloop
   endfacet
   facet normal 7.980172e-01 6.026346e-01 0.000000e+00
      outer loop
         vertex -2.956036e-02 -2.694783e-02 8.000000e-02
         vertex -2.956036e-02 -2.694783e-02 0.000000e+00
         vertex -3.400869e-02 -2.105729e-02 8.000000e-02
      endloop
   endfacet
   facet normal 7.980172e-01 6.026346e-01 0.000000e+00
      outer loop
         vertex -3.400869e-02 -2.105729e-02 8.000000e-02
         vertex -2.956036e-02 -2.694783e-02 0.000000e+00
         vertex -3.400869e-02 -2.105729e-02 0.000000e+00
      endloop
   endfacet
   facet normal 8.951634e-01 4.457382e-01 0.000000e+00
      outer loop
         vertex -3.400869e-02 -2.105729e-02 8.000000e-02
         vertex -3.400869e-02 -2.105729e-02 0.000000e+00
         vertex -3.729889e-02 -1.444967e-02 8.000000e-02
      endloop
   endfacet
   facet normal 8.951634e-01 4.457382e-01 0.000000e+00
      outer loop
         vertex -3.729889e-02 -1.444967e-02 8.000000e-02
         vertex -3.400869e-02 -2.105729e-02 0.000000e+00
         vertex -3.729889e-02 -1.444967e-02 0.000000e+00
      endloop
   endfacet
   facet normal 9.618256e-01 2.736630e-01 0.000000e+00
      outer loop
         vertex -3.729889e-02 -1.444967e-02 8.000000e-02
         vertex -3.729889e-02 -1.444967e-02 0.000000e+00
         vertex -3.931892e-02 -7.349981e-03 8.000000e-02
      endloop
   endfacet
   facet normal 9.618256e-01 2.736630e-01 0.000000e+00
      outer loop
         vertex -3.931892e-02 -7.349981e-03 8.000000e-02
         vertex -3.729889e-02 -1.444967e-02 0.000000e+00
         vertex -3.931892e-02 -7.349981e-03 0.000000e+00
      endloop
   endfacet
   facet normal 9.957342e-01 9.226839e-02 0.000000e+00
      outer loop
         vertex -3.931892e-02 -7.349981e-03 8.000000e-02
         vertex -3.931892e-02 -7.349981e-03 0.000000e+00
         vertex -4.000000e-02 -9.797174e-18 8.000000e-02
      endloop
   endfacet
   facet normal 9.957342e-01 9.226839e-02 0.000000e+00
      outer loop
         vertex -4.000000e-02 -9.797174e-18 8.000000e-02
         vertex -3.931892e-02 -7.349981e-03 0.000000e+00
         vertex -4.000000e-02 -9.797174e-18 0.000000e+00
      endloop
   endfacet
endsolid