solid OBJECT
  facet normal 0.000000e+000 0.000000e+000 -1.000000e+000
    outer loop
      vertex 0.000000e+000 -8.250001e-002 -2.500000e-002
      vertex 0.000000e+000 -5.018271e-009 -2.500000e-002
      vertex 1.333333e-001 -8.250001e-002 -2.500000e-002
    endloop
  endfacet
  facet normal 0.000000e+000 0.000000e+000 -1.000000e+000
    outer loop
      vertex 1.333333e-001 -8.250001e-002 -2.500000e-002
      vertex 4.000000e-001 -5.018271e-009 -2.500000e-002
      vertex 2.666667e-001 -8.250001e-002 -2.500000e-002
    endloop
  endfacet
  facet normal 0.000000e+000 0.000000e+000 -1.000000e+000
    outer loop
      vertex 2.666667e-001 -8.250001e-002 -2.500000e-002
      vertex 4.000000e-001 -5.018271e-009 -2.500000e-002
      vertex 4.000000e-001 -8.250001e-002 -2.500000e-002
    endloop
  endfacet
  facet normal 0.000000e+000 0.000000e+000 -1.000000e+000
    outer loop
      vertex 4.000000e-001 -5.018271e-009 -2.500000e-002
      vertex 2.666667e-001 8.249999e-002 -2.500000e-002
      vertex 4.000000e-001 8.249999e-002 -2.500000e-002
    endloop
  endfacet
  facet normal 0.000000e+000 0.000000e+000 -1.000000e+000
    outer loop
      vertex 2.666667e-001 8.249999e-002 -2.500000e-002
      vertex 0.000000e+000 -5.018271e-009 -2.500000e-002
      vertex 1.333333e-001 8.249999e-002 -2.500000e-002
    endloop
  endfacet
  facet normal 0.000000e+000 0.000000e+000 -1.000000e+000
    outer loop
      vertex 1.333333e-001 8.249999e-002 -2.500000e-002
      vertex 0.000000e+000 -5.018271e-009 -2.500000e-002
      vertex 0.000000e+000 8.249999e-002 -2.500000e-002
    endloop
  endfacet
  facet normal 0.000000e+000 0.000000e+000 -1.000000e+000
    outer loop
      vertex 0.000000e+000 -5.018271e-009 -2.500000e-002
      vertex 2.666667e-001 8.249999e-002 -2.500000e-002
      vertex 1.333333e-001 -8.250001e-002 -2.500000e-002
    endloop
  endfacet
  facet normal 0.000000e+000 0.000000e+000 -1.000000e+000
    outer loop
      vertex 1.333333e-001 -8.250001e-002 -2.500000e-002
      vertex 2.666667e-001 8.249999e-002 -2.500000e-002
      vertex 4.000000e-001 -5.018271e-009 -2.500000e-002
    endloop
  endfacet
  facet normal 0.000000e+000 0.000000e+000 1.000000e+000
    outer loop
      vertex 0.000000e+000 -8.250001e-002 2.500000e-002
      vertex 1.333333e-001 -8.250001e-002 2.500000e-002
      vertex 0.000000e+000 -5.018271e-009 2.500000e-002
    endloop
  endfacet
  facet normal 0.000000e+000 0.000000e+000 1.000000e+000
    outer loop
      vertex 1.333333e-001 -8.250001e-002 2.500000e-002
      vertex 2.666667e-001 -8.250001e-002 2.500000e-002
      vertex 4.000000e-001 -5.018271e-009 2.500000e-002
    endloop
  endfacet
  facet normal 0.000000e+000 0.000000e+000 1.000000e+000
    outer loop
      vertex 2.666667e-001 -8.250001e-002 2.500000e-002
      vertex 4.000000e-001 -8.250001e-002 2.500000e-002
      vertex 4.000000e-001 -5.018271e-009 2.500000e-002
    endloop
  endfacet
  facet normal 0.000000e+000 0.000000e+000 1.000000e+000
    outer loop
      vertex 4.000000e-001 -5.018271e-009 2.500000e-002
      vertex 4.000000e-001 8.249999e-002 2.500000e-002
      vertex 2.666667e-001 8.249999e-002 2.500000e-002
    endloop
  endfacet
  facet normal 0.000000e+000 0.000000e+000 1.000000e+000
    outer loop
      vertex 2.666667e-001 8.249999e-002 2.500000e-002
      vertex 1.333333e-001 8.249999e-002 2.500000e-002
      vertex 0.000000e+000 -5.018271e-009 2.500000e-002
    endloop
  endfacet
  facet normal 0.000000e+000 0.000000e+000 1.000000e+000
    outer loop
      vertex 1.333333e-001 8.249999e-002 2.500000e-002
      vertex 0.000000e+000 8.249999e-002 2.500000e-002
      vertex 0.000000e+000 -5.018271e-009 2.500000e-002
    endloop
  endfacet
  facet normal 0.000000e+000 0.000000e+000 1.000000e+000
    outer loop
      vertex 0.000000e+000 -5.018271e-009 2.500000e-002
      vertex 1.333333e-001 -8.250001e-002 2.500000e-002
      vertex 2.666667e-001 8.249999e-002 2.500000e-002
    endloop
  endfacet
  facet normal 0.000000e+000 0.000000e+000 1.000000e+000
    outer loop
      vertex 1.333333e-001 -8.250001e-002 2.500000e-002
      vertex 4.000000e-001 -5.018271e-009 2.500000e-002
      vertex 2.666667e-001 8.249999e-002 2.500000e-002
    endloop
  endfacet
  facet normal 0.000000e+000 -1.000000e+000 0.000000e+000
    outer loop
      vertex 0.000000e+000 -8.250001e-002 -2.500000e-002
      vertex 1.333333e-001 -8.250001e-002 -2.500000e-002
      vertex 1.333333e-001 -8.250001e-002 2.500000e-002
    endloop
  endfacet
  facet normal 0.000000e+000 -1.000000e+000 0.000000e+000
    outer loop
      vertex 1.333333e-001 -8.250001e-002 -2.500000e-002
      vertex 2.666667e-001 -8.250001e-002 -2.500000e-002
      vertex 2.666667e-001 -8.250001e-002 2.500000e-002
    endloop
  endfacet
  facet normal 0.000000e+000 -1.000000e+000 0.000000e+000
    outer loop
      vertex 2.666667e-001 -8.250001e-002 -2.500000e-002
      vertex 4.000000e-001 -8.250001e-002 -2.500000e-002
      vertex 4.000000e-001 -8.250001e-002 2.500000e-002
    endloop
  endfacet
  facet normal 0.000000e+000 -1.000000e+000 0.000000e+000
    outer loop
      vertex 4.000000e-001 -8.250001e-002 2.500000e-002
      vertex 2.666667e-001 -8.250001e-002 2.500000e-002
      vertex 2.666667e-001 -8.250001e-002 -2.500000e-002
    endloop
  endfacet
  facet normal 0.000000e+000 -1.000000e+000 0.000000e+000
    outer loop
      vertex 2.666667e-001 -8.250001e-002 2.500000e-002
      vertex 1.333333e-001 -8.250001e-002 2.500000e-002
      vertex 1.333333e-001 -8.250001e-002 -2.500000e-002
    endloop
  endfacet
  facet normal 0.000000e+000 -1.000000e+000 0.000000e+000
    outer loop
      vertex 1.333333e-001 -8.250001e-002 2.500000e-002
      vertex 0.000000e+000 -8.250001e-002 2.500000e-002
      vertex 0.000000e+000 -8.250001e-002 -2.500000e-002
    endloop
  endfacet
  facet normal 1.000000e+000 0.000000e+000 0.000000e+000
    outer loop
      vertex 4.000000e-001 -8.250001e-002 -2.500000e-002
      vertex 4.000000e-001 -5.018271e-009 -2.500000e-002
      vertex 4.000000e-001 -5.018271e-009 2.500000e-002
    endloop
  endfacet
  facet normal 1.000000e+000 0.000000e+000 0.000000e+000
    outer loop
      vertex 4.000000e-001 -5.018271e-009 -2.500000e-002
      vertex 4.000000e-001 8.249999e-002 -2.500000e-002
      vertex 4.000000e-001 8.249999e-002 2.500000e-002
    endloop
  endfacet
  facet normal 1.000000e+000 0.000000e+000 0.000000e+000
    outer loop
      vertex 4.000000e-001 8.249999e-002 2.500000e-002
      vertex 4.000000e-001 -5.018271e-009 2.500000e-002
      vertex 4.000000e-001 -5.018271e-009 -2.500000e-002
    endloop
  endfacet
  facet normal 1.000000e+000 0.000000e+000 0.000000e+000
    outer loop
      vertex 4.000000e-001 -5.018271e-009 2.500000e-002
      vertex 4.000000e-001 -8.250001e-002 2.500000e-002
      vertex 4.000000e-001 -8.250001e-002 -2.500000e-002
    endloop
  endfacet
  facet normal 0.000000e+000 1.000000e+000 0.000000e+000
    outer loop
      vertex 4.000000e-001 8.249999e-002 -2.500000e-002
      vertex 2.666667e-001 8.249999e-002 -2.500000e-002
      vertex 2.666667e-001 8.249999e-002 2.500000e-002
    endloop
  endfacet
  facet normal 0.000000e+000 1.000000e+000 0.000000e+000
    outer loop
      vertex 2.666667e-001 8.249999e-002 -2.500000e-002
      vertex 1.333333e-001 8.249999e-002 -2.500000e-002
      vertex 1.333333e-001 8.249999e-002 2.500000e-002
    endloop
  endfacet
  facet normal 0.000000e+000 1.000000e+000 0.000000e+000
    outer loop
      vertex 1.333333e-001 8.249999e-002 -2.500000e-002
      vertex 0.000000e+000 8.249999e-002 -2.500000e-002
      vertex 0.000000e+000 8.249999e-002 2.500000e-002
    endloop
  endfacet
  facet normal 0.000000e+000 1.000000e+000 0.000000e+000
    outer loop
      vertex 0.000000e+000 8.249999e-002 2.500000e-002
      vertex 1.333333e-001 8.249999e-002 2.500000e-002
      vertex 1.333333e-001 8.249999e-002 -2.500000e-002
    endloop
  endfacet
  facet normal 0.000000e+000 1.000000e+000 0.000000e+000
    outer loop
      vertex 1.333333e-001 8.249999e-002 2.500000e-002
      vertex 2.666667e-001 8.249999e-002 2.500000e-002
      vertex 2.666667e-001 8.249999e-002 -2.500000e-002
    endloop
  endfacet
  facet normal 0.000000e+000 1.000000e+000 0.000000e+000
    outer loop
      vertex 2.666667e-001 8.249999e-002 2.500000e-002
      vertex 4.000000e-001 8.249999e-002 2.500000e-002
      vertex 4.000000e-001 8.249999e-002 -2.500000e-002
    endloop
  endfacet
  facet normal -1.000000e+000 0.000000e+000 0.000000e+000
    outer loop
      vertex 0.000000e+000 8.249999e-002 -2.500000e-002
      vertex 0.000000e+000 -5.018271e-009 -2.500000e-002
      vertex 0.000000e+000 -5.018271e-009 2.500000e-002
    endloop
  endfacet
  facet normal -1.000000e+000 0.000000e+000 0.000000e+000
    outer loop
      vertex 0.000000e+000 -5.018271e-009 -2.500000e-002
      vertex 0.000000e+000 -8.250001e-002 -2.500000e-002
      vertex 0.000000e+000 -8.250001e-002 2.500000e-002
    endloop
  endfacet
  facet normal -1.000000e+000 0.000000e+000 0.000000e+000
    outer loop
      vertex 0.000000e+000 -8.250001e-002 2.500000e-002
      vertex 0.000000e+000 -5.018271e-009 2.500000e-002
      vertex 0.000000e+000 -5.018271e-009 -2.500000e-002
    endloop
  endfacet
  facet normal -1.000000e+000 0.000000e+000 0.000000e+000
    outer loop
      vertex 0.000000e+000 -5.018271e-009 2.500000e-002
      vertex 0.000000e+000 8.249999e-002 2.500000e-002
      vertex 0.000000e+000 8.249999e-002 -2.500000e-002
    endloop
  endfacet
endsolid OBJECT
