solid OBJECT
  facet normal 0.000000e+000 0.000000e+000 -1.000000e+000
    outer loop
      vertex -2.000000e-001 -2.358521e-002 -1.994855e-001
      vertex -2.000000e-001 2.641479e-002 -1.994855e-001
      vertex -6.666667e-002 -2.358521e-002 -1.994855e-001
    endloop
  endfacet
  facet normal 0.000000e+000 0.000000e+000 -1.000000e+000
    outer loop
      vertex -6.666667e-002 -2.358521e-002 -1.994855e-001
      vertex -6.666667e-002 2.641479e-002 -1.994855e-001
      vertex 6.666667e-002 -2.358521e-002 -1.994855e-001
    endloop
  endfacet
  facet normal 0.000000e+000 0.000000e+000 -1.000000e+000
    outer loop
      vertex 6.666667e-002 -2.358521e-002 -1.994855e-001
      vertex 6.666667e-002 2.641479e-002 -1.994855e-001
      vertex 2.000000e-001 -2.358521e-002 -1.994855e-001
    endloop
  endfacet
  facet normal 0.000000e+000 0.000000e+000 -1.000000e+000
    outer loop
      vertex 2.000000e-001 -2.358521e-002 -1.994855e-001
      vertex 6.666667e-002 2.641479e-002 -1.994855e-001
      vertex 2.000000e-001 2.641479e-002 -1.994855e-001
    endloop
  endfacet
  facet normal 0.000000e+000 0.000000e+000 -1.000000e+000
    outer loop
      vertex 6.666667e-002 2.641479e-002 -1.994855e-001
      vertex 6.666667e-002 -2.358521e-002 -1.994855e-001
      vertex -6.666667e-002 2.641479e-002 -1.994855e-001
    endloop
  endfacet
  facet normal 0.000000e+000 0.000000e+000 -1.000000e+000
    outer loop
      vertex -6.666667e-002 2.641479e-002 -1.994855e-001
      vertex -6.666667e-002 -2.358521e-002 -1.994855e-001
      vertex -2.000000e-001 2.641479e-002 -1.994855e-001
    endloop
  endfacet
  facet normal -2.081668e-016 0.000000e+000 1.000000e+000
    outer loop
      vertex -2.000000e-001 -2.358521e-002 2.005145e-001
      vertex -6.666667e-002 -2.358521e-002 2.005145e-001
      vertex -2.000000e-001 2.641479e-002 2.005145e-001
    endloop
  endfacet
  facet normal 2.081668e-016 5.551115e-016 1.000000e+000
    outer loop
      vertex -6.666667e-002 -2.358521e-002 2.005145e-001
      vertex 6.666667e-002 -2.358521e-002 2.005145e-001
      vertex -6.666667e-002 2.641479e-002 2.005145e-001
    endloop
  endfacet
  facet normal -1.444447e-032 -5.551115e-016 1.000000e+000
    outer loop
      vertex 6.666667e-002 -2.358521e-002 2.005145e-001
      vertex 2.000000e-001 -2.358521e-002 2.005145e-001
      vertex 6.666667e-002 2.641479e-002 2.005145e-001
    endloop
  endfacet
  facet normal 2.081668e-016 0.000000e+000 1.000000e+000
    outer loop
      vertex 2.000000e-001 -2.358521e-002 2.005145e-001
      vertex 2.000000e-001 2.641479e-002 2.005145e-001
      vertex 6.666667e-002 2.641479e-002 2.005145e-001
    endloop
  endfacet
  facet normal -2.081668e-016 -5.551115e-016 1.000000e+000
    outer loop
      vertex 6.666667e-002 2.641479e-002 2.005145e-001
      vertex -6.666667e-002 2.641479e-002 2.005145e-001
      vertex 6.666667e-002 -2.358521e-002 2.005145e-001
    endloop
  endfacet
  facet normal -1.444447e-032 5.551115e-016 1.000000e+000
    outer loop
      vertex -6.666667e-002 2.641479e-002 2.005145e-001
      vertex -2.000000e-001 2.641479e-002 2.005145e-001
      vertex -6.666667e-002 -2.358521e-002 2.005145e-001
    endloop
  endfacet
  facet normal 0.000000e+000 -1.000000e+000 0.000000e+000
    outer loop
      vertex -2.000000e-001 -2.358521e-002 -1.994855e-001
      vertex -6.666667e-002 -2.358521e-002 -1.994855e-001
      vertex -2.000000e-001 -2.358521e-002 -6.615220e-002
    endloop
  endfacet
  facet normal 2.602085e-017 -1.000000e+000 -5.204170e-017
    outer loop
      vertex -6.666667e-002 -2.358521e-002 -1.994855e-001
      vertex 6.666667e-002 -2.358521e-002 -1.994855e-001
      vertex 2.000000e-001 -2.358521e-002 -6.615220e-002
    endloop
  endfacet
  facet normal -2.602085e-017 -1.000000e+000 0.000000e+000
    outer loop
      vertex 6.666667e-002 -2.358521e-002 -1.994855e-001
      vertex 2.000000e-001 -2.358521e-002 -1.994855e-001
      vertex 2.000000e-001 -2.358521e-002 -6.615220e-002
    endloop
  endfacet
  facet normal -2.602085e-017 -1.000000e+000 -2.602085e-017
    outer loop
      vertex 2.000000e-001 -2.358521e-002 2.005145e-001
      vertex 6.666667e-002 -2.358521e-002 2.005145e-001
      vertex 2.000000e-001 -2.358521e-002 6.718114e-002
    endloop
  endfacet
  facet normal 2.602085e-017 -1.000000e+000 -5.204170e-017
    outer loop
      vertex 6.666667e-002 -2.358521e-002 2.005145e-001
      vertex -6.666667e-002 -2.358521e-002 2.005145e-001
      vertex -2.000000e-001 -2.358521e-002 6.718114e-002
    endloop
  endfacet
  facet normal 0.000000e+000 -1.000000e+000 -2.602085e-017
    outer loop
      vertex -6.666667e-002 -2.358521e-002 2.005145e-001
      vertex -2.000000e-001 -2.358521e-002 2.005145e-001
      vertex -2.000000e-001 -2.358521e-002 6.718114e-002
    endloop
  endfacet
  facet normal 2.602085e-017 -1.000000e+000 2.602085e-017
    outer loop
      vertex 2.000000e-001 -2.358521e-002 -6.615220e-002
      vertex 2.000000e-001 -2.358521e-002 6.718114e-002
      vertex 6.666667e-002 -2.358521e-002 2.005145e-001
    endloop
  endfacet
  facet normal 2.602085e-017 -1.000000e+000 2.602085e-017
    outer loop
      vertex -2.000000e-001 -2.358521e-002 6.718114e-002
      vertex -2.000000e-001 -2.358521e-002 -6.615220e-002
      vertex -6.666667e-002 -2.358521e-002 -1.994855e-001
    endloop
  endfacet
  facet normal -5.204170e-018 -1.000000e+000 1.040834e-017
    outer loop
      vertex -6.666667e-002 -2.358521e-002 -1.994855e-001
      vertex 2.000000e-001 -2.358521e-002 -6.615220e-002
      vertex -2.000000e-001 -2.358521e-002 6.718114e-002
    endloop
  endfacet
  facet normal -5.204170e-018 -1.000000e+000 1.040834e-017
    outer loop
      vertex 6.666667e-002 -2.358521e-002 2.005145e-001
      vertex -2.000000e-001 -2.358521e-002 6.718114e-002
      vertex 2.000000e-001 -2.358521e-002 -6.615220e-002
    endloop
  endfacet
  facet normal 1.000000e+000 0.000000e+000 0.000000e+000
    outer loop
      vertex 2.000000e-001 -2.358521e-002 -1.994855e-001
      vertex 2.000000e-001 2.641479e-002 -1.994855e-001
      vertex 2.000000e-001 2.641479e-002 -6.615220e-002
    endloop
  endfacet
  facet normal 1.000000e+000 0.000000e+000 0.000000e+000
    outer loop
      vertex 2.000000e-001 2.641479e-002 2.005145e-001
      vertex 2.000000e-001 -2.358521e-002 2.005145e-001
      vertex 2.000000e-001 2.641479e-002 6.718114e-002
    endloop
  endfacet
  facet normal 1.000000e+000 0.000000e+000 0.000000e+000
    outer loop
      vertex 2.000000e-001 -2.358521e-002 2.005145e-001
      vertex 2.000000e-001 -2.358521e-002 6.718114e-002
      vertex 2.000000e-001 2.641479e-002 6.718114e-002
    endloop
  endfacet
  facet normal 1.000000e+000 0.000000e+000 0.000000e+000
    outer loop
      vertex 2.000000e-001 -2.358521e-002 6.718114e-002
      vertex 2.000000e-001 -2.358521e-002 -6.615220e-002
      vertex 2.000000e-001 2.641479e-002 -6.615220e-002
    endloop
  endfacet
  facet normal 1.000000e+000 0.000000e+000 0.000000e+000
    outer loop
      vertex 2.000000e-001 -2.358521e-002 -6.615220e-002
      vertex 2.000000e-001 -2.358521e-002 -1.994855e-001
      vertex 2.000000e-001 2.641479e-002 -6.615220e-002
    endloop
  endfacet
  facet normal 1.000000e+000 0.000000e+000 0.000000e+000
    outer loop
      vertex 2.000000e-001 2.641479e-002 -6.615220e-002
      vertex 2.000000e-001 2.641479e-002 6.718114e-002
      vertex 2.000000e-001 -2.358521e-002 6.718114e-002
    endloop
  endfacet
  facet normal 2.602085e-017 1.000000e+000 -2.602085e-017
    outer loop
      vertex 2.000000e-001 2.641479e-002 -1.994855e-001
      vertex 6.666667e-002 2.641479e-002 -1.994855e-001
      vertex 2.000000e-001 2.641479e-002 -6.615220e-002
    endloop
  endfacet
  facet normal 0.000000e+000 1.000000e+000 0.000000e+000
    outer loop
      vertex 6.666667e-002 2.641479e-002 -1.994855e-001
      vertex -6.666667e-002 2.641479e-002 -1.994855e-001
      vertex -2.000000e-001 2.641479e-002 -6.615220e-002
    endloop
  endfacet
  facet normal -2.602085e-017 1.000000e+000 -2.602085e-017
    outer loop
      vertex -6.666667e-002 2.641479e-002 -1.994855e-001
      vertex -2.000000e-001 2.641479e-002 -1.994855e-001
      vertex -2.000000e-001 2.641479e-002 -6.615220e-002
    endloop
  endfacet
  facet normal -2.602085e-017 1.000000e+000 2.602085e-017
    outer loop
      vertex -2.000000e-001 2.641479e-002 2.005145e-001
      vertex -6.666667e-002 2.641479e-002 2.005145e-001
      vertex -2.000000e-001 2.641479e-002 6.718114e-002
    endloop
  endfacet
  facet normal 0.000000e+000 1.000000e+000 0.000000e+000
    outer loop
      vertex -6.666667e-002 2.641479e-002 2.005145e-001
      vertex 6.666667e-002 2.641479e-002 2.005145e-001
      vertex 2.000000e-001 2.641479e-002 6.718114e-002
    endloop
  endfacet
  facet normal 2.602085e-017 1.000000e+000 2.602085e-017
    outer loop
      vertex 6.666667e-002 2.641479e-002 2.005145e-001
      vertex 2.000000e-001 2.641479e-002 2.005145e-001
      vertex 2.000000e-001 2.641479e-002 6.718114e-002
    endloop
  endfacet
  facet normal 0.000000e+000 1.000000e+000 0.000000e+000
    outer loop
      vertex 2.000000e-001 2.641479e-002 6.718114e-002
      vertex 2.000000e-001 2.641479e-002 -6.615220e-002
      vertex 6.666667e-002 2.641479e-002 -1.994855e-001
    endloop
  endfacet
  facet normal 0.000000e+000 1.000000e+000 0.000000e+000
    outer loop
      vertex -2.000000e-001 2.641479e-002 -6.615220e-002
      vertex -2.000000e-001 2.641479e-002 6.718114e-002
      vertex -6.666667e-002 2.641479e-002 2.005145e-001
    endloop
  endfacet
  facet normal 0.000000e+000 1.000000e+000 0.000000e+000
    outer loop
      vertex 6.666667e-002 2.641479e-002 -1.994855e-001
      vertex -2.000000e-001 2.641479e-002 -6.615220e-002
      vertex 2.000000e-001 2.641479e-002 6.718114e-002
    endloop
  endfacet
  facet normal 0.000000e+000 1.000000e+000 0.000000e+000
    outer loop
      vertex -6.666667e-002 2.641479e-002 2.005145e-001
      vertex 2.000000e-001 2.641479e-002 6.718114e-002
      vertex -2.000000e-001 2.641479e-002 -6.615220e-002
    endloop
  endfacet
  facet normal -1.000000e+000 0.000000e+000 0.000000e+000
    outer loop
      vertex -2.000000e-001 2.641479e-002 -1.994855e-001
      vertex -2.000000e-001 -2.358521e-002 -1.994855e-001
      vertex -2.000000e-001 -2.358521e-002 -6.615220e-002
    endloop
  endfacet
  facet normal -1.000000e+000 0.000000e+000 0.000000e+000
    outer loop
      vertex -2.000000e-001 -2.358521e-002 2.005145e-001
      vertex -2.000000e-001 2.641479e-002 2.005145e-001
      vertex -2.000000e-001 -2.358521e-002 6.718114e-002
    endloop
  endfacet
  facet normal -1.000000e+000 0.000000e+000 0.000000e+000
    outer loop
      vertex -2.000000e-001 2.641479e-002 2.005145e-001
      vertex -2.000000e-001 2.641479e-002 6.718114e-002
      vertex -2.000000e-001 -2.358521e-002 6.718114e-002
    endloop
  endfacet
  facet normal -1.000000e+000 0.000000e+000 0.000000e+000
    outer loop
      vertex -2.000000e-001 2.641479e-002 6.718114e-002
      vertex -2.000000e-001 2.641479e-002 -6.615220e-002
      vertex -2.000000e-001 -2.358521e-002 -6.615220e-002
    endloop
  endfacet
  facet normal -1.000000e+000 0.000000e+000 0.000000e+000
    outer loop
      vertex -2.000000e-001 2.641479e-002 -6.615220e-002
      vertex -2.000000e-001 2.641479e-002 -1.994855e-001
      vertex -2.000000e-001 -2.358521e-002 -6.615220e-002
    endloop
  endfacet
  facet normal -1.000000e+000 0.000000e+000 0.000000e+000
    outer loop
      vertex -2.000000e-001 -2.358521e-002 -6.615220e-002
      vertex -2.000000e-001 -2.358521e-002 6.718114e-002
      vertex -2.000000e-001 2.641479e-002 6.718114e-002
    endloop
  endfacet
endsolid OBJECT
