solid OBJECT
  facet normal 0.000000e+000 0.000000e+000 -1.000000e+000
    outer loop
      vertex -2.473718e-002 -2.992910e-001 -2.037299e-001
      vertex 2.526282e-002 -1.492910e-001 -2.037299e-001
      vertex 2.526282e-002 -2.992910e-001 -2.037299e-001
    endloop
  endfacet
  facet normal 0.000000e+000 0.000000e+000 -1.000000e+000
    outer loop
      vertex 2.526282e-002 -1.492910e-001 -2.037299e-001
      vertex -2.473718e-002 -1.492910e-001 -2.037299e-001
      vertex 2.526282e-002 7.090021e-004 -2.037299e-001
    endloop
  endfacet
  facet normal 0.000000e+000 0.000000e+000 -1.000000e+000
    outer loop
      vertex 2.526282e-002 7.090021e-004 -2.037299e-001
      vertex -2.473718e-002 1.507090e-001 -2.037299e-001
      vertex 2.526282e-002 1.507090e-001 -2.037299e-001
    endloop
  endfacet
  facet normal 0.000000e+000 0.000000e+000 -1.000000e+000
    outer loop
      vertex 2.526282e-002 1.507090e-001 -2.037299e-001
      vertex -2.473718e-002 1.507090e-001 -2.037299e-001
      vertex 2.526282e-002 3.007090e-001 -2.037299e-001
    endloop
  endfacet
  facet normal 0.000000e+000 0.000000e+000 -1.000000e+000
    outer loop
      vertex 2.526282e-002 3.007090e-001 -2.037299e-001
      vertex -2.473718e-002 1.507090e-001 -2.037299e-001
      vertex -2.473718e-002 3.007090e-001 -2.037299e-001
    endloop
  endfacet
  facet normal 0.000000e+000 0.000000e+000 -1.000000e+000
    outer loop
      vertex -2.473718e-002 1.507090e-001 -2.037299e-001
      vertex 2.526282e-002 7.090021e-004 -2.037299e-001
      vertex -2.473718e-002 7.090021e-004 -2.037299e-001
    endloop
  endfacet
  facet normal 0.000000e+000 0.000000e+000 -1.000000e+000
    outer loop
      vertex -2.473718e-002 7.090021e-004 -2.037299e-001
      vertex 2.526282e-002 7.090021e-004 -2.037299e-001
      vertex -2.473718e-002 -1.492910e-001 -2.037299e-001
    endloop
  endfacet
  facet normal 0.000000e+000 0.000000e+000 -1.000000e+000
    outer loop
      vertex -2.473718e-002 -1.492910e-001 -2.037299e-001
      vertex 2.526282e-002 -1.492910e-001 -2.037299e-001
      vertex -2.473718e-002 -2.992910e-001 -2.037299e-001
    endloop
  endfacet
  facet normal 0.000000e+000 0.000000e+000 1.000000e+000
    outer loop
      vertex -2.473718e-002 -2.992910e-001 1.962701e-001
      vertex 2.526282e-002 -2.992910e-001 1.962701e-001
      vertex 2.526282e-002 -1.492910e-001 1.962701e-001
    endloop
  endfacet
  facet normal 0.000000e+000 0.000000e+000 1.000000e+000
    outer loop
      vertex 2.526282e-002 -1.492910e-001 1.962701e-001
      vertex 2.526282e-002 7.090021e-004 1.962701e-001
      vertex -2.473718e-002 -1.492910e-001 1.962701e-001
    endloop
  endfacet
  facet normal 0.000000e+000 0.000000e+000 1.000000e+000
    outer loop
      vertex 2.526282e-002 7.090021e-004 1.962701e-001
      vertex 2.526282e-002 1.507090e-001 1.962701e-001
      vertex -2.473718e-002 1.507090e-001 1.962701e-001
    endloop
  endfacet
  facet normal 0.000000e+000 0.000000e+000 1.000000e+000
    outer loop
      vertex 2.526282e-002 1.507090e-001 1.962701e-001
      vertex 2.526282e-002 3.007090e-001 1.962701e-001
      vertex -2.473718e-002 1.507090e-001 1.962701e-001
    endloop
  endfacet
  facet normal 0.000000e+000 0.000000e+000 1.000000e+000
    outer loop
      vertex 2.526282e-002 3.007090e-001 1.962701e-001
      vertex -2.473718e-002 3.007090e-001 1.962701e-001
      vertex -2.473718e-002 1.507090e-001 1.962701e-001
    endloop
  endfacet
  facet normal 0.000000e+000 0.000000e+000 1.000000e+000
    outer loop
      vertex -2.473718e-002 1.507090e-001 1.962701e-001
      vertex -2.473718e-002 7.090021e-004 1.962701e-001
      vertex 2.526282e-002 7.090021e-004 1.962701e-001
    endloop
  endfacet
  facet normal 0.000000e+000 0.000000e+000 1.000000e+000
    outer loop
      vertex -2.473718e-002 7.090021e-004 1.962701e-001
      vertex -2.473718e-002 -1.492910e-001 1.962701e-001
      vertex 2.526282e-002 7.090021e-004 1.962701e-001
    endloop
  endfacet
  facet normal 0.000000e+000 0.000000e+000 1.000000e+000
    outer loop
      vertex -2.473718e-002 -1.492910e-001 1.962701e-001
      vertex -2.473718e-002 -2.992910e-001 1.962701e-001
      vertex 2.526282e-002 -1.492910e-001 1.962701e-001
    endloop
  endfacet
  facet normal 0.000000e+000 -1.000000e+000 0.000000e+000
    outer loop
      vertex -2.473718e-002 -2.992910e-001 -2.037299e-001
      vertex 2.526282e-002 -2.992910e-001 -2.037299e-001
      vertex 2.526282e-002 -2.992910e-001 -7.039657e-002
    endloop
  endfacet
  facet normal 0.000000e+000 -1.000000e+000 0.000000e+000
    outer loop
      vertex 2.526282e-002 -2.992910e-001 1.962701e-001
      vertex -2.473718e-002 -2.992910e-001 1.962701e-001
      vertex 2.526282e-002 -2.992910e-001 6.293676e-002
    endloop
  endfacet
  facet normal 0.000000e+000 -1.000000e+000 0.000000e+000
    outer loop
      vertex 2.526282e-002 -2.992910e-001 -7.039657e-002
      vertex 2.526282e-002 -2.992910e-001 6.293676e-002
      vertex -2.473718e-002 -2.992910e-001 6.293676e-002
    endloop
  endfacet
  facet normal 0.000000e+000 -1.000000e+000 0.000000e+000
    outer loop
      vertex -2.473718e-002 -2.992910e-001 1.962701e-001
      vertex -2.473718e-002 -2.992910e-001 6.293676e-002
      vertex 2.526282e-002 -2.992910e-001 6.293676e-002
    endloop
  endfacet
  facet normal 0.000000e+000 -1.000000e+000 0.000000e+000
    outer loop
      vertex -2.473718e-002 -2.992910e-001 6.293676e-002
      vertex -2.473718e-002 -2.992910e-001 -7.039657e-002
      vertex 2.526282e-002 -2.992910e-001 -7.039657e-002
    endloop
  endfacet
  facet normal 0.000000e+000 -1.000000e+000 0.000000e+000
    outer loop
      vertex -2.473718e-002 -2.992910e-001 -7.039657e-002
      vertex -2.473718e-002 -2.992910e-001 -2.037299e-001
      vertex 2.526282e-002 -2.992910e-001 -7.039657e-002
    endloop
  endfacet
  facet normal 1.000000e+000 0.000000e+000 -2.602085e-017
    outer loop
      vertex 2.526282e-002 -2.992910e-001 -2.037299e-001
      vertex 2.526282e-002 -1.492910e-001 -2.037299e-001
      vertex 2.526282e-002 -2.992910e-001 -7.039657e-002
    endloop
  endfacet
  facet normal 1.000000e+000 0.000000e+000 -2.602085e-017
    outer loop
      vertex 2.526282e-002 -1.492910e-001 -2.037299e-001
      vertex 2.526282e-002 7.090021e-004 -2.037299e-001
      vertex 2.526282e-002 -2.992910e-001 -7.039657e-002
    endloop
  endfacet
  facet normal 1.000000e+000 0.000000e+000 -2.602085e-017
    outer loop
      vertex 2.526282e-002 7.090021e-004 -2.037299e-001
      vertex 2.526282e-002 1.507090e-001 -2.037299e-001
      vertex 2.526282e-002 3.007090e-001 -7.039657e-002
    endloop
  endfacet
  facet normal 1.000000e+000 0.000000e+000 -2.602085e-017
    outer loop
      vertex 2.526282e-002 1.507090e-001 -2.037299e-001
      vertex 2.526282e-002 3.007090e-001 -2.037299e-001
      vertex 2.526282e-002 3.007090e-001 -7.039657e-002
    endloop
  endfacet
  facet normal 1.000000e+000 0.000000e+000 0.000000e+000
    outer loop
      vertex 2.526282e-002 3.007090e-001 1.962701e-001
      vertex 2.526282e-002 1.507090e-001 1.962701e-001
      vertex 2.526282e-002 3.007090e-001 6.293676e-002
    endloop
  endfacet
  facet normal 1.000000e+000 0.000000e+000 0.000000e+000
    outer loop
      vertex 2.526282e-002 1.507090e-001 1.962701e-001
      vertex 2.526282e-002 7.090021e-004 1.962701e-001
      vertex 2.526282e-002 3.007090e-001 6.293676e-002
    endloop
  endfacet
  facet normal 1.000000e+000 0.000000e+000 0.000000e+000
    outer loop
      vertex 2.526282e-002 7.090021e-004 1.962701e-001
      vertex 2.526282e-002 -1.492910e-001 1.962701e-001
      vertex 2.526282e-002 -2.992910e-001 6.293676e-002
    endloop
  endfacet
  facet normal 1.000000e+000 0.000000e+000 0.000000e+000
    outer loop
      vertex 2.526282e-002 -1.492910e-001 1.962701e-001
      vertex 2.526282e-002 -2.992910e-001 1.962701e-001
      vertex 2.526282e-002 -2.992910e-001 6.293676e-002
    endloop
  endfacet
  facet normal 1.000000e+000 -1.156482e-017 2.602085e-017
    outer loop
      vertex 2.526282e-002 -2.992910e-001 6.293676e-002
      vertex 2.526282e-002 -2.992910e-001 -7.039657e-002
      vertex 2.526282e-002 7.090021e-004 1.962701e-001
    endloop
  endfacet
  facet normal 1.000000e+000 1.156482e-017 2.602085e-017
    outer loop
      vertex 2.526282e-002 3.007090e-001 -7.039657e-002
      vertex 2.526282e-002 3.007090e-001 6.293676e-002
      vertex 2.526282e-002 7.090021e-004 1.962701e-001
    endloop
  endfacet
  facet normal 1.000000e+000 1.156482e-017 0.000000e+000
    outer loop
      vertex 2.526282e-002 -2.992910e-001 -7.039657e-002
      vertex 2.526282e-002 7.090021e-004 -2.037299e-001
      vertex 2.526282e-002 7.090021e-004 1.962701e-001
    endloop
  endfacet
  facet normal 1.000000e+000 -1.156482e-017 0.000000e+000
    outer loop
      vertex 2.526282e-002 7.090021e-004 -2.037299e-001
      vertex 2.526282e-002 3.007090e-001 -7.039657e-002
      vertex 2.526282e-002 7.090021e-004 1.962701e-001
    endloop
  endfacet
  facet normal 0.000000e+000 1.000000e+000 0.000000e+000
    outer loop
      vertex 2.526282e-002 3.007090e-001 -2.037299e-001
      vertex -2.473718e-002 3.007090e-001 -2.037299e-001
      vertex -2.473718e-002 3.007090e-001 -7.039657e-002
    endloop
  endfacet
  facet normal 0.000000e+000 1.000000e+000 0.000000e+000
    outer loop
      vertex -2.473718e-002 3.007090e-001 1.962701e-001
      vertex 2.526282e-002 3.007090e-001 1.962701e-001
      vertex -2.473718e-002 3.007090e-001 6.293676e-002
    endloop
  endfacet
  facet normal 0.000000e+000 1.000000e+000 0.000000e+000
    outer loop
      vertex 2.526282e-002 3.007090e-001 1.962701e-001
      vertex 2.526282e-002 3.007090e-001 6.293676e-002
      vertex -2.473718e-002 3.007090e-001 6.293676e-002
    endloop
  endfacet
  facet normal 0.000000e+000 1.000000e+000 0.000000e+000
    outer loop
      vertex 2.526282e-002 3.007090e-001 6.293676e-002
      vertex 2.526282e-002 3.007090e-001 -7.039657e-002
      vertex -2.473718e-002 3.007090e-001 -7.039657e-002
    endloop
  endfacet
  facet normal 0.000000e+000 1.000000e+000 0.000000e+000
    outer loop
      vertex 2.526282e-002 3.007090e-001 -7.039657e-002
      vertex 2.526282e-002 3.007090e-001 -2.037299e-001
      vertex -2.473718e-002 3.007090e-001 -7.039657e-002
    endloop
  endfacet
  facet normal 0.000000e+000 1.000000e+000 0.000000e+000
    outer loop
      vertex -2.473718e-002 3.007090e-001 -7.039657e-002
      vertex -2.473718e-002 3.007090e-001 6.293676e-002
      vertex 2.526282e-002 3.007090e-001 6.293676e-002
    endloop
  endfacet
  facet normal -1.000000e+000 0.000000e+000 -2.602085e-017
    outer loop
      vertex -2.473718e-002 3.007090e-001 -2.037299e-001
      vertex -2.473718e-002 1.507090e-001 -2.037299e-001
      vertex -2.473718e-002 3.007090e-001 -7.039657e-002
    endloop
  endfacet
  facet normal -1.000000e+000 0.000000e+000 -2.602085e-017
    outer loop
      vertex -2.473718e-002 1.507090e-001 -2.037299e-001
      vertex -2.473718e-002 7.090021e-004 -2.037299e-001
      vertex -2.473718e-002 3.007090e-001 -7.039657e-002
    endloop
  endfacet
  facet normal -1.000000e+000 0.000000e+000 -2.602085e-017
    outer loop
      vertex -2.473718e-002 7.090021e-004 -2.037299e-001
      vertex -2.473718e-002 -1.492910e-001 -2.037299e-001
      vertex -2.473718e-002 -2.992910e-001 -7.039657e-002
    endloop
  endfacet
  facet normal -1.000000e+000 0.000000e+000 -2.602085e-017
    outer loop
      vertex -2.473718e-002 -1.492910e-001 -2.037299e-001
      vertex -2.473718e-002 -2.992910e-001 -2.037299e-001
      vertex -2.473718e-002 -2.992910e-001 -7.039657e-002
    endloop
  endfacet
  facet normal -1.000000e+000 0.000000e+000 0.000000e+000
    outer loop
      vertex -2.473718e-002 -2.992910e-001 1.962701e-001
      vertex -2.473718e-002 -1.492910e-001 1.962701e-001
      vertex -2.473718e-002 -2.992910e-001 6.293676e-002
    endloop
  endfacet
  facet normal -1.000000e+000 0.000000e+000 0.000000e+000
    outer loop
      vertex -2.473718e-002 -1.492910e-001 1.962701e-001
      vertex -2.473718e-002 7.090021e-004 1.962701e-001
      vertex -2.473718e-002 -2.992910e-001 6.293676e-002
    endloop
  endfacet
  facet normal -1.000000e+000 0.000000e+000 0.000000e+000
    outer loop
      vertex -2.473718e-002 7.090021e-004 1.962701e-001
      vertex -2.473718e-002 1.507090e-001 1.962701e-001
      vertex -2.473718e-002 3.007090e-001 6.293676e-002
    endloop
  endfacet
  facet normal -1.000000e+000 0.000000e+000 0.000000e+000
    outer loop
      vertex -2.473718e-002 1.507090e-001 1.962701e-001
      vertex -2.473718e-002 3.007090e-001 1.962701e-001
      vertex -2.473718e-002 3.007090e-001 6.293676e-002
    endloop
  endfacet
  facet normal -1.000000e+000 1.156482e-017 2.602085e-017
    outer loop
      vertex -2.473718e-002 3.007090e-001 6.293676e-002
      vertex -2.473718e-002 3.007090e-001 -7.039657e-002
      vertex -2.473718e-002 7.090021e-004 1.962701e-001
    endloop
  endfacet
  facet normal -1.000000e+000 -1.156482e-017 2.602085e-017
    outer loop
      vertex -2.473718e-002 -2.992910e-001 -7.039657e-002
      vertex -2.473718e-002 -2.992910e-001 6.293676e-002
      vertex -2.473718e-002 7.090021e-004 1.962701e-001
    endloop
  endfacet
  facet normal -1.000000e+000 -1.156482e-017 0.000000e+000
    outer loop
      vertex -2.473718e-002 3.007090e-001 -7.039657e-002
      vertex -2.473718e-002 7.090021e-004 -2.037299e-001
      vertex -2.473718e-002 7.090021e-004 1.962701e-001
    endloop
  endfacet
  facet normal -1.000000e+000 1.156482e-017 0.000000e+000
    outer loop
      vertex -2.473718e-002 7.090021e-004 -2.037299e-001
      vertex -2.473718e-002 -2.992910e-001 -7.039657e-002
      vertex -2.473718e-002 7.090021e-004 1.962701e-001
    endloop
  endfacet
endsolid OBJECT
