solid OBJECT
  facet normal -0.99999859464702545 -0 -0.0016765154261550782
    outer loop
      vertex 0.00089125969680026174 0.0097001465037465096 0.0091779492795467377
      vertex 0.00089482549810782075 0.0097001465037465096 0.0070510399527847767
      vertex 0.00089482549810782075 0.0053235869854688644 0.0070510399527847767
    endloop
  endfacet
  facet normal -0.99999859464702545 0 -0.0016765154261550782
    outer loop
      vertex 0.00089125969680026174 0.0097001465037465096 0.0091779492795467377
      vertex 0.00089482549810782075 0.0053235869854688644 0.0070510399527847767
      vertex 0.00089125969680026174 0.0053235869854688644 0.0091779492795467377
    endloop
  endfacet
  facet normal -0.99999859446349348 -0 -0.0016766248946966061
    outer loop
      vertex 0.00089482549810782075 0.0097001465037465096 0.0070510399527847767
      vertex 0.00089839153224602342 0.0097001465037465096 0.0049241306260228157
      vertex 0.00089839153224602342 0.0053235869854688644 0.0049241306260228157
    endloop
  endfacet
  facet normal -0.99999859446349348 0 -0.0016766248946966061
    outer loop
      vertex 0.00089482549810782075 0.0097001465037465096 0.0070510399527847767
      vertex 0.00089839153224602342 0.0053235869854688644 0.0049241306260228157
      vertex 0.00089482549810782075 0.0053235869854688644 0.0070510399527847767
    endloop
  endfacet
  facet normal -0.99999859448066131 -2.3253080157539653e-08 -0.0016766146550187099
    outer loop
      vertex 0.00090929103316739202 0.035959497094154358 -0.0015768470475450158
      vertex 0.00091265543596819043 0.035959497094154358 -0.0035835085436701775
      vertex 0.00090341205941513181 0.02896164171397686 0.001929700025357306
    endloop
  endfacet
  facet normal -0.99999859447869355 9.5141091157852085e-09 -0.0016766158287621659
    outer loop
      vertex 0.00090341205941513181 0.02896164171397686 0.001929700025357306
      vertex 0.00090985471615567803 0.025627888739109039 -0.0019129688153043389
      vertex 0.00089753285283222795 0.021963784471154213 0.0054362467490136623
    endloop
  endfacet
  facet normal -0.99999859452817219 -5.8157419529929332e-09 -0.0016765863175279663
    outer loop
      vertex 0.00089753285283222795 0.021963784471154213 0.0054362467490136623
      vertex 0.00089839153224602342 0.0097001465037465096 0.0049241306260228157
      vertex 0.00089359615230932832 0.016952699050307274 0.0077843060716986656
    endloop
  endfacet
  facet normal -0.99999859456100904 3.5173679911648231e-09 -0.0016765667319240552
    outer loop
      vertex 0.00089359615230932832 0.016952699050307274 0.0077843060716986656
      vertex 0.00089482549810782075 0.0097001465037465096 0.0070510399527847767
      vertex 0.00088965945178642869 0.011941616423428059 0.010132364928722382
    endloop
  endfacet
  facet normal -0.99999859446974626 -2.1988643799030255e-08 -0.0016766211651482751
    outer loop
      vertex 0.00088965945178642869 0.011941616423428059 0.010132364928722382
      vertex 0.00089125969680026174 0.0097001465037465096 0.0091779492795467377
      vertex 0.00088572275126352906 0.0069305319339036942 0.012480423785746098
    endloop
  endfacet
  facet normal -0.99999859470334851 -5.8838901243733694e-09 -0.0016764818305777308
    outer loop
      vertex 0.00088572275126352906 0.0069305319339036942 0.012480423785746098
      vertex 0.00088748970301821828 0.0019409619271755219 0.011426478624343872
      vertex 0.00088492530630901456 0.0049327141605317593 0.012956095859408379
    endloop
  endfacet
  facet normal -0.99999859444435713 7.3096588148126657e-08 -0.0016766363067124723
    outer loop
      vertex 0.00088492530630901456 0.0049327141605317593 0.012956095859408379
      vertex 0.00088748970301821828 0.0019409619271755219 0.011426478624343872
      vertex 0.0008841276285238564 0.0029348959214985371 0.013431768864393234
    endloop
  endfacet
  facet normal -0.99999859448588413 2.312875823911448e-08 -0.0016766115399249636
    outer loop
      vertex 0.00088748970301821828 0.0019409619271755219 0.011426478624343872
      vertex 0.00089125969680026174 0.0053235869854688644 0.0091779492795467377
      vertex 0.00089085177751258016 0.00094702845672145486 0.0094211883842945099
    endloop
  endfacet
  facet normal -0.99999859447449668 2.2751279054395873e-08 -0.001676618331822598
    outer loop
      vertex 0.00089085177751258016 0.00094702845672145486 0.0094211883842945099
      vertex 0.00089125969680026174 0.0053235869854688644 0.0091779492795467377
      vertex 0.00089419801952317357 0.00095473375404253602 0.0074253631755709648
    endloop
  endfacet
  facet normal -0.9999985944748282 -2.7329961478624084e-08 -0.0016766181340002906
    outer loop
      vertex 0.00089419801952317357 0.00095473375404253602 0.0074253631755709648
      vertex 0.00089482549810782075 0.0053235869854688644 0.0070510399527847767
      vertex 0.00089754426153376698 0.0009624399826861918 0.0054295375011861324
    endloop
  endfacet
  facet normal -0.99999859447446426 -2.4057966801952393e-08 -0.0016766183512082248
    outer loop
      vertex 0.00089754426153376698 0.0009624399826861918 0.0054295375011861324
      vertex 0.00089839153224602342 0.0053235869854688644 0.0049241306260228157
      vertex 0.00090089865261688828 0.0029635513201355934 0.0034288230817764997
    endloop
  endfacet
  facet normal -0.99999859447456441 -2.4095803667216054e-08 -0.0016766182914906764
    outer loop
      vertex 0.00090089865261688828 0.0029635513201355934 0.0034288230817764997
      vertex 0.00089839153224602342 0.0053235869854688644 0.0049241306260228157
      vertex 0.00090425304370000958 0.0049646622501313686 0.0014281085459515452
    endloop
  endfacet
  facet normal -0.99999859449644701 -1.1461870031293697e-08 -0.0016766052398577674
    outer loop
      vertex 0.00090425304370000958 0.0049646622501313686 0.0014281085459515452
      vertex 0.00089839153224602342 0.0097001465037465096 0.0049241306260228157
      vertex 0.00090705376351252198 0.015296274796128273 -0.0002424303675070405
    endloop
  endfacet
  facet normal -0.99999859447862383 9.4305318898058144e-09 -0.0016766158704312132
    outer loop
      vertex 0.00090705376351252198 0.015296274796128273 -0.0002424303675070405
      vertex 0.00089753285283222795 0.021963784471154213 0.0054362467490136623
      vertex 0.00090985471615567803 0.025627888739109039 -0.0019129688153043389
    endloop
  endfacet
  facet normal -0.99999859450780371 -1.0498883419519114e-08 -0.0016765984663016937
    outer loop
      vertex 0.00090985471615567803 0.025627888739109039 -0.0019129688153043389
      vertex 0.00090341205941513181 0.02896164171397686 0.001929700025357306
      vertex 0.00091265543596819043 0.035959497094154358 -0.0035835085436701775
    endloop
  endfacet
  facet normal -0.99999859450066453 -0 -0.0016766027244617748
    outer loop
      vertex 0.00089125969680026174 0.0053235869854688644 0.0091779492795467377
      vertex 0.00088572275126352906 0.0069305319339036942 0.012480423785746098
      vertex 0.00089125969680026174 0.0097001465037465096 0.0091779492795467377
    endloop
  endfacet
  facet normal -0.99999859464702523 -1.8529931438947027e-08 -0.0016765154261550778
    outer loop
      vertex 0.00089482549810782075 0.0053235869854688644 0.0070510399527847767
      vertex 0.00089419801952317357 0.00095473375404253602 0.0074253631755709648
      vertex 0.00089125969680026174 0.0053235869854688644 0.0091779492795467377
    endloop
  endfacet
  facet normal -0.99999859464702323 -6.7012327873211559e-08 -0.0016765154261550743
    outer loop
      vertex 0.00089125969680026174 0.0097001465037465096 0.0091779492795467377
      vertex 0.00088965945178642869 0.011941616423428059 0.010132364928722382
      vertex 0.00089482549810782075 0.0097001465037465096 0.0070510399527847767
    endloop
  endfacet
  facet normal -0.99999859446349326 -2.481628412274721e-08 -0.0016766248946966059
    outer loop
      vertex 0.00089839153224602342 0.0053235869854688644 0.0049241306260228157
      vertex 0.00089754426153376698 0.0009624399826861918 0.0054295375011861324
      vertex 0.00089482549810782075 0.0053235869854688644 0.0070510399527847767
    endloop
  endfacet
  facet normal -0.99999859447041684 -1.0587896959055438e-22 -0.0016766207653181994
    outer loop
      vertex 0.00089839153224602342 0.0097001465037465096 0.0049241306260228157
      vertex 0.00090425304370000958 0.0049646622501313686 0.0014281085459515452
      vertex 0.00089839153224602342 0.0053235869854688644 0.0049241306260228157
    endloop
  endfacet
  facet normal -0.99999859446349348 9.3979059259314577e-09 -0.0016766248946966061
    outer loop
      vertex 0.00089482549810782075 0.0097001465037465096 0.0070510399527847767
      vertex 0.00089359615230932832 0.016952699050307274 0.0077843060716986656
      vertex 0.00089839153224602342 0.0097001465037465096 0.0049241306260228157
    endloop
  endfacet
  facet normal -0.99999859450762962 -5.3040860250637785e-09 -0.0016765985701112044
    outer loop
      vertex 0.00089753285283222795 0.021963784471154213 0.0054362467490136623
      vertex 0.00090705376351252198 0.015296274796128273 -0.0002424303675070405
      vertex 0.00089839153224602342 0.0097001465037465096 0.0049241306260228157
    endloop
  endfacet
  facet normal -0.99999859448279471 2.1903876175018145e-08 -0.0016766133825983206
    outer loop
      vertex 0.00088572275126352906 0.0069305319339036942 0.012480423785746098
      vertex 0.00089125969680026174 0.0053235869854688644 0.0091779492795467377
      vertex 0.00088748970301821828 0.0019409619271755219 0.011426478624343872
    endloop
  endfacet
  facet normal 0.0007519252017129292 0.44799141787763896 0.89403754066396668
    outer loop
      vertex 0.00089753285283222795 0.021963784471154213 0.0054362467490136623
      vertex 0.0048981434665620327 0.02896164171397686 0.0019263402791693807
      vertex 0.00090341205941513181 0.02896164171397686 0.001929700025357306
    endloop
  endfacet
  facet normal 0.00075182098438053666 0.44799154897877747 0.89403747505840214
    outer loop
      vertex 0.00090341205941513181 0.02896164171397686 0.001929700025357306
      vertex 0.0029066565912216902 0.035959497094154358 -0.0015785266878083348
      vertex 0.00090929103316739202 0.035959497094154358 -0.0015768470475450158
    endloop
  endfacet
  facet normal 0.0007520293086169306 0.44799154876871167 0.89403747498845376
    outer loop
      vertex 0.0029066565912216902 0.035959497094154358 -0.0015785266878083348
      vertex 0.0048981434665620327 0.02896164171397686 0.0019263402791693807
      vertex 0.0049040224403142929 0.035959497094154358 -0.0015802067937329412
    endloop
  endfacet
  facet normal 0.00075192515787898481 0.44799141789767999 0.89403754065396124
    outer loop
      vertex 0.0048981434665620327 0.02896164171397686 0.0019263402791693807
      vertex 0.00089753285283222795 0.021963784471154213 0.0054362467490136623
      vertex 0.0048922644928097725 0.021963784471154213 0.005432887002825737
    endloop
  endfacet
  facet normal 0.00075192515652123886 0.44799152511003321 0.89403748693113849
    outer loop
      vertex 0.0048981434665620327 0.02896164171397686 0.0019263402791693807
      vertex 0.0029066565912216902 0.035959497094154358 -0.0015785266878083348
      vertex 0.00090341205941513181 0.02896164171397686 0.001929700025357306
    endloop
  endfacet
  facet normal 0.00076168857240752779 0.4243018486159732 0.90552049181207739
    outer loop
      vertex 0.00088572275126352906 0.0069305319339036942 0.012480423785746098
      vertex 0.0028830880764871836 0.0069305319339036942 0.012478743679821491
      vertex 0.00088965945178642869 0.011941616423428059 0.010132364928722382
    endloop
  endfacet
  facet normal 0.00076158277731525287 0.42430197803963804 0.90552043125670212
    outer loop
      vertex 0.00088965945178642869 0.011941616423428059 0.010132364928722382
      vertex 0.0048883277922868729 0.016952699050307274 0.0077809463255107403
      vertex 0.00089359615230932832 0.016952699050307274 0.0077843060716986656
    endloop
  endfacet
  facet normal 0.00076158282657038431 0.42430185305512491 0.90552048982095679
    outer loop
      vertex 0.00089359615230932832 0.016952699050307274 0.0077843060716986656
      vertex 0.0048922644928097725 0.021963784471154213 0.005432887002825737
      vertex 0.00089753285283222795 0.021963784471154213 0.0054362467490136623
    endloop
  endfacet
  facet normal 0.00076158282657038431 0.42430185305512491 0.90552048982095679
    outer loop
      vertex 0.0048922644928097725 0.021963784471154213 0.005432887002825737
      vertex 0.00089359615230932832 0.016952699050307274 0.0077843060716986656
      vertex 0.0048883277922868729 0.016952699050307274 0.0077809463255107403
    endloop
  endfacet
  facet normal 0.00076168835995431478 0.42430190893998232 0.90552046354609184
    outer loop
      vertex 0.0048883277922868729 0.016952699050307274 0.0077809463255107403
      vertex 0.00088965945178642869 0.011941616423428059 0.010132364928722382
      vertex 0.0048843910917639732 0.011941616423428059 0.010129004716873169
    endloop
  endfacet
  facet normal 0.00076126609649655491 0.42430198696161153 0.90552042734239779
    outer loop
      vertex 0.0048843910917639732 0.011941616423428059 0.010129004716873169
      vertex 0.0028830880764871836 0.0069305319339036942 0.012478743679821491
      vertex 0.0048804539255797863 0.0069305319339036942 0.01247706450521946
    endloop
  endfacet
  facet normal 0.00076168838375492167 0.42430184855449027 0.90552049184104511
    outer loop
      vertex 0.0028830880764871836 0.0069305319339036942 0.012478743679821491
      vertex 0.0048843910917639732 0.011941616423428059 0.010129004716873169
      vertex 0.00088965945178642869 0.011941616423428059 0.010132364928722382
    endloop
  endfacet
  facet normal 0.00081828621045660071 0.23162106020392303 0.97280574364961903
    outer loop
      vertex 0.0008841276285238564 0.0029348959214985371 0.013431768864393234
      vertex 0.0028814931865781546 0.0029348959214985371 0.013430088758468628
      vertex 0.00088492530630901456 0.0049327141605317593 0.012956095859408379
    endloop
  endfacet
  facet normal 0.0008182863815443187 0.23162068222145715 0.97280583364547346
    outer loop
      vertex 0.00088492530630901456 0.0049327141605317593 0.012956095859408379
      vertex 0.0028830880764871836 0.0069305319339036942 0.012478743679821491
      vertex 0.00088572275126352906 0.0069305319339036942 0.012480423785746098
    endloop
  endfacet
  facet normal 0.00081783257173927008 0.23162068256906773 0.97280583394433007
    outer loop
      vertex 0.0028830880764871836 0.0069305319339036942 0.012478743679821491
      vertex 0.0048796567134559155 0.0049327141605317593 0.012952736578881741
      vertex 0.0048804539255797863 0.0069305319339036942 0.01247706450521946
    endloop
  endfacet
  facet normal 0.00081783249609823302 0.23162106046133071 0.97280574396987241
    outer loop
      vertex 0.0048796567134559155 0.0049327141605317593 0.012952736578881741
      vertex 0.0028814931865781546 0.0029348959214985371 0.013430088758468628
      vertex 0.0048788590356707573 0.0029348959214985371 0.013428409583866596
    endloop
  endfacet
  facet normal 0.00081805939623606576 0.2316208456944446 0.97280579491418251
    outer loop
      vertex 0.0028814931865781546 0.0029348959214985371 0.013430088758468628
      vertex 0.0048796567134559155 0.0049327141605317593 0.012952736578881741
      vertex 0.00088492530630901456 0.0049327141605317593 0.012956095859408379
    endloop
  endfacet
  facet normal 0.00081805938594785494 0.23162089707868397 0.97280578267982498
    outer loop
      vertex 0.00088492530630901456 0.0049327141605317593 0.012956095859408379
      vertex 0.0048796567134559155 0.0049327141605317593 0.012952736578881741
      vertex 0.0028830880764871836 0.0069305319339036942 0.012478743679821491
    endloop
  endfacet
  facet normal 0.00037335033273389127 -0.8959784310629012 0.44409741237659889
    outer loop
      vertex 0.00089085177751258016 0.00094702845672145486 0.0094211883842945099
      vertex 0.0028882173355668783 0.00094702845672145486 0.0094195092096924782
      vertex 0.00088748970301821828 0.0019409619271755219 0.011426478624343872
    endloop
  endfacet
  facet normal 0.00037355756272986092 -0.89597833771900925 0.44409760052608771
    outer loop
      vertex 0.00088748970301821828 0.0019409619271755219 0.011426478624343872
      vertex 0.0028814931865781546 0.0029348959214985371 0.013430088758468628
      vertex 0.0008841276285238564 0.0029348959214985371 0.013431768864393234
    endloop
  endfacet
  facet normal 0.00037335043630337933 -0.89597833792649384 0.44409760028166001
    outer loop
      vertex 0.0028814931865781546 0.0029348959214985371 0.013430088758468628
      vertex 0.0048822211101651192 0.0019409619271755219 0.011423119343817234
      vertex 0.0048788590356707573 0.0029348959214985371 0.013428409583866596
    endloop
  endfacet
  facet normal 0.00037355735023990452 -0.89597843085552564 0.44409741262089808
    outer loop
      vertex 0.0048822211101651192 0.0019409619271755219 0.011423119343817234
      vertex 0.0028882173355668783 0.00094702845672145486 0.0094195092096924782
      vertex 0.004885583184659481 0.00094702845672145486 0.0094178291037678719
    endloop
  endfacet
  facet normal 0.00037345391109477096 -0.89597838993561219 0.44409749526490722
    outer loop
      vertex 0.0028882173355668783 0.00094702845672145486 0.0094195092096924782
      vertex 0.0048822211101651192 0.0019409619271755219 0.011423119343817234
      vertex 0.00088748970301821828 0.0019409619271755219 0.011426478624343872
    endloop
  endfacet
  facet normal 0.00037345406914601195 -0.89597829677755303 0.44409768321356208
    outer loop
      vertex 0.00088748970301821828 0.0019409619271755219 0.011426478624343872
      vertex 0.0048822211101651192 0.0019409619271755219 0.011423119343817234
      vertex 0.0028814931865781546 0.0029348959214985371 0.013430088758468628
    endloop
  endfacet
  facet normal -3.247848909185238e-06 -0.99999254572773644 -0.0038611498821374069
    outer loop
      vertex 0.00089754426153376698 0.0009624399826861918 0.0054295375011861324
      vertex 0.0028949095867574215 0.0009624399826861918 0.0054278573952615261
      vertex 0.00089419801952317357 0.00095473375404253602 0.0074253631755709648
    endloop
  endfacet
  facet normal -3.2456566362736098e-06 -0.99999254752589306 -0.0038606841544169932
    outer loop
      vertex 0.00089419801952317357 0.00095473375404253602 0.0074253631755709648
      vertex 0.0028882173355668783 0.00094702845672145486 0.0094195092096924782
      vertex 0.00089085177751258016 0.00094702845672145486 0.0094211883842945099
    endloop
  endfacet
  facet normal -3.2474555502811982e-06 -0.99999254752935307 -0.0038606832566808261
    outer loop
      vertex 0.0028882173355668783 0.00094702845672145486 0.0094195092096924782
      vertex 0.0048889294266700745 0.00095473375404253602 0.0074220034293830395
      vertex 0.004885583184659481 0.00094702845672145486 0.0094178291037678719
    endloop
  endfacet
  facet normal -3.2469474979590903e-06 -0.99999254572774532 -0.0038611498806261167
    outer loop
      vertex 0.0048889294266700745 0.00095473375404253602 0.0074220034293830395
      vertex 0.0028949095867574215 0.0009624399826861918 0.0054278573952615261
      vertex 0.0048922756686806679 0.0009624399826861918 0.0054261777549982071
    endloop
  endfacet
  facet normal -3.2473978241365067e-06 -0.99999254572948237 -0.0038611494303351494
    outer loop
      vertex 0.0028949095867574215 0.0009624399826861918 0.0054278573952615261
      vertex 0.0048889294266700745 0.00095473375404253602 0.0074220034293830395
      vertex 0.00089419801952317357 0.00095473375404253602 0.0074253631755709648
    endloop
  endfacet
  facet normal -3.2470053722073278e-06 -0.99999254753109545 -0.0038606828057868667
    outer loop
      vertex 0.00089419801952317357 0.00095473375404253602 0.0074253631755709648
      vertex 0.0048889294266700745 0.00095473375404253602 0.0074220034293830395
      vertex 0.0028882173355668783 0.00094702845672145486 0.0094195092096924782
    endloop
  endfacet
  facet normal -0.00059468497433342845 -0.70703611288550838 -0.70717719238217247
    outer loop
      vertex 0.00090425304370000958 0.0049646622501313686 0.0014281085459515452
      vertex 0.0029016186017543077 0.0049646622501313686 0.0014264289056882262
      vertex 0.00090089865261688828 0.0029635513201355934 0.0034288230817764997
    endloop
  endfacet
  facet normal -0.00059484999127350994 -0.70703602010811872 -0.70717728500225452
    outer loop
      vertex 0.00090089865261688828 0.0029635513201355934 0.0034288230817764997
      vertex 0.0028949095867574215 0.0009624399826861918 0.0054278573952615261
      vertex 0.00089754426153376698 0.0009624399826861918 0.0054295375011861324
    endloop
  endfacet
  facet normal -0.0005946849307552262 -0.70703597920203454 -0.70717732603898809
    outer loop
      vertex 0.0028949095867574215 0.0009624399826861918 0.0054278573952615261
      vertex 0.0048956298269331455 0.0029635513201355934 0.0034254635684192181
      vertex 0.0048922756686806679 0.0009624399826861918 0.0054261777549982071
    endloop
  endfacet
  facet normal -0.00059484972282932325 -0.70703615379196083 -0.70717715134531756
    outer loop
      vertex 0.0048956298269331455 0.0029635513201355934 0.0034254635684192181
      vertex 0.0029016186017543077 0.0049646622501313686 0.0014264289056882262
      vertex 0.0048989844508469105 0.0049646622501313686 0.0014247487997636199
    endloop
  endfacet
  facet normal -0.00059472620040031099 -0.70703609226370989 -0.70717721296518687
    outer loop
      vertex 0.0029016186017543077 0.0049646622501313686 0.0014264289056882262
      vertex 0.0048956298269331455 0.0029635513201355934 0.0034254635684192181
      vertex 0.00090089865261688828 0.0029635513201355934 0.0034288230817764997
    endloop
  endfacet
  facet normal -0.0005947263128693543 -0.70703595850217271 -0.70717734669991139
    outer loop
      vertex 0.00090089865261688828 0.0029635513201355934 0.0034288230817764997
      vertex 0.0048956298269331455 0.0029635513201355934 0.0034254635684192181
      vertex 0.0028949095867574215 0.0009624399826861918 0.0054278573952615261
    endloop
  endfacet
  facet normal -0.00082991561931553654 -0.15961874786837973 -0.987178386396803
    outer loop
      vertex 0.00091265543596819043 0.035959497094154358 -0.0035835085436701775
      vertex 0.0029100209940224886 0.035959497094154358 -0.0035851877182722092
      vertex 0.00090985471615567803 0.025627888739109039 -0.0019129688153043389
    endloop
  endfacet
  facet normal -0.00083037593164923373 -0.15961854429605821 -0.98717841892568714
    outer loop
      vertex 0.00090985471615567803 0.025627888739109039 -0.0019129688153043389
      vertex 0.0049045858904719353 0.025627888739109039 -0.0019163290271535516
      vertex 0.00090705376351252198 0.015296274796128273 -0.0002424303675070405
    endloop
  endfacet
  facet normal -0.00083014578659787745 -0.1596186087984458 -0.98717840868974738
    outer loop
      vertex 0.00090705376351252198 0.015296274796128273 -0.0002424303675070405
      vertex 0.0029016186017543077 0.0049646622501313686 0.0014264289056882262
      vertex 0.00090425304370000958 0.0049646622501313686 0.0014281085459515452
    endloop
  endfacet
  facet normal -0.00083037581399585483 -0.1596186086889573 -0.98717840851398753
    outer loop
      vertex 0.0029016186017543077 0.0049646622501313686 0.0014264289056882262
      vertex 0.0049017854034900665 0.015296274796128273 -0.00024579011369496584
      vertex 0.0048989844508469105 0.0049646622501313686 0.0014247487997636199
    endloop
  endfacet
  facet normal -0.00083026075477055322 -0.15961858773821305 -0.98717841199832634
    outer loop
      vertex 0.0049017854034900665 0.015296274796128273 -0.00024579011369496584
      vertex 0.00090705376351252198 0.015296274796128273 -0.0002424303675070405
      vertex 0.0049045858904719353 0.025627888739109039 -0.0019163290271535516
    endloop
  endfacet
  facet normal -0.00083037580688822914 -0.1596186609475681 -0.98717840006420554
    outer loop
      vertex 0.0049045858904719353 0.025627888739109039 -0.0019163290271535516
      vertex 0.0029100209940224886 0.035959497094154358 -0.0035851877182722092
      vertex 0.0049073868431150913 0.035959497094154358 -0.0035868678241968155
    endloop
  endfacet
  facet normal -0.00083037591578083057 -0.15961866096804084 -0.98717840006080371
    outer loop
      vertex 0.0029100209940224886 0.035959497094154358 -0.0035851877182722092
      vertex 0.0049045858904719353 0.025627888739109039 -0.0019163290271535516
      vertex 0.00090985471615567803 0.025627888739109039 -0.0019129688153043389
    endloop
  endfacet
  facet normal -0.00083026074896730797 -0.15961863041232682 -0.98717840509827892
    outer loop
      vertex 0.00090705376351252198 0.015296274796128273 -0.0002424303675070405
      vertex 0.0049017854034900665 0.015296274796128273 -0.00024579011369496584
      vertex 0.0029016186017543077 0.0049646622501313686 0.0014264289056882262
    endloop
  endfacet
  facet normal -0 1 0
    outer loop
      vertex 0.00090929103316739202 0.035959497094154358 -0.0015768470475450158
      vertex 0.0029100209940224886 0.035959497094154358 -0.0035851877182722092
      vertex 0.00091265543596819043 0.035959497094154358 -0.0035835085436701775
    endloop
  endfacet
  facet normal -0 1 -0
    outer loop
      vertex 0.0049040224403142929 0.035959497094154358 -0.0015802067937329412
      vertex 0.0049073868431150913 0.035959497094154358 -0.0035868678241968155
      vertex 0.0029066565912216902 0.035959497094154358 -0.0015785266878083348
    endloop
  endfacet
  facet normal -0 1 -0
    outer loop
      vertex 0.0029066565912216902 0.035959497094154358 -0.0015785266878083348
      vertex 0.0029100209940224886 0.035959497094154358 -0.0035851877182722092
      vertex 0.00090929103316739202 0.035959497094154358 -0.0015768470475450158
    endloop
  endfacet
  facet normal 0 1 0
    outer loop
      vertex 0.0029100209940224886 0.035959497094154358 -0.0035851877182722092
      vertex 0.0029066565912216902 0.035959497094154358 -0.0015785266878083348
      vertex 0.0049073868431150913 0.035959497094154358 -0.0035868678241968155
    endloop
  endfacet
  facet normal 0.99999859446349348 0 0.0016766248946966061
    outer loop
      vertex 0.0048859911039471626 0.0097001465037465096 0.0091745899990200996
      vertex 0.0048859911039471626 0.0053235869854688644 0.0091745899990200996
      vertex 0.0048895571380853653 0.0053235869854688644 0.0070476806722581387
    endloop
  endfacet
  facet normal 0.99999859446349348 0 0.0016766248946966061
    outer loop
      vertex 0.0048859911039471626 0.0097001465037465096 0.0091745899990200996
      vertex 0.0048895571380853653 0.0053235869854688644 0.0070476806722581387
      vertex 0.0048895571380853653 0.0097001465037465096 0.0070476806722581387
    endloop
  endfacet
  facet normal 0.99999859446410899 0 0.0016766245276208071
    outer loop
      vertex 0.0048895571380853653 0.0097001465037465096 0.0070476806722581387
      vertex 0.0048895571380853653 0.0053235869854688644 0.0070476806722581387
      vertex 0.004893123172223568 0.0053235869854688644 0.0049207708798348904
    endloop
  endfacet
  facet normal 0.99999859446410899 0 0.0016766245276208071
    outer loop
      vertex 0.0048895571380853653 0.0097001465037465096 0.0070476806722581387
      vertex 0.004893123172223568 0.0053235869854688644 0.0049207708798348904
      vertex 0.004893123172223568 0.0097001465037465096 0.0049207708798348904
    endloop
  endfacet
  facet normal 0.99999859448000894 2.3448039515515169e-08 0.001676615044089077
    outer loop
      vertex 0.0049040224403142929 0.035959497094154358 -0.0015802067937329412
      vertex 0.0048981434665620327 0.02896164171397686 0.0019263402791693807
      vertex 0.0049073868431150913 0.035959497094154358 -0.0035868678241968155
    endloop
  endfacet
  facet normal 0.99999859458346696 -7.5565913069372692e-09 0.0016765533367187003
    outer loop
      vertex 0.0048981434665620327 0.02896164171397686 0.0019263402791693807
      vertex 0.0048922644928097725 0.021963784471154213 0.005432887002825737
      vertex 0.0049045858904719353 0.025627888739109039 -0.0019163290271535516
    endloop
  endfacet
  facet normal 0.99999859452817219 5.8157419529929332e-09 0.0016765863175279663
    outer loop
      vertex 0.0048922644928097725 0.021963784471154213 0.005432887002825737
      vertex 0.0048883277922868729 0.016952699050307274 0.0077809463255107403
      vertex 0.004893123172223568 0.0097001465037465096 0.0049207708798348904
    endloop
  endfacet
  facet normal 0.99999859456023388 -3.456476557448623e-09 0.0016765671943662079
    outer loop
      vertex 0.0048883277922868729 0.016952699050307274 0.0077809463255107403
      vertex 0.0048843910917639732 0.011941616423428059 0.010129004716873169
      vertex 0.0048895571380853653 0.0097001465037465096 0.0070476806722581387
    endloop
  endfacet
  facet normal 0.99999859448954498 -7.6159859876428372e-08 0.0016766093548830688
    outer loop
      vertex 0.0048843910917639732 0.011941616423428059 0.010129004716873169
      vertex 0.0048804539255797863 0.0069305319339036942 0.01247706450521946
      vertex 0.0048859911039471626 0.0097001465037465096 0.0091745899990200996
    endloop
  endfacet
  facet normal 0.99999859496405807 8.5397643394263526e-08 0.0016763263114224077
    outer loop
      vertex 0.0048804539255797863 0.0069305319339036942 0.01247706450521946
      vertex 0.0048796567134559155 0.0049327141605317593 0.012952736578881741
      vertex 0.0048822211101651192 0.0019409619271755219 0.011423119343817234
    endloop
  endfacet
  facet normal 0.99999859444435713 -7.3096588148126657e-08 0.0016766363067124723
    outer loop
      vertex 0.0048796567134559155 0.0049327141605317593 0.012952736578881741
      vertex 0.0048788590356707573 0.0029348959214985371 0.013428409583866596
      vertex 0.0048822211101651192 0.0019409619271755219 0.011423119343817234
    endloop
  endfacet
  facet normal 0.99999859448588413 -2.312875823911448e-08 0.0016766115399249636
    outer loop
      vertex 0.0048822211101651192 0.0019409619271755219 0.011423119343817234
      vertex 0.004885583184659481 0.00094702845672145486 0.0094178291037678719
      vertex 0.0048859911039471626 0.0053235869854688644 0.0091745899990200996
    endloop
  endfacet
  facet normal 0.99999859447515282 -2.2773024864522162e-08 0.0016766179405551527
    outer loop
      vertex 0.004885583184659481 0.00094702845672145486 0.0094178291037678719
      vertex 0.0048889294266700745 0.00095473375404253602 0.0074220034293830395
      vertex 0.0048859911039471626 0.0053235869854688644 0.0091745899990200996
    endloop
  endfacet
  facet normal 0.99999859447517458 -2.6159673006783879e-08 0.0016766179274681273
    outer loop
      vertex 0.0048889294266700745 0.00095473375404253602 0.0074220034293830395
      vertex 0.0048922756686806679 0.0009624399826861918 0.0054261777549982071
      vertex 0.0048895571380853653 0.0053235869854688644 0.0070476806722581387
    endloop
  endfacet
  facet normal 0.99999859479603548 -5.1557945940080803e-08 0.0016764265423369088
    outer loop
      vertex 0.0048922756686806679 0.0009624399826861918 0.0054261777549982071
      vertex 0.0048956298269331455 0.0029635513201355934 0.0034254635684192181
      vertex 0.004893123172223568 0.0053235869854688644 0.0049207708798348904
    endloop
  endfacet
  facet normal 0.99999859455768636 -1.4163359832565096e-07 0.0016765687078657777
    outer loop
      vertex 0.0048956298269331455 0.0029635513201355934 0.0034254635684192181
      vertex 0.0048989844508469105 0.0049646622501313686 0.0014247487997636199
      vertex 0.004893123172223568 0.0053235869854688644 0.0049207708798348904
    endloop
  endfacet
  facet normal 0.99999859454606077 -1.5858645447203971e-08 0.0016765756478951336
    outer loop
      vertex 0.0048989844508469105 0.0049646622501313686 0.0014247487997636199
      vertex 0.0049017854034900665 0.015296274796128273 -0.00024579011369496584
      vertex 0.004893123172223568 0.0097001465037465096 0.0049207708798348904
    endloop
  endfacet
  facet normal 0.99999859455331652 2.8512985213167128e-08 0.0016765713199045581
    outer loop
      vertex 0.0049017854034900665 0.015296274796128273 -0.00024579011369496584
      vertex 0.0049045858904719353 0.025627888739109039 -0.0019163290271535516
      vertex 0.0048922644928097725 0.021963784471154213 0.005432887002825737
    endloop
  endfacet
  facet normal 0.99999859456825091 -1.8017639851837828e-08 0.0016765624122989545
    outer loop
      vertex 0.0049045858904719353 0.025627888739109039 -0.0019163290271535516
      vertex 0.0049073868431150913 0.035959497094154358 -0.0035868678241968155
      vertex 0.0048981434665620327 0.02896164171397686 0.0019263402791693807
    endloop
  endfacet
  facet normal 0.99999859438245875 -0 0.0016766732260391367
    outer loop
      vertex 0.0048859911039471626 0.0053235869854688644 0.0091745899990200996
      vertex 0.0048859911039471626 0.0097001465037465096 0.0091745899990200996
      vertex 0.0048804539255797863 0.0069305319339036942 0.01247706450521946
    endloop
  endfacet
  facet normal 0.99999859446349304 -2.556272012968558e-08 0.0016766248946966055
    outer loop
      vertex 0.0048895571380853653 0.0053235869854688644 0.0070476806722581387
      vertex 0.0048859911039471626 0.0053235869854688644 0.0091745899990200996
      vertex 0.0048889294266700745 0.00095473375404253602 0.0074220034293830395
    endloop
  endfacet
  facet normal 0.99999859446349015 -8.2776709072274599e-08 0.0016766248946966007
    outer loop
      vertex 0.0048859911039471626 0.0097001465037465096 0.0091745899990200996
      vertex 0.0048895571380853653 0.0097001465037465096 0.0070476806722581387
      vertex 0.0048843910917639732 0.011941616423428059 0.010129004716873169
    endloop
  endfacet
  facet normal 0.99999859446410855 -2.8613659744654518e-08 0.0016766245276208065
    outer loop
      vertex 0.004893123172223568 0.0053235869854688644 0.0049207708798348904
      vertex 0.0048895571380853653 0.0053235869854688644 0.0070476806722581387
      vertex 0.0048922756686806679 0.0009624399826861918 0.0054261777549982071
    endloop
  endfacet
  facet normal 0.99999859458207518 0 0.0016765541668652692
    outer loop
      vertex 0.004893123172223568 0.0097001465037465096 0.0049207708798348904
      vertex 0.004893123172223568 0.0053235869854688644 0.0049207708798348904
      vertex 0.0048989844508469105 0.0049646622501313686 0.0014247487997636199
    endloop
  endfacet
  facet normal 0.99999859446410877 -9.2531425295382368e-09 0.0016766245276208067
    outer loop
      vertex 0.0048895571380853653 0.0097001465037465096 0.0070476806722581387
      vertex 0.004893123172223568 0.0097001465037465096 0.0049207708798348904
      vertex 0.0048883277922868729 0.016952699050307274 0.0077809463255107403
    endloop
  endfacet
  facet normal 0.99999859450762962 5.3040860250637785e-09 0.0016765985701112044
    outer loop
      vertex 0.0048922644928097725 0.021963784471154213 0.005432887002825737
      vertex 0.004893123172223568 0.0097001465037465096 0.0049207708798348904
      vertex 0.0049017854034900665 0.015296274796128273 -0.00024579011369496584
    endloop
  endfacet
  facet normal 0.99999859439347838 1.3507062745428483e-08 0.0016766666536809885
    outer loop
      vertex 0.0048804539255797863 0.0069305319339036942 0.01247706450521946
      vertex 0.0048822211101651192 0.0019409619271755219 0.011423119343817234
      vertex 0.0048859911039471626 0.0053235869854688644 0.0091745899990200996
    endloop
  endfacet
endsolid OBJECT
