solid OBJECT
  facet normal 0.000000e+000 0.000000e+000 -1.000000e+000
    outer loop
      vertex 2.500000e-002 -1.500000e-001 -2.000000e-001
      vertex -2.500000e-002 1.530758e-018 -2.000000e-001
      vertex 2.500000e-002 -1.530758e-018 -2.000000e-001
    endloop
  endfacet
  facet normal 0.000000e+000 0.000000e+000 -1.000000e+000
    outer loop
      vertex 2.500000e-002 -1.530758e-018 -2.000000e-001
      vertex -2.500000e-002 1.500000e-001 -2.000000e-001
      vertex 2.500000e-002 1.500000e-001 -2.000000e-001
    endloop
  endfacet
  facet normal 0.000000e+000 0.000000e+000 -1.000000e+000
    outer loop
      vertex -2.500000e-002 1.500000e-001 -2.000000e-001
      vertex 2.500000e-002 -1.530758e-018 -2.000000e-001
      vertex -2.500000e-002 1.530758e-018 -2.000000e-001
    endloop
  endfacet
  facet normal 0.000000e+000 0.000000e+000 -1.000000e+000
    outer loop
      vertex -2.500000e-002 1.530758e-018 -2.000000e-001
      vertex 2.500000e-002 -1.500000e-001 -2.000000e-001
      vertex -2.500000e-002 -1.500000e-001 -2.000000e-001
    endloop
  endfacet
  facet normal 0.000000e+000 0.000000e+000 1.000000e+000
    outer loop
      vertex 2.500000e-002 -1.500000e-001 2.000000e-001
      vertex 2.500000e-002 -1.530758e-018 2.000000e-001
      vertex -2.500000e-002 1.530758e-018 2.000000e-001
    endloop
  endfacet
  facet normal 0.000000e+000 0.000000e+000 1.000000e+000
    outer loop
      vertex 2.500000e-002 -1.530758e-018 2.000000e-001
      vertex 2.500000e-002 1.500000e-001 2.000000e-001
      vertex -2.500000e-002 1.500000e-001 2.000000e-001
    endloop
  endfacet
  facet normal 0.000000e+000 0.000000e+000 1.000000e+000
    outer loop
      vertex -2.500000e-002 1.500000e-001 2.000000e-001
      vertex -2.500000e-002 1.530758e-018 2.000000e-001
      vertex 2.500000e-002 -1.530758e-018 2.000000e-001
    endloop
  endfacet
  facet normal 0.000000e+000 0.000000e+000 1.000000e+000
    outer loop
      vertex -2.500000e-002 1.530758e-018 2.000000e-001
      vertex -2.500000e-002 -1.500000e-001 2.000000e-001
      vertex 2.500000e-002 -1.500000e-001 2.000000e-001
    endloop
  endfacet
  facet normal 1.000000e+000 -6.938894e-017 0.000000e+000
    outer loop
      vertex 2.500000e-002 -1.500000e-001 -2.000000e-001
      vertex 2.500000e-002 -1.530758e-018 -2.000000e-001
      vertex 2.500000e-002 -1.500000e-001 -6.666667e-002
    endloop
  endfacet
  facet normal 1.000000e+000 -6.938894e-017 0.000000e+000
    outer loop
      vertex 2.500000e-002 -1.530758e-018 -2.000000e-001
      vertex 2.500000e-002 1.500000e-001 -2.000000e-001
      vertex 2.500000e-002 1.500000e-001 -6.666667e-002
    endloop
  endfacet
  facet normal 1.000000e+000 -6.938894e-017 0.000000e+000
    outer loop
      vertex 2.500000e-002 1.500000e-001 2.000000e-001
      vertex 2.500000e-002 -1.530758e-018 2.000000e-001
      vertex 2.500000e-002 1.500000e-001 6.666667e-002
    endloop
  endfacet
  facet normal 1.000000e+000 -6.938894e-017 0.000000e+000
    outer loop
      vertex 2.500000e-002 -1.530758e-018 2.000000e-001
      vertex 2.500000e-002 -1.500000e-001 2.000000e-001
      vertex 2.500000e-002 -1.500000e-001 6.666667e-002
    endloop
  endfacet
  facet normal 1.000000e+000 -6.938894e-017 0.000000e+000
    outer loop
      vertex 2.500000e-002 1.500000e-001 -6.666667e-002
      vertex 2.500000e-002 1.500000e-001 6.666667e-002
      vertex 2.500000e-002 -1.500000e-001 6.666667e-002
    endloop
  endfacet
  facet normal 1.000000e+000 -6.938894e-017 0.000000e+000
    outer loop
      vertex 2.500000e-002 -1.500000e-001 6.666667e-002
      vertex 2.500000e-002 -1.500000e-001 -6.666667e-002
      vertex 2.500000e-002 1.500000e-001 -6.666667e-002
    endloop
  endfacet
  facet normal 1.000000e+000 -6.938894e-017 -1.155558e-032
    outer loop
      vertex 2.500000e-002 -1.500000e-001 -6.666667e-002
      vertex 2.500000e-002 -1.530758e-018 -2.000000e-001
      vertex 2.500000e-002 1.500000e-001 -6.666667e-002
    endloop
  endfacet
  facet normal 1.000000e+000 -6.938894e-017 -1.155558e-032
    outer loop
      vertex 2.500000e-002 1.500000e-001 6.666667e-002
      vertex 2.500000e-002 -1.530758e-018 2.000000e-001
      vertex 2.500000e-002 -1.500000e-001 6.666667e-002
    endloop
  endfacet
  facet normal 0.000000e+000 1.000000e+000 0.000000e+000
    outer loop
      vertex 2.500000e-002 1.500000e-001 -2.000000e-001
      vertex -2.500000e-002 1.500000e-001 -2.000000e-001
      vertex -2.500000e-002 1.500000e-001 -6.666667e-002
    endloop
  endfacet
  facet normal 0.000000e+000 1.000000e+000 0.000000e+000
    outer loop
      vertex -2.500000e-002 1.500000e-001 2.000000e-001
      vertex 2.500000e-002 1.500000e-001 2.000000e-001
      vertex -2.500000e-002 1.500000e-001 6.666667e-002
    endloop
  endfacet
  facet normal 0.000000e+000 1.000000e+000 0.000000e+000
    outer loop
      vertex 2.500000e-002 1.500000e-001 2.000000e-001
      vertex 2.500000e-002 1.500000e-001 6.666667e-002
      vertex -2.500000e-002 1.500000e-001 6.666667e-002
    endloop
  endfacet
  facet normal 0.000000e+000 1.000000e+000 0.000000e+000
    outer loop
      vertex 2.500000e-002 1.500000e-001 6.666667e-002
      vertex 2.500000e-002 1.500000e-001 -6.666667e-002
      vertex -2.500000e-002 1.500000e-001 -6.666667e-002
    endloop
  endfacet
  facet normal 0.000000e+000 1.000000e+000 0.000000e+000
    outer loop
      vertex 2.500000e-002 1.500000e-001 -6.666667e-002
      vertex 2.500000e-002 1.500000e-001 -2.000000e-001
      vertex -2.500000e-002 1.500000e-001 -6.666667e-002
    endloop
  endfacet
  facet normal 0.000000e+000 1.000000e+000 0.000000e+000
    outer loop
      vertex -2.500000e-002 1.500000e-001 -6.666667e-002
      vertex -2.500000e-002 1.500000e-001 6.666667e-002
      vertex 2.500000e-002 1.500000e-001 6.666667e-002
    endloop
  endfacet
  facet normal -1.000000e+000 6.938894e-017 0.000000e+000
    outer loop
      vertex -2.500000e-002 1.500000e-001 -2.000000e-001
      vertex -2.500000e-002 1.530758e-018 -2.000000e-001
      vertex -2.500000e-002 1.500000e-001 -6.666667e-002
    endloop
  endfacet
  facet normal -1.000000e+000 6.938894e-017 0.000000e+000
    outer loop
      vertex -2.500000e-002 1.530758e-018 -2.000000e-001
      vertex -2.500000e-002 -1.500000e-001 -2.000000e-001
      vertex -2.500000e-002 -1.500000e-001 -6.666667e-002
    endloop
  endfacet
  facet normal -1.000000e+000 6.938894e-017 0.000000e+000
    outer loop
      vertex -2.500000e-002 -1.500000e-001 2.000000e-001
      vertex -2.500000e-002 1.530758e-018 2.000000e-001
      vertex -2.500000e-002 -1.500000e-001 6.666667e-002
    endloop
  endfacet
  facet normal -1.000000e+000 6.938894e-017 0.000000e+000
    outer loop
      vertex -2.500000e-002 1.530758e-018 2.000000e-001
      vertex -2.500000e-002 1.500000e-001 2.000000e-001
      vertex -2.500000e-002 1.500000e-001 6.666667e-002
    endloop
  endfacet
  facet normal -1.000000e+000 6.938894e-017 0.000000e+000
    outer loop
      vertex -2.500000e-002 1.500000e-001 6.666667e-002
      vertex -2.500000e-002 1.500000e-001 -6.666667e-002
      vertex -2.500000e-002 -1.500000e-001 -6.666667e-002
    endloop
  endfacet
  facet normal -1.000000e+000 6.938894e-017 0.000000e+000
    outer loop
      vertex -2.500000e-002 -1.500000e-001 -6.666667e-002
      vertex -2.500000e-002 -1.500000e-001 6.666667e-002
      vertex -2.500000e-002 1.500000e-001 6.666667e-002
    endloop
  endfacet
  facet normal -1.000000e+000 6.938894e-017 -1.155558e-032
    outer loop
      vertex -2.500000e-002 1.500000e-001 -6.666667e-002
      vertex -2.500000e-002 1.530758e-018 -2.000000e-001
      vertex -2.500000e-002 -1.500000e-001 -6.666667e-002
    endloop
  endfacet
  facet normal -1.000000e+000 6.938894e-017 -1.155558e-032
    outer loop
      vertex -2.500000e-002 -1.500000e-001 6.666667e-002
      vertex -2.500000e-002 1.530758e-018 2.000000e-001
      vertex -2.500000e-002 1.500000e-001 6.666667e-002
    endloop
  endfacet
  facet normal 0.000000e+000 -1.000000e+000 0.000000e+000
    outer loop
      vertex -2.500000e-002 -1.500000e-001 -2.000000e-001
      vertex 2.500000e-002 -1.500000e-001 -2.000000e-001
      vertex 2.500000e-002 -1.500000e-001 -6.666667e-002
    endloop
  endfacet
  facet normal 0.000000e+000 -1.000000e+000 0.000000e+000
    outer loop
      vertex 2.500000e-002 -1.500000e-001 2.000000e-001
      vertex -2.500000e-002 -1.500000e-001 2.000000e-001
      vertex 2.500000e-002 -1.500000e-001 6.666667e-002
    endloop
  endfacet
  facet normal 0.000000e+000 -1.000000e+000 0.000000e+000
    outer loop
      vertex -2.500000e-002 -1.500000e-001 2.000000e-001
      vertex -2.500000e-002 -1.500000e-001 6.666667e-002
      vertex 2.500000e-002 -1.500000e-001 6.666667e-002
    endloop
  endfacet
  facet normal 0.000000e+000 -1.000000e+000 0.000000e+000
    outer loop
      vertex -2.500000e-002 -1.500000e-001 6.666667e-002
      vertex -2.500000e-002 -1.500000e-001 -6.666667e-002
      vertex 2.500000e-002 -1.500000e-001 -6.666667e-002
    endloop
  endfacet
  facet normal 0.000000e+000 -1.000000e+000 0.000000e+000
    outer loop
      vertex -2.500000e-002 -1.500000e-001 -6.666667e-002
      vertex -2.500000e-002 -1.500000e-001 -2.000000e-001
      vertex 2.500000e-002 -1.500000e-001 -6.666667e-002
    endloop
  endfacet
  facet normal 0.000000e+000 -1.000000e+000 0.000000e+000
    outer loop
      vertex 2.500000e-002 -1.500000e-001 -6.666667e-002
      vertex 2.500000e-002 -1.500000e-001 6.666667e-002
      vertex -2.500000e-002 -1.500000e-001 6.666667e-002
    endloop
  endfacet
endsolid OBJECT
