solid OBJECT
  facet normal 0.000000e+000 0.000000e+000 -1.000000e+000
    outer loop
      vertex -2.500000e-002 -3.000000e-001 -1.496141e-001
      vertex 2.500000e-002 -1.000000e-001 -1.496141e-001
      vertex 2.500000e-002 -3.000000e-001 -1.496141e-001
    endloop
  endfacet
  facet normal 0.000000e+000 0.000000e+000 -1.000000e+000
    outer loop
      vertex 2.500000e-002 -1.000000e-001 -1.496141e-001
      vertex -2.500000e-002 -1.000000e-001 -1.496141e-001
      vertex 2.500000e-002 1.000000e-001 -1.496141e-001
    endloop
  endfacet
  facet normal 0.000000e+000 0.000000e+000 -1.000000e+000
    outer loop
      vertex 2.500000e-002 1.000000e-001 -1.496141e-001
      vertex -2.500000e-002 1.000000e-001 -1.496141e-001
      vertex 2.500000e-002 3.000000e-001 -1.496141e-001
    endloop
  endfacet
  facet normal 0.000000e+000 0.000000e+000 -1.000000e+000
    outer loop
      vertex 2.500000e-002 3.000000e-001 -1.496141e-001
      vertex -2.500000e-002 1.000000e-001 -1.496141e-001
      vertex -2.500000e-002 3.000000e-001 -1.496141e-001
    endloop
  endfacet
  facet normal 0.000000e+000 0.000000e+000 -1.000000e+000
    outer loop
      vertex -2.500000e-002 1.000000e-001 -1.496141e-001
      vertex 2.500000e-002 1.000000e-001 -1.496141e-001
      vertex -2.500000e-002 -1.000000e-001 -1.496141e-001
    endloop
  endfacet
  facet normal 0.000000e+000 0.000000e+000 -1.000000e+000
    outer loop
      vertex -2.500000e-002 -1.000000e-001 -1.496141e-001
      vertex 2.500000e-002 -1.000000e-001 -1.496141e-001
      vertex -2.500000e-002 -3.000000e-001 -1.496141e-001
    endloop
  endfacet
  facet normal 0.000000e+000 0.000000e+000 1.000000e+000
    outer loop
      vertex -2.500000e-002 -3.000000e-001 1.503859e-001
      vertex 2.500000e-002 -3.000000e-001 1.503859e-001
      vertex 2.500000e-002 -1.000000e-001 1.503859e-001
    endloop
  endfacet
  facet normal 0.000000e+000 0.000000e+000 1.000000e+000
    outer loop
      vertex 2.500000e-002 -1.000000e-001 1.503859e-001
      vertex 2.500000e-002 1.000000e-001 1.503859e-001
      vertex -2.500000e-002 -1.000000e-001 1.503859e-001
    endloop
  endfacet
  facet normal 0.000000e+000 0.000000e+000 1.000000e+000
    outer loop
      vertex 2.500000e-002 1.000000e-001 1.503859e-001
      vertex 2.500000e-002 3.000000e-001 1.503859e-001
      vertex -2.500000e-002 1.000000e-001 1.503859e-001
    endloop
  endfacet
  facet normal 0.000000e+000 0.000000e+000 1.000000e+000
    outer loop
      vertex 2.500000e-002 3.000000e-001 1.503859e-001
      vertex -2.500000e-002 3.000000e-001 1.503859e-001
      vertex -2.500000e-002 1.000000e-001 1.503859e-001
    endloop
  endfacet
  facet normal 0.000000e+000 0.000000e+000 1.000000e+000
    outer loop
      vertex -2.500000e-002 1.000000e-001 1.503859e-001
      vertex -2.500000e-002 -1.000000e-001 1.503859e-001
      vertex 2.500000e-002 1.000000e-001 1.503859e-001
    endloop
  endfacet
  facet normal 0.000000e+000 0.000000e+000 1.000000e+000
    outer loop
      vertex -2.500000e-002 -1.000000e-001 1.503859e-001
      vertex -2.500000e-002 -3.000000e-001 1.503859e-001
      vertex 2.500000e-002 -1.000000e-001 1.503859e-001
    endloop
  endfacet
  facet normal 0.000000e+000 -1.000000e+000 0.000000e+000
    outer loop
      vertex -2.500000e-002 -3.000000e-001 -1.496141e-001
      vertex 2.500000e-002 -3.000000e-001 -1.496141e-001
      vertex 2.500000e-002 -3.000000e-001 3.858521e-004
    endloop
  endfacet
  facet normal 0.000000e+000 -1.000000e+000 0.000000e+000
    outer loop
      vertex 2.500000e-002 -3.000000e-001 1.503859e-001
      vertex -2.500000e-002 -3.000000e-001 1.503859e-001
      vertex -2.500000e-002 -3.000000e-001 3.858521e-004
    endloop
  endfacet
  facet normal 0.000000e+000 -1.000000e+000 0.000000e+000
    outer loop
      vertex 2.500000e-002 -3.000000e-001 3.858521e-004
      vertex 2.500000e-002 -3.000000e-001 1.503859e-001
      vertex -2.500000e-002 -3.000000e-001 3.858521e-004
    endloop
  endfacet
  facet normal 0.000000e+000 -1.000000e+000 0.000000e+000
    outer loop
      vertex -2.500000e-002 -3.000000e-001 3.858521e-004
      vertex -2.500000e-002 -3.000000e-001 -1.496141e-001
      vertex 2.500000e-002 -3.000000e-001 3.858521e-004
    endloop
  endfacet
  facet normal 1.000000e+000 0.000000e+000 0.000000e+000
    outer loop
      vertex 2.500000e-002 -3.000000e-001 -1.496141e-001
      vertex 2.500000e-002 -1.000000e-001 -1.496141e-001
      vertex 2.500000e-002 -3.000000e-001 3.858521e-004
    endloop
  endfacet
  facet normal 1.000000e+000 0.000000e+000 0.000000e+000
    outer loop
      vertex 2.500000e-002 -1.000000e-001 -1.496141e-001
      vertex 2.500000e-002 1.000000e-001 -1.496141e-001
      vertex 2.500000e-002 3.000000e-001 3.858521e-004
    endloop
  endfacet
  facet normal 1.000000e+000 0.000000e+000 0.000000e+000
    outer loop
      vertex 2.500000e-002 1.000000e-001 -1.496141e-001
      vertex 2.500000e-002 3.000000e-001 -1.496141e-001
      vertex 2.500000e-002 3.000000e-001 3.858521e-004
    endloop
  endfacet
  facet normal 1.000000e+000 0.000000e+000 0.000000e+000
    outer loop
      vertex 2.500000e-002 3.000000e-001 1.503859e-001
      vertex 2.500000e-002 1.000000e-001 1.503859e-001
      vertex 2.500000e-002 3.000000e-001 3.858521e-004
    endloop
  endfacet
  facet normal 1.000000e+000 0.000000e+000 0.000000e+000
    outer loop
      vertex 2.500000e-002 1.000000e-001 1.503859e-001
      vertex 2.500000e-002 -1.000000e-001 1.503859e-001
      vertex 2.500000e-002 3.000000e-001 3.858521e-004
    endloop
  endfacet
  facet normal 1.000000e+000 0.000000e+000 0.000000e+000
    outer loop
      vertex 2.500000e-002 -1.000000e-001 1.503859e-001
      vertex 2.500000e-002 -3.000000e-001 1.503859e-001
      vertex 2.500000e-002 -3.000000e-001 3.858521e-004
    endloop
  endfacet
  facet normal 1.000000e+000 0.000000e+000 0.000000e+000
    outer loop
      vertex 2.500000e-002 -3.000000e-001 3.858521e-004
      vertex 2.500000e-002 -1.000000e-001 -1.496141e-001
      vertex 2.500000e-002 -1.000000e-001 1.503859e-001
    endloop
  endfacet
  facet normal 1.000000e+000 0.000000e+000 0.000000e+000
    outer loop
      vertex 2.500000e-002 -1.000000e-001 -1.496141e-001
      vertex 2.500000e-002 3.000000e-001 3.858521e-004
      vertex 2.500000e-002 -1.000000e-001 1.503859e-001
    endloop
  endfacet
  facet normal 0.000000e+000 1.000000e+000 0.000000e+000
    outer loop
      vertex 2.500000e-002 3.000000e-001 -1.496141e-001
      vertex -2.500000e-002 3.000000e-001 -1.496141e-001
      vertex -2.500000e-002 3.000000e-001 3.858521e-004
    endloop
  endfacet
  facet normal 0.000000e+000 1.000000e+000 0.000000e+000
    outer loop
      vertex -2.500000e-002 3.000000e-001 1.503859e-001
      vertex 2.500000e-002 3.000000e-001 1.503859e-001
      vertex 2.500000e-002 3.000000e-001 3.858521e-004
    endloop
  endfacet
  facet normal 0.000000e+000 1.000000e+000 0.000000e+000
    outer loop
      vertex 2.500000e-002 3.000000e-001 3.858521e-004
      vertex 2.500000e-002 3.000000e-001 -1.496141e-001
      vertex -2.500000e-002 3.000000e-001 3.858521e-004
    endloop
  endfacet
  facet normal 0.000000e+000 1.000000e+000 0.000000e+000
    outer loop
      vertex -2.500000e-002 3.000000e-001 3.858521e-004
      vertex -2.500000e-002 3.000000e-001 1.503859e-001
      vertex 2.500000e-002 3.000000e-001 3.858521e-004
    endloop
  endfacet
  facet normal -1.000000e+000 0.000000e+000 0.000000e+000
    outer loop
      vertex -2.500000e-002 3.000000e-001 -1.496141e-001
      vertex -2.500000e-002 1.000000e-001 -1.496141e-001
      vertex -2.500000e-002 3.000000e-001 3.858521e-004
    endloop
  endfacet
  facet normal -1.000000e+000 0.000000e+000 0.000000e+000
    outer loop
      vertex -2.500000e-002 1.000000e-001 -1.496141e-001
      vertex -2.500000e-002 -1.000000e-001 -1.496141e-001
      vertex -2.500000e-002 -3.000000e-001 3.858521e-004
    endloop
  endfacet
  facet normal -1.000000e+000 0.000000e+000 0.000000e+000
    outer loop
      vertex -2.500000e-002 -1.000000e-001 -1.496141e-001
      vertex -2.500000e-002 -3.000000e-001 -1.496141e-001
      vertex -2.500000e-002 -3.000000e-001 3.858521e-004
    endloop
  endfacet
  facet normal -1.000000e+000 0.000000e+000 0.000000e+000
    outer loop
      vertex -2.500000e-002 -3.000000e-001 1.503859e-001
      vertex -2.500000e-002 -1.000000e-001 1.503859e-001
      vertex -2.500000e-002 -3.000000e-001 3.858521e-004
    endloop
  endfacet
  facet normal -1.000000e+000 0.000000e+000 0.000000e+000
    outer loop
      vertex -2.500000e-002 -1.000000e-001 1.503859e-001
      vertex -2.500000e-002 1.000000e-001 1.503859e-001
      vertex -2.500000e-002 -3.000000e-001 3.858521e-004
    endloop
  endfacet
  facet normal -1.000000e+000 0.000000e+000 0.000000e+000
    outer loop
      vertex -2.500000e-002 1.000000e-001 1.503859e-001
      vertex -2.500000e-002 3.000000e-001 1.503859e-001
      vertex -2.500000e-002 3.000000e-001 3.858521e-004
    endloop
  endfacet
  facet normal -1.000000e+000 0.000000e+000 0.000000e+000
    outer loop
      vertex -2.500000e-002 3.000000e-001 3.858521e-004
      vertex -2.500000e-002 1.000000e-001 -1.496141e-001
      vertex -2.500000e-002 1.000000e-001 1.503859e-001
    endloop
  endfacet
  facet normal -1.000000e+000 0.000000e+000 0.000000e+000
    outer loop
      vertex -2.500000e-002 1.000000e-001 -1.496141e-001
      vertex -2.500000e-002 -3.000000e-001 3.858521e-004
      vertex -2.500000e-002 1.000000e-001 1.503859e-001
    endloop
  endfacet
endsolid OBJECT
