solid OBJECT
  facet normal 0.000000e+000 0.000000e+000 -1.000000e+000
    outer loop
      vertex 1.154632e-014 -1.903124e+000 -2.000000e+000
      vertex 1.199041e-014 -8.354686e+000 -2.000000e+000
      vertex -6.403124e+000 -8.354686e+000 -2.000000e+000
    endloop
  endfacet
  facet normal 0.000000e+000 0.000000e+000 -1.000000e+000
    outer loop
      vertex 1.154632e-014 -1.903124e+000 -2.000000e+000
      vertex -6.403124e+000 -8.354686e+000 -2.000000e+000
      vertex -6.403124e+000 -1.903124e+000 -2.000000e+000
    endloop
  endfacet
  facet normal 0.000000e+000 0.000000e+000 -1.000000e+000
    outer loop
      vertex 1.243450e-014 4.548438e+000 -2.000000e+000
      vertex 1.154632e-014 -1.903124e+000 -2.000000e+000
      vertex -6.403124e+000 -1.903124e+000 -2.000000e+000
    endloop
  endfacet
  facet normal 0.000000e+000 0.000000e+000 -1.000000e+000
    outer loop
      vertex 1.243450e-014 4.548438e+000 -2.000000e+000
      vertex -6.403124e+000 -1.903124e+000 -2.000000e+000
      vertex -6.403124e+000 4.548438e+000 -2.000000e+000
    endloop
  endfacet
  facet normal 0.000000e+000 0.000000e+000 -1.000000e+000
    outer loop
      vertex 6.403124e+000 -1.903124e+000 -2.000000e+000
      vertex 6.403124e+000 -8.354686e+000 -2.000000e+000
      vertex 1.199041e-014 -8.354686e+000 -2.000000e+000
    endloop
  endfacet
  facet normal 0.000000e+000 0.000000e+000 -1.000000e+000
    outer loop
      vertex 6.403124e+000 -1.903124e+000 -2.000000e+000
      vertex 1.199041e-014 -8.354686e+000 -2.000000e+000
      vertex 1.154632e-014 -1.903124e+000 -2.000000e+000
    endloop
  endfacet
  facet normal 0.000000e+000 0.000000e+000 -1.000000e+000
    outer loop
      vertex 6.403124e+000 4.548438e+000 -2.000000e+000
      vertex 6.403124e+000 -1.903124e+000 -2.000000e+000
      vertex 1.154632e-014 -1.903124e+000 -2.000000e+000
    endloop
  endfacet
  facet normal 0.000000e+000 0.000000e+000 -1.000000e+000
    outer loop
      vertex 6.403124e+000 4.548438e+000 -2.000000e+000
      vertex 1.154632e-014 -1.903124e+000 -2.000000e+000
      vertex 1.243450e-014 4.548438e+000 -2.000000e+000
    endloop
  endfacet
  facet normal 0.000000e+000 0.000000e+000 -1.000000e+000
    outer loop
      vertex 1.000000e+001 1.100000e+001 -2.000000e+000
      vertex 1.243450e-014 4.548438e+000 -2.000000e+000
      vertex -1.000000e+001 1.100000e+001 -2.000000e+000
    endloop
  endfacet
  facet normal 0.000000e+000 0.000000e+000 -1.000000e+000
    outer loop
      vertex 1.000000e+001 6.000000e+000 -2.000000e+000
      vertex 6.403124e+000 4.548438e+000 -2.000000e+000
      vertex 1.000000e+001 1.100000e+001 -2.000000e+000
    endloop
  endfacet
  facet normal 0.000000e+000 0.000000e+000 -1.000000e+000
    outer loop
      vertex -1.000000e+001 1.100000e+001 -2.000000e+000
      vertex -6.403124e+000 4.548438e+000 -2.000000e+000
      vertex -1.000000e+001 6.000000e+000 -2.000000e+000
    endloop
  endfacet
  facet normal -3.488962e-017 -8.645419e-017 -1.000000e+000
    outer loop
      vertex -1.000000e+001 6.000000e+000 -2.000000e+000
      vertex -6.403124e+000 4.548438e+000 -2.000000e+000
      vertex -1.133034e+001 3.968526e+000 -2.000000e+000
    endloop
  endfacet
  facet normal -5.949556e-017 1.226103e-016 -1.000000e+000
    outer loop
      vertex -1.133034e+001 3.968526e+000 -2.000000e+000
      vertex -6.403124e+000 4.548438e+000 -2.000000e+000
      vertex -1.225783e+001 1.707490e+000 -2.000000e+000
    endloop
  endfacet
  facet normal 0.000000e+000 0.000000e+000 -1.000000e+000
    outer loop
      vertex -1.225783e+001 1.707490e+000 -2.000000e+000
      vertex -6.403124e+000 -1.903124e+000 -2.000000e+000
      vertex -1.273418e+001 -6.433324e-001 -2.000000e+000
    endloop
  endfacet
  facet normal 0.000000e+000 0.000000e+000 -1.000000e+000
    outer loop
      vertex -1.273418e+001 -6.433324e-001 -2.000000e+000
      vertex -6.403124e+000 -1.903124e+000 -2.000000e+000
      vertex -1.276670e+001 -3.005658e+000 -2.000000e+000
    endloop
  endfacet
  facet normal 0.000000e+000 0.000000e+000 -1.000000e+000
    outer loop
      vertex -1.276670e+001 -3.005658e+000 -2.000000e+000
      vertex -6.403124e+000 -1.903124e+000 -2.000000e+000
      vertex -1.234453e+001 -5.407720e+000 -2.000000e+000
    endloop
  endfacet
  facet normal 0.000000e+000 0.000000e+000 -1.000000e+000
    outer loop
      vertex -1.234453e+001 -5.407720e+000 -2.000000e+000
      vertex -6.403124e+000 -8.354686e+000 -2.000000e+000
      vertex -1.149456e+001 -7.645808e+000 -2.000000e+000
    endloop
  endfacet
  facet normal 0.000000e+000 0.000000e+000 -1.000000e+000
    outer loop
      vertex -1.149456e+001 -7.645808e+000 -2.000000e+000
      vertex -6.403124e+000 -8.354686e+000 -2.000000e+000
      vertex -1.035836e+001 -9.530236e+000 -2.000000e+000
    endloop
  endfacet
  facet normal 0.000000e+000 0.000000e+000 -1.000000e+000
    outer loop
      vertex -1.035836e+001 -9.530236e+000 -2.000000e+000
      vertex -6.403124e+000 -8.354686e+000 -2.000000e+000
      vertex -8.715287e+000 -1.138316e+001 -2.000000e+000
    endloop
  endfacet
  facet normal 0.000000e+000 0.000000e+000 -1.000000e+000
    outer loop
      vertex -8.715287e+000 -1.138316e+001 -2.000000e+000
      vertex -6.403124e+000 -8.354686e+000 -2.000000e+000
      vertex -6.787391e+000 -1.285962e+001 -2.000000e+000
    endloop
  endfacet
  facet normal 0.000000e+000 0.000000e+000 -1.000000e+000
    outer loop
      vertex -6.787391e+000 -1.285962e+001 -2.000000e+000
      vertex -6.403124e+000 -8.354686e+000 -2.000000e+000
      vertex -4.600865e+000 -1.395124e+001 -2.000000e+000
    endloop
  endfacet
  facet normal 0.000000e+000 0.000000e+000 -1.000000e+000
    outer loop
      vertex -4.600865e+000 -1.395124e+001 -2.000000e+000
      vertex 1.199041e-014 -8.354686e+000 -2.000000e+000
      vertex -2.291545e+000 -1.459956e+001 -2.000000e+000
    endloop
  endfacet
  facet normal 0.000000e+000 0.000000e+000 -1.000000e+000
    outer loop
      vertex -2.291545e+000 -1.459956e+001 -2.000000e+000
      vertex 1.199041e-014 -8.354686e+000 -2.000000e+000
      vertex 6.195854e-002 -1.480610e+001 -2.000000e+000
    endloop
  endfacet
  facet normal 0.000000e+000 0.000000e+000 -1.000000e+000
    outer loop
      vertex 6.195854e-002 -1.480610e+001 -2.000000e+000
      vertex 1.199041e-014 -8.354686e+000 -2.000000e+000
      vertex 2.488603e+000 -1.456212e+001 -2.000000e+000
    endloop
  endfacet
  facet normal 0.000000e+000 0.000000e+000 -1.000000e+000
    outer loop
      vertex 2.488603e+000 -1.456212e+001 -2.000000e+000
      vertex 1.199041e-014 -8.354686e+000 -2.000000e+000
      vertex 4.783251e+000 -1.387942e+001 -2.000000e+000
    endloop
  endfacet
  facet normal 1.328386e-016 -3.894884e-017 -1.000000e+000
    outer loop
      vertex 4.783251e+000 -1.387942e+001 -2.000000e+000
      vertex 6.403124e+000 -8.354686e+000 -2.000000e+000
      vertex 6.746296e+000 -1.288520e+001 -2.000000e+000
    endloop
  endfacet
  facet normal -7.126519e-017 -5.440908e-017 -1.000000e+000
    outer loop
      vertex 6.746296e+000 -1.288520e+001 -2.000000e+000
      vertex 6.403124e+000 -8.354686e+000 -2.000000e+000
      vertex 8.715287e+000 -1.138316e+001 -2.000000e+000
    endloop
  endfacet
  facet normal 0.000000e+000 0.000000e+000 -1.000000e+000
    outer loop
      vertex 8.715287e+000 -1.138316e+001 -2.000000e+000
      vertex 6.403124e+000 -8.354686e+000 -2.000000e+000
      vertex 1.032982e+001 -9.569334e+000 -2.000000e+000
    endloop
  endfacet
  facet normal 2.762075e-017 8.929200e-017 -1.000000e+000
    outer loop
      vertex 1.032982e+001 -9.569334e+000 -2.000000e+000
      vertex 6.403124e+000 -8.354686e+000 -2.000000e+000
      vertex 1.157963e+001 -7.469212e+000 -2.000000e+000
    endloop
  endfacet
  facet normal 3.087246e-017 -1.118079e-017 -1.000000e+000
    outer loop
      vertex 1.157963e+001 -7.469212e+000 -2.000000e+000
      vertex 6.403124e+000 -1.903124e+000 -2.000000e+000
      vertex 1.239639e+001 -5.213958e+000 -2.000000e+000
    endloop
  endfacet
  facet normal 3.399333e-017 -5.531410e-018 -1.000000e+000
    outer loop
      vertex 1.239639e+001 -5.213958e+000 -2.000000e+000
      vertex 6.403124e+000 -1.903124e+000 -2.000000e+000
      vertex 1.277583e+001 -2.882078e+000 -2.000000e+000
    endloop
  endfacet
  facet normal 2.093737e-017 -9.052197e-017 -1.000000e+000
    outer loop
      vertex 1.277583e+001 -2.882078e+000 -2.000000e+000
      vertex 6.403124e+000 -1.903124e+000 -2.000000e+000
      vertex 1.271137e+001 -4.440514e-001 -2.000000e+000
    endloop
  endfacet
  facet normal 0.000000e+000 0.000000e+000 -1.000000e+000
    outer loop
      vertex 1.271137e+001 -4.440514e-001 -2.000000e+000
      vertex 6.403124e+000 -1.903124e+000 -2.000000e+000
      vertex 1.219965e+001 1.894673e+000 -2.000000e+000
    endloop
  endfacet
  facet normal 0.000000e+000 0.000000e+000 -1.000000e+000
    outer loop
      vertex 1.219965e+001 1.894673e+000 -2.000000e+000
      vertex 6.403124e+000 4.548438e+000 -2.000000e+000
      vertex 1.135282e+001 3.925658e+000 -2.000000e+000
    endloop
  endfacet
  facet normal 0.000000e+000 0.000000e+000 -1.000000e+000
    outer loop
      vertex 1.135282e+001 3.925658e+000 -2.000000e+000
      vertex 6.403124e+000 4.548438e+000 -2.000000e+000
      vertex 1.000000e+001 6.000000e+000 -2.000000e+000
    endloop
  endfacet
  facet normal 0.000000e+000 0.000000e+000 -1.000000e+000
    outer loop
      vertex -6.403124e+000 -8.354686e+000 -2.000000e+000
      vertex -1.234453e+001 -5.407720e+000 -2.000000e+000
      vertex -6.403124e+000 -1.903124e+000 -2.000000e+000
    endloop
  endfacet
  facet normal 0.000000e+000 0.000000e+000 -1.000000e+000
    outer loop
      vertex 1.199041e-014 -8.354686e+000 -2.000000e+000
      vertex -4.600865e+000 -1.395124e+001 -2.000000e+000
      vertex -6.403124e+000 -8.354686e+000 -2.000000e+000
    endloop
  endfacet
  facet normal 0.000000e+000 0.000000e+000 -1.000000e+000
    outer loop
      vertex -6.403124e+000 4.548438e+000 -2.000000e+000
      vertex -1.000000e+001 1.100000e+001 -2.000000e+000
      vertex 1.243450e-014 4.548438e+000 -2.000000e+000
    endloop
  endfacet
  facet normal 0.000000e+000 0.000000e+000 -1.000000e+000
    outer loop
      vertex -6.403124e+000 -1.903124e+000 -2.000000e+000
      vertex -1.225783e+001 1.707490e+000 -2.000000e+000
      vertex -6.403124e+000 4.548438e+000 -2.000000e+000
    endloop
  endfacet
  facet normal 0.000000e+000 0.000000e+000 -1.000000e+000
    outer loop
      vertex 6.403124e+000 -8.354686e+000 -2.000000e+000
      vertex 4.783251e+000 -1.387942e+001 -2.000000e+000
      vertex 1.199041e-014 -8.354686e+000 -2.000000e+000
    endloop
  endfacet
  facet normal 4.289473e-017 5.905263e-033 -1.000000e+000
    outer loop
      vertex 6.403124e+000 -1.903124e+000 -2.000000e+000
      vertex 1.157963e+001 -7.469212e+000 -2.000000e+000
      vertex 6.403124e+000 -8.354686e+000 -2.000000e+000
    endloop
  endfacet
  facet normal 0.000000e+000 0.000000e+000 -1.000000e+000
    outer loop
      vertex 1.243450e-014 4.548438e+000 -2.000000e+000
      vertex 1.000000e+001 1.100000e+001 -2.000000e+000
      vertex 6.403124e+000 4.548438e+000 -2.000000e+000
    endloop
  endfacet
  facet normal 0.000000e+000 0.000000e+000 -1.000000e+000
    outer loop
      vertex 6.403124e+000 4.548438e+000 -2.000000e+000
      vertex 1.219965e+001 1.894673e+000 -2.000000e+000
      vertex 6.403124e+000 -1.903124e+000 -2.000000e+000
    endloop
  endfacet
  facet normal 0.000000e+000 0.000000e+000 1.000000e+000
    outer loop
      vertex 1.154632e-014 -1.903124e+000 2.000000e+000
      vertex -6.403124e+000 -1.903124e+000 2.000000e+000
      vertex -6.403124e+000 -8.354686e+000 2.000000e+000
    endloop
  endfacet
  facet normal 0.000000e+000 0.000000e+000 1.000000e+000
    outer loop
      vertex 1.154632e-014 -1.903124e+000 2.000000e+000
      vertex -6.403124e+000 -8.354686e+000 2.000000e+000
      vertex 1.199041e-014 -8.354686e+000 2.000000e+000
    endloop
  endfacet
  facet normal 0.000000e+000 0.000000e+000 1.000000e+000
    outer loop
      vertex 1.243450e-014 4.548438e+000 2.000000e+000
      vertex -6.403124e+000 4.548438e+000 2.000000e+000
      vertex -6.403124e+000 -1.903124e+000 2.000000e+000
    endloop
  endfacet
  facet normal 0.000000e+000 0.000000e+000 1.000000e+000
    outer loop
      vertex 1.243450e-014 4.548438e+000 2.000000e+000
      vertex -6.403124e+000 -1.903124e+000 2.000000e+000
      vertex 1.154632e-014 -1.903124e+000 2.000000e+000
    endloop
  endfacet
  facet normal 0.000000e+000 0.000000e+000 1.000000e+000
    outer loop
      vertex 6.403124e+000 -1.903124e+000 2.000000e+000
      vertex 1.154632e-014 -1.903124e+000 2.000000e+000
      vertex 1.199041e-014 -8.354686e+000 2.000000e+000
    endloop
  endfacet
  facet normal 0.000000e+000 0.000000e+000 1.000000e+000
    outer loop
      vertex 6.403124e+000 -1.903124e+000 2.000000e+000
      vertex 1.199041e-014 -8.354686e+000 2.000000e+000
      vertex 6.403124e+000 -8.354686e+000 2.000000e+000
    endloop
  endfacet
  facet normal 0.000000e+000 0.000000e+000 1.000000e+000
    outer loop
      vertex 6.403124e+000 4.548438e+000 2.000000e+000
      vertex 1.243450e-014 4.548438e+000 2.000000e+000
      vertex 1.154632e-014 -1.903124e+000 2.000000e+000
    endloop
  endfacet
  facet normal 0.000000e+000 0.000000e+000 1.000000e+000
    outer loop
      vertex 6.403124e+000 4.548438e+000 2.000000e+000
      vertex 1.154632e-014 -1.903124e+000 2.000000e+000
      vertex 6.403124e+000 -1.903124e+000 2.000000e+000
    endloop
  endfacet
  facet normal 0.000000e+000 0.000000e+000 1.000000e+000
    outer loop
      vertex 1.000000e+001 1.100000e+001 2.000000e+000
      vertex -1.000000e+001 1.100000e+001 2.000000e+000
      vertex 1.243450e-014 4.548438e+000 2.000000e+000
    endloop
  endfacet
  facet normal 0.000000e+000 0.000000e+000 1.000000e+000
    outer loop
      vertex 1.000000e+001 6.000000e+000 2.000000e+000
      vertex 1.000000e+001 1.100000e+001 2.000000e+000
      vertex 6.403124e+000 4.548438e+000 2.000000e+000
    endloop
  endfacet
  facet normal 0.000000e+000 0.000000e+000 1.000000e+000
    outer loop
      vertex -1.000000e+001 1.100000e+001 2.000000e+000
      vertex -1.000000e+001 6.000000e+000 2.000000e+000
      vertex -6.403124e+000 4.548438e+000 2.000000e+000
    endloop
  endfacet
  facet normal -3.488962e-017 -8.645419e-017 1.000000e+000
    outer loop
      vertex -1.000000e+001 6.000000e+000 2.000000e+000
      vertex -1.133034e+001 3.968526e+000 2.000000e+000
      vertex -6.403124e+000 4.548438e+000 2.000000e+000
    endloop
  endfacet
  facet normal -5.949556e-017 1.226103e-016 1.000000e+000
    outer loop
      vertex -1.133034e+001 3.968526e+000 2.000000e+000
      vertex -1.225783e+001 1.707490e+000 2.000000e+000
      vertex -6.403124e+000 4.548438e+000 2.000000e+000
    endloop
  endfacet
  facet normal 0.000000e+000 0.000000e+000 1.000000e+000
    outer loop
      vertex -1.225783e+001 1.707490e+000 2.000000e+000
      vertex -1.273418e+001 -6.433324e-001 2.000000e+000
      vertex -6.403124e+000 -1.903124e+000 2.000000e+000
    endloop
  endfacet
  facet normal 0.000000e+000 0.000000e+000 1.000000e+000
    outer loop
      vertex -1.273418e+001 -6.433324e-001 2.000000e+000
      vertex -1.276670e+001 -3.005658e+000 2.000000e+000
      vertex -6.403124e+000 -1.903124e+000 2.000000e+000
    endloop
  endfacet
  facet normal 0.000000e+000 0.000000e+000 1.000000e+000
    outer loop
      vertex -1.276670e+001 -3.005658e+000 2.000000e+000
      vertex -1.234453e+001 -5.407720e+000 2.000000e+000
      vertex -6.403124e+000 -1.903124e+000 2.000000e+000
    endloop
  endfacet
  facet normal 0.000000e+000 0.000000e+000 1.000000e+000
    outer loop
      vertex -1.234453e+001 -5.407720e+000 2.000000e+000
      vertex -1.149456e+001 -7.645808e+000 2.000000e+000
      vertex -6.403124e+000 -8.354686e+000 2.000000e+000
    endloop
  endfacet
  facet normal 0.000000e+000 0.000000e+000 1.000000e+000
    outer loop
      vertex -1.149456e+001 -7.645808e+000 2.000000e+000
      vertex -1.035836e+001 -9.530236e+000 2.000000e+000
      vertex -6.403124e+000 -8.354686e+000 2.000000e+000
    endloop
  endfacet
  facet normal 0.000000e+000 0.000000e+000 1.000000e+000
    outer loop
      vertex -1.035836e+001 -9.530236e+000 2.000000e+000
      vertex -8.715287e+000 -1.138316e+001 2.000000e+000
      vertex -6.403124e+000 -8.354686e+000 2.000000e+000
    endloop
  endfacet
  facet normal 0.000000e+000 0.000000e+000 1.000000e+000
    outer loop
      vertex -8.715287e+000 -1.138316e+001 2.000000e+000
      vertex -6.787391e+000 -1.285962e+001 2.000000e+000
      vertex -6.403124e+000 -8.354686e+000 2.000000e+000
    endloop
  endfacet
  facet normal 0.000000e+000 0.000000e+000 1.000000e+000
    outer loop
      vertex -6.787391e+000 -1.285962e+001 2.000000e+000
      vertex -4.600865e+000 -1.395124e+001 2.000000e+000
      vertex -6.403124e+000 -8.354686e+000 2.000000e+000
    endloop
  endfacet
  facet normal 0.000000e+000 0.000000e+000 1.000000e+000
    outer loop
      vertex -4.600865e+000 -1.395124e+001 2.000000e+000
      vertex -2.291545e+000 -1.459956e+001 2.000000e+000
      vertex 1.199041e-014 -8.354686e+000 2.000000e+000
    endloop
  endfacet
  facet normal 0.000000e+000 0.000000e+000 1.000000e+000
    outer loop
      vertex -2.291545e+000 -1.459956e+001 2.000000e+000
      vertex 6.195854e-002 -1.480610e+001 2.000000e+000
      vertex 1.199041e-014 -8.354686e+000 2.000000e+000
    endloop
  endfacet
  facet normal 0.000000e+000 0.000000e+000 1.000000e+000
    outer loop
      vertex 6.195854e-002 -1.480610e+001 2.000000e+000
      vertex 2.488603e+000 -1.456212e+001 2.000000e+000
      vertex 1.199041e-014 -8.354686e+000 2.000000e+000
    endloop
  endfacet
  facet normal 0.000000e+000 0.000000e+000 1.000000e+000
    outer loop
      vertex 2.488603e+000 -1.456212e+001 2.000000e+000
      vertex 4.783251e+000 -1.387942e+001 2.000000e+000
      vertex 1.199041e-014 -8.354686e+000 2.000000e+000
    endloop
  endfacet
  facet normal 1.328386e-016 -3.894884e-017 1.000000e+000
    outer loop
      vertex 4.783251e+000 -1.387942e+001 2.000000e+000
      vertex 6.746296e+000 -1.288520e+001 2.000000e+000
      vertex 6.403124e+000 -8.354686e+000 2.000000e+000
    endloop
  endfacet
  facet normal -7.126519e-017 -5.440908e-017 1.000000e+000
    outer loop
      vertex 6.746296e+000 -1.288520e+001 2.000000e+000
      vertex 8.715287e+000 -1.138316e+001 2.000000e+000
      vertex 6.403124e+000 -8.354686e+000 2.000000e+000
    endloop
  endfacet
  facet normal 0.000000e+000 0.000000e+000 1.000000e+000
    outer loop
      vertex 8.715287e+000 -1.138316e+001 2.000000e+000
      vertex 1.032982e+001 -9.569334e+000 2.000000e+000
      vertex 6.403124e+000 -8.354686e+000 2.000000e+000
    endloop
  endfacet
  facet normal 2.762075e-017 8.929200e-017 1.000000e+000
    outer loop
      vertex 1.032982e+001 -9.569334e+000 2.000000e+000
      vertex 1.157963e+001 -7.469212e+000 2.000000e+000
      vertex 6.403124e+000 -8.354686e+000 2.000000e+000
    endloop
  endfacet
  facet normal 3.087246e-017 -1.118079e-017 1.000000e+000
    outer loop
      vertex 1.157963e+001 -7.469212e+000 2.000000e+000
      vertex 1.239639e+001 -5.213958e+000 2.000000e+000
      vertex 6.403124e+000 -1.903124e+000 2.000000e+000
    endloop
  endfacet
  facet normal 3.399333e-017 -5.531410e-018 1.000000e+000
    outer loop
      vertex 1.239639e+001 -5.213958e+000 2.000000e+000
      vertex 1.277583e+001 -2.882078e+000 2.000000e+000
      vertex 6.403124e+000 -1.903124e+000 2.000000e+000
    endloop
  endfacet
  facet normal 2.093737e-017 -9.052197e-017 1.000000e+000
    outer loop
      vertex 1.277583e+001 -2.882078e+000 2.000000e+000
      vertex 1.271137e+001 -4.440514e-001 2.000000e+000
      vertex 6.403124e+000 -1.903124e+000 2.000000e+000
    endloop
  endfacet
  facet normal 0.000000e+000 0.000000e+000 1.000000e+000
    outer loop
      vertex 1.271137e+001 -4.440514e-001 2.000000e+000
      vertex 1.219965e+001 1.894673e+000 2.000000e+000
      vertex 6.403124e+000 -1.903124e+000 2.000000e+000
    endloop
  endfacet
  facet normal 0.000000e+000 0.000000e+000 1.000000e+000
    outer loop
      vertex 1.219965e+001 1.894673e+000 2.000000e+000
      vertex 1.135282e+001 3.925658e+000 2.000000e+000
      vertex 6.403124e+000 4.548438e+000 2.000000e+000
    endloop
  endfacet
  facet normal 0.000000e+000 0.000000e+000 1.000000e+000
    outer loop
      vertex 1.135282e+001 3.925658e+000 2.000000e+000
      vertex 1.000000e+001 6.000000e+000 2.000000e+000
      vertex 6.403124e+000 4.548438e+000 2.000000e+000
    endloop
  endfacet
  facet normal 0.000000e+000 0.000000e+000 1.000000e+000
    outer loop
      vertex -6.403124e+000 -8.354686e+000 2.000000e+000
      vertex -6.403124e+000 -1.903124e+000 2.000000e+000
      vertex -1.234453e+001 -5.407720e+000 2.000000e+000
    endloop
  endfacet
  facet normal 0.000000e+000 0.000000e+000 1.000000e+000
    outer loop
      vertex 1.199041e-014 -8.354686e+000 2.000000e+000
      vertex -6.403124e+000 -8.354686e+000 2.000000e+000
      vertex -4.600865e+000 -1.395124e+001 2.000000e+000
    endloop
  endfacet
  facet normal 0.000000e+000 0.000000e+000 1.000000e+000
    outer loop
      vertex -6.403124e+000 4.548438e+000 2.000000e+000
      vertex 1.243450e-014 4.548438e+000 2.000000e+000
      vertex -1.000000e+001 1.100000e+001 2.000000e+000
    endloop
  endfacet
  facet normal 0.000000e+000 0.000000e+000 1.000000e+000
    outer loop
      vertex -6.403124e+000 -1.903124e+000 2.000000e+000
      vertex -6.403124e+000 4.548438e+000 2.000000e+000
      vertex -1.225783e+001 1.707490e+000 2.000000e+000
    endloop
  endfacet
  facet normal 0.000000e+000 0.000000e+000 1.000000e+000
    outer loop
      vertex 6.403124e+000 -8.354686e+000 2.000000e+000
      vertex 1.199041e-014 -8.354686e+000 2.000000e+000
      vertex 4.783251e+000 -1.387942e+001 2.000000e+000
    endloop
  endfacet
  facet normal 4.289473e-017 5.905263e-033 1.000000e+000
    outer loop
      vertex 6.403124e+000 -1.903124e+000 2.000000e+000
      vertex 6.403124e+000 -8.354686e+000 2.000000e+000
      vertex 1.157963e+001 -7.469212e+000 2.000000e+000
    endloop
  endfacet
  facet normal 0.000000e+000 0.000000e+000 1.000000e+000
    outer loop
      vertex 1.243450e-014 4.548438e+000 2.000000e+000
      vertex 6.403124e+000 4.548438e+000 2.000000e+000
      vertex 1.000000e+001 1.100000e+001 2.000000e+000
    endloop
  endfacet
  facet normal 0.000000e+000 0.000000e+000 1.000000e+000
    outer loop
      vertex 6.403124e+000 4.548438e+000 2.000000e+000
      vertex 6.403124e+000 -1.903124e+000 2.000000e+000
      vertex 1.219965e+001 1.894673e+000 2.000000e+000
    endloop
  endfacet
  facet normal 1.000000e+000 7.105427e-016 0.000000e+000
    outer loop
      vertex 1.000000e+001 1.100000e+001 -2.000000e+000
      vertex 1.000000e+001 1.100000e+001 0.000000e+000
      vertex 1.000000e+001 6.000000e+000 -2.000000e+000
    endloop
  endfacet
  facet normal 1.000000e+000 7.105427e-016 0.000000e+000
    outer loop
      vertex 1.000000e+001 1.100000e+001 0.000000e+000
      vertex 1.000000e+001 1.100000e+001 2.000000e+000
      vertex 1.000000e+001 6.000000e+000 0.000000e+000
    endloop
  endfacet
  facet normal 1.000000e+000 7.105427e-016 0.000000e+000
    outer loop
      vertex 1.000000e+001 1.100000e+001 2.000000e+000
      vertex 1.000000e+001 6.000000e+000 2.000000e+000
      vertex 1.000000e+001 6.000000e+000 0.000000e+000
    endloop
  endfacet
  facet normal 1.000000e+000 7.105427e-016 0.000000e+000
    outer loop
      vertex 1.000000e+001 6.000000e+000 0.000000e+000
      vertex 1.000000e+001 6.000000e+000 -2.000000e+000
      vertex 1.000000e+001 1.100000e+001 0.000000e+000
    endloop
  endfacet
  facet normal 0.000000e+000 1.000000e+000 0.000000e+000
    outer loop
      vertex 5.000000e+000 1.100000e+001 1.000000e+000
      vertex 5.000000e+000 1.100000e+001 0.000000e+000
      vertex 0.000000e+000 1.100000e+001 0.000000e+000
    endloop
  endfacet
  facet normal 0.000000e+000 1.000000e+000 0.000000e+000
    outer loop
      vertex 5.000000e+000 1.100000e+001 1.000000e+000
      vertex 0.000000e+000 1.100000e+001 0.000000e+000
      vertex 0.000000e+000 1.100000e+001 1.000000e+000
    endloop
  endfacet
  facet normal 0.000000e+000 1.000000e+000 0.000000e+000
    outer loop
      vertex 5.000000e+000 1.100000e+001 0.000000e+000
      vertex 5.000000e+000 1.100000e+001 -1.000000e+000
      vertex 0.000000e+000 1.100000e+001 -1.000000e+000
    endloop
  endfacet
  facet normal 0.000000e+000 1.000000e+000 0.000000e+000
    outer loop
      vertex 5.000000e+000 1.100000e+001 0.000000e+000
      vertex 0.000000e+000 1.100000e+001 -1.000000e+000
      vertex 0.000000e+000 1.100000e+001 0.000000e+000
    endloop
  endfacet
  facet normal 0.000000e+000 1.000000e+000 0.000000e+000
    outer loop
      vertex 0.000000e+000 1.100000e+001 0.000000e+000
      vertex 0.000000e+000 1.100000e+001 -1.000000e+000
      vertex -5.000000e+000 1.100000e+001 -1.000000e+000
    endloop
  endfacet
  facet normal 0.000000e+000 1.000000e+000 0.000000e+000
    outer loop
      vertex 0.000000e+000 1.100000e+001 0.000000e+000
      vertex -5.000000e+000 1.100000e+001 -1.000000e+000
      vertex -5.000000e+000 1.100000e+001 0.000000e+000
    endloop
  endfacet
  facet normal 0.000000e+000 1.000000e+000 0.000000e+000
    outer loop
      vertex 0.000000e+000 1.100000e+001 1.000000e+000
      vertex 0.000000e+000 1.100000e+001 0.000000e+000
      vertex -5.000000e+000 1.100000e+001 0.000000e+000
    endloop
  endfacet
  facet normal 0.000000e+000 1.000000e+000 0.000000e+000
    outer loop
      vertex 0.000000e+000 1.100000e+001 1.000000e+000
      vertex -5.000000e+000 1.100000e+001 0.000000e+000
      vertex -5.000000e+000 1.100000e+001 1.000000e+000
    endloop
  endfacet
  facet normal 0.000000e+000 1.000000e+000 0.000000e+000
    outer loop
      vertex 1.000000e+001 1.100000e+001 -2.000000e+000
      vertex -1.000000e+001 1.100000e+001 -2.000000e+000
      vertex 0.000000e+000 1.100000e+001 -1.000000e+000
    endloop
  endfacet
  facet normal 0.000000e+000 1.000000e+000 0.000000e+000
    outer loop
      vertex -1.000000e+001 1.100000e+001 2.000000e+000
      vertex 1.000000e+001 1.100000e+001 2.000000e+000
      vertex 0.000000e+000 1.100000e+001 1.000000e+000
    endloop
  endfacet
  facet normal 0.000000e+000 1.000000e+000 0.000000e+000
    outer loop
      vertex 1.000000e+001 1.100000e+001 2.000000e+000
      vertex 1.000000e+001 1.100000e+001 0.000000e+000
      vertex 5.000000e+000 1.100000e+001 1.000000e+000
    endloop
  endfacet
  facet normal 0.000000e+000 1.000000e+000 0.000000e+000
    outer loop
      vertex 1.000000e+001 1.100000e+001 0.000000e+000
      vertex 1.000000e+001 1.100000e+001 -2.000000e+000
      vertex 5.000000e+000 1.100000e+001 -1.000000e+000
    endloop
  endfacet
  facet normal 0.000000e+000 1.000000e+000 0.000000e+000
    outer loop
      vertex -1.000000e+001 1.100000e+001 -2.000000e+000
      vertex -1.000000e+001 1.100000e+001 0.000000e+000
      vertex -5.000000e+000 1.100000e+001 -1.000000e+000
    endloop
  endfacet
  facet normal 0.000000e+000 1.000000e+000 0.000000e+000
    outer loop
      vertex -1.000000e+001 1.100000e+001 0.000000e+000
      vertex -1.000000e+001 1.100000e+001 2.000000e+000
      vertex -5.000000e+000 1.100000e+001 1.000000e+000
    endloop
  endfacet
  facet normal 0.000000e+000 1.000000e+000 0.000000e+000
    outer loop
      vertex 5.000000e+000 1.100000e+001 0.000000e+000
      vertex 5.000000e+000 1.100000e+001 1.000000e+000
      vertex 1.000000e+001 1.100000e+001 0.000000e+000
    endloop
  endfacet
  facet normal 0.000000e+000 1.000000e+000 0.000000e+000
    outer loop
      vertex 5.000000e+000 1.100000e+001 1.000000e+000
      vertex 0.000000e+000 1.100000e+001 1.000000e+000
      vertex 1.000000e+001 1.100000e+001 2.000000e+000
    endloop
  endfacet
  facet normal 0.000000e+000 1.000000e+000 0.000000e+000
    outer loop
      vertex 5.000000e+000 1.100000e+001 -1.000000e+000
      vertex 5.000000e+000 1.100000e+001 0.000000e+000
      vertex 1.000000e+001 1.100000e+001 0.000000e+000
    endloop
  endfacet
  facet normal 0.000000e+000 1.000000e+000 0.000000e+000
    outer loop
      vertex 0.000000e+000 1.100000e+001 -1.000000e+000
      vertex 5.000000e+000 1.100000e+001 -1.000000e+000
      vertex 1.000000e+001 1.100000e+001 -2.000000e+000
    endloop
  endfacet
  facet normal 0.000000e+000 1.000000e+000 0.000000e+000
    outer loop
      vertex -5.000000e+000 1.100000e+001 -1.000000e+000
      vertex 0.000000e+000 1.100000e+001 -1.000000e+000
      vertex -1.000000e+001 1.100000e+001 -2.000000e+000
    endloop
  endfacet
  facet normal 0.000000e+000 1.000000e+000 0.000000e+000
    outer loop
      vertex -5.000000e+000 1.100000e+001 0.000000e+000
      vertex -5.000000e+000 1.100000e+001 -1.000000e+000
      vertex -1.000000e+001 1.100000e+001 0.000000e+000
    endloop
  endfacet
  facet normal 0.000000e+000 1.000000e+000 0.000000e+000
    outer loop
      vertex -5.000000e+000 1.100000e+001 1.000000e+000
      vertex -5.000000e+000 1.100000e+001 0.000000e+000
      vertex -1.000000e+001 1.100000e+001 0.000000e+000
    endloop
  endfacet
  facet normal 0.000000e+000 1.000000e+000 0.000000e+000
    outer loop
      vertex 0.000000e+000 1.100000e+001 1.000000e+000
      vertex -5.000000e+000 1.100000e+001 1.000000e+000
      vertex -1.000000e+001 1.100000e+001 2.000000e+000
    endloop
  endfacet
  facet normal -1.000000e+000 0.000000e+000 0.000000e+000
    outer loop
      vertex -1.000000e+001 1.100000e+001 2.000000e+000
      vertex -1.000000e+001 1.100000e+001 0.000000e+000
      vertex -1.000000e+001 6.000000e+000 2.000000e+000
    endloop
  endfacet
  facet normal -1.000000e+000 0.000000e+000 0.000000e+000
    outer loop
      vertex -1.000000e+001 1.100000e+001 0.000000e+000
      vertex -1.000000e+001 1.100000e+001 -2.000000e+000
      vertex -1.000000e+001 6.000000e+000 0.000000e+000
    endloop
  endfacet
  facet normal -1.000000e+000 0.000000e+000 0.000000e+000
    outer loop
      vertex -1.000000e+001 6.000000e+000 -2.000000e+000
      vertex -1.000000e+001 6.000000e+000 0.000000e+000
      vertex -1.000000e+001 1.100000e+001 -2.000000e+000
    endloop
  endfacet
  facet normal -1.000000e+000 0.000000e+000 0.000000e+000
    outer loop
      vertex -1.000000e+001 6.000000e+000 0.000000e+000
      vertex -1.000000e+001 6.000000e+000 2.000000e+000
      vertex -1.000000e+001 1.100000e+001 0.000000e+000
    endloop
  endfacet
  facet normal 8.376123e-001 5.462652e-001 0.000000e+000
    outer loop
      vertex 1.000000e+001 6.000000e+000 -2.000000e+000
      vertex 1.000000e+001 6.000000e+000 0.000000e+000
      vertex 1.135282e+001 3.925658e+000 -2.000000e+000
    endloop
  endfacet
  facet normal 8.376123e-001 5.462652e-001 0.000000e+000
    outer loop
      vertex 1.000000e+001 6.000000e+000 0.000000e+000
      vertex 1.000000e+001 6.000000e+000 2.000000e+000
      vertex 1.135282e+001 3.925658e+000 2.000000e+000
    endloop
  endfacet
  facet normal -8.365785e-001 5.478471e-001 0.000000e+000
    outer loop
      vertex -1.000000e+001 6.000000e+000 2.000000e+000
      vertex -1.000000e+001 6.000000e+000 0.000000e+000
      vertex -1.133034e+001 3.968526e+000 2.000000e+000
    endloop
  endfacet
  facet normal -8.365785e-001 5.478471e-001 0.000000e+000
    outer loop
      vertex -1.000000e+001 6.000000e+000 0.000000e+000
      vertex -1.000000e+001 6.000000e+000 -2.000000e+000
      vertex -1.133034e+001 3.968526e+000 -2.000000e+000
    endloop
  endfacet
  facet normal 9.229823e-001 3.848425e-001 0.000000e+000
    outer loop
      vertex 1.135282e+001 3.925658e+000 2.000000e+000
      vertex 1.219965e+001 1.894673e+000 2.000000e+000
      vertex 1.219965e+001 1.894673e+000 -2.000000e+000
    endloop
  endfacet
  facet normal 9.768891e-001 2.137468e-001 0.000000e+000
    outer loop
      vertex 1.219965e+001 1.894673e+000 2.000000e+000
      vertex 1.271137e+001 -4.440514e-001 2.000000e+000
      vertex 1.271137e+001 -4.440514e-001 -2.000000e+000
    endloop
  endfacet
  facet normal 9.996507e-001 2.643032e-002 0.000000e+000
    outer loop
      vertex 1.271137e+001 -4.440514e-001 2.000000e+000
      vertex 1.277583e+001 -2.882078e+000 2.000000e+000
      vertex 1.277583e+001 -2.882078e+000 -2.000000e+000
    endloop
  endfacet
  facet normal 9.870183e-001 -1.606081e-001 0.000000e+000
    outer loop
      vertex 1.277583e+001 -2.882078e+000 2.000000e+000
      vertex 1.239639e+001 -5.213958e+000 2.000000e+000
      vertex 1.239639e+001 -5.213958e+000 -2.000000e+000
    endloop
  endfacet
  facet normal 9.402382e-001 -3.405173e-001 0.000000e+000
    outer loop
      vertex 1.239639e+001 -5.213958e+000 2.000000e+000
      vertex 1.157963e+001 -7.469212e+000 2.000000e+000
      vertex 1.157963e+001 -7.469212e+000 -2.000000e+000
    endloop
  endfacet
  facet normal 8.593410e-001 -5.114030e-001 0.000000e+000
    outer loop
      vertex 1.157963e+001 -7.469212e+000 2.000000e+000
      vertex 1.032982e+001 -9.569334e+000 2.000000e+000
      vertex 1.032982e+001 -9.569334e+000 -2.000000e+000
    endloop
  endfacet
  facet normal 7.469512e-001 -6.648789e-001 0.000000e+000
    outer loop
      vertex 1.032982e+001 -9.569334e+000 2.000000e+000
      vertex 8.715287e+000 -1.138316e+001 2.000000e+000
      vertex 8.715287e+000 -1.138316e+001 -2.000000e+000
    endloop
  endfacet
  facet normal 6.065152e-001 -7.950719e-001 0.000000e+000
    outer loop
      vertex 8.715287e+000 -1.138316e+001 2.000000e+000
      vertex 6.746296e+000 -1.288520e+001 2.000000e+000
      vertex 6.746296e+000 -1.288520e+001 -2.000000e+000
    endloop
  endfacet
  facet normal 4.518238e-001 -8.921072e-001 0.000000e+000
    outer loop
      vertex 6.746296e+000 -1.288520e+001 2.000000e+000
      vertex 4.783251e+000 -1.387942e+001 2.000000e+000
      vertex 4.783251e+000 -1.387942e+001 -2.000000e+000
    endloop
  endfacet
  facet normal 2.851667e-001 -9.584779e-001 0.000000e+000
    outer loop
      vertex 4.783251e+000 -1.387942e+001 2.000000e+000
      vertex 2.488603e+000 -1.456212e+001 2.000000e+000
      vertex 2.488603e+000 -1.456212e+001 -2.000000e+000
    endloop
  endfacet
  facet normal 1.000373e-001 -9.949837e-001 0.000000e+000
    outer loop
      vertex 2.488603e+000 -1.456212e+001 2.000000e+000
      vertex 6.195854e-002 -1.480610e+001 2.000000e+000
      vertex 6.195854e-002 -1.480610e+001 -2.000000e+000
    endloop
  endfacet
  facet normal -8.742346e-002 -9.961712e-001 0.000000e+000
    outer loop
      vertex 6.195854e-002 -1.480610e+001 2.000000e+000
      vertex -2.291545e+000 -1.459956e+001 2.000000e+000
      vertex -2.291545e+000 -1.459956e+001 -2.000000e+000
    endloop
  endfacet
  facet normal -2.702913e-001 -9.627786e-001 0.000000e+000
    outer loop
      vertex -2.291545e+000 -1.459956e+001 2.000000e+000
      vertex -4.600865e+000 -1.395124e+001 2.000000e+000
      vertex -4.600865e+000 -1.395124e+001 -2.000000e+000
    endloop
  endfacet
  facet normal -4.466747e-001 -8.946964e-001 0.000000e+000
    outer loop
      vertex -4.600865e+000 -1.395124e+001 2.000000e+000
      vertex -6.787391e+000 -1.285962e+001 2.000000e+000
      vertex -6.787391e+000 -1.285962e+001 -2.000000e+000
    endloop
  endfacet
  facet normal -6.080167e-001 -7.939242e-001 0.000000e+000
    outer loop
      vertex -6.787391e+000 -1.285962e+001 2.000000e+000
      vertex -8.715287e+000 -1.138316e+001 2.000000e+000
      vertex -8.715287e+000 -1.138316e+001 -2.000000e+000
    endloop
  endfacet
  facet normal -7.482064e-001 -6.634660e-001 0.000000e+000
    outer loop
      vertex -8.715287e+000 -1.138316e+001 2.000000e+000
      vertex -1.035836e+001 -9.530236e+000 2.000000e+000
      vertex -1.035836e+001 -9.530236e+000 -2.000000e+000
    endloop
  endfacet
  facet normal -8.563793e-001 -5.163472e-001 0.000000e+000
    outer loop
      vertex -1.035836e+001 -9.530236e+000 2.000000e+000
      vertex -1.149456e+001 -7.645808e+000 2.000000e+000
      vertex -1.149456e+001 -7.645808e+000 -2.000000e+000
    endloop
  endfacet
  facet normal -9.348529e-001 -3.550353e-001 0.000000e+000
    outer loop
      vertex -1.149456e+001 -7.645808e+000 2.000000e+000
      vertex -1.234453e+001 -5.407720e+000 2.000000e+000
      vertex -1.234453e+001 -5.407720e+000 -2.000000e+000
    endloop
  endfacet
  facet normal -9.849042e-001 -1.731000e-001 0.000000e+000
    outer loop
      vertex -1.234453e+001 -5.407720e+000 2.000000e+000
      vertex -1.276670e+001 -3.005658e+000 2.000000e+000
      vertex -1.276670e+001 -3.005658e+000 -2.000000e+000
    endloop
  endfacet
  facet normal -9.999053e-001 1.376329e-002 0.000000e+000
    outer loop
      vertex -1.276670e+001 -3.005658e+000 2.000000e+000
      vertex -1.273418e+001 -6.433324e-001 2.000000e+000
      vertex -1.273418e+001 -6.433324e-001 -2.000000e+000
    endloop
  endfacet
  facet normal -9.800817e-001 1.985949e-001 0.000000e+000
    outer loop
      vertex -1.273418e+001 -6.433324e-001 2.000000e+000
      vertex -1.225783e+001 1.707490e+000 2.000000e+000
      vertex -1.225783e+001 1.707490e+000 -2.000000e+000
    endloop
  endfacet
  facet normal -9.251849e-001 3.795166e-001 0.000000e+000
    outer loop
      vertex -1.225783e+001 1.707490e+000 2.000000e+000
      vertex -1.133034e+001 3.968526e+000 2.000000e+000
      vertex -1.133034e+001 3.968526e+000 -2.000000e+000
    endloop
  endfacet
  facet normal -9.251849e-001 3.795166e-001 0.000000e+000
    outer loop
      vertex -1.133034e+001 3.968526e+000 -2.000000e+000
      vertex -1.225783e+001 1.707490e+000 -2.000000e+000
      vertex -1.225783e+001 1.707490e+000 2.000000e+000
    endloop
  endfacet
  facet normal -9.800817e-001 1.985949e-001 0.000000e+000
    outer loop
      vertex -1.225783e+001 1.707490e+000 -2.000000e+000
      vertex -1.273418e+001 -6.433324e-001 -2.000000e+000
      vertex -1.273418e+001 -6.433324e-001 2.000000e+000
    endloop
  endfacet
  facet normal -9.999053e-001 1.376329e-002 0.000000e+000
    outer loop
      vertex -1.273418e+001 -6.433324e-001 -2.000000e+000
      vertex -1.276670e+001 -3.005658e+000 -2.000000e+000
      vertex -1.276670e+001 -3.005658e+000 2.000000e+000
    endloop
  endfacet
  facet normal -9.849042e-001 -1.731000e-001 0.000000e+000
    outer loop
      vertex -1.276670e+001 -3.005658e+000 -2.000000e+000
      vertex -1.234453e+001 -5.407720e+000 -2.000000e+000
      vertex -1.234453e+001 -5.407720e+000 2.000000e+000
    endloop
  endfacet
  facet normal -9.348529e-001 -3.550353e-001 0.000000e+000
    outer loop
      vertex -1.234453e+001 -5.407720e+000 -2.000000e+000
      vertex -1.149456e+001 -7.645808e+000 -2.000000e+000
      vertex -1.149456e+001 -7.645808e+000 2.000000e+000
    endloop
  endfacet
  facet normal -8.563793e-001 -5.163472e-001 0.000000e+000
    outer loop
      vertex -1.149456e+001 -7.645808e+000 -2.000000e+000
      vertex -1.035836e+001 -9.530236e+000 -2.000000e+000
      vertex -1.035836e+001 -9.530236e+000 2.000000e+000
    endloop
  endfacet
  facet normal -7.482064e-001 -6.634660e-001 0.000000e+000
    outer loop
      vertex -1.035836e+001 -9.530236e+000 -2.000000e+000
      vertex -8.715287e+000 -1.138316e+001 -2.000000e+000
      vertex -8.715287e+000 -1.138316e+001 2.000000e+000
    endloop
  endfacet
  facet normal -6.080167e-001 -7.939242e-001 0.000000e+000
    outer loop
      vertex -8.715287e+000 -1.138316e+001 -2.000000e+000
      vertex -6.787391e+000 -1.285962e+001 -2.000000e+000
      vertex -6.787391e+000 -1.285962e+001 2.000000e+000
    endloop
  endfacet
  facet normal -4.466747e-001 -8.946964e-001 0.000000e+000
    outer loop
      vertex -6.787391e+000 -1.285962e+001 -2.000000e+000
      vertex -4.600865e+000 -1.395124e+001 -2.000000e+000
      vertex -4.600865e+000 -1.395124e+001 2.000000e+000
    endloop
  endfacet
  facet normal -2.702913e-001 -9.627786e-001 0.000000e+000
    outer loop
      vertex -4.600865e+000 -1.395124e+001 -2.000000e+000
      vertex -2.291545e+000 -1.459956e+001 -2.000000e+000
      vertex -2.291545e+000 -1.459956e+001 2.000000e+000
    endloop
  endfacet
  facet normal -8.742346e-002 -9.961712e-001 0.000000e+000
    outer loop
      vertex -2.291545e+000 -1.459956e+001 -2.000000e+000
      vertex 6.195854e-002 -1.480610e+001 -2.000000e+000
      vertex 6.195854e-002 -1.480610e+001 2.000000e+000
    endloop
  endfacet
  facet normal 1.000373e-001 -9.949837e-001 0.000000e+000
    outer loop
      vertex 6.195854e-002 -1.480610e+001 -2.000000e+000
      vertex 2.488603e+000 -1.456212e+001 -2.000000e+000
      vertex 2.488603e+000 -1.456212e+001 2.000000e+000
    endloop
  endfacet
  facet normal 2.851667e-001 -9.584779e-001 0.000000e+000
    outer loop
      vertex 2.488603e+000 -1.456212e+001 -2.000000e+000
      vertex 4.783251e+000 -1.387942e+001 -2.000000e+000
      vertex 4.783251e+000 -1.387942e+001 2.000000e+000
    endloop
  endfacet
  facet normal 4.518238e-001 -8.921072e-001 0.000000e+000
    outer loop
      vertex 4.783251e+000 -1.387942e+001 -2.000000e+000
      vertex 6.746296e+000 -1.288520e+001 -2.000000e+000
      vertex 6.746296e+000 -1.288520e+001 2.000000e+000
    endloop
  endfacet
  facet normal 6.065152e-001 -7.950719e-001 0.000000e+000
    outer loop
      vertex 6.746296e+000 -1.288520e+001 -2.000000e+000
      vertex 8.715287e+000 -1.138316e+001 -2.000000e+000
      vertex 8.715287e+000 -1.138316e+001 2.000000e+000
    endloop
  endfacet
  facet normal 7.469512e-001 -6.648789e-001 0.000000e+000
    outer loop
      vertex 8.715287e+000 -1.138316e+001 -2.000000e+000
      vertex 1.032982e+001 -9.569334e+000 -2.000000e+000
      vertex 1.032982e+001 -9.569334e+000 2.000000e+000
    endloop
  endfacet
  facet normal 8.593410e-001 -5.114030e-001 0.000000e+000
    outer loop
      vertex 1.032982e+001 -9.569334e+000 -2.000000e+000
      vertex 1.157963e+001 -7.469212e+000 -2.000000e+000
      vertex 1.157963e+001 -7.469212e+000 2.000000e+000
    endloop
  endfacet
  facet normal 9.402382e-001 -3.405173e-001 0.000000e+000
    outer loop
      vertex 1.157963e+001 -7.469212e+000 -2.000000e+000
      vertex 1.239639e+001 -5.213958e+000 -2.000000e+000
      vertex 1.239639e+001 -5.213958e+000 2.000000e+000
    endloop
  endfacet
  facet normal 9.870183e-001 -1.606081e-001 0.000000e+000
    outer loop
      vertex 1.239639e+001 -5.213958e+000 -2.000000e+000
      vertex 1.277583e+001 -2.882078e+000 -2.000000e+000
      vertex 1.277583e+001 -2.882078e+000 2.000000e+000
    endloop
  endfacet
  facet normal 9.996507e-001 2.643032e-002 0.000000e+000
    outer loop
      vertex 1.277583e+001 -2.882078e+000 -2.000000e+000
      vertex 1.271137e+001 -4.440514e-001 -2.000000e+000
      vertex 1.271137e+001 -4.440514e-001 2.000000e+000
    endloop
  endfacet
  facet normal 9.768891e-001 2.137468e-001 0.000000e+000
    outer loop
      vertex 1.271137e+001 -4.440514e-001 -2.000000e+000
      vertex 1.219965e+001 1.894673e+000 -2.000000e+000
      vertex 1.219965e+001 1.894673e+000 2.000000e+000
    endloop
  endfacet
  facet normal 9.229823e-001 3.848425e-001 0.000000e+000
    outer loop
      vertex 1.219965e+001 1.894673e+000 -2.000000e+000
      vertex 1.135282e+001 3.925658e+000 -2.000000e+000
      vertex 1.135282e+001 3.925658e+000 2.000000e+000
    endloop
  endfacet
  facet normal 8.376123e-001 5.462652e-001 0.000000e+000
    outer loop
      vertex 1.135282e+001 3.925658e+000 -2.000000e+000
      vertex 1.000000e+001 6.000000e+000 0.000000e+000
      vertex 1.135282e+001 3.925658e+000 2.000000e+000
    endloop
  endfacet
  facet normal -8.365785e-001 5.478471e-001 0.000000e+000
    outer loop
      vertex -1.133034e+001 3.968526e+000 2.000000e+000
      vertex -1.000000e+001 6.000000e+000 0.000000e+000
      vertex -1.133034e+001 3.968526e+000 -2.000000e+000
    endloop
  endfacet
endsolid OBJECT
