solid bench
   facet normal -1.000000e+000 0.000000e+000 0.000000e+000
      outer loop
         vertex -6.000000e-001 5.000000e-002 1.500000e-001
         vertex -6.000000e-001 5.000000e-002 -1.500000e-001
         vertex -6.000000e-001 0.000000e+000 1.500000e-001
      endloop
   endfacet
   facet normal -1.000000e+000 0.000000e+000 0.000000e+000
      outer loop
         vertex -6.000000e-001 0.000000e+000 1.500000e-001
         vertex -6.000000e-001 5.000000e-002 -1.500000e-001
         vertex -6.000000e-001 0.000000e+000 -1.500000e-001
      endloop
   endfacet
   facet normal 0.000000e+000 0.000000e+000 1.000000e+000
      outer loop
         vertex 6.000000e-001 5.000000e-002 1.500000e-001
         vertex -6.000000e-001 5.000000e-002 1.500000e-001
         vertex 6.000000e-001 0.000000e+000 1.500000e-001
      endloop
   endfacet
   facet normal 0.000000e+000 0.000000e+000 1.000000e+000
      outer loop
         vertex 6.000000e-001 0.000000e+000 1.500000e-001
         vertex -6.000000e-001 5.000000e-002 1.500000e-001
         vertex -6.000000e-001 0.000000e+000 1.500000e-001
      endloop
   endfacet
   facet normal 1.000000e+000 0.000000e+000 0.000000e+000
      outer loop
         vertex 6.000000e-001 5.000000e-002 -1.500000e-001
         vertex 6.000000e-001 5.000000e-002 1.500000e-001
         vertex 6.000000e-001 0.000000e+000 -1.500000e-001
      endloop
   endfacet
   facet normal 1.000000e+000 0.000000e+000 0.000000e+000
      outer loop
         vertex 6.000000e-001 0.000000e+000 -1.500000e-001
         vertex 6.000000e-001 5.000000e-002 1.500000e-001
         vertex 6.000000e-001 0.000000e+000 1.500000e-001
      endloop
   endfacet
   facet normal 2.312965e-017 0.000000e+000 -1.000000e+000
      outer loop
         vertex -6.000000e-001 5.000000e-002 -1.500000e-001
         vertex 6.000000e-001 5.000000e-002 -1.500000e-001
         vertex -6.000000e-001 0.000000e+000 -1.500000e-001
      endloop
   endfacet
   facet normal 2.312965e-017 0.000000e+000 -1.000000e+000
      outer loop
         vertex -6.000000e-001 0.000000e+000 -1.500000e-001
         vertex 6.000000e-001 5.000000e-002 -1.500000e-001
         vertex 6.000000e-001 0.000000e+000 -1.500000e-001
      endloop
   endfacet
   facet normal 0.000000e+000 1.000000e+000 0.000000e+000
      outer loop
         vertex 6.000000e-001 5.000000e-002 1.500000e-001
         vertex 6.000000e-001 5.000000e-002 -1.500000e-001
         vertex -6.000000e-001 5.000000e-002 1.500000e-001
      endloop
   endfacet
   facet normal 0.000000e+000 1.000000e+000 0.000000e+000
      outer loop
         vertex -6.000000e-001 5.000000e-002 1.500000e-001
         vertex 6.000000e-001 5.000000e-002 -1.500000e-001
         vertex -6.000000e-001 5.000000e-002 -1.500000e-001
      endloop
   endfacet
   facet normal 0.000000e+000 -1.000000e+000 0.000000e+000
      outer loop
         vertex 6.000000e-001 0.000000e+000 -1.500000e-001
         vertex 6.000000e-001 0.000000e+000 1.500000e-001
         vertex -6.000000e-001 0.000000e+000 -1.500000e-001
      endloop
   endfacet
   facet normal 0.000000e+000 -1.000000e+000 0.000000e+000
      outer loop
         vertex -6.000000e-001 0.000000e+000 -1.500000e-001
         vertex 6.000000e-001 0.000000e+000 1.500000e-001
         vertex -6.000000e-001 0.000000e+000 1.500000e-001
      endloop
   endfacet
endsolid