solid OBJECT
  facet normal 0.000000e+000 0.000000e+000 -1.000000e+000
    outer loop
      vertex -2.500000e-002 -1.007074e-001 -9.903537e-002
      vertex -2.500000e-002 -7.073955e-004 -9.903537e-002
      vertex 2.500000e-002 -1.007074e-001 -9.903537e-002
    endloop
  endfacet
  facet normal 0.000000e+000 0.000000e+000 -1.000000e+000
    outer loop
      vertex 2.500000e-002 -1.007074e-001 -9.903537e-002
      vertex -2.500000e-002 -7.073955e-004 -9.903537e-002
      vertex 2.500000e-002 -7.073955e-004 -9.903537e-002
    endloop
  endfacet
  facet normal 0.000000e+000 0.000000e+000 -1.000000e+000
    outer loop
      vertex 2.500000e-002 -7.073955e-004 -9.903537e-002
      vertex -2.500000e-002 -7.073955e-004 -9.903537e-002
      vertex 2.500000e-002 9.929260e-002 -9.903537e-002
    endloop
  endfacet
  facet normal 0.000000e+000 0.000000e+000 -1.000000e+000
    outer loop
      vertex 2.500000e-002 9.929260e-002 -9.903537e-002
      vertex -2.500000e-002 -7.073955e-004 -9.903537e-002
      vertex -2.500000e-002 9.929260e-002 -9.903537e-002
    endloop
  endfacet
  facet normal 0.000000e+000 0.000000e+000 1.000000e+000
    outer loop
      vertex -2.500000e-002 -1.007074e-001 1.009646e-001
      vertex 2.500000e-002 -1.007074e-001 1.009646e-001
      vertex -2.500000e-002 -7.073955e-004 1.009646e-001
    endloop
  endfacet
  facet normal 0.000000e+000 0.000000e+000 1.000000e+000
    outer loop
      vertex 2.500000e-002 -1.007074e-001 1.009646e-001
      vertex 2.500000e-002 -7.073955e-004 1.009646e-001
      vertex -2.500000e-002 -7.073955e-004 1.009646e-001
    endloop
  endfacet
  facet normal 0.000000e+000 0.000000e+000 1.000000e+000
    outer loop
      vertex 2.500000e-002 -7.073955e-004 1.009646e-001
      vertex 2.500000e-002 9.929260e-002 1.009646e-001
      vertex -2.500000e-002 -7.073955e-004 1.009646e-001
    endloop
  endfacet
  facet normal 0.000000e+000 0.000000e+000 1.000000e+000
    outer loop
      vertex 2.500000e-002 9.929260e-002 1.009646e-001
      vertex -2.500000e-002 9.929260e-002 1.009646e-001
      vertex -2.500000e-002 -7.073955e-004 1.009646e-001
    endloop
  endfacet
  facet normal 0.000000e+000 -1.000000e+000 0.000000e+000
    outer loop
      vertex -2.500000e-002 -1.007074e-001 -9.903537e-002
      vertex 2.500000e-002 -1.007074e-001 -9.903537e-002
      vertex -2.500000e-002 -1.007074e-001 9.646302e-004
    endloop
  endfacet
  facet normal 0.000000e+000 -1.000000e+000 0.000000e+000
    outer loop
      vertex 2.500000e-002 -1.007074e-001 1.009646e-001
      vertex -2.500000e-002 -1.007074e-001 1.009646e-001
      vertex 2.500000e-002 -1.007074e-001 9.646302e-004
    endloop
  endfacet
  facet normal 0.000000e+000 -1.000000e+000 0.000000e+000
    outer loop
      vertex 2.500000e-002 -1.007074e-001 -9.903537e-002
      vertex 2.500000e-002 -1.007074e-001 9.646302e-004
      vertex -2.500000e-002 -1.007074e-001 9.646302e-004
    endloop
  endfacet
  facet normal 0.000000e+000 -1.000000e+000 0.000000e+000
    outer loop
      vertex -2.500000e-002 -1.007074e-001 1.009646e-001
      vertex -2.500000e-002 -1.007074e-001 9.646302e-004
      vertex 2.500000e-002 -1.007074e-001 9.646302e-004
    endloop
  endfacet
  facet normal 1.000000e+000 0.000000e+000 0.000000e+000
    outer loop
      vertex 2.500000e-002 -1.007074e-001 -9.903537e-002
      vertex 2.500000e-002 -7.073955e-004 -9.903537e-002
      vertex 2.500000e-002 -1.007074e-001 9.646302e-004
    endloop
  endfacet
  facet normal 1.000000e+000 0.000000e+000 0.000000e+000
    outer loop
      vertex 2.500000e-002 -7.073955e-004 -9.903537e-002
      vertex 2.500000e-002 9.929260e-002 -9.903537e-002
      vertex 2.500000e-002 9.929260e-002 9.646302e-004
    endloop
  endfacet
  facet normal 1.000000e+000 0.000000e+000 0.000000e+000
    outer loop
      vertex 2.500000e-002 9.929260e-002 1.009646e-001
      vertex 2.500000e-002 -7.073955e-004 1.009646e-001
      vertex 2.500000e-002 9.929260e-002 9.646302e-004
    endloop
  endfacet
  facet normal 1.000000e+000 0.000000e+000 0.000000e+000
    outer loop
      vertex 2.500000e-002 -7.073955e-004 1.009646e-001
      vertex 2.500000e-002 -1.007074e-001 1.009646e-001
      vertex 2.500000e-002 -1.007074e-001 9.646302e-004
    endloop
  endfacet
  facet normal 1.000000e+000 0.000000e+000 0.000000e+000
    outer loop
      vertex 2.500000e-002 -1.007074e-001 9.646302e-004
      vertex 2.500000e-002 -7.073955e-004 -9.903537e-002
      vertex 2.500000e-002 9.929260e-002 9.646302e-004
    endloop
  endfacet
  facet normal 1.000000e+000 0.000000e+000 0.000000e+000
    outer loop
      vertex 2.500000e-002 9.929260e-002 9.646302e-004
      vertex 2.500000e-002 -7.073955e-004 1.009646e-001
      vertex 2.500000e-002 -1.007074e-001 9.646302e-004
    endloop
  endfacet
  facet normal 0.000000e+000 1.000000e+000 0.000000e+000
    outer loop
      vertex 2.500000e-002 9.929260e-002 -9.903537e-002
      vertex -2.500000e-002 9.929260e-002 -9.903537e-002
      vertex 2.500000e-002 9.929260e-002 9.646302e-004
    endloop
  endfacet
  facet normal 0.000000e+000 1.000000e+000 0.000000e+000
    outer loop
      vertex -2.500000e-002 9.929260e-002 1.009646e-001
      vertex 2.500000e-002 9.929260e-002 1.009646e-001
      vertex -2.500000e-002 9.929260e-002 9.646302e-004
    endloop
  endfacet
  facet normal 0.000000e+000 1.000000e+000 0.000000e+000
    outer loop
      vertex 2.500000e-002 9.929260e-002 1.009646e-001
      vertex 2.500000e-002 9.929260e-002 9.646302e-004
      vertex -2.500000e-002 9.929260e-002 9.646302e-004
    endloop
  endfacet
  facet normal 0.000000e+000 1.000000e+000 0.000000e+000
    outer loop
      vertex -2.500000e-002 9.929260e-002 -9.903537e-002
      vertex -2.500000e-002 9.929260e-002 9.646302e-004
      vertex 2.500000e-002 9.929260e-002 9.646302e-004
    endloop
  endfacet
  facet normal -1.000000e+000 0.000000e+000 0.000000e+000
    outer loop
      vertex -2.500000e-002 9.929260e-002 -9.903537e-002
      vertex -2.500000e-002 -7.073955e-004 -9.903537e-002
      vertex -2.500000e-002 9.929260e-002 9.646302e-004
    endloop
  endfacet
  facet normal -1.000000e+000 0.000000e+000 0.000000e+000
    outer loop
      vertex -2.500000e-002 -7.073955e-004 -9.903537e-002
      vertex -2.500000e-002 -1.007074e-001 -9.903537e-002
      vertex -2.500000e-002 -1.007074e-001 9.646302e-004
    endloop
  endfacet
  facet normal -1.000000e+000 0.000000e+000 0.000000e+000
    outer loop
      vertex -2.500000e-002 -1.007074e-001 1.009646e-001
      vertex -2.500000e-002 -7.073955e-004 1.009646e-001
      vertex -2.500000e-002 -1.007074e-001 9.646302e-004
    endloop
  endfacet
  facet normal -1.000000e+000 0.000000e+000 0.000000e+000
    outer loop
      vertex -2.500000e-002 -7.073955e-004 1.009646e-001
      vertex -2.500000e-002 9.929260e-002 1.009646e-001
      vertex -2.500000e-002 9.929260e-002 9.646302e-004
    endloop
  endfacet
  facet normal -1.000000e+000 0.000000e+000 0.000000e+000
    outer loop
      vertex -2.500000e-002 9.929260e-002 9.646302e-004
      vertex -2.500000e-002 -7.073955e-004 -9.903537e-002
      vertex -2.500000e-002 -1.007074e-001 9.646302e-004
    endloop
  endfacet
  facet normal -1.000000e+000 0.000000e+000 0.000000e+000
    outer loop
      vertex -2.500000e-002 -1.007074e-001 9.646302e-004
      vertex -2.500000e-002 -7.073955e-004 1.009646e-001
      vertex -2.500000e-002 9.929260e-002 9.646302e-004
    endloop
  endfacet
endsolid OBJECT
