solid OBJECT
  facet normal 0.000000e+000 0.000000e+000 -1.000000e+000
    outer loop
      vertex 2.358521e-002 -2.000000e-001 -1.994855e-001
      vertex -2.641479e-002 -2.000000e-001 -1.994855e-001
      vertex 2.358521e-002 -6.666667e-002 -1.994855e-001
    endloop
  endfacet
  facet normal 0.000000e+000 0.000000e+000 -1.000000e+000
    outer loop
      vertex 2.358521e-002 -6.666667e-002 -1.994855e-001
      vertex -2.641479e-002 -6.666667e-002 -1.994855e-001
      vertex 2.358521e-002 6.666667e-002 -1.994855e-001
    endloop
  endfacet
  facet normal 0.000000e+000 0.000000e+000 -1.000000e+000
    outer loop
      vertex 2.358521e-002 6.666667e-002 -1.994855e-001
      vertex -2.641479e-002 6.666667e-002 -1.994855e-001
      vertex 2.358521e-002 2.000000e-001 -1.994855e-001
    endloop
  endfacet
  facet normal 0.000000e+000 0.000000e+000 -1.000000e+000
    outer loop
      vertex 2.358521e-002 2.000000e-001 -1.994855e-001
      vertex -2.641479e-002 6.666667e-002 -1.994855e-001
      vertex -2.641479e-002 2.000000e-001 -1.994855e-001
    endloop
  endfacet
  facet normal 0.000000e+000 0.000000e+000 -1.000000e+000
    outer loop
      vertex -2.641479e-002 6.666667e-002 -1.994855e-001
      vertex 2.358521e-002 6.666667e-002 -1.994855e-001
      vertex -2.641479e-002 -6.666667e-002 -1.994855e-001
    endloop
  endfacet
  facet normal 0.000000e+000 0.000000e+000 -1.000000e+000
    outer loop
      vertex -2.641479e-002 -6.666667e-002 -1.994855e-001
      vertex 2.358521e-002 -6.666667e-002 -1.994855e-001
      vertex -2.641479e-002 -2.000000e-001 -1.994855e-001
    endloop
  endfacet
  facet normal 0.000000e+000 0.000000e+000 1.000000e+000
    outer loop
      vertex 2.358521e-002 -2.000000e-001 2.005145e-001
      vertex 2.358521e-002 -6.666667e-002 2.005145e-001
      vertex -2.641479e-002 -2.000000e-001 2.005145e-001
    endloop
  endfacet
  facet normal 0.000000e+000 0.000000e+000 1.000000e+000
    outer loop
      vertex 2.358521e-002 -6.666667e-002 2.005145e-001
      vertex 2.358521e-002 6.666667e-002 2.005145e-001
      vertex -2.641479e-002 -6.666667e-002 2.005145e-001
    endloop
  endfacet
  facet normal 0.000000e+000 0.000000e+000 1.000000e+000
    outer loop
      vertex 2.358521e-002 6.666667e-002 2.005145e-001
      vertex 2.358521e-002 2.000000e-001 2.005145e-001
      vertex -2.641479e-002 6.666667e-002 2.005145e-001
    endloop
  endfacet
  facet normal 0.000000e+000 0.000000e+000 1.000000e+000
    outer loop
      vertex 2.358521e-002 2.000000e-001 2.005145e-001
      vertex -2.641479e-002 2.000000e-001 2.005145e-001
      vertex -2.641479e-002 6.666667e-002 2.005145e-001
    endloop
  endfacet
  facet normal 0.000000e+000 0.000000e+000 1.000000e+000
    outer loop
      vertex -2.641479e-002 6.666667e-002 2.005145e-001
      vertex -2.641479e-002 -6.666667e-002 2.005145e-001
      vertex 2.358521e-002 6.666667e-002 2.005145e-001
    endloop
  endfacet
  facet normal 0.000000e+000 0.000000e+000 1.000000e+000
    outer loop
      vertex -2.641479e-002 -6.666667e-002 2.005145e-001
      vertex -2.641479e-002 -2.000000e-001 2.005145e-001
      vertex 2.358521e-002 -6.666667e-002 2.005145e-001
    endloop
  endfacet
  facet normal 1.000000e+000 -7.806256e-017 0.000000e+000
    outer loop
      vertex 2.358521e-002 -2.000000e-001 -1.994855e-001
      vertex 2.358521e-002 -6.666667e-002 -1.994855e-001
      vertex 2.358521e-002 -2.000000e-001 -6.615220e-002
    endloop
  endfacet
  facet normal 1.000000e+000 -5.204170e-017 -2.602086e-017
    outer loop
      vertex 2.358521e-002 -6.666667e-002 -1.994855e-001
      vertex 2.358521e-002 6.666667e-002 -1.994855e-001
      vertex 2.358521e-002 2.000000e-001 -6.615220e-002
    endloop
  endfacet
  facet normal 1.000000e+000 -7.806256e-017 0.000000e+000
    outer loop
      vertex 2.358521e-002 6.666667e-002 -1.994855e-001
      vertex 2.358521e-002 2.000000e-001 -1.994855e-001
      vertex 2.358521e-002 2.000000e-001 -6.615220e-002
    endloop
  endfacet
  facet normal 1.000000e+000 -7.806256e-017 0.000000e+000
    outer loop
      vertex 2.358521e-002 2.000000e-001 2.005145e-001
      vertex 2.358521e-002 6.666667e-002 2.005145e-001
      vertex 2.358521e-002 2.000000e-001 6.718114e-002
    endloop
  endfacet
  facet normal 1.000000e+000 -5.204170e-017 -2.602085e-017
    outer loop
      vertex 2.358521e-002 6.666667e-002 2.005145e-001
      vertex 2.358521e-002 -6.666667e-002 2.005145e-001
      vertex 2.358521e-002 -2.000000e-001 6.718114e-002
    endloop
  endfacet
  facet normal 1.000000e+000 -7.806256e-017 0.000000e+000
    outer loop
      vertex 2.358521e-002 -6.666667e-002 2.005145e-001
      vertex 2.358521e-002 -2.000000e-001 2.005145e-001
      vertex 2.358521e-002 -2.000000e-001 6.718114e-002
    endloop
  endfacet
  facet normal 1.000000e+000 -7.806256e-017 0.000000e+000
    outer loop
      vertex 2.358521e-002 2.000000e-001 -6.615220e-002
      vertex 2.358521e-002 2.000000e-001 6.718114e-002
      vertex 2.358521e-002 6.666667e-002 2.005145e-001
    endloop
  endfacet
  facet normal 1.000000e+000 -7.806256e-017 0.000000e+000
    outer loop
      vertex 2.358521e-002 -2.000000e-001 6.718114e-002
      vertex 2.358521e-002 -2.000000e-001 -6.615220e-002
      vertex 2.358521e-002 -6.666667e-002 -1.994855e-001
    endloop
  endfacet
  facet normal 1.000000e+000 -6.765421e-017 5.204172e-018
    outer loop
      vertex 2.358521e-002 -6.666667e-002 -1.994855e-001
      vertex 2.358521e-002 2.000000e-001 -6.615220e-002
      vertex 2.358521e-002 -2.000000e-001 6.718114e-002
    endloop
  endfacet
  facet normal 1.000000e+000 -6.765421e-017 5.204171e-018
    outer loop
      vertex 2.358521e-002 6.666667e-002 2.005145e-001
      vertex 2.358521e-002 -2.000000e-001 6.718114e-002
      vertex 2.358521e-002 2.000000e-001 -6.615220e-002
    endloop
  endfacet
  facet normal 0.000000e+000 1.000000e+000 0.000000e+000
    outer loop
      vertex 2.358521e-002 2.000000e-001 -1.994855e-001
      vertex -2.641479e-002 2.000000e-001 -1.994855e-001
      vertex -2.641479e-002 2.000000e-001 -6.615220e-002
    endloop
  endfacet
  facet normal 0.000000e+000 1.000000e+000 0.000000e+000
    outer loop
      vertex -2.641479e-002 2.000000e-001 2.005145e-001
      vertex 2.358521e-002 2.000000e-001 2.005145e-001
      vertex -2.641479e-002 2.000000e-001 6.718114e-002
    endloop
  endfacet
  facet normal 0.000000e+000 1.000000e+000 0.000000e+000
    outer loop
      vertex 2.358521e-002 2.000000e-001 2.005145e-001
      vertex 2.358521e-002 2.000000e-001 6.718114e-002
      vertex -2.641479e-002 2.000000e-001 6.718114e-002
    endloop
  endfacet
  facet normal 0.000000e+000 1.000000e+000 0.000000e+000
    outer loop
      vertex 2.358521e-002 2.000000e-001 6.718114e-002
      vertex 2.358521e-002 2.000000e-001 -6.615220e-002
      vertex -2.641479e-002 2.000000e-001 -6.615220e-002
    endloop
  endfacet
  facet normal 0.000000e+000 1.000000e+000 0.000000e+000
    outer loop
      vertex 2.358521e-002 2.000000e-001 -6.615220e-002
      vertex 2.358521e-002 2.000000e-001 -1.994855e-001
      vertex -2.641479e-002 2.000000e-001 -6.615220e-002
    endloop
  endfacet
  facet normal 0.000000e+000 1.000000e+000 0.000000e+000
    outer loop
      vertex -2.641479e-002 2.000000e-001 -6.615220e-002
      vertex -2.641479e-002 2.000000e-001 6.718114e-002
      vertex 2.358521e-002 2.000000e-001 6.718114e-002
    endloop
  endfacet
  facet normal -1.000000e+000 7.806256e-017 0.000000e+000
    outer loop
      vertex -2.641479e-002 2.000000e-001 -1.994855e-001
      vertex -2.641479e-002 6.666667e-002 -1.994855e-001
      vertex -2.641479e-002 2.000000e-001 -6.615220e-002
    endloop
  endfacet
  facet normal -1.000000e+000 5.204170e-017 -2.602086e-017
    outer loop
      vertex -2.641479e-002 6.666667e-002 -1.994855e-001
      vertex -2.641479e-002 -6.666667e-002 -1.994855e-001
      vertex -2.641479e-002 -2.000000e-001 -6.615220e-002
    endloop
  endfacet
  facet normal -1.000000e+000 7.806256e-017 0.000000e+000
    outer loop
      vertex -2.641479e-002 -6.666667e-002 -1.994855e-001
      vertex -2.641479e-002 -2.000000e-001 -1.994855e-001
      vertex -2.641479e-002 -2.000000e-001 -6.615220e-002
    endloop
  endfacet
  facet normal -1.000000e+000 7.806256e-017 0.000000e+000
    outer loop
      vertex -2.641479e-002 -2.000000e-001 2.005145e-001
      vertex -2.641479e-002 -6.666667e-002 2.005145e-001
      vertex -2.641479e-002 -2.000000e-001 6.718114e-002
    endloop
  endfacet
  facet normal -1.000000e+000 5.204170e-017 -2.602085e-017
    outer loop
      vertex -2.641479e-002 -6.666667e-002 2.005145e-001
      vertex -2.641479e-002 6.666667e-002 2.005145e-001
      vertex -2.641479e-002 2.000000e-001 6.718114e-002
    endloop
  endfacet
  facet normal -1.000000e+000 7.806256e-017 0.000000e+000
    outer loop
      vertex -2.641479e-002 6.666667e-002 2.005145e-001
      vertex -2.641479e-002 2.000000e-001 2.005145e-001
      vertex -2.641479e-002 2.000000e-001 6.718114e-002
    endloop
  endfacet
  facet normal -1.000000e+000 7.806256e-017 0.000000e+000
    outer loop
      vertex -2.641479e-002 2.000000e-001 6.718114e-002
      vertex -2.641479e-002 2.000000e-001 -6.615220e-002
      vertex -2.641479e-002 6.666667e-002 -1.994855e-001
    endloop
  endfacet
  facet normal -1.000000e+000 7.806256e-017 0.000000e+000
    outer loop
      vertex -2.641479e-002 -2.000000e-001 -6.615220e-002
      vertex -2.641479e-002 -2.000000e-001 6.718114e-002
      vertex -2.641479e-002 -6.666667e-002 2.005145e-001
    endloop
  endfacet
  facet normal -1.000000e+000 6.765421e-017 5.204172e-018
    outer loop
      vertex -2.641479e-002 6.666667e-002 -1.994855e-001
      vertex -2.641479e-002 -2.000000e-001 -6.615220e-002
      vertex -2.641479e-002 2.000000e-001 6.718114e-002
    endloop
  endfacet
  facet normal -1.000000e+000 6.765421e-017 5.204171e-018
    outer loop
      vertex -2.641479e-002 -6.666667e-002 2.005145e-001
      vertex -2.641479e-002 2.000000e-001 6.718114e-002
      vertex -2.641479e-002 -2.000000e-001 -6.615220e-002
    endloop
  endfacet
  facet normal 0.000000e+000 -1.000000e+000 0.000000e+000
    outer loop
      vertex -2.641479e-002 -2.000000e-001 -1.994855e-001
      vertex 2.358521e-002 -2.000000e-001 -1.994855e-001
      vertex 2.358521e-002 -2.000000e-001 -6.615220e-002
    endloop
  endfacet
  facet normal 0.000000e+000 -1.000000e+000 0.000000e+000
    outer loop
      vertex 2.358521e-002 -2.000000e-001 2.005145e-001
      vertex -2.641479e-002 -2.000000e-001 2.005145e-001
      vertex 2.358521e-002 -2.000000e-001 6.718114e-002
    endloop
  endfacet
  facet normal 0.000000e+000 -1.000000e+000 0.000000e+000
    outer loop
      vertex -2.641479e-002 -2.000000e-001 2.005145e-001
      vertex -2.641479e-002 -2.000000e-001 6.718114e-002
      vertex 2.358521e-002 -2.000000e-001 6.718114e-002
    endloop
  endfacet
  facet normal 0.000000e+000 -1.000000e+000 0.000000e+000
    outer loop
      vertex -2.641479e-002 -2.000000e-001 6.718114e-002
      vertex -2.641479e-002 -2.000000e-001 -6.615220e-002
      vertex 2.358521e-002 -2.000000e-001 -6.615220e-002
    endloop
  endfacet
  facet normal 0.000000e+000 -1.000000e+000 0.000000e+000
    outer loop
      vertex -2.641479e-002 -2.000000e-001 -6.615220e-002
      vertex -2.641479e-002 -2.000000e-001 -1.994855e-001
      vertex 2.358521e-002 -2.000000e-001 -6.615220e-002
    endloop
  endfacet
  facet normal 0.000000e+000 -1.000000e+000 0.000000e+000
    outer loop
      vertex 2.358521e-002 -2.000000e-001 -6.615220e-002
      vertex 2.358521e-002 -2.000000e-001 6.718114e-002
      vertex -2.641479e-002 -2.000000e-001 6.718114e-002
    endloop
  endfacet
endsolid OBJECT
