solid OBJECT
  facet normal -9.848078e-001 -1.736482e-001 0.000000e+000
    outer loop
      vertex -6.302361e-001 7.886058e-001 2.500000e-001
      vertex -6.302361e-001 7.886058e-001 0.000000e+000
      vertex -5.868241e-001 5.424039e-001 0.000000e+000
    endloop
  endfacet
  facet normal -9.848078e-001 -1.736482e-001 0.000000e+000
    outer loop
      vertex -6.302361e-001 7.886058e-001 2.500000e-001
      vertex -5.868241e-001 5.424039e-001 0.000000e+000
      vertex -5.868241e-001 5.424039e-001 2.500000e-001
    endloop
  endfacet
  facet normal -9.848078e-001 -1.736482e-001 0.000000e+000
    outer loop
      vertex -5.868241e-001 5.424039e-001 2.500000e-001
      vertex -5.868241e-001 5.424039e-001 0.000000e+000
      vertex -5.434120e-001 2.962019e-001 0.000000e+000
    endloop
  endfacet
  facet normal -9.848078e-001 -1.736482e-001 0.000000e+000
    outer loop
      vertex -5.868241e-001 5.424039e-001 2.500000e-001
      vertex -5.434120e-001 2.962019e-001 0.000000e+000
      vertex -5.434120e-001 2.962019e-001 2.500000e-001
    endloop
  endfacet
  facet normal -9.848078e-001 -1.736482e-001 0.000000e+000
    outer loop
      vertex -5.868241e-001 5.424039e-001 0.000000e+000
      vertex -5.868241e-001 5.424039e-001 -2.500000e-001
      vertex -5.434120e-001 2.962019e-001 -2.500000e-001
    endloop
  endfacet
  facet normal -9.848078e-001 -1.736482e-001 0.000000e+000
    outer loop
      vertex -5.868241e-001 5.424039e-001 0.000000e+000
      vertex -5.434120e-001 2.962019e-001 -2.500000e-001
      vertex -5.434120e-001 2.962019e-001 0.000000e+000
    endloop
  endfacet
  facet normal -9.848078e-001 -1.736482e-001 0.000000e+000
    outer loop
      vertex -6.302361e-001 7.886058e-001 0.000000e+000
      vertex -6.302361e-001 7.886058e-001 -2.500000e-001
      vertex -5.868241e-001 5.424039e-001 -2.500000e-001
    endloop
  endfacet
  facet normal -9.848078e-001 -1.736482e-001 0.000000e+000
    outer loop
      vertex -6.302361e-001 7.886058e-001 0.000000e+000
      vertex -5.868241e-001 5.424039e-001 -2.500000e-001
      vertex -5.868241e-001 5.424039e-001 0.000000e+000
    endloop
  endfacet
  facet normal -9.848078e-001 -1.736482e-001 0.000000e+000
    outer loop
      vertex -5.000000e-001 5.000000e-002 -5.000000e-001
      vertex -5.000000e-001 5.000000e-002 -3.333333e-001
      vertex -5.289414e-001 2.141346e-001 -5.000000e-001
    endloop
  endfacet
  facet normal -9.848078e-001 -1.736482e-001 2.185752e-016
    outer loop
      vertex -5.289414e-001 2.141346e-001 -5.000000e-001
      vertex -5.434120e-001 2.962019e-001 -2.500000e-001
      vertex -5.578827e-001 3.782693e-001 -5.000000e-001
    endloop
  endfacet
  facet normal -9.848078e-001 -1.736482e-001 0.000000e+000
    outer loop
      vertex -5.578827e-001 3.782693e-001 -5.000000e-001
      vertex -5.868241e-001 5.424039e-001 -2.500000e-001
      vertex -5.868241e-001 5.424039e-001 -5.000000e-001
    endloop
  endfacet
  facet normal -9.848078e-001 -1.736482e-001 0.000000e+000
    outer loop
      vertex -5.868241e-001 5.424039e-001 -5.000000e-001
      vertex -5.868241e-001 5.424039e-001 -2.500000e-001
      vertex -6.157655e-001 7.065385e-001 -5.000000e-001
    endloop
  endfacet
  facet normal -9.848078e-001 -1.736482e-001 0.000000e+000
    outer loop
      vertex -6.157655e-001 7.065385e-001 -5.000000e-001
      vertex -6.302361e-001 7.886058e-001 -2.500000e-001
      vertex -6.447068e-001 8.706731e-001 -5.000000e-001
    endloop
  endfacet
  facet normal -9.848078e-001 -1.736482e-001 0.000000e+000
    outer loop
      vertex -6.447068e-001 8.706731e-001 -5.000000e-001
      vertex -6.736482e-001 1.034808e+000 -3.333333e-001
      vertex -6.736482e-001 1.034808e+000 -5.000000e-001
    endloop
  endfacet
  facet normal -9.848078e-001 -1.736482e-001 0.000000e+000
    outer loop
      vertex -6.736482e-001 1.034808e+000 -3.333333e-001
      vertex -6.302361e-001 7.886058e-001 -2.500000e-001
      vertex -6.736482e-001 1.034808e+000 -1.666667e-001
    endloop
  endfacet
  facet normal -9.848078e-001 -1.736482e-001 0.000000e+000
    outer loop
      vertex -6.736482e-001 1.034808e+000 -1.666667e-001
      vertex -6.302361e-001 7.886058e-001 0.000000e+000
      vertex -6.736482e-001 1.034808e+000 0.000000e+000
    endloop
  endfacet
  facet normal -9.848078e-001 -1.736482e-001 0.000000e+000
    outer loop
      vertex -6.736482e-001 1.034808e+000 0.000000e+000
      vertex -6.302361e-001 7.886058e-001 0.000000e+000
      vertex -6.736482e-001 1.034808e+000 1.666667e-001
    endloop
  endfacet
  facet normal -9.848078e-001 -1.736482e-001 0.000000e+000
    outer loop
      vertex -6.736482e-001 1.034808e+000 1.666667e-001
      vertex -6.302361e-001 7.886058e-001 2.500000e-001
      vertex -6.736482e-001 1.034808e+000 3.333333e-001
    endloop
  endfacet
  facet normal -9.848078e-001 -1.736482e-001 0.000000e+000
    outer loop
      vertex -6.736482e-001 1.034808e+000 3.333333e-001
      vertex -6.447068e-001 8.706731e-001 5.000000e-001
      vertex -6.736482e-001 1.034808e+000 5.000000e-001
    endloop
  endfacet
  facet normal -9.848078e-001 -1.736482e-001 7.285839e-017
    outer loop
      vertex -6.447068e-001 8.706731e-001 5.000000e-001
      vertex -6.302361e-001 7.886058e-001 2.500000e-001
      vertex -6.157655e-001 7.065385e-001 5.000000e-001
    endloop
  endfacet
  facet normal -9.848078e-001 -1.736482e-001 0.000000e+000
    outer loop
      vertex -6.157655e-001 7.065385e-001 5.000000e-001
      vertex -5.868241e-001 5.424039e-001 2.500000e-001
      vertex -5.868241e-001 5.424039e-001 5.000000e-001
    endloop
  endfacet
  facet normal -9.848078e-001 -1.736482e-001 0.000000e+000
    outer loop
      vertex -5.868241e-001 5.424039e-001 5.000000e-001
      vertex -5.868241e-001 5.424039e-001 2.500000e-001
      vertex -5.578827e-001 3.782693e-001 5.000000e-001
    endloop
  endfacet
  facet normal -9.848078e-001 -1.736482e-001 -1.769418e-016
    outer loop
      vertex -5.578827e-001 3.782693e-001 5.000000e-001
      vertex -5.434120e-001 2.962019e-001 2.500000e-001
      vertex -5.289414e-001 2.141346e-001 5.000000e-001
    endloop
  endfacet
  facet normal -9.848078e-001 -1.736482e-001 0.000000e+000
    outer loop
      vertex -5.289414e-001 2.141346e-001 5.000000e-001
      vertex -5.000000e-001 5.000000e-002 3.333333e-001
      vertex -5.000000e-001 5.000000e-002 5.000000e-001
    endloop
  endfacet
  facet normal -9.848078e-001 -1.736482e-001 0.000000e+000
    outer loop
      vertex -5.000000e-001 5.000000e-002 3.333333e-001
      vertex -5.434120e-001 2.962019e-001 2.500000e-001
      vertex -5.000000e-001 5.000000e-002 1.666667e-001
    endloop
  endfacet
  facet normal -9.848078e-001 -1.736482e-001 0.000000e+000
    outer loop
      vertex -5.000000e-001 5.000000e-002 1.666667e-001
      vertex -5.434120e-001 2.962019e-001 0.000000e+000
      vertex -5.000000e-001 5.000000e-002 0.000000e+000
    endloop
  endfacet
  facet normal -9.848078e-001 -1.736482e-001 0.000000e+000
    outer loop
      vertex -5.000000e-001 5.000000e-002 0.000000e+000
      vertex -5.434120e-001 2.962019e-001 0.000000e+000
      vertex -5.000000e-001 5.000000e-002 -1.666667e-001
    endloop
  endfacet
  facet normal -9.848078e-001 -1.736482e-001 0.000000e+000
    outer loop
      vertex -5.000000e-001 5.000000e-002 -1.666667e-001
      vertex -5.434120e-001 2.962019e-001 -2.500000e-001
      vertex -5.000000e-001 5.000000e-002 -3.333333e-001
    endloop
  endfacet
  facet normal -9.848078e-001 -1.736482e-001 -6.833477e-017
    outer loop
      vertex -5.868241e-001 5.424039e-001 2.500000e-001
      vertex -6.157655e-001 7.065385e-001 5.000000e-001
      vertex -6.302361e-001 7.886058e-001 2.500000e-001
    endloop
  endfacet
  facet normal -9.848078e-001 -1.736482e-001 0.000000e+000
    outer loop
      vertex -6.302361e-001 7.886058e-001 2.500000e-001
      vertex -6.736482e-001 1.034808e+000 1.666667e-001
      vertex -6.302361e-001 7.886058e-001 0.000000e+000
    endloop
  endfacet
  facet normal -9.848078e-001 -1.736482e-001 -2.801725e-016
    outer loop
      vertex -5.434120e-001 2.962019e-001 2.500000e-001
      vertex -5.578827e-001 3.782693e-001 5.000000e-001
      vertex -5.868241e-001 5.424039e-001 2.500000e-001
    endloop
  endfacet
  facet normal -9.848078e-001 -1.736482e-001 0.000000e+000
    outer loop
      vertex -5.434120e-001 2.962019e-001 0.000000e+000
      vertex -5.000000e-001 5.000000e-002 1.666667e-001
      vertex -5.434120e-001 2.962019e-001 2.500000e-001
    endloop
  endfacet
  facet normal -9.848078e-001 -1.736482e-001 0.000000e+000
    outer loop
      vertex -5.434120e-001 2.962019e-001 -2.500000e-001
      vertex -5.000000e-001 5.000000e-002 -1.666667e-001
      vertex -5.434120e-001 2.962019e-001 0.000000e+000
    endloop
  endfacet
  facet normal -9.848078e-001 -1.736482e-001 3.191891e-016
    outer loop
      vertex -5.868241e-001 5.424039e-001 -2.500000e-001
      vertex -5.578827e-001 3.782693e-001 -5.000000e-001
      vertex -5.434120e-001 2.962019e-001 -2.500000e-001
    endloop
  endfacet
  facet normal -9.848078e-001 -1.736482e-001 1.457168e-016
    outer loop
      vertex -6.302361e-001 7.886058e-001 -2.500000e-001
      vertex -6.157655e-001 7.065385e-001 -5.000000e-001
      vertex -5.868241e-001 5.424039e-001 -2.500000e-001
    endloop
  endfacet
  facet normal -9.848078e-001 -1.736482e-001 0.000000e+000
    outer loop
      vertex -6.302361e-001 7.886058e-001 0.000000e+000
      vertex -6.736482e-001 1.034808e+000 -1.666667e-001
      vertex -6.302361e-001 7.886058e-001 -2.500000e-001
    endloop
  endfacet
  facet normal -9.848078e-001 -1.736482e-001 -1.561251e-017
    outer loop
      vertex -5.000000e-001 5.000000e-002 -3.333333e-001
      vertex -5.434120e-001 2.962019e-001 -2.500000e-001
      vertex -5.289414e-001 2.141346e-001 -5.000000e-001
    endloop
  endfacet
  facet normal -9.848078e-001 -1.736482e-001 2.050043e-017
    outer loop
      vertex -6.302361e-001 7.886058e-001 -2.500000e-001
      vertex -6.736482e-001 1.034808e+000 -3.333333e-001
      vertex -6.447068e-001 8.706731e-001 -5.000000e-001
    endloop
  endfacet
  facet normal -9.848078e-001 -1.736482e-001 6.150129e-017
    outer loop
      vertex -6.302361e-001 7.886058e-001 2.500000e-001
      vertex -6.447068e-001 8.706731e-001 5.000000e-001
      vertex -6.736482e-001 1.034808e+000 3.333333e-001
    endloop
  endfacet
  facet normal -9.848078e-001 -1.736482e-001 6.150129e-017
    outer loop
      vertex -5.434120e-001 2.962019e-001 2.500000e-001
      vertex -5.000000e-001 5.000000e-002 3.333333e-001
      vertex -5.289414e-001 2.141346e-001 5.000000e-001
    endloop
  endfacet
  facet normal 9.848078e-001 1.736482e-001 -4.373425e-016
    outer loop
      vertex -5.809957e-001 7.972882e-001 2.500000e-001
      vertex -5.375837e-001 5.510863e-001 2.500000e-001
      vertex -5.375837e-001 5.510863e-001 0.000000e+000
    endloop
  endfacet
  facet normal 9.848078e-001 1.736482e-001 0.000000e+000
    outer loop
      vertex -5.809957e-001 7.972882e-001 2.500000e-001
      vertex -5.375837e-001 5.510863e-001 0.000000e+000
      vertex -5.809957e-001 7.972882e-001 0.000000e+000
    endloop
  endfacet
  facet normal 9.848078e-001 1.736482e-001 0.000000e+000
    outer loop
      vertex -5.375837e-001 5.510863e-001 2.500000e-001
      vertex -4.941717e-001 3.048843e-001 2.500000e-001
      vertex -4.941717e-001 3.048843e-001 0.000000e+000
    endloop
  endfacet
  facet normal 9.848078e-001 1.736482e-001 -4.373425e-016
    outer loop
      vertex -5.375837e-001 5.510863e-001 2.500000e-001
      vertex -4.941717e-001 3.048843e-001 0.000000e+000
      vertex -5.375837e-001 5.510863e-001 0.000000e+000
    endloop
  endfacet
  facet normal 9.848078e-001 1.736482e-001 0.000000e+000
    outer loop
      vertex -5.375837e-001 5.510863e-001 0.000000e+000
      vertex -4.941717e-001 3.048843e-001 0.000000e+000
      vertex -4.941717e-001 3.048843e-001 -2.500000e-001
    endloop
  endfacet
  facet normal 9.848078e-001 1.736482e-001 4.373425e-016
    outer loop
      vertex -5.375837e-001 5.510863e-001 0.000000e+000
      vertex -4.941717e-001 3.048843e-001 -2.500000e-001
      vertex -5.375837e-001 5.510863e-001 -2.500000e-001
    endloop
  endfacet
  facet normal 9.848078e-001 1.736482e-001 4.373425e-016
    outer loop
      vertex -5.809957e-001 7.972882e-001 0.000000e+000
      vertex -5.375837e-001 5.510863e-001 0.000000e+000
      vertex -5.375837e-001 5.510863e-001 -2.500000e-001
    endloop
  endfacet
  facet normal 9.848078e-001 1.736482e-001 4.373425e-016
    outer loop
      vertex -5.809957e-001 7.972882e-001 0.000000e+000
      vertex -5.375837e-001 5.510863e-001 -2.500000e-001
      vertex -5.809957e-001 7.972882e-001 -2.500000e-001
    endloop
  endfacet
  facet normal 9.848078e-001 1.736482e-001 -7.229558e-018
    outer loop
      vertex -4.507596e-001 5.868241e-002 -5.000000e-001
      vertex -4.797010e-001 2.228170e-001 -5.000000e-001
      vertex -4.507596e-001 5.868241e-002 -3.333333e-001
    endloop
  endfacet
  facet normal 9.848078e-001 1.736482e-001 -2.393918e-016
    outer loop
      vertex -4.797010e-001 2.228170e-001 -5.000000e-001
      vertex -5.086423e-001 3.869517e-001 -5.000000e-001
      vertex -4.941717e-001 3.048843e-001 -2.500000e-001
    endloop
  endfacet
  facet normal 9.848078e-001 1.736482e-001 0.000000e+000
    outer loop
      vertex -5.086423e-001 3.869517e-001 -5.000000e-001
      vertex -5.375837e-001 5.510863e-001 -5.000000e-001
      vertex -5.375837e-001 5.510863e-001 -2.500000e-001
    endloop
  endfacet
  facet normal 9.848078e-001 1.736482e-001 0.000000e+000
    outer loop
      vertex -5.375837e-001 5.510863e-001 -5.000000e-001
      vertex -5.665251e-001 7.152209e-001 -5.000000e-001
      vertex -5.375837e-001 5.510863e-001 -2.500000e-001
    endloop
  endfacet
  facet normal 9.848078e-001 1.736482e-001 -4.371503e-016
    outer loop
      vertex -5.665251e-001 7.152209e-001 -5.000000e-001
      vertex -5.954664e-001 8.793555e-001 -5.000000e-001
      vertex -5.809957e-001 7.972882e-001 -2.500000e-001
    endloop
  endfacet
  facet normal 9.848078e-001 1.736482e-001 0.000000e+000
    outer loop
      vertex -5.954664e-001 8.793555e-001 -5.000000e-001
      vertex -6.244078e-001 1.043490e+000 -5.000000e-001
      vertex -6.244078e-001 1.043490e+000 -3.333333e-001
    endloop
  endfacet
  facet normal 9.848078e-001 1.736482e-001 0.000000e+000
    outer loop
      vertex -6.244078e-001 1.043490e+000 -3.333333e-001
      vertex -6.244078e-001 1.043490e+000 -1.666667e-001
      vertex -5.809957e-001 7.972882e-001 -2.500000e-001
    endloop
  endfacet
  facet normal 9.848078e-001 1.736482e-001 0.000000e+000
    outer loop
      vertex -6.244078e-001 1.043490e+000 -1.666667e-001
      vertex -6.244078e-001 1.043490e+000 0.000000e+000
      vertex -5.809957e-001 7.972882e-001 0.000000e+000
    endloop
  endfacet
  facet normal 9.848078e-001 1.736482e-001 0.000000e+000
    outer loop
      vertex -6.244078e-001 1.043490e+000 0.000000e+000
      vertex -6.244078e-001 1.043490e+000 1.666667e-001
      vertex -5.809957e-001 7.972882e-001 0.000000e+000
    endloop
  endfacet
  facet normal 9.848078e-001 1.736482e-001 0.000000e+000
    outer loop
      vertex -6.244078e-001 1.043490e+000 1.666667e-001
      vertex -6.244078e-001 1.043490e+000 3.333333e-001
      vertex -5.809957e-001 7.972882e-001 2.500000e-001
    endloop
  endfacet
  facet normal 9.848078e-001 1.736482e-001 0.000000e+000
    outer loop
      vertex -6.244078e-001 1.043490e+000 3.333333e-001
      vertex -6.244078e-001 1.043490e+000 5.000000e-001
      vertex -5.954664e-001 8.793555e-001 5.000000e-001
    endloop
  endfacet
  facet normal 9.848078e-001 1.736482e-001 -3.642919e-017
    outer loop
      vertex -5.954664e-001 8.793555e-001 5.000000e-001
      vertex -5.665251e-001 7.152209e-001 5.000000e-001
      vertex -5.809957e-001 7.972882e-001 2.500000e-001
    endloop
  endfacet
  facet normal 9.848078e-001 1.736482e-001 0.000000e+000
    outer loop
      vertex -5.665251e-001 7.152209e-001 5.000000e-001
      vertex -5.375837e-001 5.510863e-001 5.000000e-001
      vertex -5.375837e-001 5.510863e-001 2.500000e-001
    endloop
  endfacet
  facet normal 9.848078e-001 1.736482e-001 0.000000e+000
    outer loop
      vertex -5.375837e-001 5.510863e-001 5.000000e-001
      vertex -5.086423e-001 3.869517e-001 5.000000e-001
      vertex -5.375837e-001 5.510863e-001 2.500000e-001
    endloop
  endfacet
  facet normal 9.848078e-001 1.736482e-001 -3.122502e-017
    outer loop
      vertex -5.086423e-001 3.869517e-001 5.000000e-001
      vertex -4.797010e-001 2.228170e-001 5.000000e-001
      vertex -4.941717e-001 3.048843e-001 2.500000e-001
    endloop
  endfacet
  facet normal 9.848078e-001 1.736482e-001 -3.280069e-016
    outer loop
      vertex -4.797010e-001 2.228170e-001 5.000000e-001
      vertex -4.507596e-001 5.868241e-002 5.000000e-001
      vertex -4.507596e-001 5.868241e-002 3.333333e-001
    endloop
  endfacet
  facet normal 9.848078e-001 1.736482e-001 0.000000e+000
    outer loop
      vertex -4.507596e-001 5.868241e-002 3.333333e-001
      vertex -4.507596e-001 5.868241e-002 1.666667e-001
      vertex -4.941717e-001 3.048843e-001 2.500000e-001
    endloop
  endfacet
  facet normal 9.848078e-001 1.736482e-001 3.280069e-016
    outer loop
      vertex -4.507596e-001 5.868241e-002 1.666667e-001
      vertex -4.507596e-001 5.868241e-002 0.000000e+000
      vertex -4.941717e-001 3.048843e-001 0.000000e+000
    endloop
  endfacet
  facet normal 9.848078e-001 1.736482e-001 -3.280069e-016
    outer loop
      vertex -4.507596e-001 5.868241e-002 0.000000e+000
      vertex -4.507596e-001 5.868241e-002 -1.666667e-001
      vertex -4.941717e-001 3.048843e-001 0.000000e+000
    endloop
  endfacet
  facet normal 9.848078e-001 1.736482e-001 3.280069e-016
    outer loop
      vertex -4.507596e-001 5.868241e-002 -1.666667e-001
      vertex -4.507596e-001 5.868241e-002 -3.333333e-001
      vertex -4.941717e-001 3.048843e-001 -2.500000e-001
    endloop
  endfacet
  facet normal 9.848078e-001 1.736482e-001 4.100086e-017
    outer loop
      vertex -5.375837e-001 5.510863e-001 2.500000e-001
      vertex -5.809957e-001 7.972882e-001 2.500000e-001
      vertex -5.665251e-001 7.152209e-001 5.000000e-001
    endloop
  endfacet
  facet normal 9.848078e-001 1.736482e-001 0.000000e+000
    outer loop
      vertex -5.809957e-001 7.972882e-001 2.500000e-001
      vertex -5.809957e-001 7.972882e-001 0.000000e+000
      vertex -6.244078e-001 1.043490e+000 1.666667e-001
    endloop
  endfacet
  facet normal 9.848078e-001 1.736482e-001 -4.163336e-017
    outer loop
      vertex -4.941717e-001 3.048843e-001 2.500000e-001
      vertex -5.375837e-001 5.510863e-001 2.500000e-001
      vertex -5.086423e-001 3.869517e-001 5.000000e-001
    endloop
  endfacet
  facet normal 9.848078e-001 1.736482e-001 0.000000e+000
    outer loop
      vertex -4.941717e-001 3.048843e-001 0.000000e+000
      vertex -4.941717e-001 3.048843e-001 2.500000e-001
      vertex -4.507596e-001 5.868241e-002 1.666667e-001
    endloop
  endfacet
  facet normal 9.848078e-001 1.736482e-001 0.000000e+000
    outer loop
      vertex -4.941717e-001 3.048843e-001 -2.500000e-001
      vertex -4.941717e-001 3.048843e-001 0.000000e+000
      vertex -4.507596e-001 5.868241e-002 -1.666667e-001
    endloop
  endfacet
  facet normal 9.848078e-001 1.736482e-001 -4.305090e-016
    outer loop
      vertex -5.375837e-001 5.510863e-001 -2.500000e-001
      vertex -4.941717e-001 3.048843e-001 -2.500000e-001
      vertex -5.086423e-001 3.869517e-001 -5.000000e-001
    endloop
  endfacet
  facet normal 9.848078e-001 1.736482e-001 -4.100086e-016
    outer loop
      vertex -5.809957e-001 7.972882e-001 -2.500000e-001
      vertex -5.375837e-001 5.510863e-001 -2.500000e-001
      vertex -5.665251e-001 7.152209e-001 -5.000000e-001
    endloop
  endfacet
  facet normal 9.848078e-001 1.736482e-001 4.373425e-016
    outer loop
      vertex -5.809957e-001 7.972882e-001 0.000000e+000
      vertex -5.809957e-001 7.972882e-001 -2.500000e-001
      vertex -6.244078e-001 1.043490e+000 -1.666667e-001
    endloop
  endfacet
  facet normal 9.848078e-001 1.736482e-001 -9.566867e-017
    outer loop
      vertex -4.507596e-001 5.868241e-002 -3.333333e-001
      vertex -4.797010e-001 2.228170e-001 -5.000000e-001
      vertex -4.941717e-001 3.048843e-001 -2.500000e-001
    endloop
  endfacet
  facet normal 9.848078e-001 1.736482e-001 -3.621743e-016
    outer loop
      vertex -5.809957e-001 7.972882e-001 -2.500000e-001
      vertex -5.954664e-001 8.793555e-001 -5.000000e-001
      vertex -6.244078e-001 1.043490e+000 -3.333333e-001
    endloop
  endfacet
  facet normal 9.848078e-001 1.736482e-001 3.122502e-017
    outer loop
      vertex -5.809957e-001 7.972882e-001 2.500000e-001
      vertex -6.244078e-001 1.043490e+000 3.333333e-001
      vertex -5.954664e-001 8.793555e-001 5.000000e-001
    endloop
  endfacet
  facet normal 9.848078e-001 1.736482e-001 -4.100086e-017
    outer loop
      vertex -4.941717e-001 3.048843e-001 2.500000e-001
      vertex -4.797010e-001 2.228170e-001 5.000000e-001
      vertex -4.507596e-001 5.868241e-002 3.333333e-001
    endloop
  endfacet
  facet normal 0.000000e+000 0.000000e+000 -1.000000e+000
    outer loop
      vertex -5.000000e-001 5.000000e-002 -5.000000e-001
      vertex -5.289414e-001 2.141346e-001 -5.000000e-001
      vertex -4.797010e-001 2.228170e-001 -5.000000e-001
    endloop
  endfacet
  facet normal 0.000000e+000 0.000000e+000 -1.000000e+000
    outer loop
      vertex -5.289414e-001 2.141346e-001 -5.000000e-001
      vertex -5.578827e-001 3.782693e-001 -5.000000e-001
      vertex -5.086423e-001 3.869517e-001 -5.000000e-001
    endloop
  endfacet
  facet normal 0.000000e+000 0.000000e+000 -1.000000e+000
    outer loop
      vertex -5.578827e-001 3.782693e-001 -5.000000e-001
      vertex -5.868241e-001 5.424039e-001 -5.000000e-001
      vertex -5.375837e-001 5.510863e-001 -5.000000e-001
    endloop
  endfacet
  facet normal 0.000000e+000 0.000000e+000 -1.000000e+000
    outer loop
      vertex -5.868241e-001 5.424039e-001 -5.000000e-001
      vertex -6.157655e-001 7.065385e-001 -5.000000e-001
      vertex -5.375837e-001 5.510863e-001 -5.000000e-001
    endloop
  endfacet
  facet normal 0.000000e+000 0.000000e+000 -1.000000e+000
    outer loop
      vertex -6.157655e-001 7.065385e-001 -5.000000e-001
      vertex -6.447068e-001 8.706731e-001 -5.000000e-001
      vertex -5.665251e-001 7.152209e-001 -5.000000e-001
    endloop
  endfacet
  facet normal 0.000000e+000 0.000000e+000 -1.000000e+000
    outer loop
      vertex -6.447068e-001 8.706731e-001 -5.000000e-001
      vertex -6.736482e-001 1.034808e+000 -5.000000e-001
      vertex -5.954664e-001 8.793555e-001 -5.000000e-001
    endloop
  endfacet
  facet normal 0.000000e+000 0.000000e+000 -1.000000e+000
    outer loop
      vertex -6.244078e-001 1.043490e+000 -5.000000e-001
      vertex -5.954664e-001 8.793555e-001 -5.000000e-001
      vertex -6.736482e-001 1.034808e+000 -5.000000e-001
    endloop
  endfacet
  facet normal 0.000000e+000 0.000000e+000 -1.000000e+000
    outer loop
      vertex -5.954664e-001 8.793555e-001 -5.000000e-001
      vertex -5.665251e-001 7.152209e-001 -5.000000e-001
      vertex -6.447068e-001 8.706731e-001 -5.000000e-001
    endloop
  endfacet
  facet normal 0.000000e+000 0.000000e+000 -1.000000e+000
    outer loop
      vertex -5.665251e-001 7.152209e-001 -5.000000e-001
      vertex -5.375837e-001 5.510863e-001 -5.000000e-001
      vertex -6.157655e-001 7.065385e-001 -5.000000e-001
    endloop
  endfacet
  facet normal 0.000000e+000 0.000000e+000 -1.000000e+000
    outer loop
      vertex -5.375837e-001 5.510863e-001 -5.000000e-001
      vertex -5.086423e-001 3.869517e-001 -5.000000e-001
      vertex -5.578827e-001 3.782693e-001 -5.000000e-001
    endloop
  endfacet
  facet normal 0.000000e+000 0.000000e+000 -1.000000e+000
    outer loop
      vertex -5.086423e-001 3.869517e-001 -5.000000e-001
      vertex -4.797010e-001 2.228170e-001 -5.000000e-001
      vertex -5.289414e-001 2.141346e-001 -5.000000e-001
    endloop
  endfacet
  facet normal 0.000000e+000 0.000000e+000 -1.000000e+000
    outer loop
      vertex -4.797010e-001 2.228170e-001 -5.000000e-001
      vertex -4.507596e-001 5.868241e-002 -5.000000e-001
      vertex -5.000000e-001 5.000000e-002 -5.000000e-001
    endloop
  endfacet
  facet normal -1.736482e-001 9.848078e-001 0.000000e+000
    outer loop
      vertex -6.736482e-001 1.034808e+000 -5.000000e-001
      vertex -6.736482e-001 1.034808e+000 -3.333333e-001
      vertex -6.244078e-001 1.043490e+000 -3.333333e-001
    endloop
  endfacet
  facet normal -1.736482e-001 9.848078e-001 0.000000e+000
    outer loop
      vertex -6.736482e-001 1.034808e+000 -3.333333e-001
      vertex -6.736482e-001 1.034808e+000 -1.666667e-001
      vertex -6.244078e-001 1.043490e+000 -1.666667e-001
    endloop
  endfacet
  facet normal -1.736482e-001 9.848078e-001 0.000000e+000
    outer loop
      vertex -6.736482e-001 1.034808e+000 -1.666667e-001
      vertex -6.736482e-001 1.034808e+000 0.000000e+000
      vertex -6.244078e-001 1.043490e+000 0.000000e+000
    endloop
  endfacet
  facet normal -1.736482e-001 9.848078e-001 0.000000e+000
    outer loop
      vertex -6.736482e-001 1.034808e+000 0.000000e+000
      vertex -6.736482e-001 1.034808e+000 1.666667e-001
      vertex -6.244078e-001 1.043490e+000 0.000000e+000
    endloop
  endfacet
  facet normal -1.736482e-001 9.848078e-001 0.000000e+000
    outer loop
      vertex -6.736482e-001 1.034808e+000 1.666667e-001
      vertex -6.736482e-001 1.034808e+000 3.333333e-001
      vertex -6.244078e-001 1.043490e+000 1.666667e-001
    endloop
  endfacet
  facet normal -1.736482e-001 9.848078e-001 0.000000e+000
    outer loop
      vertex -6.736482e-001 1.034808e+000 3.333333e-001
      vertex -6.736482e-001 1.034808e+000 5.000000e-001
      vertex -6.244078e-001 1.043490e+000 3.333333e-001
    endloop
  endfacet
  facet normal -1.736482e-001 9.848078e-001 0.000000e+000
    outer loop
      vertex -6.244078e-001 1.043490e+000 5.000000e-001
      vertex -6.244078e-001 1.043490e+000 3.333333e-001
      vertex -6.736482e-001 1.034808e+000 5.000000e-001
    endloop
  endfacet
  facet normal -1.736482e-001 9.848078e-001 0.000000e+000
    outer loop
      vertex -6.244078e-001 1.043490e+000 3.333333e-001
      vertex -6.244078e-001 1.043490e+000 1.666667e-001
      vertex -6.736482e-001 1.034808e+000 3.333333e-001
    endloop
  endfacet
  facet normal -1.736482e-001 9.848078e-001 0.000000e+000
    outer loop
      vertex -6.244078e-001 1.043490e+000 1.666667e-001
      vertex -6.244078e-001 1.043490e+000 0.000000e+000
      vertex -6.736482e-001 1.034808e+000 1.666667e-001
    endloop
  endfacet
  facet normal -1.736482e-001 9.848078e-001 0.000000e+000
    outer loop
      vertex -6.244078e-001 1.043490e+000 0.000000e+000
      vertex -6.244078e-001 1.043490e+000 -1.666667e-001
      vertex -6.736482e-001 1.034808e+000 -1.666667e-001
    endloop
  endfacet
  facet normal -1.736482e-001 9.848078e-001 0.000000e+000
    outer loop
      vertex -6.244078e-001 1.043490e+000 -1.666667e-001
      vertex -6.244078e-001 1.043490e+000 -3.333333e-001
      vertex -6.736482e-001 1.034808e+000 -3.333333e-001
    endloop
  endfacet
  facet normal -1.736482e-001 9.848078e-001 0.000000e+000
    outer loop
      vertex -6.244078e-001 1.043490e+000 -3.333333e-001
      vertex -6.244078e-001 1.043490e+000 -5.000000e-001
      vertex -6.736482e-001 1.034808e+000 -5.000000e-001
    endloop
  endfacet
  facet normal 0.000000e+000 0.000000e+000 1.000000e+000
    outer loop
      vertex -6.736482e-001 1.034808e+000 5.000000e-001
      vertex -6.447068e-001 8.706731e-001 5.000000e-001
      vertex -5.954664e-001 8.793555e-001 5.000000e-001
    endloop
  endfacet
  facet normal 0.000000e+000 0.000000e+000 1.000000e+000
    outer loop
      vertex -6.447068e-001 8.706731e-001 5.000000e-001
      vertex -6.157655e-001 7.065385e-001 5.000000e-001
      vertex -5.665251e-001 7.152209e-001 5.000000e-001
    endloop
  endfacet
  facet normal 0.000000e+000 0.000000e+000 1.000000e+000
    outer loop
      vertex -6.157655e-001 7.065385e-001 5.000000e-001
      vertex -5.868241e-001 5.424039e-001 5.000000e-001
      vertex -5.375837e-001 5.510863e-001 5.000000e-001
    endloop
  endfacet
  facet normal 0.000000e+000 0.000000e+000 1.000000e+000
    outer loop
      vertex -5.868241e-001 5.424039e-001 5.000000e-001
      vertex -5.578827e-001 3.782693e-001 5.000000e-001
      vertex -5.375837e-001 5.510863e-001 5.000000e-001
    endloop
  endfacet
  facet normal 0.000000e+000 0.000000e+000 1.000000e+000
    outer loop
      vertex -5.578827e-001 3.782693e-001 5.000000e-001
      vertex -5.289414e-001 2.141346e-001 5.000000e-001
      vertex -5.086423e-001 3.869517e-001 5.000000e-001
    endloop
  endfacet
  facet normal 0.000000e+000 0.000000e+000 1.000000e+000
    outer loop
      vertex -5.289414e-001 2.141346e-001 5.000000e-001
      vertex -5.000000e-001 5.000000e-002 5.000000e-001
      vertex -4.797010e-001 2.228170e-001 5.000000e-001
    endloop
  endfacet
  facet normal 0.000000e+000 0.000000e+000 1.000000e+000
    outer loop
      vertex -4.507596e-001 5.868241e-002 5.000000e-001
      vertex -4.797010e-001 2.228170e-001 5.000000e-001
      vertex -5.000000e-001 5.000000e-002 5.000000e-001
    endloop
  endfacet
  facet normal 0.000000e+000 0.000000e+000 1.000000e+000
    outer loop
      vertex -4.797010e-001 2.228170e-001 5.000000e-001
      vertex -5.086423e-001 3.869517e-001 5.000000e-001
      vertex -5.289414e-001 2.141346e-001 5.000000e-001
    endloop
  endfacet
  facet normal 0.000000e+000 0.000000e+000 1.000000e+000
    outer loop
      vertex -5.086423e-001 3.869517e-001 5.000000e-001
      vertex -5.375837e-001 5.510863e-001 5.000000e-001
      vertex -5.578827e-001 3.782693e-001 5.000000e-001
    endloop
  endfacet
  facet normal 0.000000e+000 0.000000e+000 1.000000e+000
    outer loop
      vertex -5.375837e-001 5.510863e-001 5.000000e-001
      vertex -5.665251e-001 7.152209e-001 5.000000e-001
      vertex -6.157655e-001 7.065385e-001 5.000000e-001
    endloop
  endfacet
  facet normal 0.000000e+000 0.000000e+000 1.000000e+000
    outer loop
      vertex -5.665251e-001 7.152209e-001 5.000000e-001
      vertex -5.954664e-001 8.793555e-001 5.000000e-001
      vertex -6.447068e-001 8.706731e-001 5.000000e-001
    endloop
  endfacet
  facet normal 0.000000e+000 0.000000e+000 1.000000e+000
    outer loop
      vertex -5.954664e-001 8.793555e-001 5.000000e-001
      vertex -6.244078e-001 1.043490e+000 5.000000e-001
      vertex -6.736482e-001 1.034808e+000 5.000000e-001
    endloop
  endfacet
  facet normal 1.736482e-001 -9.848078e-001 0.000000e+000
    outer loop
      vertex -5.000000e-001 5.000000e-002 5.000000e-001
      vertex -5.000000e-001 5.000000e-002 3.333333e-001
      vertex -4.507596e-001 5.868241e-002 3.333333e-001
    endloop
  endfacet
  facet normal 1.736482e-001 -9.848078e-001 0.000000e+000
    outer loop
      vertex -5.000000e-001 5.000000e-002 3.333333e-001
      vertex -5.000000e-001 5.000000e-002 1.666667e-001
      vertex -4.507596e-001 5.868241e-002 1.666667e-001
    endloop
  endfacet
  facet normal 1.736482e-001 -9.848078e-001 0.000000e+000
    outer loop
      vertex -5.000000e-001 5.000000e-002 1.666667e-001
      vertex -5.000000e-001 5.000000e-002 0.000000e+000
      vertex -4.507596e-001 5.868241e-002 0.000000e+000
    endloop
  endfacet
  facet normal 1.736482e-001 -9.848078e-001 0.000000e+000
    outer loop
      vertex -5.000000e-001 5.000000e-002 0.000000e+000
      vertex -5.000000e-001 5.000000e-002 -1.666667e-001
      vertex -4.507596e-001 5.868241e-002 0.000000e+000
    endloop
  endfacet
  facet normal 1.736482e-001 -9.848078e-001 0.000000e+000
    outer loop
      vertex -5.000000e-001 5.000000e-002 -1.666667e-001
      vertex -5.000000e-001 5.000000e-002 -3.333333e-001
      vertex -4.507596e-001 5.868241e-002 -1.666667e-001
    endloop
  endfacet
  facet normal 1.736482e-001 -9.848078e-001 0.000000e+000
    outer loop
      vertex -5.000000e-001 5.000000e-002 -3.333333e-001
      vertex -5.000000e-001 5.000000e-002 -5.000000e-001
      vertex -4.507596e-001 5.868241e-002 -3.333333e-001
    endloop
  endfacet
  facet normal 1.736482e-001 -9.848078e-001 4.100086e-017
    outer loop
      vertex -4.507596e-001 5.868241e-002 -5.000000e-001
      vertex -4.507596e-001 5.868241e-002 -3.333333e-001
      vertex -5.000000e-001 5.000000e-002 -5.000000e-001
    endloop
  endfacet
  facet normal 1.736482e-001 -9.848078e-001 1.683560e-017
    outer loop
      vertex -4.507596e-001 5.868241e-002 -3.333333e-001
      vertex -4.507596e-001 5.868241e-002 -1.666667e-001
      vertex -5.000000e-001 5.000000e-002 -3.333333e-001
    endloop
  endfacet
  facet normal 1.736482e-001 -9.848078e-001 -5.783646e-017
    outer loop
      vertex -4.507596e-001 5.868241e-002 -1.666667e-001
      vertex -4.507596e-001 5.868241e-002 0.000000e+000
      vertex -5.000000e-001 5.000000e-002 -1.666667e-001
    endloop
  endfacet
  facet normal 1.736482e-001 -9.848078e-001 9.883732e-017
    outer loop
      vertex -4.507596e-001 5.868241e-002 0.000000e+000
      vertex -4.507596e-001 5.868241e-002 1.666667e-001
      vertex -5.000000e-001 5.000000e-002 1.666667e-001
    endloop
  endfacet
  facet normal 1.736482e-001 -9.848078e-001 -4.100086e-017
    outer loop
      vertex -4.507596e-001 5.868241e-002 1.666667e-001
      vertex -4.507596e-001 5.868241e-002 3.333333e-001
      vertex -5.000000e-001 5.000000e-002 3.333333e-001
    endloop
  endfacet
  facet normal 1.736482e-001 -9.848078e-001 -5.783646e-017
    outer loop
      vertex -4.507596e-001 5.868241e-002 3.333333e-001
      vertex -4.507596e-001 5.868241e-002 5.000000e-001
      vertex -5.000000e-001 5.000000e-002 5.000000e-001
    endloop
  endfacet
endsolid OBJECT
