solid OBJECT
  facet normal 0.000000e+000 1.000000e+000 0.000000e+000
    outer loop
      vertex 2.500000e-001 5.000000e-002 2.500000e-001
      vertex 2.500000e-001 5.000000e-002 0.000000e+000
      vertex 0.000000e+000 5.000000e-002 0.000000e+000
    endloop
  endfacet
  facet normal 0.000000e+000 1.000000e+000 0.000000e+000
    outer loop
      vertex 2.500000e-001 5.000000e-002 2.500000e-001
      vertex 0.000000e+000 5.000000e-002 0.000000e+000
      vertex 0.000000e+000 5.000000e-002 2.500000e-001
    endloop
  endfacet
  facet normal 0.000000e+000 1.000000e+000 0.000000e+000
    outer loop
      vertex 0.000000e+000 5.000000e-002 2.500000e-001
      vertex 0.000000e+000 5.000000e-002 0.000000e+000
      vertex -2.500000e-001 5.000000e-002 0.000000e+000
    endloop
  endfacet
  facet normal 2.775558e-017 1.000000e+000 -2.775558e-017
    outer loop
      vertex 0.000000e+000 5.000000e-002 2.500000e-001
      vertex -2.500000e-001 5.000000e-002 0.000000e+000
      vertex -2.500000e-001 5.000000e-002 2.500000e-001
    endloop
  endfacet
  facet normal 2.775558e-017 1.000000e+000 0.000000e+000
    outer loop
      vertex 0.000000e+000 5.000000e-002 0.000000e+000
      vertex 0.000000e+000 5.000000e-002 -2.500000e-001
      vertex -2.500000e-001 5.000000e-002 -2.500000e-001
    endloop
  endfacet
  facet normal 0.000000e+000 1.000000e+000 2.775558e-017
    outer loop
      vertex 0.000000e+000 5.000000e-002 0.000000e+000
      vertex -2.500000e-001 5.000000e-002 -2.500000e-001
      vertex -2.500000e-001 5.000000e-002 0.000000e+000
    endloop
  endfacet
  facet normal 0.000000e+000 1.000000e+000 0.000000e+000
    outer loop
      vertex 2.500000e-001 5.000000e-002 0.000000e+000
      vertex 2.500000e-001 5.000000e-002 -2.500000e-001
      vertex 0.000000e+000 5.000000e-002 -2.500000e-001
    endloop
  endfacet
  facet normal 0.000000e+000 1.000000e+000 0.000000e+000
    outer loop
      vertex 2.500000e-001 5.000000e-002 0.000000e+000
      vertex 0.000000e+000 5.000000e-002 -2.500000e-001
      vertex 0.000000e+000 5.000000e-002 0.000000e+000
    endloop
  endfacet
  facet normal 0.000000e+000 1.000000e+000 0.000000e+000
    outer loop
      vertex -5.000000e-001 5.000000e-002 -5.000000e-001
      vertex -5.000000e-001 5.000000e-002 -3.333333e-001
      vertex -3.333333e-001 5.000000e-002 -5.000000e-001
    endloop
  endfacet
  facet normal 0.000000e+000 1.000000e+000 -2.775558e-017
    outer loop
      vertex -3.333333e-001 5.000000e-002 -5.000000e-001
      vertex -2.500000e-001 5.000000e-002 -2.500000e-001
      vertex -1.666667e-001 5.000000e-002 -5.000000e-001
    endloop
  endfacet
  facet normal 0.000000e+000 1.000000e+000 0.000000e+000
    outer loop
      vertex -1.666667e-001 5.000000e-002 -5.000000e-001
      vertex 0.000000e+000 5.000000e-002 -2.500000e-001
      vertex 0.000000e+000 5.000000e-002 -5.000000e-001
    endloop
  endfacet
  facet normal 0.000000e+000 1.000000e+000 0.000000e+000
    outer loop
      vertex 0.000000e+000 5.000000e-002 -5.000000e-001
      vertex 0.000000e+000 5.000000e-002 -2.500000e-001
      vertex 1.666667e-001 5.000000e-002 -5.000000e-001
    endloop
  endfacet
  facet normal 0.000000e+000 1.000000e+000 0.000000e+000
    outer loop
      vertex 1.666667e-001 5.000000e-002 -5.000000e-001
      vertex 2.500000e-001 5.000000e-002 -2.500000e-001
      vertex 3.333333e-001 5.000000e-002 -5.000000e-001
    endloop
  endfacet
  facet normal 0.000000e+000 1.000000e+000 0.000000e+000
    outer loop
      vertex 3.333333e-001 5.000000e-002 -5.000000e-001
      vertex 5.000000e-001 5.000000e-002 -3.333333e-001
      vertex 5.000000e-001 5.000000e-002 -5.000000e-001
    endloop
  endfacet
  facet normal 0.000000e+000 1.000000e+000 0.000000e+000
    outer loop
      vertex 5.000000e-001 5.000000e-002 -3.333333e-001
      vertex 2.500000e-001 5.000000e-002 -2.500000e-001
      vertex 5.000000e-001 5.000000e-002 -1.666667e-001
    endloop
  endfacet
  facet normal 0.000000e+000 1.000000e+000 0.000000e+000
    outer loop
      vertex 5.000000e-001 5.000000e-002 -1.666667e-001
      vertex 2.500000e-001 5.000000e-002 0.000000e+000
      vertex 5.000000e-001 5.000000e-002 0.000000e+000
    endloop
  endfacet
  facet normal 0.000000e+000 1.000000e+000 0.000000e+000
    outer loop
      vertex 5.000000e-001 5.000000e-002 0.000000e+000
      vertex 2.500000e-001 5.000000e-002 0.000000e+000
      vertex 5.000000e-001 5.000000e-002 1.666667e-001
    endloop
  endfacet
  facet normal 0.000000e+000 1.000000e+000 0.000000e+000
    outer loop
      vertex 5.000000e-001 5.000000e-002 1.666667e-001
      vertex 2.500000e-001 5.000000e-002 2.500000e-001
      vertex 5.000000e-001 5.000000e-002 3.333333e-001
    endloop
  endfacet
  facet normal 0.000000e+000 1.000000e+000 0.000000e+000
    outer loop
      vertex 5.000000e-001 5.000000e-002 3.333333e-001
      vertex 3.333333e-001 5.000000e-002 5.000000e-001
      vertex 5.000000e-001 5.000000e-002 5.000000e-001
    endloop
  endfacet
  facet normal 0.000000e+000 1.000000e+000 0.000000e+000
    outer loop
      vertex 3.333333e-001 5.000000e-002 5.000000e-001
      vertex 2.500000e-001 5.000000e-002 2.500000e-001
      vertex 1.666667e-001 5.000000e-002 5.000000e-001
    endloop
  endfacet
  facet normal 0.000000e+000 1.000000e+000 0.000000e+000
    outer loop
      vertex 1.666667e-001 5.000000e-002 5.000000e-001
      vertex 0.000000e+000 5.000000e-002 2.500000e-001
      vertex 0.000000e+000 5.000000e-002 5.000000e-001
    endloop
  endfacet
  facet normal 0.000000e+000 1.000000e+000 0.000000e+000
    outer loop
      vertex 0.000000e+000 5.000000e-002 5.000000e-001
      vertex 0.000000e+000 5.000000e-002 2.500000e-001
      vertex -1.666667e-001 5.000000e-002 5.000000e-001
    endloop
  endfacet
  facet normal 0.000000e+000 1.000000e+000 2.775558e-017
    outer loop
      vertex -1.666667e-001 5.000000e-002 5.000000e-001
      vertex -2.500000e-001 5.000000e-002 2.500000e-001
      vertex -3.333333e-001 5.000000e-002 5.000000e-001
    endloop
  endfacet
  facet normal 0.000000e+000 1.000000e+000 0.000000e+000
    outer loop
      vertex -3.333333e-001 5.000000e-002 5.000000e-001
      vertex -5.000000e-001 5.000000e-002 3.333333e-001
      vertex -5.000000e-001 5.000000e-002 5.000000e-001
    endloop
  endfacet
  facet normal -2.775558e-017 1.000000e+000 0.000000e+000
    outer loop
      vertex -5.000000e-001 5.000000e-002 3.333333e-001
      vertex -2.500000e-001 5.000000e-002 2.500000e-001
      vertex -5.000000e-001 5.000000e-002 1.666667e-001
    endloop
  endfacet
  facet normal 0.000000e+000 1.000000e+000 0.000000e+000
    outer loop
      vertex -5.000000e-001 5.000000e-002 1.666667e-001
      vertex -2.500000e-001 5.000000e-002 0.000000e+000
      vertex -5.000000e-001 5.000000e-002 0.000000e+000
    endloop
  endfacet
  facet normal 0.000000e+000 1.000000e+000 0.000000e+000
    outer loop
      vertex -5.000000e-001 5.000000e-002 0.000000e+000
      vertex -2.500000e-001 5.000000e-002 0.000000e+000
      vertex -5.000000e-001 5.000000e-002 -1.666667e-001
    endloop
  endfacet
  facet normal -2.775558e-017 1.000000e+000 0.000000e+000
    outer loop
      vertex -5.000000e-001 5.000000e-002 -1.666667e-001
      vertex -2.500000e-001 5.000000e-002 -2.500000e-001
      vertex -5.000000e-001 5.000000e-002 -3.333333e-001
    endloop
  endfacet
  facet normal 0.000000e+000 1.000000e+000 0.000000e+000
    outer loop
      vertex 0.000000e+000 5.000000e-002 2.500000e-001
      vertex 1.666667e-001 5.000000e-002 5.000000e-001
      vertex 2.500000e-001 5.000000e-002 2.500000e-001
    endloop
  endfacet
  facet normal 0.000000e+000 1.000000e+000 0.000000e+000
    outer loop
      vertex 2.500000e-001 5.000000e-002 2.500000e-001
      vertex 5.000000e-001 5.000000e-002 1.666667e-001
      vertex 2.500000e-001 5.000000e-002 0.000000e+000
    endloop
  endfacet
  facet normal 2.775558e-017 1.000000e+000 1.850372e-017
    outer loop
      vertex -2.500000e-001 5.000000e-002 2.500000e-001
      vertex -1.666667e-001 5.000000e-002 5.000000e-001
      vertex 0.000000e+000 5.000000e-002 2.500000e-001
    endloop
  endfacet
  facet normal -1.850372e-017 1.000000e+000 -2.775558e-017
    outer loop
      vertex -2.500000e-001 5.000000e-002 0.000000e+000
      vertex -5.000000e-001 5.000000e-002 1.666667e-001
      vertex -2.500000e-001 5.000000e-002 2.500000e-001
    endloop
  endfacet
  facet normal -1.850372e-017 1.000000e+000 2.775558e-017
    outer loop
      vertex -2.500000e-001 5.000000e-002 -2.500000e-001
      vertex -5.000000e-001 5.000000e-002 -1.666667e-001
      vertex -2.500000e-001 5.000000e-002 0.000000e+000
    endloop
  endfacet
  facet normal 2.775558e-017 1.000000e+000 -1.850372e-017
    outer loop
      vertex 0.000000e+000 5.000000e-002 -2.500000e-001
      vertex -1.666667e-001 5.000000e-002 -5.000000e-001
      vertex -2.500000e-001 5.000000e-002 -2.500000e-001
    endloop
  endfacet
  facet normal 0.000000e+000 1.000000e+000 0.000000e+000
    outer loop
      vertex 2.500000e-001 5.000000e-002 -2.500000e-001
      vertex 1.666667e-001 5.000000e-002 -5.000000e-001
      vertex 0.000000e+000 5.000000e-002 -2.500000e-001
    endloop
  endfacet
  facet normal 0.000000e+000 1.000000e+000 0.000000e+000
    outer loop
      vertex 2.500000e-001 5.000000e-002 0.000000e+000
      vertex 5.000000e-001 5.000000e-002 -1.666667e-001
      vertex 2.500000e-001 5.000000e-002 -2.500000e-001
    endloop
  endfacet
  facet normal -2.081668e-017 1.000000e+000 -2.081668e-017
    outer loop
      vertex -5.000000e-001 5.000000e-002 -3.333333e-001
      vertex -2.500000e-001 5.000000e-002 -2.500000e-001
      vertex -3.333333e-001 5.000000e-002 -5.000000e-001
    endloop
  endfacet
  facet normal 0.000000e+000 1.000000e+000 0.000000e+000
    outer loop
      vertex 2.500000e-001 5.000000e-002 -2.500000e-001
      vertex 5.000000e-001 5.000000e-002 -3.333333e-001
      vertex 3.333333e-001 5.000000e-002 -5.000000e-001
    endloop
  endfacet
  facet normal 0.000000e+000 1.000000e+000 0.000000e+000
    outer loop
      vertex 2.500000e-001 5.000000e-002 2.500000e-001
      vertex 3.333333e-001 5.000000e-002 5.000000e-001
      vertex 5.000000e-001 5.000000e-002 3.333333e-001
    endloop
  endfacet
  facet normal -2.081668e-017 1.000000e+000 2.081668e-017
    outer loop
      vertex -2.500000e-001 5.000000e-002 2.500000e-001
      vertex -5.000000e-001 5.000000e-002 3.333333e-001
      vertex -3.333333e-001 5.000000e-002 5.000000e-001
    endloop
  endfacet
  facet normal 0.000000e+000 -1.000000e+000 0.000000e+000
    outer loop
      vertex 2.500000e-001 0.000000e+000 2.500000e-001
      vertex 0.000000e+000 0.000000e+000 2.500000e-001
      vertex 0.000000e+000 0.000000e+000 0.000000e+000
    endloop
  endfacet
  facet normal 0.000000e+000 -1.000000e+000 0.000000e+000
    outer loop
      vertex 2.500000e-001 0.000000e+000 2.500000e-001
      vertex 0.000000e+000 0.000000e+000 0.000000e+000
      vertex 2.500000e-001 0.000000e+000 0.000000e+000
    endloop
  endfacet
  facet normal 0.000000e+000 -1.000000e+000 0.000000e+000
    outer loop
      vertex 0.000000e+000 0.000000e+000 2.500000e-001
      vertex -2.500000e-001 0.000000e+000 2.500000e-001
      vertex -2.500000e-001 0.000000e+000 0.000000e+000
    endloop
  endfacet
  facet normal 0.000000e+000 -1.000000e+000 0.000000e+000
    outer loop
      vertex 0.000000e+000 0.000000e+000 2.500000e-001
      vertex -2.500000e-001 0.000000e+000 0.000000e+000
      vertex 0.000000e+000 0.000000e+000 0.000000e+000
    endloop
  endfacet
  facet normal 0.000000e+000 -1.000000e+000 0.000000e+000
    outer loop
      vertex 0.000000e+000 0.000000e+000 0.000000e+000
      vertex -2.500000e-001 0.000000e+000 0.000000e+000
      vertex -2.500000e-001 0.000000e+000 -2.500000e-001
    endloop
  endfacet
  facet normal 0.000000e+000 -1.000000e+000 0.000000e+000
    outer loop
      vertex 0.000000e+000 0.000000e+000 0.000000e+000
      vertex -2.500000e-001 0.000000e+000 -2.500000e-001
      vertex 0.000000e+000 0.000000e+000 -2.500000e-001
    endloop
  endfacet
  facet normal 0.000000e+000 -1.000000e+000 0.000000e+000
    outer loop
      vertex 2.500000e-001 0.000000e+000 0.000000e+000
      vertex 0.000000e+000 0.000000e+000 0.000000e+000
      vertex 0.000000e+000 0.000000e+000 -2.500000e-001
    endloop
  endfacet
  facet normal 0.000000e+000 -1.000000e+000 0.000000e+000
    outer loop
      vertex 2.500000e-001 0.000000e+000 0.000000e+000
      vertex 0.000000e+000 0.000000e+000 -2.500000e-001
      vertex 2.500000e-001 0.000000e+000 -2.500000e-001
    endloop
  endfacet
  facet normal 0.000000e+000 -1.000000e+000 0.000000e+000
    outer loop
      vertex -5.000000e-001 0.000000e+000 -5.000000e-001
      vertex -3.333333e-001 0.000000e+000 -5.000000e-001
      vertex -5.000000e-001 0.000000e+000 -3.333333e-001
    endloop
  endfacet
  facet normal 0.000000e+000 -1.000000e+000 0.000000e+000
    outer loop
      vertex -3.333333e-001 0.000000e+000 -5.000000e-001
      vertex -1.666667e-001 0.000000e+000 -5.000000e-001
      vertex -2.500000e-001 0.000000e+000 -2.500000e-001
    endloop
  endfacet
  facet normal 0.000000e+000 -1.000000e+000 0.000000e+000
    outer loop
      vertex -1.666667e-001 0.000000e+000 -5.000000e-001
      vertex 0.000000e+000 0.000000e+000 -5.000000e-001
      vertex 0.000000e+000 0.000000e+000 -2.500000e-001
    endloop
  endfacet
  facet normal 0.000000e+000 -1.000000e+000 0.000000e+000
    outer loop
      vertex 0.000000e+000 0.000000e+000 -5.000000e-001
      vertex 1.666667e-001 0.000000e+000 -5.000000e-001
      vertex 0.000000e+000 0.000000e+000 -2.500000e-001
    endloop
  endfacet
  facet normal 0.000000e+000 -1.000000e+000 0.000000e+000
    outer loop
      vertex 1.666667e-001 0.000000e+000 -5.000000e-001
      vertex 3.333333e-001 0.000000e+000 -5.000000e-001
      vertex 2.500000e-001 0.000000e+000 -2.500000e-001
    endloop
  endfacet
  facet normal 0.000000e+000 -1.000000e+000 0.000000e+000
    outer loop
      vertex 3.333333e-001 0.000000e+000 -5.000000e-001
      vertex 5.000000e-001 0.000000e+000 -5.000000e-001
      vertex 5.000000e-001 0.000000e+000 -3.333333e-001
    endloop
  endfacet
  facet normal 0.000000e+000 -1.000000e+000 0.000000e+000
    outer loop
      vertex 5.000000e-001 0.000000e+000 -3.333333e-001
      vertex 5.000000e-001 0.000000e+000 -1.666667e-001
      vertex 2.500000e-001 0.000000e+000 -2.500000e-001
    endloop
  endfacet
  facet normal 0.000000e+000 -1.000000e+000 0.000000e+000
    outer loop
      vertex 5.000000e-001 0.000000e+000 -1.666667e-001
      vertex 5.000000e-001 0.000000e+000 0.000000e+000
      vertex 2.500000e-001 0.000000e+000 0.000000e+000
    endloop
  endfacet
  facet normal 0.000000e+000 -1.000000e+000 0.000000e+000
    outer loop
      vertex 5.000000e-001 0.000000e+000 0.000000e+000
      vertex 5.000000e-001 0.000000e+000 1.666667e-001
      vertex 2.500000e-001 0.000000e+000 0.000000e+000
    endloop
  endfacet
  facet normal 0.000000e+000 -1.000000e+000 0.000000e+000
    outer loop
      vertex 5.000000e-001 0.000000e+000 1.666667e-001
      vertex 5.000000e-001 0.000000e+000 3.333333e-001
      vertex 2.500000e-001 0.000000e+000 2.500000e-001
    endloop
  endfacet
  facet normal 0.000000e+000 -1.000000e+000 0.000000e+000
    outer loop
      vertex 5.000000e-001 0.000000e+000 3.333333e-001
      vertex 5.000000e-001 0.000000e+000 5.000000e-001
      vertex 3.333333e-001 0.000000e+000 5.000000e-001
    endloop
  endfacet
  facet normal 0.000000e+000 -1.000000e+000 0.000000e+000
    outer loop
      vertex 3.333333e-001 0.000000e+000 5.000000e-001
      vertex 1.666667e-001 0.000000e+000 5.000000e-001
      vertex 2.500000e-001 0.000000e+000 2.500000e-001
    endloop
  endfacet
  facet normal 0.000000e+000 -1.000000e+000 0.000000e+000
    outer loop
      vertex 1.666667e-001 0.000000e+000 5.000000e-001
      vertex 0.000000e+000 0.000000e+000 5.000000e-001
      vertex 0.000000e+000 0.000000e+000 2.500000e-001
    endloop
  endfacet
  facet normal 0.000000e+000 -1.000000e+000 0.000000e+000
    outer loop
      vertex 0.000000e+000 0.000000e+000 5.000000e-001
      vertex -1.666667e-001 0.000000e+000 5.000000e-001
      vertex 0.000000e+000 0.000000e+000 2.500000e-001
    endloop
  endfacet
  facet normal 0.000000e+000 -1.000000e+000 0.000000e+000
    outer loop
      vertex -1.666667e-001 0.000000e+000 5.000000e-001
      vertex -3.333333e-001 0.000000e+000 5.000000e-001
      vertex -2.500000e-001 0.000000e+000 2.500000e-001
    endloop
  endfacet
  facet normal 0.000000e+000 -1.000000e+000 0.000000e+000
    outer loop
      vertex -3.333333e-001 0.000000e+000 5.000000e-001
      vertex -5.000000e-001 0.000000e+000 5.000000e-001
      vertex -5.000000e-001 0.000000e+000 3.333333e-001
    endloop
  endfacet
  facet normal 0.000000e+000 -1.000000e+000 0.000000e+000
    outer loop
      vertex -5.000000e-001 0.000000e+000 3.333333e-001
      vertex -5.000000e-001 0.000000e+000 1.666667e-001
      vertex -2.500000e-001 0.000000e+000 2.500000e-001
    endloop
  endfacet
  facet normal 0.000000e+000 -1.000000e+000 0.000000e+000
    outer loop
      vertex -5.000000e-001 0.000000e+000 1.666667e-001
      vertex -5.000000e-001 0.000000e+000 0.000000e+000
      vertex -2.500000e-001 0.000000e+000 0.000000e+000
    endloop
  endfacet
  facet normal 0.000000e+000 -1.000000e+000 0.000000e+000
    outer loop
      vertex -5.000000e-001 0.000000e+000 0.000000e+000
      vertex -5.000000e-001 0.000000e+000 -1.666667e-001
      vertex -2.500000e-001 0.000000e+000 0.000000e+000
    endloop
  endfacet
  facet normal 0.000000e+000 -1.000000e+000 0.000000e+000
    outer loop
      vertex -5.000000e-001 0.000000e+000 -1.666667e-001
      vertex -5.000000e-001 0.000000e+000 -3.333333e-001
      vertex -2.500000e-001 0.000000e+000 -2.500000e-001
    endloop
  endfacet
  facet normal 0.000000e+000 -1.000000e+000 0.000000e+000
    outer loop
      vertex 0.000000e+000 0.000000e+000 2.500000e-001
      vertex 2.500000e-001 0.000000e+000 2.500000e-001
      vertex 1.666667e-001 0.000000e+000 5.000000e-001
    endloop
  endfacet
  facet normal 0.000000e+000 -1.000000e+000 0.000000e+000
    outer loop
      vertex 2.500000e-001 0.000000e+000 2.500000e-001
      vertex 2.500000e-001 0.000000e+000 0.000000e+000
      vertex 5.000000e-001 0.000000e+000 1.666667e-001
    endloop
  endfacet
  facet normal 0.000000e+000 -1.000000e+000 0.000000e+000
    outer loop
      vertex -2.500000e-001 0.000000e+000 2.500000e-001
      vertex 0.000000e+000 0.000000e+000 2.500000e-001
      vertex -1.666667e-001 0.000000e+000 5.000000e-001
    endloop
  endfacet
  facet normal 0.000000e+000 -1.000000e+000 0.000000e+000
    outer loop
      vertex -2.500000e-001 0.000000e+000 0.000000e+000
      vertex -2.500000e-001 0.000000e+000 2.500000e-001
      vertex -5.000000e-001 0.000000e+000 1.666667e-001
    endloop
  endfacet
  facet normal 0.000000e+000 -1.000000e+000 0.000000e+000
    outer loop
      vertex -2.500000e-001 0.000000e+000 -2.500000e-001
      vertex -2.500000e-001 0.000000e+000 0.000000e+000
      vertex -5.000000e-001 0.000000e+000 -1.666667e-001
    endloop
  endfacet
  facet normal 0.000000e+000 -1.000000e+000 0.000000e+000
    outer loop
      vertex 0.000000e+000 0.000000e+000 -2.500000e-001
      vertex -2.500000e-001 0.000000e+000 -2.500000e-001
      vertex -1.666667e-001 0.000000e+000 -5.000000e-001
    endloop
  endfacet
  facet normal 0.000000e+000 -1.000000e+000 0.000000e+000
    outer loop
      vertex 2.500000e-001 0.000000e+000 -2.500000e-001
      vertex 0.000000e+000 0.000000e+000 -2.500000e-001
      vertex 1.666667e-001 0.000000e+000 -5.000000e-001
    endloop
  endfacet
  facet normal 0.000000e+000 -1.000000e+000 0.000000e+000
    outer loop
      vertex 2.500000e-001 0.000000e+000 0.000000e+000
      vertex 2.500000e-001 0.000000e+000 -2.500000e-001
      vertex 5.000000e-001 0.000000e+000 -1.666667e-001
    endloop
  endfacet
  facet normal 0.000000e+000 -1.000000e+000 0.000000e+000
    outer loop
      vertex -5.000000e-001 0.000000e+000 -3.333333e-001
      vertex -3.333333e-001 0.000000e+000 -5.000000e-001
      vertex -2.500000e-001 0.000000e+000 -2.500000e-001
    endloop
  endfacet
  facet normal 0.000000e+000 -1.000000e+000 0.000000e+000
    outer loop
      vertex 2.500000e-001 0.000000e+000 -2.500000e-001
      vertex 3.333333e-001 0.000000e+000 -5.000000e-001
      vertex 5.000000e-001 0.000000e+000 -3.333333e-001
    endloop
  endfacet
  facet normal 0.000000e+000 -1.000000e+000 0.000000e+000
    outer loop
      vertex 2.500000e-001 0.000000e+000 2.500000e-001
      vertex 5.000000e-001 0.000000e+000 3.333333e-001
      vertex 3.333333e-001 0.000000e+000 5.000000e-001
    endloop
  endfacet
  facet normal 0.000000e+000 -1.000000e+000 0.000000e+000
    outer loop
      vertex -2.500000e-001 0.000000e+000 2.500000e-001
      vertex -3.333333e-001 0.000000e+000 5.000000e-001
      vertex -5.000000e-001 0.000000e+000 3.333333e-001
    endloop
  endfacet
  facet normal 0.000000e+000 0.000000e+000 -1.000000e+000
    outer loop
      vertex -5.000000e-001 5.000000e-002 -5.000000e-001
      vertex -3.333333e-001 5.000000e-002 -5.000000e-001
      vertex -3.333333e-001 0.000000e+000 -5.000000e-001
    endloop
  endfacet
  facet normal 0.000000e+000 0.000000e+000 -1.000000e+000
    outer loop
      vertex -3.333333e-001 5.000000e-002 -5.000000e-001
      vertex -1.666667e-001 5.000000e-002 -5.000000e-001
      vertex -1.666667e-001 0.000000e+000 -5.000000e-001
    endloop
  endfacet
  facet normal 0.000000e+000 0.000000e+000 -1.000000e+000
    outer loop
      vertex -1.666667e-001 5.000000e-002 -5.000000e-001
      vertex 0.000000e+000 5.000000e-002 -5.000000e-001
      vertex 0.000000e+000 0.000000e+000 -5.000000e-001
    endloop
  endfacet
  facet normal 0.000000e+000 0.000000e+000 -1.000000e+000
    outer loop
      vertex 0.000000e+000 5.000000e-002 -5.000000e-001
      vertex 1.666667e-001 5.000000e-002 -5.000000e-001
      vertex 0.000000e+000 0.000000e+000 -5.000000e-001
    endloop
  endfacet
  facet normal 0.000000e+000 0.000000e+000 -1.000000e+000
    outer loop
      vertex 1.666667e-001 5.000000e-002 -5.000000e-001
      vertex 3.333333e-001 5.000000e-002 -5.000000e-001
      vertex 1.666667e-001 0.000000e+000 -5.000000e-001
    endloop
  endfacet
  facet normal 0.000000e+000 0.000000e+000 -1.000000e+000
    outer loop
      vertex 3.333333e-001 5.000000e-002 -5.000000e-001
      vertex 5.000000e-001 5.000000e-002 -5.000000e-001
      vertex 3.333333e-001 0.000000e+000 -5.000000e-001
    endloop
  endfacet
  facet normal 0.000000e+000 0.000000e+000 -1.000000e+000
    outer loop
      vertex 5.000000e-001 0.000000e+000 -5.000000e-001
      vertex 3.333333e-001 0.000000e+000 -5.000000e-001
      vertex 5.000000e-001 5.000000e-002 -5.000000e-001
    endloop
  endfacet
  facet normal 0.000000e+000 0.000000e+000 -1.000000e+000
    outer loop
      vertex 3.333333e-001 0.000000e+000 -5.000000e-001
      vertex 1.666667e-001 0.000000e+000 -5.000000e-001
      vertex 3.333333e-001 5.000000e-002 -5.000000e-001
    endloop
  endfacet
  facet normal 0.000000e+000 0.000000e+000 -1.000000e+000
    outer loop
      vertex 1.666667e-001 0.000000e+000 -5.000000e-001
      vertex 0.000000e+000 0.000000e+000 -5.000000e-001
      vertex 1.666667e-001 5.000000e-002 -5.000000e-001
    endloop
  endfacet
  facet normal 0.000000e+000 0.000000e+000 -1.000000e+000
    outer loop
      vertex 0.000000e+000 0.000000e+000 -5.000000e-001
      vertex -1.666667e-001 0.000000e+000 -5.000000e-001
      vertex -1.666667e-001 5.000000e-002 -5.000000e-001
    endloop
  endfacet
  facet normal 0.000000e+000 0.000000e+000 -1.000000e+000
    outer loop
      vertex -1.666667e-001 0.000000e+000 -5.000000e-001
      vertex -3.333333e-001 0.000000e+000 -5.000000e-001
      vertex -3.333333e-001 5.000000e-002 -5.000000e-001
    endloop
  endfacet
  facet normal 0.000000e+000 0.000000e+000 -1.000000e+000
    outer loop
      vertex -3.333333e-001 0.000000e+000 -5.000000e-001
      vertex -5.000000e-001 0.000000e+000 -5.000000e-001
      vertex -5.000000e-001 5.000000e-002 -5.000000e-001
    endloop
  endfacet
  facet normal 1.000000e+000 0.000000e+000 0.000000e+000
    outer loop
      vertex 5.000000e-001 5.000000e-002 -5.000000e-001
      vertex 5.000000e-001 5.000000e-002 -3.333333e-001
      vertex 5.000000e-001 0.000000e+000 -3.333333e-001
    endloop
  endfacet
  facet normal 1.000000e+000 0.000000e+000 0.000000e+000
    outer loop
      vertex 5.000000e-001 5.000000e-002 -3.333333e-001
      vertex 5.000000e-001 5.000000e-002 -1.666667e-001
      vertex 5.000000e-001 0.000000e+000 -1.666667e-001
    endloop
  endfacet
  facet normal 1.000000e+000 0.000000e+000 0.000000e+000
    outer loop
      vertex 5.000000e-001 5.000000e-002 -1.666667e-001
      vertex 5.000000e-001 5.000000e-002 0.000000e+000
      vertex 5.000000e-001 0.000000e+000 0.000000e+000
    endloop
  endfacet
  facet normal 1.000000e+000 0.000000e+000 0.000000e+000
    outer loop
      vertex 5.000000e-001 5.000000e-002 0.000000e+000
      vertex 5.000000e-001 5.000000e-002 1.666667e-001
      vertex 5.000000e-001 0.000000e+000 0.000000e+000
    endloop
  endfacet
  facet normal 1.000000e+000 0.000000e+000 0.000000e+000
    outer loop
      vertex 5.000000e-001 5.000000e-002 1.666667e-001
      vertex 5.000000e-001 5.000000e-002 3.333333e-001
      vertex 5.000000e-001 0.000000e+000 1.666667e-001
    endloop
  endfacet
  facet normal 1.000000e+000 0.000000e+000 0.000000e+000
    outer loop
      vertex 5.000000e-001 5.000000e-002 3.333333e-001
      vertex 5.000000e-001 5.000000e-002 5.000000e-001
      vertex 5.000000e-001 0.000000e+000 3.333333e-001
    endloop
  endfacet
  facet normal 1.000000e+000 0.000000e+000 0.000000e+000
    outer loop
      vertex 5.000000e-001 0.000000e+000 5.000000e-001
      vertex 5.000000e-001 0.000000e+000 3.333333e-001
      vertex 5.000000e-001 5.000000e-002 5.000000e-001
    endloop
  endfacet
  facet normal 1.000000e+000 0.000000e+000 0.000000e+000
    outer loop
      vertex 5.000000e-001 0.000000e+000 3.333333e-001
      vertex 5.000000e-001 0.000000e+000 1.666667e-001
      vertex 5.000000e-001 5.000000e-002 3.333333e-001
    endloop
  endfacet
  facet normal 1.000000e+000 0.000000e+000 0.000000e+000
    outer loop
      vertex 5.000000e-001 0.000000e+000 1.666667e-001
      vertex 5.000000e-001 0.000000e+000 0.000000e+000
      vertex 5.000000e-001 5.000000e-002 1.666667e-001
    endloop
  endfacet
  facet normal 1.000000e+000 0.000000e+000 0.000000e+000
    outer loop
      vertex 5.000000e-001 0.000000e+000 0.000000e+000
      vertex 5.000000e-001 0.000000e+000 -1.666667e-001
      vertex 5.000000e-001 5.000000e-002 -1.666667e-001
    endloop
  endfacet
  facet normal 1.000000e+000 0.000000e+000 0.000000e+000
    outer loop
      vertex 5.000000e-001 0.000000e+000 -1.666667e-001
      vertex 5.000000e-001 0.000000e+000 -3.333333e-001
      vertex 5.000000e-001 5.000000e-002 -3.333333e-001
    endloop
  endfacet
  facet normal 1.000000e+000 0.000000e+000 0.000000e+000
    outer loop
      vertex 5.000000e-001 0.000000e+000 -3.333333e-001
      vertex 5.000000e-001 0.000000e+000 -5.000000e-001
      vertex 5.000000e-001 5.000000e-002 -5.000000e-001
    endloop
  endfacet
  facet normal 0.000000e+000 0.000000e+000 1.000000e+000
    outer loop
      vertex 5.000000e-001 5.000000e-002 5.000000e-001
      vertex 3.333333e-001 5.000000e-002 5.000000e-001
      vertex 3.333333e-001 0.000000e+000 5.000000e-001
    endloop
  endfacet
  facet normal 0.000000e+000 0.000000e+000 1.000000e+000
    outer loop
      vertex 3.333333e-001 5.000000e-002 5.000000e-001
      vertex 1.666667e-001 5.000000e-002 5.000000e-001
      vertex 1.666667e-001 0.000000e+000 5.000000e-001
    endloop
  endfacet
  facet normal 0.000000e+000 0.000000e+000 1.000000e+000
    outer loop
      vertex 1.666667e-001 5.000000e-002 5.000000e-001
      vertex 0.000000e+000 5.000000e-002 5.000000e-001
      vertex 0.000000e+000 0.000000e+000 5.000000e-001
    endloop
  endfacet
  facet normal 0.000000e+000 0.000000e+000 1.000000e+000
    outer loop
      vertex 0.000000e+000 5.000000e-002 5.000000e-001
      vertex -1.666667e-001 5.000000e-002 5.000000e-001
      vertex 0.000000e+000 0.000000e+000 5.000000e-001
    endloop
  endfacet
  facet normal 0.000000e+000 0.000000e+000 1.000000e+000
    outer loop
      vertex -1.666667e-001 5.000000e-002 5.000000e-001
      vertex -3.333333e-001 5.000000e-002 5.000000e-001
      vertex -1.666667e-001 0.000000e+000 5.000000e-001
    endloop
  endfacet
  facet normal 0.000000e+000 0.000000e+000 1.000000e+000
    outer loop
      vertex -3.333333e-001 5.000000e-002 5.000000e-001
      vertex -5.000000e-001 5.000000e-002 5.000000e-001
      vertex -3.333333e-001 0.000000e+000 5.000000e-001
    endloop
  endfacet
  facet normal 0.000000e+000 0.000000e+000 1.000000e+000
    outer loop
      vertex -5.000000e-001 0.000000e+000 5.000000e-001
      vertex -3.333333e-001 0.000000e+000 5.000000e-001
      vertex -5.000000e-001 5.000000e-002 5.000000e-001
    endloop
  endfacet
  facet normal 0.000000e+000 0.000000e+000 1.000000e+000
    outer loop
      vertex -3.333333e-001 0.000000e+000 5.000000e-001
      vertex -1.666667e-001 0.000000e+000 5.000000e-001
      vertex -3.333333e-001 5.000000e-002 5.000000e-001
    endloop
  endfacet
  facet normal 0.000000e+000 0.000000e+000 1.000000e+000
    outer loop
      vertex -1.666667e-001 0.000000e+000 5.000000e-001
      vertex 0.000000e+000 0.000000e+000 5.000000e-001
      vertex -1.666667e-001 5.000000e-002 5.000000e-001
    endloop
  endfacet
  facet normal 0.000000e+000 0.000000e+000 1.000000e+000
    outer loop
      vertex 0.000000e+000 0.000000e+000 5.000000e-001
      vertex 1.666667e-001 0.000000e+000 5.000000e-001
      vertex 1.666667e-001 5.000000e-002 5.000000e-001
    endloop
  endfacet
  facet normal 0.000000e+000 0.000000e+000 1.000000e+000
    outer loop
      vertex 1.666667e-001 0.000000e+000 5.000000e-001
      vertex 3.333333e-001 0.000000e+000 5.000000e-001
      vertex 3.333333e-001 5.000000e-002 5.000000e-001
    endloop
  endfacet
  facet normal 0.000000e+000 0.000000e+000 1.000000e+000
    outer loop
      vertex 3.333333e-001 0.000000e+000 5.000000e-001
      vertex 5.000000e-001 0.000000e+000 5.000000e-001
      vertex 5.000000e-001 5.000000e-002 5.000000e-001
    endloop
  endfacet
  facet normal -1.000000e+000 0.000000e+000 0.000000e+000
    outer loop
      vertex -5.000000e-001 5.000000e-002 5.000000e-001
      vertex -5.000000e-001 5.000000e-002 3.333333e-001
      vertex -5.000000e-001 0.000000e+000 3.333333e-001
    endloop
  endfacet
  facet normal -1.000000e+000 0.000000e+000 0.000000e+000
    outer loop
      vertex -5.000000e-001 5.000000e-002 3.333333e-001
      vertex -5.000000e-001 5.000000e-002 1.666667e-001
      vertex -5.000000e-001 0.000000e+000 1.666667e-001
    endloop
  endfacet
  facet normal -1.000000e+000 0.000000e+000 0.000000e+000
    outer loop
      vertex -5.000000e-001 5.000000e-002 1.666667e-001
      vertex -5.000000e-001 5.000000e-002 0.000000e+000
      vertex -5.000000e-001 0.000000e+000 0.000000e+000
    endloop
  endfacet
  facet normal -1.000000e+000 0.000000e+000 0.000000e+000
    outer loop
      vertex -5.000000e-001 5.000000e-002 0.000000e+000
      vertex -5.000000e-001 5.000000e-002 -1.666667e-001
      vertex -5.000000e-001 0.000000e+000 0.000000e+000
    endloop
  endfacet
  facet normal -1.000000e+000 0.000000e+000 0.000000e+000
    outer loop
      vertex -5.000000e-001 5.000000e-002 -1.666667e-001
      vertex -5.000000e-001 5.000000e-002 -3.333333e-001
      vertex -5.000000e-001 0.000000e+000 -1.666667e-001
    endloop
  endfacet
  facet normal -1.000000e+000 0.000000e+000 0.000000e+000
    outer loop
      vertex -5.000000e-001 5.000000e-002 -3.333333e-001
      vertex -5.000000e-001 5.000000e-002 -5.000000e-001
      vertex -5.000000e-001 0.000000e+000 -3.333333e-001
    endloop
  endfacet
  facet normal -1.000000e+000 0.000000e+000 0.000000e+000
    outer loop
      vertex -5.000000e-001 0.000000e+000 -5.000000e-001
      vertex -5.000000e-001 0.000000e+000 -3.333333e-001
      vertex -5.000000e-001 5.000000e-002 -5.000000e-001
    endloop
  endfacet
  facet normal -1.000000e+000 0.000000e+000 0.000000e+000
    outer loop
      vertex -5.000000e-001 0.000000e+000 -3.333333e-001
      vertex -5.000000e-001 0.000000e+000 -1.666667e-001
      vertex -5.000000e-001 5.000000e-002 -3.333333e-001
    endloop
  endfacet
  facet normal -1.000000e+000 0.000000e+000 0.000000e+000
    outer loop
      vertex -5.000000e-001 0.000000e+000 -1.666667e-001
      vertex -5.000000e-001 0.000000e+000 0.000000e+000
      vertex -5.000000e-001 5.000000e-002 -1.666667e-001
    endloop
  endfacet
  facet normal -1.000000e+000 0.000000e+000 0.000000e+000
    outer loop
      vertex -5.000000e-001 0.000000e+000 0.000000e+000
      vertex -5.000000e-001 0.000000e+000 1.666667e-001
      vertex -5.000000e-001 5.000000e-002 1.666667e-001
    endloop
  endfacet
  facet normal -1.000000e+000 0.000000e+000 0.000000e+000
    outer loop
      vertex -5.000000e-001 0.000000e+000 1.666667e-001
      vertex -5.000000e-001 0.000000e+000 3.333333e-001
      vertex -5.000000e-001 5.000000e-002 3.333333e-001
    endloop
  endfacet
  facet normal -1.000000e+000 0.000000e+000 0.000000e+000
    outer loop
      vertex -5.000000e-001 0.000000e+000 3.333333e-001
      vertex -5.000000e-001 0.000000e+000 5.000000e-001
      vertex -5.000000e-001 5.000000e-002 5.000000e-001
    endloop
  endfacet
endsolid OBJECT
