<svg width="1238" height="1055" xmlns="http://www.w3.org/2000/svg" xmlns:xlink="http://www.w3.org/1999/xlink" overflow="hidden"><defs><clipPath id="clip0"><rect x="1060" y="558" width="1238" height="1055"/></clipPath></defs><g clip-path="url(#clip0)" transform="translate(-1060 -558)"><path d="M0 0 692.143 127.5" stroke="#4472C4" stroke-width="20.625" stroke-miterlimit="8" fill="none" fill-rule="evenodd" transform="matrix(1 0 0 -1 1427.5 1238)"/><path d="M1797.59 1165.64 1419 633" stroke="#4472C4" stroke-width="27.5" stroke-miterlimit="8" fill="none" fill-rule="evenodd"/><path d="M1798 1166 1798 1582.58" stroke="#4472C4" stroke-width="27.5" stroke-miterlimit="8" fill="none" fill-rule="evenodd"/><path d="M1511.5 1219.5C1511.5 1211.77 1517.77 1205.5 1525.5 1205.5 1533.23 1205.5 1539.5 1211.77 1539.5 1219.5 1539.5 1227.23 1533.23 1233.5 1525.5 1233.5 1517.77 1233.5 1511.5 1227.23 1511.5 1219.5Z" stroke="#BC8C00" stroke-width="4.58333" stroke-miterlimit="8" fill="#FFC000" fill-rule="evenodd"/><path d="M2026.5 1124.5C2026.5 1116.77 2032.77 1110.5 2040.5 1110.5 2048.23 1110.5 2054.5 1116.77 2054.5 1124.5 2054.5 1132.23 2048.23 1138.5 2040.5 1138.5 2032.77 1138.5 2026.5 1132.23 2026.5 1124.5Z" stroke="#BC8C00" stroke-width="4.58333" stroke-miterlimit="8" fill="#FFC000" fill-rule="evenodd"/><path d="M10.3125-1.41667e-05 10.3128 211.146-10.3122 211.146-10.3125 1.41667e-05ZM30.9378 200.833 0.000360892 262.708-30.9372 200.833Z" fill="#FF0000" transform="matrix(1 0 0 -1 1525.5 1206.21)"/><path d="M10.3125-9.53264e-06 10.3128 338.854-10.3122 338.854-10.3125 9.53264e-06ZM30.9378 328.542 0.000360892 390.417-30.9372 328.542Z" fill="#FF0000" transform="matrix(1 0 0 -1 2040.5 1110.92)"/><path d="M2101.73 711.43 2138.28 711.43 2135.49 723.872 2131.6 723.872C2131.49 721.791 2131.32 720.15 2131.09 718.948 2130.86 717.745 2130.53 716.881 2130.12 716.354 2129.7 715.827 2129.19 715.469 2128.6 715.28 2128 715.091 2127.11 714.996 2125.92 714.996L2113.44 714.996 2108.62 737.043 2116.2 737.043C2117.38 737.043 2118.37 736.881 2119.15 736.557 2119.94 736.233 2120.67 735.645 2121.34 734.794 2122.02 733.943 2122.85 732.491 2123.85 730.437L2127.54 730.437 2123.61 747.54 2120.05 747.54C2120.05 744.811 2119.96 743.102 2119.78 742.413 2119.61 741.724 2119.27 741.251 2118.77 740.995 2118.27 740.738 2117.28 740.61 2115.79 740.61L2107.85 740.61 2104.64 754.956C2104.08 757.496 2103.79 759.603 2103.79 761.279 2103.79 762.116 2103.93 762.771 2104.2 763.244 2104.47 763.717 2104.87 764.061 2105.41 764.278 2105.96 764.494 2106.89 764.656 2108.21 764.764L2107.77 766.75 2091.11 766.75 2091.55 764.764C2092.58 764.602 2093.35 764.338 2093.86 763.974 2094.38 763.609 2094.81 763.102 2095.16 762.454 2095.51 761.805 2095.84 761.015 2096.13 760.083 2096.43 759.151 2096.88 757.347 2097.47 754.673L2104.36 723.467C2104.96 720.765 2105.25 718.63 2105.25 717.063 2105.25 715.739 2104.94 714.821 2104.32 714.307 2103.7 713.794 2102.69 713.497 2101.28 713.416Z" fill-rule="evenodd"/><text fill="#000000" fill-opacity="0" font-family="Arial,Arial_MSFontService,sans-serif" font-size="55.3198" x="2091.11" y="759.835">洧냧</text><path d="M2240.18 756.132C2239.01 756.132 2237.93 756.385 2236.92 756.891 2235.92 757.397 2235 758.092 2234.17 758.976 2233.33 759.86 2232.59 760.882 2231.93 762.044 2231.28 763.206 2230.73 764.447 2230.28 765.767 2229.83 767.088 2229.5 768.438 2229.27 769.818 2229.04 771.198 2228.93 772.543 2228.93 773.854 2228.93 775.998 2229.23 777.592 2229.83 778.634 2230.44 779.677 2231.42 780.198 2232.77 780.198 2233.68 780.198 2234.69 779.89 2235.81 779.275 2236.92 778.659 2238 777.771 2239.04 776.609 2240.08 775.447 2241.04 774.032 2241.91 772.365 2242.79 770.697 2243.44 768.82 2243.88 766.735 2244.1 765.663 2244.29 764.591 2244.47 763.518 2244.65 762.446 2244.74 761.463 2244.74 760.57 2244.74 758.961 2244.38 757.819 2243.65 757.144 2242.93 756.469 2241.77 756.132 2240.18 756.132ZM2207.39 756.132C2206.3 756.132 2205.22 756.4 2204.16 756.936 2203.1 757.472 2202.1 758.231 2201.15 759.214 2200.21 760.197 2199.35 761.389 2198.58 762.789 2197.8 764.188 2197.16 765.752 2196.64 767.48 2199.16 767.46 2201.33 767.261 2203.15 766.884 2204.97 766.507 2206.45 765.99 2207.62 765.335 2208.78 764.68 2209.63 763.906 2210.18 763.012 2210.72 762.118 2211 761.135 2211 760.063 2211 758.832 2210.69 757.869 2210.07 757.174 2209.46 756.479 2208.56 756.132 2207.39 756.132ZM2208.67 753.183C2211.22 753.183 2213.15 753.739 2214.47 754.851 2215.79 755.963 2216.45 757.541 2216.45 759.587 2216.45 766.775 2209.65 770.369 2196.04 770.369 2195.95 770.885 2195.87 771.446 2195.81 772.052 2195.75 772.657 2195.72 773.318 2195.72 774.032 2195.72 776.197 2196.16 777.775 2197.04 778.768 2197.93 779.761 2199.3 780.258 2201.17 780.258 2202.14 780.258 2203.06 780.153 2203.94 779.945 2204.81 779.736 2205.67 779.414 2206.51 778.977 2207.36 778.54 2208.21 777.979 2209.06 777.294 2209.91 776.609 2210.81 775.79 2211.74 774.837L2213.98 777.249C2211.67 779.533 2209.37 781.25 2207.08 782.402 2204.79 783.554 2202.32 784.13 2199.68 784.13 2198.13 784.13 2196.75 783.896 2195.55 783.43 2194.35 782.963 2193.34 782.283 2192.52 781.389 2191.69 780.496 2191.07 779.409 2190.64 778.128 2190.21 776.847 2190 775.403 2190 773.794 2190 772.662 2190.1 771.486 2190.3 770.265 2190.49 769.043 2190.8 767.822 2191.22 766.601 2191.64 765.38 2192.15 764.188 2192.77 763.027 2193.38 761.865 2194.11 760.778 2194.94 759.765 2196.61 757.7 2198.62 756.087 2200.97 754.925 2203.33 753.764 2205.89 753.183 2208.67 753.183ZM2141.03 753.183C2142.5 753.183 2143.63 753.664 2144.44 754.627 2145.24 755.591 2145.64 756.856 2145.64 758.425 2145.64 758.862 2145.61 759.289 2145.56 759.706 2145.5 760.123 2145.39 760.53 2145.23 760.927L2145.58 761.076C2147.47 758.435 2149.36 756.459 2151.24 755.149 2153.13 753.838 2155.07 753.183 2157.05 753.183 2159.16 753.183 2160.73 753.724 2161.77 754.806 2162.82 755.888 2163.34 757.482 2163.34 759.587 2163.34 759.765 2163.34 759.939 2163.34 760.108 2163.34 760.277 2163.32 760.45 2163.28 760.629L2163.4 760.629C2165.24 758.107 2167.08 756.236 2168.91 755.015 2170.73 753.793 2172.64 753.183 2174.63 753.183 2176.73 753.183 2178.3 753.749 2179.35 754.881 2180.39 756.012 2180.91 757.601 2180.91 759.646 2180.91 760.262 2180.81 761.091 2180.61 762.133 2180.41 763.176 2180.17 764.323 2179.88 765.573 2179.59 766.824 2179.28 768.12 2178.94 769.46 2178.61 770.801 2178.29 772.067 2177.99 773.258 2177.81 774.032 2177.67 774.663 2177.56 775.149 2177.45 775.636 2177.37 776.043 2177.31 776.371 2177.25 776.698 2177.21 776.981 2177.19 777.219 2177.17 777.458 2177.16 777.716 2177.16 777.994 2177.16 778.748 2177.3 779.294 2177.57 779.632 2177.85 779.97 2178.3 780.138 2178.91 780.138 2179.27 780.138 2179.63 780.069 2179.99 779.93 2180.34 779.791 2180.73 779.573 2181.13 779.275 2181.54 778.977 2181.99 778.595 2182.47 778.128 2182.96 777.661 2183.5 777.1 2184.1 776.445L2186.15 778.411C2185.2 779.404 2184.31 780.258 2183.49 780.972 2182.66 781.687 2181.87 782.278 2181.1 782.745 2180.34 783.211 2179.58 783.559 2178.83 783.787 2178.07 784.015 2177.28 784.13 2176.44 784.13 2175.69 784.13 2175 783.991 2174.39 783.713 2173.77 783.435 2173.25 783.052 2172.82 782.566 2172.4 782.079 2172.06 781.504 2171.83 780.838 2171.59 780.173 2171.47 779.443 2171.47 778.649 2171.47 777.021 2171.82 774.926 2172.51 772.365 2172.89 771.074 2173.23 769.838 2173.54 768.656 2173.85 767.475 2174.11 766.383 2174.33 765.38 2174.55 764.377 2174.72 763.484 2174.85 762.699 2174.98 761.915 2175.04 761.265 2175.04 760.748 2175.04 759.517 2174.81 758.614 2174.34 758.038 2173.88 757.462 2173.15 757.174 2172.15 757.174 2171.54 757.174 2170.88 757.333 2170.19 757.651 2169.49 757.968 2168.79 758.41 2168.09 758.976 2167.38 759.542 2166.69 760.212 2166.02 760.987 2165.34 761.761 2164.72 762.6 2164.14 763.503 2163.57 764.407 2163.05 765.355 2162.61 766.348 2162.16 767.341 2161.82 768.344 2161.58 769.356L2158.63 783.594 2152.82 783.594C2153.1 782.323 2153.41 780.958 2153.76 779.498 2154.11 778.039 2154.46 776.564 2154.82 775.075 2155.18 773.586 2155.52 772.116 2155.85 770.667 2156.17 769.217 2156.47 767.862 2156.72 766.601 2156.98 765.34 2157.19 764.208 2157.35 763.206 2157.51 762.203 2157.59 761.404 2157.59 760.808 2157.59 759.557 2157.35 758.638 2156.86 758.053 2156.37 757.467 2155.59 757.174 2154.52 757.174 2153.57 757.174 2152.54 757.531 2151.45 758.246 2150.36 758.961 2149.32 759.899 2148.34 761.061 2147.36 762.223 2146.48 763.533 2145.7 764.993 2144.93 766.452 2144.38 767.927 2144.07 769.416L2141.03 783.594 2135.19 783.594 2139.66 764.174C2139.92 763.101 2140.1 762.168 2140.22 761.374 2140.34 760.58 2140.4 759.924 2140.4 759.408 2140.4 757.958 2139.82 757.234 2138.65 757.234 2138.29 757.234 2137.93 757.308 2137.56 757.457 2137.19 757.606 2136.8 757.829 2136.4 758.127 2135.99 758.425 2135.55 758.802 2135.07 759.259 2134.59 759.716 2134.06 760.252 2133.46 760.867L2131.41 758.931C2132.38 757.939 2133.28 757.08 2134.1 756.355 2134.93 755.63 2135.72 755.034 2136.49 754.568 2137.25 754.101 2138 753.754 2138.73 753.525 2139.47 753.297 2140.23 753.183 2141.03 753.183ZM2253.29 742.937 2254.81 742.937 2247.9 773.318C2247.62 774.489 2247.44 775.422 2247.35 776.117 2247.26 776.812 2247.21 777.438 2247.21 777.994 2247.21 778.748 2247.37 779.294 2247.68 779.632 2247.98 779.97 2248.43 780.138 2249 780.138 2249.36 780.138 2249.71 780.069 2250.06 779.93 2250.41 779.791 2250.78 779.573 2251.19 779.275 2251.6 778.977 2252.04 778.595 2252.53 778.128 2253.02 777.661 2253.57 777.1 2254.18 776.445 2254.5 776.783 2254.83 777.115 2255.17 777.443 2255.5 777.771 2255.83 778.093 2256.15 778.411 2255.16 779.424 2254.25 780.292 2253.44 781.017 2252.62 781.742 2251.84 782.338 2251.07 782.804 2250.31 783.271 2249.56 783.608 2248.82 783.817 2248.09 784.025 2247.32 784.13 2246.53 784.13 2245.1 784.13 2243.99 783.668 2243.19 782.745 2242.4 781.821 2242 780.555 2242 778.947 2242 778.053 2242.14 777.2 2242.42 776.385L2242 776.207C2240.99 777.617 2240.01 778.818 2239.05 779.811 2238.1 780.804 2237.16 781.623 2236.22 782.268 2235.29 782.913 2234.35 783.385 2233.39 783.683 2232.44 783.981 2231.45 784.13 2230.42 784.13 2228.05 784.13 2226.23 783.281 2224.93 781.583 2223.64 779.885 2223 777.418 2223 774.181 2223 772.255 2223.2 770.404 2223.61 768.626 2224.02 766.849 2224.59 765.181 2225.34 763.623 2226.08 762.064 2226.97 760.644 2228 759.363 2229.03 758.083 2230.17 756.985 2231.4 756.072 2232.63 755.159 2233.94 754.449 2235.33 753.942 2236.72 753.436 2238.16 753.183 2239.65 753.183 2240.96 753.183 2242.16 753.312 2243.25 753.57 2244.34 753.828 2245.39 754.344 2246.38 755.119 2246.72 753.868 2246.99 752.801 2247.18 751.917 2247.38 751.033 2247.55 750.219 2247.68 749.475 2247.8 748.73 2247.87 748.109 2247.87 747.613 2247.87 747.196 2247.81 746.849 2247.71 746.571 2247.6 746.293 2247.4 746.064 2247.12 745.885 2246.85 745.707 2246.45 745.578 2245.95 745.498 2245.44 745.419 2244.8 745.359 2244.03 745.32L2244.41 743.294Z" fill-rule="evenodd"/><text fill="#000000" fill-opacity="0" font-family="Arial,Arial_MSFontService,sans-serif" font-size="41.1929" x="2131.41" y="778.981">洧녴洧뉧롐</text><path d="M1369.37 925.686 1405.93 925.686 1403.13 938.128 1399.24 938.128C1399.13 936.047 1398.96 934.406 1398.73 933.204 1398.5 932.001 1398.18 931.137 1397.76 930.61 1397.34 930.083 1396.83 929.725 1396.24 929.536 1395.65 929.347 1394.75 929.252 1393.57 929.252L1381.08 929.252 1376.26 951.299 1383.84 951.299C1385.03 951.299 1386.01 951.137 1386.8 950.813 1387.58 950.489 1388.31 949.901 1388.99 949.05 1389.66 948.199 1390.5 946.747 1391.5 944.693L1395.19 944.693 1391.26 961.796 1387.69 961.796C1387.69 959.067 1387.6 957.358 1387.43 956.669 1387.25 955.98 1386.91 955.507 1386.41 955.251 1385.91 954.994 1384.92 954.866 1383.43 954.866L1375.49 954.866 1372.29 969.212C1371.72 971.752 1371.44 973.859 1371.44 975.535 1371.44 976.372 1371.57 977.027 1371.84 977.5 1372.11 977.973 1372.52 978.318 1373.06 978.534 1373.6 978.75 1374.53 978.912 1375.85 979.02L1375.41 981.006 1358.75 981.006 1359.2 979.02C1360.22 978.858 1360.99 978.594 1361.51 978.23 1362.02 977.865 1362.45 977.358 1362.81 976.71 1363.16 976.061 1363.48 975.271 1363.78 974.339 1364.07 973.407 1364.52 971.603 1365.12 968.929L1372 937.723C1372.6 935.021 1372.9 932.886 1372.9 931.319 1372.9 929.995 1372.59 929.077 1371.96 928.563 1371.34 928.05 1370.33 927.753 1368.92 927.672Z" fill-rule="evenodd"/><text fill="#000000" fill-opacity="0" font-family="Arial,Arial_MSFontService,sans-serif" font-size="55.3198" x="1358.75" y="974.091">洧냧</text><path d="M1439.83 970.388C1438.66 970.388 1437.56 970.646 1436.55 971.162 1435.54 971.678 1434.62 972.383 1433.78 973.277 1432.95 974.17 1432.21 975.203 1431.56 976.374 1430.92 977.546 1430.37 978.787 1429.92 980.098 1429.48 981.408 1429.14 982.753 1428.91 984.133 1428.68 985.514 1428.57 986.839 1428.57 988.11 1428.57 990.254 1428.87 991.848 1429.48 992.89 1430.08 993.933 1431.06 994.454 1432.41 994.454 1433.09 994.454 1433.74 994.335 1434.36 994.097 1434.99 993.858 1435.65 993.481 1436.34 992.965 1438.09 991.595 1439.58 989.927 1440.81 987.961 1442.04 985.995 1442.97 983.672 1443.58 980.991 1443.86 979.76 1444.08 978.648 1444.24 977.655 1444.4 976.662 1444.47 975.719 1444.47 974.826 1444.47 973.237 1444.1 972.1 1443.36 971.415 1442.61 970.73 1441.44 970.388 1439.83 970.388ZM1439.29 967.439C1440.86 967.439 1442.25 967.623 1443.45 967.99 1444.65 968.357 1445.75 968.859 1446.74 969.494L1449.63 967.439 1452.04 968.064 1447.54 987.574C1447.28 988.686 1447.11 989.604 1447.01 990.329 1446.91 991.054 1446.86 991.694 1446.86 992.25 1446.86 993.005 1447.01 993.551 1447.32 993.888 1447.63 994.226 1448.07 994.394 1448.64 994.394 1449 994.394 1449.35 994.325 1449.7 994.186 1450.05 994.047 1450.43 993.829 1450.83 993.531 1451.24 993.233 1451.69 992.851 1452.17 992.384 1452.66 991.917 1453.21 991.356 1453.83 990.701 1454.15 991.039 1454.47 991.371 1454.81 991.699 1455.15 992.027 1455.48 992.349 1455.79 992.667 1454.8 993.68 1453.9 994.548 1453.08 995.273 1452.27 995.998 1451.48 996.594 1450.71 997.06 1449.95 997.527 1449.2 997.864 1448.47 998.073 1447.73 998.281 1446.97 998.386 1446.17 998.386 1444.74 998.386 1443.63 997.924 1442.84 997.001 1442.04 996.077 1441.65 994.811 1441.65 993.203 1441.65 992.31 1441.78 991.456 1442.06 990.642L1441.65 990.463C1440.63 991.873 1439.65 993.074 1438.7 994.067 1437.74 995.06 1436.8 995.879 1435.87 996.524 1434.93 997.169 1433.99 997.641 1433.04 997.939 1432.08 998.237 1431.09 998.386 1430.06 998.386 1427.7 998.386 1425.87 997.537 1424.58 995.839 1423.29 994.141 1422.64 991.674 1422.64 988.437 1422.64 986.511 1422.85 984.66 1423.25 982.883 1423.66 981.105 1424.24 979.437 1424.98 977.879 1425.73 976.32 1426.61 974.9 1427.65 973.619 1428.68 972.339 1429.81 971.241 1431.04 970.328 1432.27 969.415 1433.58 968.705 1434.97 968.198 1436.36 967.692 1437.8 967.439 1439.29 967.439ZM1469.64 960.499 1474.28 960.499 1472.59 968.064 1482.71 968.064 1482.03 971.371 1471.93 971.371 1468.89 983.851C1468.69 984.685 1468.53 985.434 1468.4 986.099 1468.27 986.765 1468.17 987.365 1468.09 987.901 1468.01 988.437 1467.95 988.924 1467.92 989.361 1467.9 989.798 1467.88 990.205 1467.88 990.582 1467.88 991.773 1468.13 992.707 1468.62 993.382 1469.12 994.057 1469.94 994.394 1471.07 994.394 1472.02 994.394 1473.03 994.042 1474.11 993.337 1475.18 992.632 1476.4 991.525 1477.77 990.016L1479.82 992.101C1478.81 993.233 1477.85 994.196 1476.93 994.99 1476.02 995.784 1475.13 996.435 1474.25 996.941 1473.38 997.447 1472.52 997.815 1471.66 998.043 1470.81 998.271 1469.94 998.386 1469.04 998.386 1466.68 998.386 1464.92 997.83 1463.75 996.718 1462.59 995.606 1462.01 993.968 1462.01 991.803 1462.01 991.068 1462.07 990.259 1462.18 989.376 1462.29 988.492 1462.44 987.633 1462.64 986.799L1466.18 971.371 1461.06 971.371 1461.66 969.077C1462.85 969.077 1463.77 968.963 1464.44 968.735 1465.11 968.506 1465.67 968.193 1466.12 967.796 1466.42 967.518 1466.71 967.176 1466.99 966.769 1467.26 966.362 1467.54 965.87 1467.82 965.294 1468.1 964.719 1468.38 964.038 1468.67 963.254 1468.96 962.47 1469.28 961.551 1469.64 960.499ZM1413.71 957.193 1415.85 957.193C1414.62 962.733 1413.49 967.796 1412.47 972.383 1411.45 976.97 1410.33 982.034 1409.12 987.574 1408.84 988.765 1408.64 989.703 1408.52 990.388 1408.4 991.073 1408.34 991.694 1408.34 992.25 1408.34 993.005 1408.5 993.551 1408.81 993.888 1409.11 994.226 1409.59 994.394 1410.22 994.394 1410.58 994.394 1410.94 994.325 1411.29 994.186 1411.65 994.047 1412.03 993.829 1412.42 993.531 1412.82 993.233 1413.26 992.851 1413.75 992.384 1414.24 991.917 1414.79 991.356 1415.4 990.701L1417.34 992.667C1416.33 993.699 1415.41 994.578 1414.58 995.303 1413.76 996.028 1412.98 996.618 1412.23 997.075 1411.49 997.532 1410.75 997.864 1410.03 998.073 1409.3 998.281 1408.52 998.386 1407.69 998.386 1406.93 998.386 1406.25 998.247 1405.65 997.969 1405.04 997.691 1404.52 997.308 1404.08 996.822 1403.65 996.335 1403.31 995.755 1403.07 995.08 1402.83 994.404 1402.71 993.66 1402.71 992.846 1402.71 992.111 1402.79 991.203 1402.94 990.12 1403.09 989.038 1403.32 987.812 1403.64 986.442 1404.49 982.629 1405.34 978.827 1406.18 975.034 1407.03 971.241 1407.72 968.332 1408.25 966.307 1408.73 964.143 1408.97 962.663 1408.97 961.869 1408.97 961.452 1408.91 961.105 1408.81 960.827 1408.7 960.549 1408.5 960.32 1408.21 960.142 1407.92 959.963 1407.53 959.834 1407.03 959.754 1406.54 959.675 1405.89 959.615 1405.1 959.576L1405.51 957.55Z" fill-rule="evenodd"/><text fill="#000000" fill-opacity="0" font-family="Arial,Arial_MSFontService,sans-serif" font-size="41.1929" x="1402.71" y="993.237">洧녳洧녩洧노</text><path d="M1773.82 633.261 1810.38 633.261 1807.58 645.703 1803.69 645.703C1803.58 643.622 1803.42 641.981 1803.19 640.779 1802.96 639.576 1802.63 638.712 1802.21 638.185 1801.79 637.658 1801.29 637.3 1800.69 637.111 1800.1 636.922 1799.21 636.827 1798.02 636.827L1785.54 636.827 1780.71 658.874 1788.29 658.874C1789.48 658.874 1790.47 658.712 1791.25 658.388 1792.03 658.064 1792.76 657.476 1793.44 656.625 1794.11 655.774 1794.95 654.322 1795.95 652.268L1799.64 652.268 1795.71 669.371 1792.14 669.371C1792.14 666.642 1792.05 664.933 1791.88 664.244 1791.7 663.555 1791.37 663.082 1790.87 662.826 1790.37 662.569 1789.37 662.441 1787.89 662.441L1779.94 662.441 1776.74 676.787C1776.17 679.327 1775.89 681.435 1775.89 683.11 1775.89 683.947 1776.03 684.602 1776.3 685.075 1776.57 685.548 1776.97 685.893 1777.51 686.109 1778.05 686.325 1778.98 686.487 1780.31 686.595L1779.86 688.581 1763.21 688.581 1763.65 686.595C1764.68 686.433 1765.45 686.169 1765.96 685.805 1766.47 685.44 1766.91 684.933 1767.26 684.285 1767.61 683.636 1767.93 682.846 1768.23 681.914 1768.53 680.982 1768.97 679.178 1769.57 676.504L1776.46 645.298C1777.05 642.596 1777.35 640.461 1777.35 638.894 1777.35 637.57 1777.04 636.652 1776.42 636.138 1775.8 635.625 1774.78 635.328 1773.38 635.247Z" fill-rule="evenodd"/><text fill="#000000" fill-opacity="0" font-family="Arial,Arial_MSFontService,sans-serif" font-size="55.3198" x="1763.21" y="681.666">洧냧</text><path d="M1911.28 677.963C1910.11 677.963 1909.02 678.221 1908.01 678.737 1906.99 679.253 1906.07 679.958 1905.24 680.852 1904.4 681.745 1903.66 682.778 1903.02 683.949 1902.37 685.121 1901.82 686.362 1901.38 687.673 1900.93 688.983 1900.59 690.328 1900.37 691.708 1900.14 693.089 1900.02 694.414 1900.02 695.685 1900.02 697.829 1900.33 699.423 1900.93 700.465 1901.54 701.508 1902.51 702.029 1903.87 702.029 1904.54 702.029 1905.19 701.91 1905.82 701.672 1906.44 701.433 1907.1 701.056 1907.8 700.54 1909.54 699.17 1911.03 697.502 1912.26 695.536 1913.5 693.57 1914.42 691.247 1915.03 688.566 1915.31 687.335 1915.53 686.223 1915.69 685.23 1915.85 684.237 1915.93 683.294 1915.93 682.401 1915.93 680.812 1915.56 679.675 1914.81 678.99 1914.07 678.305 1912.89 677.963 1911.28 677.963ZM1849.04 677.963C1847.93 677.963 1846.89 678.211 1845.92 678.707 1844.94 679.204 1844.05 679.889 1843.24 680.762 1842.42 681.636 1841.69 682.669 1841.05 683.86 1840.4 685.052 1839.85 686.332 1839.41 687.702 1838.96 689.073 1838.62 690.502 1838.38 691.991 1838.14 693.481 1838.02 694.97 1838.02 696.459 1838.02 698.743 1838.49 700.426 1839.44 701.508 1840.38 702.59 1841.82 703.131 1843.74 703.131 1844.81 703.131 1845.83 702.868 1846.78 702.342 1847.73 701.816 1848.61 701.106 1849.4 700.212 1850.2 699.319 1850.9 698.271 1851.53 697.07 1852.16 695.868 1852.69 694.583 1853.12 693.213 1853.56 691.843 1853.89 690.428 1854.12 688.968 1854.35 687.509 1854.46 686.084 1854.46 684.694 1854.46 682.49 1854.03 680.817 1853.15 679.675 1852.28 678.534 1850.91 677.963 1849.04 677.963ZM1910.75 675.014C1912.31 675.014 1913.7 675.198 1914.9 675.565 1916.1 675.932 1917.2 676.434 1918.19 677.069L1921.08 675.014 1923.49 675.639 1919 695.149C1918.74 696.261 1918.56 697.179 1918.46 697.904 1918.36 698.629 1918.31 699.269 1918.31 699.825 1918.31 700.58 1918.46 701.126 1918.77 701.463 1919.08 701.801 1919.52 701.969 1920.1 701.969 1920.46 701.969 1920.81 701.9 1921.16 701.761 1921.5 701.622 1921.88 701.404 1922.29 701.106 1922.69 700.808 1923.14 700.426 1923.63 699.959 1924.11 699.492 1924.67 698.931 1925.28 698.276 1925.6 698.614 1925.93 698.946 1926.26 699.274 1926.6 699.602 1926.93 699.924 1927.25 700.242 1926.25 701.255 1925.35 702.123 1924.54 702.848 1923.72 703.573 1922.93 704.169 1922.17 704.635 1921.4 705.102 1920.65 705.439 1919.92 705.648 1919.18 705.856 1918.42 705.961 1917.63 705.961 1916.2 705.961 1915.08 705.499 1914.29 704.576 1913.5 703.652 1913.1 702.386 1913.1 700.778 1913.1 699.885 1913.24 699.031 1913.52 698.217L1913.1 698.038C1912.09 699.448 1911.1 700.649 1910.15 701.642 1909.2 702.635 1908.25 703.454 1907.32 704.099 1906.39 704.744 1905.44 705.216 1904.49 705.514 1903.54 705.812 1902.54 705.961 1901.51 705.961 1899.15 705.961 1897.32 705.112 1896.03 703.414 1894.74 701.716 1894.1 699.249 1894.1 696.012 1894.1 694.086 1894.3 692.235 1894.71 690.458 1895.11 688.68 1895.69 687.012 1896.43 685.454 1897.18 683.895 1898.07 682.475 1899.1 681.194 1900.13 679.914 1901.26 678.816 1902.49 677.903 1903.73 676.99 1905.04 676.28 1906.43 675.773 1907.82 675.267 1909.26 675.014 1910.75 675.014ZM1849.61 675.014C1851.4 675.014 1852.96 675.302 1854.3 675.878 1855.64 676.454 1856.76 677.233 1857.65 678.216 1858.54 679.199 1859.21 680.355 1859.66 681.686 1860.11 683.016 1860.33 684.436 1860.33 685.945 1860.33 688.963 1859.89 691.699 1858.99 694.151 1858.1 696.603 1856.86 698.708 1855.28 700.465 1853.7 702.223 1851.85 703.578 1849.71 704.531 1847.58 705.484 1845.26 705.961 1842.76 705.961 1841.11 705.961 1839.63 705.712 1838.32 705.216 1837.01 704.72 1835.9 704.005 1834.98 703.072 1834.07 702.138 1833.37 701.011 1832.88 699.691 1832.4 698.37 1832.16 696.876 1832.16 695.208 1832.16 692.389 1832.6 689.753 1833.48 687.3 1834.36 684.848 1835.59 682.713 1837.14 680.896 1838.7 679.08 1840.54 677.645 1842.67 676.593 1844.79 675.54 1847.11 675.014 1849.61 675.014ZM1877.09 668.074 1881.74 668.074 1880.04 675.639 1890.17 675.639 1889.48 678.946 1879.38 678.946 1876.35 691.426C1876.15 692.26 1875.98 693.009 1875.85 693.674 1875.73 694.34 1875.62 694.94 1875.54 695.476 1875.46 696.012 1875.41 696.499 1875.38 696.936 1875.35 697.373 1875.33 697.78 1875.33 698.157 1875.33 699.348 1875.58 700.282 1876.08 700.957 1876.57 701.632 1877.39 701.969 1878.52 701.969 1879.47 701.969 1880.49 701.617 1881.56 700.912 1882.63 700.207 1883.85 699.1 1885.22 697.591L1887.28 699.676C1886.26 700.808 1885.3 701.771 1884.39 702.565 1883.47 703.359 1882.58 704.01 1881.71 704.516 1880.83 705.022 1879.97 705.39 1879.12 705.618 1878.26 705.846 1877.39 705.961 1876.49 705.961 1874.13 705.961 1872.37 705.405 1871.21 704.293 1870.05 703.181 1869.47 701.543 1869.47 699.378 1869.47 698.643 1869.52 697.834 1869.63 696.951 1869.74 696.067 1869.89 695.208 1870.09 694.374L1873.64 678.946 1868.51 678.946 1869.11 676.652C1870.3 676.652 1871.23 676.538 1871.89 676.31 1872.56 676.081 1873.12 675.768 1873.58 675.371 1873.87 675.093 1874.16 674.751 1874.44 674.344 1874.72 673.937 1875 673.445 1875.27 672.869 1875.55 672.294 1875.83 671.613 1876.12 670.829 1876.41 670.045 1876.73 669.126 1877.09 668.074ZM1815.09 668.074 1819.74 668.074 1818.04 675.639 1828.17 675.639 1827.48 678.946 1817.38 678.946 1814.35 691.426C1814.15 692.26 1813.98 693.009 1813.85 693.674 1813.73 694.34 1813.62 694.94 1813.54 695.476 1813.46 696.012 1813.41 696.499 1813.38 696.936 1813.35 697.373 1813.33 697.78 1813.33 698.157 1813.33 699.348 1813.58 700.282 1814.08 700.957 1814.57 701.632 1815.39 701.969 1816.52 701.969 1817.47 701.969 1818.49 701.617 1819.56 700.912 1820.63 700.207 1821.85 699.1 1823.22 697.591L1825.28 699.676C1824.26 700.808 1823.3 701.771 1822.39 702.565 1821.47 703.359 1820.58 704.01 1819.71 704.516 1818.83 705.022 1817.97 705.39 1817.12 705.618 1816.26 705.846 1815.39 705.961 1814.49 705.961 1812.13 705.961 1810.37 705.405 1809.21 704.293 1808.05 703.181 1807.47 701.543 1807.47 699.378 1807.47 698.643 1807.52 697.834 1807.63 696.951 1807.74 696.067 1807.89 695.208 1808.09 694.374L1811.64 678.946 1806.51 678.946 1807.11 676.652C1808.3 676.652 1809.23 676.538 1809.89 676.31 1810.56 676.081 1811.12 675.768 1811.58 675.371 1811.87 675.093 1812.16 674.751 1812.44 674.344 1812.72 673.937 1813 673.445 1813.27 672.869 1813.55 672.294 1813.83 671.613 1814.12 670.829 1814.41 670.045 1814.73 669.126 1815.09 668.074ZM1944.16 664.768 1946.3 664.768C1945.07 670.308 1943.95 675.371 1942.92 679.958 1941.9 684.545 1940.78 689.609 1939.57 695.149 1939.29 696.34 1939.1 697.278 1938.98 697.963 1938.86 698.648 1938.8 699.269 1938.8 699.825 1938.8 700.58 1938.95 701.126 1939.26 701.463 1939.57 701.801 1940.04 701.969 1940.67 701.969 1941.03 701.969 1941.39 701.9 1941.75 701.761 1942.1 701.622 1942.48 701.404 1942.88 701.106 1943.27 700.808 1943.72 700.426 1944.2 699.959 1944.69 699.492 1945.24 698.931 1945.86 698.276L1947.79 700.242C1946.78 701.274 1945.86 702.153 1945.04 702.878 1944.21 703.603 1943.43 704.193 1942.68 704.65 1941.94 705.107 1941.2 705.439 1940.48 705.648 1939.76 705.856 1938.98 705.961 1938.14 705.961 1937.39 705.961 1936.71 705.822 1936.1 705.544 1935.5 705.266 1934.97 704.883 1934.54 704.397 1934.1 703.91 1933.76 703.33 1933.53 702.655 1933.29 701.979 1933.17 701.235 1933.17 700.421 1933.17 699.686 1933.24 698.778 1933.39 697.695 1933.54 696.613 1933.77 695.387 1934.09 694.017 1934.95 690.204 1935.79 686.402 1936.64 682.609 1937.48 678.816 1938.17 675.907 1938.71 673.882 1939.18 671.718 1939.42 670.238 1939.42 669.444 1939.42 669.027 1939.37 668.68 1939.26 668.402 1939.15 668.124 1938.95 667.895 1938.66 667.717 1938.38 667.538 1937.98 667.409 1937.49 667.329 1936.99 667.25 1936.34 667.19 1935.55 667.151L1935.97 665.125Z" fill-rule="evenodd"/><text fill="#000000" fill-opacity="0" font-family="Arial,Arial_MSFontService,sans-serif" font-size="41.1929" x="1806.51" y="700.812">洧노洧녶洧노洧녩洧녳</text><path d="M1990.88 1251.62 2005.35 1251.62 2009.97 1290.93 2033.59 1251.62 2046.36 1251.62 2045.91 1253.6C2044.89 1253.82 2044.15 1254.06 2043.7 1254.33 2043.26 1254.6 2042.85 1255.01 2042.49 1255.55 2042.12 1256.09 2041.76 1256.93 2041.39 1258.08 2041.03 1259.23 2040.56 1261.1 2040 1263.69L2033.07 1295.14C2032.71 1296.74 2032.48 1298 2032.38 1298.93 2032.27 1299.86 2032.21 1300.71 2032.21 1301.46 2032.21 1302.68 2032.52 1303.54 2033.13 1304.04 2033.73 1304.54 2034.75 1304.84 2036.19 1304.95L2035.74 1306.94 2019.53 1306.94 2019.98 1304.95C2021 1304.79 2021.77 1304.52 2022.29 1304.16 2022.8 1303.79 2023.23 1303.29 2023.58 1302.64 2023.93 1301.99 2024.26 1301.2 2024.56 1300.27 2024.85 1299.34 2025.3 1297.53 2025.89 1294.86L2031.28 1270.42C2032.04 1267.04 2032.9 1263.68 2033.88 1260.33L2033.31 1260.33C2032.47 1261.92 2030.58 1265.17 2027.64 1270.06L2009.2 1300.49 2004.78 1300.49 2001.41 1274.43C2000.93 1270.76 2000.39 1265.81 1999.79 1259.6L1998.98 1259.6C1998.06 1265.65 1997.04 1271.26 1995.9 1276.42L1991.77 1295.14C1991.2 1297.71 1990.92 1299.82 1990.92 1301.46 1990.92 1302.68 1991.22 1303.54 1991.83 1304.04 1992.44 1304.54 1993.46 1304.84 1994.89 1304.95L1994.44 1306.94 1980.26 1306.94 1980.7 1304.95C1981.73 1304.79 1982.5 1304.52 1983.01 1304.16 1983.53 1303.79 1983.96 1303.29 1984.31 1302.64 1984.66 1301.99 1984.99 1301.2 1985.28 1300.27 1985.58 1299.34 1986.03 1297.53 1986.62 1294.86L1993.51 1263.65C1993.78 1262.49 1994 1261.38 1994.16 1260.33 1994.32 1259.28 1994.4 1258.21 1994.4 1257.13 1994.4 1255.86 1994.09 1254.97 1993.45 1254.47 1992.82 1253.97 1991.81 1253.68 1990.43 1253.6Z" fill-rule="evenodd"/><text fill="#000000" fill-opacity="0" font-family="Arial,Arial_MSFontService,sans-serif" font-size="55.3198" x="1980.26" y="1300.02">洧</text><path d="M2152.66 1296.32C2151.49 1296.32 2150.4 1296.58 2149.39 1297.09 2148.37 1297.61 2147.45 1298.31 2146.62 1299.21 2145.78 1300.1 2145.04 1301.13 2144.4 1302.3 2143.75 1303.48 2143.2 1304.72 2142.76 1306.03 2142.31 1307.34 2141.97 1308.68 2141.75 1310.06 2141.52 1311.44 2141.4 1312.77 2141.4 1314.04 2141.4 1316.18 2141.71 1317.78 2142.31 1318.82 2142.92 1319.86 2143.89 1320.38 2145.25 1320.38 2145.92 1320.38 2146.57 1320.26 2147.2 1320.03 2147.82 1319.79 2148.48 1319.41 2149.18 1318.89 2150.92 1317.52 2152.41 1315.86 2153.64 1313.89 2154.88 1311.92 2155.8 1309.6 2156.41 1306.92 2156.69 1305.69 2156.91 1304.58 2157.07 1303.59 2157.23 1302.59 2157.31 1301.65 2157.31 1300.76 2157.31 1299.17 2156.94 1298.03 2156.19 1297.35 2155.45 1296.66 2154.27 1296.32 2152.66 1296.32ZM2090.42 1296.32C2089.31 1296.32 2088.27 1296.57 2087.3 1297.06 2086.32 1297.56 2085.43 1298.24 2084.62 1299.12 2083.8 1299.99 2083.07 1301.02 2082.43 1302.21 2081.78 1303.41 2081.23 1304.69 2080.79 1306.06 2080.34 1307.43 2080 1308.86 2079.76 1310.35 2079.52 1311.84 2079.4 1313.32 2079.4 1314.81 2079.4 1317.1 2079.87 1318.78 2080.82 1319.86 2081.76 1320.94 2083.2 1321.49 2085.12 1321.49 2086.19 1321.49 2087.21 1321.22 2088.16 1320.7 2089.11 1320.17 2089.99 1319.46 2090.78 1318.57 2091.57 1317.67 2092.28 1316.63 2092.91 1315.42 2093.54 1314.22 2094.07 1312.94 2094.5 1311.57 2094.94 1310.2 2095.27 1308.78 2095.5 1307.32 2095.73 1305.86 2095.84 1304.44 2095.84 1303.05 2095.84 1300.84 2095.41 1299.17 2094.53 1298.03 2093.66 1296.89 2092.29 1296.32 2090.42 1296.32ZM2152.13 1293.37C2153.69 1293.37 2155.08 1293.55 2156.28 1293.92 2157.48 1294.29 2158.58 1294.79 2159.57 1295.42L2162.46 1293.37 2164.87 1293.99 2160.38 1313.5C2160.12 1314.62 2159.94 1315.53 2159.84 1316.26 2159.74 1316.98 2159.69 1317.62 2159.69 1318.18 2159.69 1318.93 2159.84 1319.48 2160.15 1319.82 2160.46 1320.16 2160.9 1320.32 2161.48 1320.32 2161.84 1320.32 2162.19 1320.25 2162.54 1320.12 2162.88 1319.98 2163.26 1319.76 2163.67 1319.46 2164.07 1319.16 2164.52 1318.78 2165.01 1318.31 2165.49 1317.85 2166.05 1317.29 2166.66 1316.63 2166.98 1316.97 2167.31 1317.3 2167.64 1317.63 2167.98 1317.96 2168.31 1318.28 2168.63 1318.6 2167.63 1319.61 2166.73 1320.48 2165.92 1321.2 2165.1 1321.93 2164.31 1322.52 2163.55 1322.99 2162.78 1323.46 2162.03 1323.79 2161.3 1324 2160.56 1324.21 2159.8 1324.32 2159.01 1324.32 2157.58 1324.32 2156.46 1323.85 2155.67 1322.93 2154.88 1322.01 2154.48 1320.74 2154.48 1319.13 2154.48 1318.24 2154.62 1317.39 2154.9 1316.57L2154.48 1316.39C2153.47 1317.8 2152.48 1319 2151.53 1320 2150.58 1320.99 2149.63 1321.81 2148.7 1322.45 2147.77 1323.1 2146.82 1323.57 2145.87 1323.87 2144.92 1324.17 2143.92 1324.32 2142.89 1324.32 2140.53 1324.32 2138.7 1323.47 2137.41 1321.77 2136.12 1320.07 2135.48 1317.6 2135.48 1314.37 2135.48 1312.44 2135.68 1310.59 2136.09 1308.81 2136.49 1307.04 2137.07 1305.37 2137.81 1303.81 2138.56 1302.25 2139.45 1300.83 2140.48 1299.55 2141.51 1298.27 2142.64 1297.17 2143.88 1296.26 2145.11 1295.34 2146.42 1294.63 2147.81 1294.13 2149.2 1293.62 2150.64 1293.37 2152.13 1293.37ZM2090.99 1293.37C2092.78 1293.37 2094.34 1293.66 2095.68 1294.23 2097.02 1294.81 2098.14 1295.59 2099.03 1296.57 2099.92 1297.55 2100.59 1298.71 2101.04 1300.04 2101.49 1301.37 2101.71 1302.79 2101.71 1304.3 2101.71 1307.32 2101.27 1310.05 2100.37 1312.51 2099.48 1314.96 2098.24 1317.06 2096.66 1318.82 2095.08 1320.58 2093.23 1321.93 2091.09 1322.89 2088.96 1323.84 2086.64 1324.32 2084.14 1324.32 2082.49 1324.32 2081.01 1324.07 2079.7 1323.57 2078.39 1323.07 2077.28 1322.36 2076.36 1321.43 2075.45 1320.49 2074.75 1319.37 2074.26 1318.05 2073.78 1316.73 2073.54 1315.23 2073.54 1313.56 2073.54 1310.74 2073.98 1308.11 2074.86 1305.66 2075.74 1303.2 2076.97 1301.07 2078.52 1299.25 2080.08 1297.43 2081.92 1296 2084.05 1294.95 2086.17 1293.9 2088.49 1293.37 2090.99 1293.37ZM2118.47 1286.43 2123.12 1286.43 2121.42 1293.99 2131.55 1293.99 2130.86 1297.3 2120.76 1297.3 2117.73 1309.78C2117.53 1310.61 2117.36 1311.36 2117.23 1312.03 2117.11 1312.69 2117 1313.3 2116.92 1313.83 2116.84 1314.37 2116.79 1314.85 2116.76 1315.29 2116.73 1315.73 2116.71 1316.13 2116.71 1316.51 2116.71 1317.7 2116.96 1318.64 2117.46 1319.31 2117.95 1319.99 2118.77 1320.32 2119.9 1320.32 2120.85 1320.32 2121.87 1319.97 2122.94 1319.27 2124.01 1318.56 2125.23 1317.46 2126.6 1315.95L2128.66 1318.03C2127.64 1319.16 2126.68 1320.13 2125.77 1320.92 2124.85 1321.71 2123.96 1322.36 2123.09 1322.87 2122.21 1323.38 2121.35 1323.74 2120.5 1323.97 2119.64 1324.2 2118.77 1324.32 2117.88 1324.32 2115.51 1324.32 2113.75 1323.76 2112.59 1322.65 2111.43 1321.54 2110.85 1319.9 2110.85 1317.73 2110.85 1317 2110.9 1316.19 2111.01 1315.31 2111.12 1314.42 2111.27 1313.56 2111.47 1312.73L2115.02 1297.3 2109.89 1297.3 2110.49 1295.01C2111.68 1295.01 2112.61 1294.89 2113.27 1294.66 2113.94 1294.44 2114.5 1294.12 2114.96 1293.73 2115.25 1293.45 2115.54 1293.11 2115.82 1292.7 2116.1 1292.29 2116.38 1291.8 2116.65 1291.22 2116.93 1290.65 2117.21 1289.97 2117.5 1289.18 2117.79 1288.4 2118.11 1287.48 2118.47 1286.43ZM2056.47 1286.43 2061.12 1286.43 2059.42 1293.99 2069.55 1293.99 2068.86 1297.3 2058.76 1297.3 2055.73 1309.78C2055.53 1310.61 2055.36 1311.36 2055.23 1312.03 2055.11 1312.69 2055 1313.3 2054.92 1313.83 2054.84 1314.37 2054.79 1314.85 2054.76 1315.29 2054.73 1315.73 2054.71 1316.13 2054.71 1316.51 2054.71 1317.7 2054.96 1318.64 2055.46 1319.31 2055.95 1319.99 2056.77 1320.32 2057.9 1320.32 2058.85 1320.32 2059.87 1319.97 2060.94 1319.27 2062.01 1318.56 2063.23 1317.46 2064.6 1315.95L2066.66 1318.03C2065.64 1319.16 2064.68 1320.13 2063.77 1320.92 2062.85 1321.71 2061.96 1322.36 2061.09 1322.87 2060.21 1323.38 2059.35 1323.74 2058.5 1323.97 2057.64 1324.2 2056.77 1324.32 2055.88 1324.32 2053.51 1324.32 2051.75 1323.76 2050.59 1322.65 2049.43 1321.54 2048.85 1319.9 2048.85 1317.73 2048.85 1317 2048.9 1316.19 2049.01 1315.31 2049.12 1314.42 2049.27 1313.56 2049.47 1312.73L2053.02 1297.3 2047.89 1297.3 2048.49 1295.01C2049.68 1295.01 2050.61 1294.89 2051.27 1294.66 2051.94 1294.44 2052.5 1294.12 2052.96 1293.73 2053.25 1293.45 2053.54 1293.11 2053.82 1292.7 2054.1 1292.29 2054.38 1291.8 2054.65 1291.22 2054.93 1290.65 2055.21 1289.97 2055.5 1289.18 2055.79 1288.4 2056.11 1287.48 2056.47 1286.43ZM2185.54 1283.12 2187.68 1283.12C2186.45 1288.66 2185.33 1293.73 2184.3 1298.31 2183.28 1302.9 2182.16 1307.96 2180.95 1313.5 2180.67 1314.69 2180.48 1315.63 2180.36 1316.32 2180.24 1317 2180.18 1317.62 2180.18 1318.18 2180.18 1318.93 2180.33 1319.48 2180.64 1319.82 2180.95 1320.16 2181.42 1320.32 2182.05 1320.32 2182.41 1320.32 2182.77 1320.25 2183.13 1320.12 2183.48 1319.98 2183.86 1319.76 2184.26 1319.46 2184.66 1319.16 2185.1 1318.78 2185.58 1318.31 2186.07 1317.85 2186.62 1317.29 2187.24 1316.63L2189.17 1318.6C2188.16 1319.63 2187.24 1320.51 2186.42 1321.23 2185.59 1321.96 2184.81 1322.55 2184.06 1323.01 2183.32 1323.46 2182.58 1323.79 2181.86 1324 2181.14 1324.21 2180.36 1324.32 2179.52 1324.32 2178.77 1324.32 2178.09 1324.18 2177.48 1323.9 2176.88 1323.62 2176.35 1323.24 2175.92 1322.75 2175.48 1322.27 2175.14 1321.68 2174.91 1321.01 2174.67 1320.33 2174.55 1319.59 2174.55 1318.78 2174.55 1318.04 2174.62 1317.13 2174.77 1316.05 2174.92 1314.97 2175.15 1313.74 2175.47 1312.37 2176.32 1308.56 2177.17 1304.76 2178.02 1300.96 2178.86 1297.17 2179.55 1294.26 2180.09 1292.24 2180.56 1290.07 2180.8 1288.59 2180.8 1287.8 2180.8 1287.38 2180.75 1287.03 2180.64 1286.76 2180.53 1286.48 2180.33 1286.25 2180.04 1286.07 2179.76 1285.89 2179.36 1285.76 2178.87 1285.68 2178.37 1285.6 2177.72 1285.55 2176.93 1285.51L2177.35 1283.48Z" fill-rule="evenodd"/><text fill="#000000" fill-opacity="0" font-family="Arial,Arial_MSFontService,sans-serif" font-size="41.1929" x="2047.89" y="1319.17">洧노洧녶洧노洧녩洧녳</text><path d="M1551.31 1275.84 1770.68 1230.11" stroke="#767171" stroke-width="6.875" stroke-miterlimit="8" stroke-dasharray="20.625 6.875" fill="none" fill-rule="evenodd"/><path d="M1769 1219.55 1773.33 1240.32" stroke="#767171" stroke-width="6.875" stroke-miterlimit="8" fill="none" fill-rule="evenodd"/><path d="M1549.13 1265.39 1553.46 1286.15" stroke="#767171" stroke-width="6.875" stroke-miterlimit="8" fill="none" fill-rule="evenodd"/><path d="M1834.04 1223.36 2053.41 1177.63" stroke="#767171" stroke-width="6.875" stroke-miterlimit="8" stroke-dasharray="20.625 6.875" fill="none" fill-rule="evenodd"/><path d="M2051.73 1167.07 2056.05 1187.84" stroke="#767171" stroke-width="6.875" stroke-miterlimit="8" fill="none" fill-rule="evenodd"/><path d="M1831.86 1212.91 1836.19 1233.67" stroke="#767171" stroke-width="6.875" stroke-miterlimit="8" fill="none" fill-rule="evenodd"/><path d="M1766.5 1170C1766.5 1150.95 1781.95 1135.5 1801 1135.5 1820.05 1135.5 1835.5 1150.95 1835.5 1170 1835.5 1189.05 1820.05 1204.5 1801 1204.5 1781.95 1204.5 1766.5 1189.05 1766.5 1170Z" stroke="#2F528F" stroke-width="4.58333" stroke-miterlimit="8" fill="#4472C4" fill-rule="evenodd"/><path d="M5.15625-4.17109e-06 5.15659 420.349-5.15591 420.349-5.15625 4.17109e-06ZM15.4691 415.193 0.000360892 446.131-15.4684 415.193Z" transform="matrix(1 0 0 -1 1800 1174.13)"/><path d="M1798.28 1164.01 2060.83 1231.54 2058.26 1241.53 1795.72 1173.99ZM2058.41 1220.27 2084.52 1242.96 2050.7 1250.23Z"/><text font-family="Calibri,Calibri_MSFontService,sans-serif" font-weight="400" font-size="83" transform="matrix(1 0 0 1 1452.27 660)">Thigh<tspan font-size="83" x="373.375" y="881">Shank</tspan><tspan font-size="83" x="-342.286" y="586">Knee axis</tspan></text><path d="M1623.67 1276.93 1626.07 1276.93 1616.1 1321.79C1615.5 1324.47 1615.2 1326.47 1615.2 1327.79 1615.2 1328.87 1615.38 1329.65 1615.73 1330.14 1616.08 1330.63 1616.64 1330.87 1617.39 1330.87 1618.2 1330.87 1619.07 1330.54 1619.99 1329.88 1620.9 1329.22 1622.2 1327.95 1623.88 1326.09L1626.19 1328.36C1623.57 1331.11 1621.42 1333 1619.76 1334.01 1618.1 1335.02 1616.24 1335.53 1614.19 1335.53 1612.43 1335.53 1611.03 1334.89 1609.98 1333.61 1608.92 1332.32 1608.4 1330.68 1608.4 1328.68 1608.4 1326.87 1608.77 1324.25 1609.53 1320.82L1616.78 1288.36C1617.11 1286.93 1617.34 1285.78 1617.47 1284.93 1617.61 1284.08 1617.68 1283.29 1617.68 1282.56 1617.68 1281.75 1617.53 1281.14 1617.23 1280.72 1616.93 1280.3 1616.51 1280 1615.95 1279.81 1615.4 1279.62 1614.41 1279.48 1612.97 1279.4L1613.46 1277.29Z" fill-rule="evenodd"/><text fill="#000000" fill-opacity="0" font-family="Arial,Arial_MSFontService,sans-serif" font-size="58.6025" x="1608.4" y="1328.21">洧녳</text><path d="M1670.58 1324.26C1669.41 1324.26 1668.32 1324.52 1667.31 1325.04 1666.29 1325.56 1665.37 1326.26 1664.54 1327.15 1663.7 1328.05 1662.96 1329.08 1662.32 1330.25 1661.67 1331.42 1661.13 1332.66 1660.68 1333.97 1660.23 1335.29 1659.89 1336.63 1659.67 1338.01 1659.44 1339.39 1659.32 1340.72 1659.32 1341.99 1659.32 1344.13 1659.63 1345.72 1660.23 1346.77 1660.84 1347.81 1661.82 1348.33 1663.17 1348.33 1663.84 1348.33 1664.49 1348.21 1665.12 1347.97 1665.74 1347.74 1666.4 1347.36 1667.1 1346.84 1668.84 1345.47 1670.33 1343.8 1671.57 1341.84 1672.8 1339.87 1673.72 1337.55 1674.34 1334.87 1674.61 1333.64 1674.83 1332.53 1674.99 1331.53 1675.15 1330.54 1675.23 1329.6 1675.23 1328.7 1675.23 1327.11 1674.86 1325.98 1674.11 1325.29 1673.37 1324.61 1672.19 1324.26 1670.58 1324.26ZM1670.05 1321.32C1671.61 1321.32 1673 1321.5 1674.2 1321.87 1675.4 1322.23 1676.5 1322.74 1677.49 1323.37L1680.38 1321.32 1682.79 1321.94 1678.3 1341.45C1678.04 1342.56 1677.86 1343.48 1677.76 1344.21 1677.66 1344.93 1677.61 1345.57 1677.61 1346.13 1677.61 1346.88 1677.77 1347.43 1678.07 1347.77 1678.38 1348.1 1678.82 1348.27 1679.4 1348.27 1679.76 1348.27 1680.11 1348.2 1680.46 1348.06 1680.8 1347.92 1681.18 1347.71 1681.59 1347.41 1681.99 1347.11 1682.44 1346.73 1682.93 1346.26 1683.41 1345.79 1683.97 1345.23 1684.58 1344.58 1684.9 1344.92 1685.23 1345.25 1685.56 1345.58 1685.9 1345.9 1686.23 1346.23 1686.55 1346.54 1685.55 1347.56 1684.65 1348.43 1683.84 1349.15 1683.02 1349.87 1682.23 1350.47 1681.47 1350.94 1680.7 1351.4 1679.95 1351.74 1679.22 1351.95 1678.49 1352.16 1677.72 1352.26 1676.93 1352.26 1675.5 1352.26 1674.38 1351.8 1673.59 1350.88 1672.8 1349.95 1672.4 1348.69 1672.4 1347.08 1672.4 1346.19 1672.54 1345.33 1672.82 1344.52L1672.4 1344.34C1671.39 1345.75 1670.4 1346.95 1669.45 1347.94 1668.5 1348.94 1667.55 1349.76 1666.62 1350.4 1665.69 1351.05 1664.74 1351.52 1663.79 1351.82 1662.84 1352.11 1661.85 1352.26 1660.81 1352.26 1658.45 1352.26 1656.62 1351.41 1655.33 1349.72 1654.04 1348.02 1653.4 1345.55 1653.4 1342.31 1653.4 1340.39 1653.6 1338.54 1654.01 1336.76 1654.41 1334.98 1654.99 1333.31 1655.73 1331.76 1656.48 1330.2 1657.37 1328.78 1658.4 1327.5 1659.43 1326.22 1660.56 1325.12 1661.8 1324.21 1663.03 1323.29 1664.34 1322.58 1665.73 1322.08 1667.12 1321.57 1668.56 1321.32 1670.05 1321.32ZM1700.39 1314.38 1705.04 1314.38 1703.34 1321.94 1713.47 1321.94 1712.78 1325.25 1702.68 1325.25 1699.65 1337.73C1699.45 1338.56 1699.28 1339.31 1699.16 1339.98 1699.03 1340.64 1698.92 1341.24 1698.84 1341.78 1698.76 1342.31 1698.71 1342.8 1698.68 1343.24 1698.65 1343.67 1698.63 1344.08 1698.63 1344.46 1698.63 1345.65 1698.88 1346.58 1699.38 1347.26 1699.88 1347.93 1700.69 1348.27 1701.82 1348.27 1702.77 1348.27 1703.79 1347.92 1704.86 1347.21 1705.93 1346.51 1707.15 1345.4 1708.52 1343.89L1710.58 1345.98C1709.57 1347.11 1708.6 1348.07 1707.69 1348.87 1706.78 1349.66 1705.88 1350.31 1705.01 1350.82 1704.13 1351.32 1703.27 1351.69 1702.42 1351.92 1701.56 1352.15 1700.69 1352.26 1699.8 1352.26 1697.43 1352.26 1695.67 1351.71 1694.51 1350.59 1693.35 1349.48 1692.77 1347.84 1692.77 1345.68 1692.77 1344.95 1692.82 1344.14 1692.93 1343.25 1693.04 1342.37 1693.19 1341.51 1693.39 1340.68L1696.94 1325.25 1691.81 1325.25 1692.41 1322.95C1693.6 1322.95 1694.53 1322.84 1695.19 1322.61 1695.86 1322.38 1696.42 1322.07 1696.88 1321.67 1697.17 1321.4 1697.46 1321.05 1697.74 1320.65 1698.02 1320.24 1698.3 1319.75 1698.57 1319.17 1698.85 1318.6 1699.14 1317.92 1699.42 1317.13 1699.71 1316.35 1700.03 1315.43 1700.39 1314.38ZM1644.46 1311.07 1646.6 1311.07C1645.37 1316.61 1644.25 1321.67 1643.22 1326.26 1642.2 1330.85 1641.08 1335.91 1639.87 1341.45 1639.59 1342.64 1639.4 1343.58 1639.28 1344.27 1639.16 1344.95 1639.1 1345.57 1639.1 1346.13 1639.1 1346.88 1639.25 1347.43 1639.56 1347.77 1639.87 1348.1 1640.34 1348.27 1640.97 1348.27 1641.33 1348.27 1641.69 1348.2 1642.05 1348.06 1642.4 1347.92 1642.78 1347.71 1643.18 1347.41 1643.58 1347.11 1644.02 1346.73 1644.5 1346.26 1644.99 1345.79 1645.54 1345.23 1646.16 1344.58L1648.09 1346.54C1647.08 1347.58 1646.16 1348.46 1645.34 1349.18 1644.51 1349.9 1643.73 1350.5 1642.98 1350.95 1642.24 1351.41 1641.51 1351.74 1640.78 1351.95 1640.06 1352.16 1639.28 1352.26 1638.44 1352.26 1637.69 1352.26 1637.01 1352.12 1636.4 1351.85 1635.8 1351.57 1635.28 1351.19 1634.84 1350.7 1634.4 1350.21 1634.06 1349.63 1633.83 1348.96 1633.59 1348.28 1633.47 1347.54 1633.47 1346.72 1633.47 1345.99 1633.54 1345.08 1633.69 1344 1633.84 1342.92 1634.07 1341.69 1634.39 1340.32 1635.25 1336.51 1636.09 1332.7 1636.94 1328.91 1637.78 1325.12 1638.47 1322.21 1639.01 1320.18 1639.48 1318.02 1639.72 1316.54 1639.72 1315.75 1639.72 1315.33 1639.67 1314.98 1639.56 1314.7 1639.45 1314.43 1639.25 1314.2 1638.96 1314.02 1638.68 1313.84 1638.28 1313.71 1637.79 1313.63 1637.29 1313.55 1636.65 1313.49 1635.85 1313.45L1636.27 1311.43Z" fill-rule="evenodd"/><text fill="#000000" fill-opacity="0" font-family="Arial,Arial_MSFontService,sans-serif" font-size="41.1929" x="1633.47" y="1347.11">洧녳洧녩洧노</text><path d="M2086.67 1157.82 2089.06 1157.82 2079.09 1202.68C2078.5 1205.36 2078.2 1207.36 2078.2 1208.68 2078.2 1209.76 2078.38 1210.55 2078.73 1211.03 2079.08 1211.52 2079.63 1211.76 2080.39 1211.76 2081.2 1211.76 2082.06 1211.43 2082.98 1210.77 2083.9 1210.11 2085.2 1208.84 2086.87 1206.98L2089.18 1209.25C2086.56 1212 2084.42 1213.89 2082.76 1214.9 2081.1 1215.91 2079.24 1216.42 2077.19 1216.42 2075.43 1216.42 2074.03 1215.78 2072.97 1214.5 2071.92 1213.21 2071.39 1211.57 2071.39 1209.57 2071.39 1207.76 2071.77 1205.14 2072.53 1201.71L2079.78 1169.25C2080.1 1167.82 2080.33 1166.67 2080.47 1165.82 2080.6 1164.97 2080.67 1164.18 2080.67 1163.45 2080.67 1162.64 2080.52 1162.03 2080.23 1161.61 2079.93 1161.19 2079.5 1160.89 2078.95 1160.7 2078.4 1160.51 2077.4 1160.37 2075.97 1160.29L2076.46 1158.18Z" fill-rule="evenodd"/><text fill="#000000" fill-opacity="0" font-family="Arial,Arial_MSFontService,sans-serif" font-size="58.6025" x="2071.39" y="1209.1">洧녳</text><path d="M2201.58 1205.15C2200.41 1205.15 2199.32 1205.41 2198.32 1205.91 2197.31 1206.42 2196.4 1207.12 2195.56 1208 2194.73 1208.88 2193.98 1209.91 2193.33 1211.07 2192.67 1212.23 2192.12 1213.47 2191.68 1214.79 2191.23 1216.11 2190.89 1217.46 2190.66 1218.84 2190.43 1220.22 2190.32 1221.57 2190.32 1222.88 2190.32 1225.02 2190.62 1226.62 2191.23 1227.66 2191.83 1228.7 2192.81 1229.22 2194.16 1229.22 2195.08 1229.22 2196.09 1228.91 2197.2 1228.3 2198.31 1227.68 2199.39 1226.79 2200.43 1225.63 2201.47 1224.47 2202.43 1223.06 2203.31 1221.39 2204.18 1219.72 2204.84 1217.84 2205.27 1215.76 2205.49 1214.69 2205.69 1213.61 2205.87 1212.54 2206.05 1211.47 2206.14 1210.49 2206.14 1209.59 2206.14 1207.98 2205.77 1206.84 2205.05 1206.17 2204.32 1205.49 2203.17 1205.15 2201.58 1205.15ZM2168.79 1205.15C2167.7 1205.15 2166.62 1205.42 2165.56 1205.96 2164.49 1206.5 2163.49 1207.25 2162.55 1208.24 2161.6 1209.22 2160.75 1210.41 2159.97 1211.81 2159.2 1213.21 2158.55 1214.78 2158.03 1216.5 2160.56 1216.48 2162.73 1216.28 2164.54 1215.91 2166.36 1215.53 2167.85 1215.01 2169.01 1214.36 2170.17 1213.7 2171.03 1212.93 2171.57 1212.04 2172.12 1211.14 2172.39 1210.16 2172.39 1209.09 2172.39 1207.86 2172.08 1206.89 2171.47 1206.2 2170.85 1205.5 2169.96 1205.15 2168.79 1205.15ZM2170.07 1202.21C2172.61 1202.21 2174.54 1202.76 2175.86 1203.87 2177.18 1204.99 2177.84 1206.56 2177.84 1208.61 2177.84 1215.8 2171.04 1219.39 2157.44 1219.39 2157.34 1219.91 2157.26 1220.47 2157.2 1221.08 2157.14 1221.68 2157.11 1222.34 2157.11 1223.06 2157.11 1225.22 2157.55 1226.8 2158.44 1227.79 2159.32 1228.78 2160.7 1229.28 2162.56 1229.28 2163.53 1229.28 2164.46 1229.18 2165.33 1228.97 2166.21 1228.76 2167.06 1228.44 2167.91 1228 2168.75 1227.56 2169.6 1227 2170.46 1226.32 2171.31 1225.63 2172.2 1224.81 2173.14 1223.86L2175.37 1226.27C2173.07 1228.56 2170.77 1230.27 2168.47 1231.43 2166.18 1232.58 2163.71 1233.15 2161.07 1233.15 2159.52 1233.15 2158.15 1232.92 2156.95 1232.45 2155.75 1231.99 2154.73 1231.31 2153.91 1230.41 2153.09 1229.52 2152.46 1228.43 2152.03 1227.15 2151.61 1225.87 2151.39 1224.43 2151.39 1222.82 2151.39 1221.69 2151.49 1220.51 2151.69 1219.29 2151.89 1218.07 2152.2 1216.85 2152.61 1215.62 2153.03 1214.4 2153.55 1213.21 2154.16 1212.05 2154.78 1210.89 2155.5 1209.8 2156.34 1208.79 2158 1206.72 2160.02 1205.11 2162.37 1203.95 2164.72 1202.79 2167.29 1202.21 2170.07 1202.21ZM2102.42 1202.21C2103.89 1202.21 2105.03 1202.69 2105.83 1203.65 2106.64 1204.61 2107.04 1205.88 2107.04 1207.45 2107.04 1207.89 2107.01 1208.31 2106.95 1208.73 2106.89 1209.15 2106.78 1209.55 2106.62 1209.95L2106.98 1210.1C2108.87 1207.46 2110.75 1205.48 2112.64 1204.17 2114.52 1202.86 2116.46 1202.21 2118.45 1202.21 2120.55 1202.21 2122.12 1202.75 2123.17 1203.83 2124.21 1204.91 2124.73 1206.51 2124.73 1208.61 2124.73 1208.79 2124.73 1208.96 2124.73 1209.13 2124.73 1209.3 2124.71 1209.47 2124.67 1209.65L2124.79 1209.65C2126.64 1207.13 2128.47 1205.26 2130.3 1204.04 2132.13 1202.82 2134.03 1202.21 2136.02 1202.21 2138.12 1202.21 2139.7 1202.77 2140.74 1203.9 2141.78 1205.04 2142.3 1206.62 2142.3 1208.67 2142.3 1209.29 2142.2 1210.11 2142.01 1211.16 2141.81 1212.2 2141.56 1213.35 2141.28 1214.6 2140.99 1215.85 2140.68 1217.14 2140.34 1218.48 2140 1219.82 2139.68 1221.09 2139.39 1222.28 2139.21 1223.06 2139.06 1223.69 2138.95 1224.17 2138.84 1224.66 2138.76 1225.07 2138.7 1225.39 2138.64 1225.72 2138.6 1226 2138.58 1226.24 2138.56 1226.48 2138.55 1226.74 2138.55 1227.02 2138.55 1227.77 2138.69 1228.32 2138.97 1228.66 2139.25 1228.99 2139.69 1229.16 2140.31 1229.16 2140.67 1229.16 2141.02 1229.09 2141.38 1228.95 2141.74 1228.81 2142.12 1228.6 2142.53 1228.3 2142.93 1228 2143.38 1227.62 2143.87 1227.15 2144.35 1226.68 2144.9 1226.12 2145.49 1225.47L2147.55 1227.43C2146.59 1228.43 2145.7 1229.28 2144.88 1230 2144.06 1230.71 2143.26 1231.3 2142.5 1231.77 2141.73 1232.23 2140.97 1232.58 2140.22 1232.81 2139.46 1233.04 2138.67 1233.15 2137.84 1233.15 2137.08 1233.15 2136.4 1233.01 2135.78 1232.74 2135.17 1232.46 2134.64 1232.08 2134.22 1231.59 2133.79 1231.1 2133.46 1230.53 2133.22 1229.86 2132.98 1229.2 2132.86 1228.47 2132.86 1227.67 2132.86 1226.04 2133.21 1223.95 2133.9 1221.39 2134.28 1220.1 2134.62 1218.86 2134.93 1217.68 2135.24 1216.5 2135.5 1215.41 2135.72 1214.4 2135.94 1213.4 2136.11 1212.51 2136.24 1211.72 2136.37 1210.94 2136.44 1210.29 2136.44 1209.77 2136.44 1208.54 2136.2 1207.64 2135.74 1207.06 2135.27 1206.49 2134.54 1206.2 2133.55 1206.2 2132.93 1206.2 2132.28 1206.36 2131.58 1206.67 2130.89 1206.99 2130.19 1207.43 2129.48 1208 2128.78 1208.57 2128.09 1209.24 2127.41 1210.01 2126.74 1210.78 2126.11 1211.62 2125.54 1212.53 2124.96 1213.43 2124.45 1214.38 2124 1215.37 2123.55 1216.36 2123.21 1217.37 2122.97 1218.38L2120.02 1232.62 2114.22 1232.62C2114.49 1231.35 2114.81 1229.98 2115.16 1228.52 2115.5 1227.06 2115.85 1225.59 2116.21 1224.1 2116.57 1222.61 2116.91 1221.14 2117.24 1219.69 2117.57 1218.24 2117.86 1216.89 2118.12 1215.62 2118.38 1214.36 2118.59 1213.23 2118.74 1212.23 2118.9 1211.23 2118.98 1210.43 2118.98 1209.83 2118.98 1208.58 2118.74 1207.66 2118.25 1207.08 2117.77 1206.49 2116.99 1206.2 2115.91 1206.2 2114.96 1206.2 2113.94 1206.55 2112.85 1207.27 2111.75 1207.98 2110.72 1208.92 2109.73 1210.08 2108.75 1211.25 2107.87 1212.56 2107.1 1214.02 2106.32 1215.48 2105.78 1216.95 2105.46 1218.44L2102.42 1232.62 2096.58 1232.62 2101.05 1213.2C2101.31 1212.12 2101.5 1211.19 2101.62 1210.4 2101.74 1209.6 2101.8 1208.95 2101.8 1208.43 2101.8 1206.98 2101.21 1206.26 2100.04 1206.26 2099.68 1206.26 2099.32 1206.33 2098.95 1206.48 2098.58 1206.63 2098.2 1206.85 2097.79 1207.15 2097.38 1207.45 2096.94 1207.83 2096.46 1208.28 2095.99 1208.74 2095.45 1209.28 2094.86 1209.89L2092.8 1207.95C2093.77 1206.96 2094.67 1206.1 2095.5 1205.38 2096.32 1204.65 2097.12 1204.06 2097.88 1203.59 2098.64 1203.12 2099.39 1202.78 2100.13 1202.55 2100.86 1202.32 2101.63 1202.21 2102.42 1202.21ZM2214.68 1191.96 2216.2 1191.96 2209.29 1222.34C2209.01 1223.51 2208.83 1224.45 2208.74 1225.14 2208.65 1225.84 2208.61 1226.46 2208.61 1227.02 2208.61 1227.77 2208.76 1228.32 2209.07 1228.66 2209.38 1228.99 2209.82 1229.16 2210.4 1229.16 2210.75 1229.16 2211.1 1229.09 2211.45 1228.95 2211.8 1228.81 2212.18 1228.6 2212.58 1228.3 2212.99 1228 2213.44 1227.62 2213.92 1227.15 2214.41 1226.68 2214.96 1226.12 2215.58 1225.47 2215.9 1225.81 2216.22 1226.14 2216.56 1226.47 2216.9 1226.79 2217.23 1227.12 2217.54 1227.43 2216.55 1228.45 2215.65 1229.32 2214.83 1230.04 2214.02 1230.77 2213.23 1231.36 2212.47 1231.83 2211.7 1232.29 2210.95 1232.63 2210.22 1232.84 2209.48 1233.05 2208.72 1233.15 2207.92 1233.15 2206.49 1233.15 2205.38 1232.69 2204.59 1231.77 2203.79 1230.84 2203.4 1229.58 2203.4 1227.97 2203.4 1227.08 2203.53 1226.22 2203.81 1225.41L2203.4 1225.23C2202.38 1226.64 2201.4 1227.84 2200.45 1228.83 2199.49 1229.83 2198.55 1230.65 2197.62 1231.29 2196.68 1231.94 2195.74 1232.41 2194.79 1232.71 2193.83 1233 2192.84 1233.15 2191.81 1233.15 2189.45 1233.15 2187.62 1232.3 2186.33 1230.61 2185.04 1228.91 2184.39 1226.44 2184.39 1223.2 2184.39 1221.28 2184.6 1219.43 2185 1217.65 2185.41 1215.87 2185.99 1214.2 2186.73 1212.65 2187.48 1211.09 2188.36 1209.67 2189.4 1208.39 2190.43 1207.11 2191.56 1206.01 2192.79 1205.1 2194.02 1204.18 2195.33 1203.47 2196.72 1202.97 2198.11 1202.46 2199.55 1202.21 2201.04 1202.21 2202.35 1202.21 2203.55 1202.34 2204.65 1202.59 2205.74 1202.85 2206.78 1203.37 2207.77 1204.14 2208.11 1202.89 2208.38 1201.82 2208.58 1200.94 2208.78 1200.06 2208.94 1199.24 2209.07 1198.5 2209.2 1197.75 2209.26 1197.13 2209.26 1196.64 2209.26 1196.22 2209.21 1195.87 2209.1 1195.59 2208.99 1195.32 2208.8 1195.09 2208.52 1194.91 2208.24 1194.73 2207.85 1194.6 2207.34 1194.52 2206.84 1194.44 2206.2 1194.38 2205.42 1194.34L2205.81 1192.32Z" fill-rule="evenodd"/><text fill="#000000" fill-opacity="0" font-family="Arial,Arial_MSFontService,sans-serif" font-size="41.1929" x="2092.8" y="1228">洧녴洧뉧롐</text></g></svg>