solid OBJECT
  facet normal 0.000000e+000 -6.938894e-017 -1.000000e+000
    outer loop
      vertex 4.000000e-001 -1.500000e-001 -4.000000e-002
      vertex 4.500000e-001 -5.000000e-002 -4.000000e-002
      vertex 4.500000e-001 -1.500000e-001 -4.000000e-002
    endloop
  endfacet
  facet normal -1.387779e-016 6.938894e-017 -1.000000e+000
    outer loop
      vertex 4.500000e-001 -5.000000e-002 -4.000000e-002
      vertex 4.000000e-001 -5.000000e-002 -4.000000e-002
      vertex 4.500000e-001 5.000000e-002 -4.000000e-002
    endloop
  endfacet
  facet normal 1.387779e-016 0.000000e+000 -1.000000e+000
    outer loop
      vertex 4.500000e-001 5.000000e-002 -4.000000e-002
      vertex 4.000000e-001 5.000000e-002 -4.000000e-002
      vertex 4.500000e-001 1.500000e-001 -4.000000e-002
    endloop
  endfacet
  facet normal 0.000000e+000 6.938894e-017 -1.000000e+000
    outer loop
      vertex 4.500000e-001 1.500000e-001 -4.000000e-002
      vertex 4.000000e-001 5.000000e-002 -4.000000e-002
      vertex 4.000000e-001 1.500000e-001 -4.000000e-002
    endloop
  endfacet
  facet normal 1.387779e-016 -6.938894e-017 -1.000000e+000
    outer loop
      vertex 4.000000e-001 5.000000e-002 -4.000000e-002
      vertex 4.500000e-001 5.000000e-002 -4.000000e-002
      vertex 4.000000e-001 -5.000000e-002 -4.000000e-002
    endloop
  endfacet
  facet normal -1.387779e-016 0.000000e+000 -1.000000e+000
    outer loop
      vertex 4.000000e-001 -5.000000e-002 -4.000000e-002
      vertex 4.500000e-001 -5.000000e-002 -4.000000e-002
      vertex 4.000000e-001 -1.500000e-001 -4.000000e-002
    endloop
  endfacet
  facet normal 0.000000e+000 -6.938894e-017 1.000000e+000
    outer loop
      vertex 4.000000e-001 -1.500000e-001 4.000000e-002
      vertex 4.500000e-001 -1.500000e-001 4.000000e-002
      vertex 4.500000e-001 -5.000000e-002 4.000000e-002
    endloop
  endfacet
  facet normal -1.387779e-016 6.938894e-017 1.000000e+000
    outer loop
      vertex 4.500000e-001 -5.000000e-002 4.000000e-002
      vertex 4.500000e-001 5.000000e-002 4.000000e-002
      vertex 4.000000e-001 -5.000000e-002 4.000000e-002
    endloop
  endfacet
  facet normal 1.387779e-016 0.000000e+000 1.000000e+000
    outer loop
      vertex 4.500000e-001 5.000000e-002 4.000000e-002
      vertex 4.500000e-001 1.500000e-001 4.000000e-002
      vertex 4.000000e-001 5.000000e-002 4.000000e-002
    endloop
  endfacet
  facet normal 0.000000e+000 6.938894e-017 1.000000e+000
    outer loop
      vertex 4.500000e-001 1.500000e-001 4.000000e-002
      vertex 4.000000e-001 1.500000e-001 4.000000e-002
      vertex 4.000000e-001 5.000000e-002 4.000000e-002
    endloop
  endfacet
  facet normal 1.387779e-016 -6.938894e-017 1.000000e+000
    outer loop
      vertex 4.000000e-001 5.000000e-002 4.000000e-002
      vertex 4.000000e-001 -5.000000e-002 4.000000e-002
      vertex 4.500000e-001 5.000000e-002 4.000000e-002
    endloop
  endfacet
  facet normal -1.387779e-016 0.000000e+000 1.000000e+000
    outer loop
      vertex 4.000000e-001 -5.000000e-002 4.000000e-002
      vertex 4.000000e-001 -1.500000e-001 4.000000e-002
      vertex 4.500000e-001 -5.000000e-002 4.000000e-002
    endloop
  endfacet
  facet normal 0.000000e+000 -1.000000e+000 0.000000e+000
    outer loop
      vertex 4.000000e-001 -1.500000e-001 -4.000000e-002
      vertex 4.500000e-001 -1.500000e-001 -4.000000e-002
      vertex 4.500000e-001 -1.500000e-001 0.000000e+000
    endloop
  endfacet
  facet normal 0.000000e+000 -1.000000e+000 0.000000e+000
    outer loop
      vertex 4.500000e-001 -1.500000e-001 4.000000e-002
      vertex 4.000000e-001 -1.500000e-001 4.000000e-002
      vertex 4.000000e-001 -1.500000e-001 0.000000e+000
    endloop
  endfacet
  facet normal 0.000000e+000 -1.000000e+000 0.000000e+000
    outer loop
      vertex 4.500000e-001 -1.500000e-001 0.000000e+000
      vertex 4.500000e-001 -1.500000e-001 4.000000e-002
      vertex 4.000000e-001 -1.500000e-001 0.000000e+000
    endloop
  endfacet
  facet normal 0.000000e+000 -1.000000e+000 0.000000e+000
    outer loop
      vertex 4.000000e-001 -1.500000e-001 0.000000e+000
      vertex 4.000000e-001 -1.500000e-001 -4.000000e-002
      vertex 4.500000e-001 -1.500000e-001 0.000000e+000
    endloop
  endfacet
  facet normal 1.000000e+000 -5.551115e-016 0.000000e+000
    outer loop
      vertex 4.500000e-001 -1.500000e-001 -4.000000e-002
      vertex 4.500000e-001 -5.000000e-002 -4.000000e-002
      vertex 4.500000e-001 -1.500000e-001 0.000000e+000
    endloop
  endfacet
  facet normal 1.000000e+000 5.551115e-016 2.775558e-015
    outer loop
      vertex 4.500000e-001 -5.000000e-002 -4.000000e-002
      vertex 4.500000e-001 5.000000e-002 -4.000000e-002
      vertex 4.500000e-001 -1.500000e-001 0.000000e+000
    endloop
  endfacet
  facet normal 1.000000e+000 0.000000e+000 0.000000e+000
    outer loop
      vertex 4.500000e-001 5.000000e-002 -4.000000e-002
      vertex 4.500000e-001 1.500000e-001 -4.000000e-002
      vertex 4.500000e-001 1.500000e-001 0.000000e+000
    endloop
  endfacet
  facet normal 1.000000e+000 0.000000e+000 0.000000e+000
    outer loop
      vertex 4.500000e-001 1.500000e-001 4.000000e-002
      vertex 4.500000e-001 5.000000e-002 4.000000e-002
      vertex 4.500000e-001 1.500000e-001 0.000000e+000
    endloop
  endfacet
  facet normal 1.000000e+000 5.551115e-016 -2.775558e-015
    outer loop
      vertex 4.500000e-001 5.000000e-002 4.000000e-002
      vertex 4.500000e-001 -5.000000e-002 4.000000e-002
      vertex 4.500000e-001 -1.500000e-001 0.000000e+000
    endloop
  endfacet
  facet normal 1.000000e+000 -5.551115e-016 0.000000e+000
    outer loop
      vertex 4.500000e-001 -5.000000e-002 4.000000e-002
      vertex 4.500000e-001 -1.500000e-001 4.000000e-002
      vertex 4.500000e-001 -1.500000e-001 0.000000e+000
    endloop
  endfacet
  facet normal 1.000000e+000 0.000000e+000 0.000000e+000
    outer loop
      vertex 4.500000e-001 -1.500000e-001 0.000000e+000
      vertex 4.500000e-001 5.000000e-002 -4.000000e-002
      vertex 4.500000e-001 5.000000e-002 4.000000e-002
    endloop
  endfacet
  facet normal 1.000000e+000 0.000000e+000 0.000000e+000
    outer loop
      vertex 4.500000e-001 5.000000e-002 -4.000000e-002
      vertex 4.500000e-001 1.500000e-001 0.000000e+000
      vertex 4.500000e-001 5.000000e-002 4.000000e-002
    endloop
  endfacet
  facet normal 0.000000e+000 1.000000e+000 0.000000e+000
    outer loop
      vertex 4.500000e-001 1.500000e-001 -4.000000e-002
      vertex 4.000000e-001 1.500000e-001 -4.000000e-002
      vertex 4.000000e-001 1.500000e-001 0.000000e+000
    endloop
  endfacet
  facet normal 0.000000e+000 1.000000e+000 0.000000e+000
    outer loop
      vertex 4.000000e-001 1.500000e-001 4.000000e-002
      vertex 4.500000e-001 1.500000e-001 4.000000e-002
      vertex 4.500000e-001 1.500000e-001 0.000000e+000
    endloop
  endfacet
  facet normal 0.000000e+000 1.000000e+000 0.000000e+000
    outer loop
      vertex 4.500000e-001 1.500000e-001 0.000000e+000
      vertex 4.500000e-001 1.500000e-001 -4.000000e-002
      vertex 4.000000e-001 1.500000e-001 0.000000e+000
    endloop
  endfacet
  facet normal 0.000000e+000 1.000000e+000 0.000000e+000
    outer loop
      vertex 4.000000e-001 1.500000e-001 0.000000e+000
      vertex 4.000000e-001 1.500000e-001 4.000000e-002
      vertex 4.500000e-001 1.500000e-001 0.000000e+000
    endloop
  endfacet
  facet normal -1.000000e+000 0.000000e+000 0.000000e+000
    outer loop
      vertex 4.000000e-001 1.500000e-001 -4.000000e-002
      vertex 4.000000e-001 5.000000e-002 -4.000000e-002
      vertex 4.000000e-001 1.500000e-001 0.000000e+000
    endloop
  endfacet
  facet normal -1.000000e+000 0.000000e+000 0.000000e+000
    outer loop
      vertex 4.000000e-001 5.000000e-002 -4.000000e-002
      vertex 4.000000e-001 -5.000000e-002 -4.000000e-002
      vertex 4.000000e-001 1.500000e-001 0.000000e+000
    endloop
  endfacet
  facet normal -1.000000e+000 0.000000e+000 0.000000e+000
    outer loop
      vertex 4.000000e-001 -5.000000e-002 -4.000000e-002
      vertex 4.000000e-001 -1.500000e-001 -4.000000e-002
      vertex 4.000000e-001 -1.500000e-001 0.000000e+000
    endloop
  endfacet
  facet normal -1.000000e+000 0.000000e+000 0.000000e+000
    outer loop
      vertex 4.000000e-001 -1.500000e-001 4.000000e-002
      vertex 4.000000e-001 -5.000000e-002 4.000000e-002
      vertex 4.000000e-001 -1.500000e-001 0.000000e+000
    endloop
  endfacet
  facet normal -1.000000e+000 0.000000e+000 0.000000e+000
    outer loop
      vertex 4.000000e-001 -5.000000e-002 4.000000e-002
      vertex 4.000000e-001 5.000000e-002 4.000000e-002
      vertex 4.000000e-001 1.500000e-001 0.000000e+000
    endloop
  endfacet
  facet normal -1.000000e+000 0.000000e+000 0.000000e+000
    outer loop
      vertex 4.000000e-001 5.000000e-002 4.000000e-002
      vertex 4.000000e-001 1.500000e-001 4.000000e-002
      vertex 4.000000e-001 1.500000e-001 0.000000e+000
    endloop
  endfacet
  facet normal -1.000000e+000 0.000000e+000 0.000000e+000
    outer loop
      vertex 4.000000e-001 1.500000e-001 0.000000e+000
      vertex 4.000000e-001 -5.000000e-002 -4.000000e-002
      vertex 4.000000e-001 -5.000000e-002 4.000000e-002
    endloop
  endfacet
  facet normal -1.000000e+000 0.000000e+000 0.000000e+000
    outer loop
      vertex 4.000000e-001 -5.000000e-002 -4.000000e-002
      vertex 4.000000e-001 -1.500000e-001 0.000000e+000
      vertex 4.000000e-001 -5.000000e-002 4.000000e-002
    endloop
  endfacet
  facet normal 0.000000e+000 0.000000e+000 -1.000000e+000
    outer loop
      vertex 0.000000e+000 -1.500000e-001 -1.000000e-002
      vertex 0.000000e+000 -7.500000e-002 -1.000000e-002
      vertex 6.666667e-002 -1.500000e-001 -1.000000e-002
    endloop
  endfacet
  facet normal -2.602085e-017 -2.312965e-017 -1.000000e+000
    outer loop
      vertex 6.666667e-002 -1.500000e-001 -1.000000e-002
      vertex 0.000000e+000 -7.500000e-002 -1.000000e-002
      vertex 1.333333e-001 -1.500000e-001 -1.000000e-002
    endloop
  endfacet
  facet normal 2.602085e-017 3.469447e-017 -1.000000e+000
    outer loop
      vertex 1.333333e-001 -1.500000e-001 -1.000000e-002
      vertex 0.000000e+000 0.000000e+000 -1.000000e-002
      vertex 2.000000e-001 -1.500000e-001 -1.000000e-002
    endloop
  endfacet
  facet normal 0.000000e+000 0.000000e+000 -1.000000e+000
    outer loop
      vertex 2.000000e-001 -1.500000e-001 -1.000000e-002
      vertex 4.000000e-001 0.000000e+000 -1.000000e-002
      vertex 2.666667e-001 -1.500000e-001 -1.000000e-002
    endloop
  endfacet
  facet normal 0.000000e+000 0.000000e+000 -1.000000e+000
    outer loop
      vertex 2.666667e-001 -1.500000e-001 -1.000000e-002
      vertex 4.000000e-001 -7.500000e-002 -1.000000e-002
      vertex 3.333333e-001 -1.500000e-001 -1.000000e-002
    endloop
  endfacet
  facet normal 0.000000e+000 0.000000e+000 -1.000000e+000
    outer loop
      vertex 3.333333e-001 -1.500000e-001 -1.000000e-002
      vertex 4.000000e-001 -7.500000e-002 -1.000000e-002
      vertex 4.000000e-001 -1.500000e-001 -1.000000e-002
    endloop
  endfacet
  facet normal 0.000000e+000 0.000000e+000 -1.000000e+000
    outer loop
      vertex 4.000000e-001 -7.500000e-002 -1.000000e-002
      vertex 2.666667e-001 -1.500000e-001 -1.000000e-002
      vertex 4.000000e-001 0.000000e+000 -1.000000e-002
    endloop
  endfacet
  facet normal 1.301043e-017 0.000000e+000 -1.000000e+000
    outer loop
      vertex 4.000000e-001 0.000000e+000 -1.000000e-002
      vertex 2.666667e-001 1.500000e-001 -1.000000e-002
      vertex 4.000000e-001 7.500000e-002 -1.000000e-002
    endloop
  endfacet
  facet normal 0.000000e+000 0.000000e+000 -1.000000e+000
    outer loop
      vertex 4.000000e-001 7.500000e-002 -1.000000e-002
      vertex 3.333333e-001 1.500000e-001 -1.000000e-002
      vertex 4.000000e-001 1.500000e-001 -1.000000e-002
    endloop
  endfacet
  facet normal 2.602085e-017 2.312965e-017 -1.000000e+000
    outer loop
      vertex 3.333333e-001 1.500000e-001 -1.000000e-002
      vertex 4.000000e-001 7.500000e-002 -1.000000e-002
      vertex 2.666667e-001 1.500000e-001 -1.000000e-002
    endloop
  endfacet
  facet normal -2.602085e-017 -3.469447e-017 -1.000000e+000
    outer loop
      vertex 2.666667e-001 1.500000e-001 -1.000000e-002
      vertex 4.000000e-001 0.000000e+000 -1.000000e-002
      vertex 2.000000e-001 1.500000e-001 -1.000000e-002
    endloop
  endfacet
  facet normal 0.000000e+000 0.000000e+000 -1.000000e+000
    outer loop
      vertex 2.000000e-001 1.500000e-001 -1.000000e-002
      vertex 0.000000e+000 0.000000e+000 -1.000000e-002
      vertex 1.333333e-001 1.500000e-001 -1.000000e-002
    endloop
  endfacet
  facet normal 0.000000e+000 0.000000e+000 -1.000000e+000
    outer loop
      vertex 1.333333e-001 1.500000e-001 -1.000000e-002
      vertex 0.000000e+000 7.500000e-002 -1.000000e-002
      vertex 6.666667e-002 1.500000e-001 -1.000000e-002
    endloop
  endfacet
  facet normal 0.000000e+000 0.000000e+000 -1.000000e+000
    outer loop
      vertex 6.666667e-002 1.500000e-001 -1.000000e-002
      vertex 0.000000e+000 7.500000e-002 -1.000000e-002
      vertex 0.000000e+000 1.500000e-001 -1.000000e-002
    endloop
  endfacet
  facet normal 0.000000e+000 0.000000e+000 -1.000000e+000
    outer loop
      vertex 0.000000e+000 7.500000e-002 -1.000000e-002
      vertex 1.333333e-001 1.500000e-001 -1.000000e-002
      vertex 0.000000e+000 0.000000e+000 -1.000000e-002
    endloop
  endfacet
  facet normal -1.301043e-017 0.000000e+000 -1.000000e+000
    outer loop
      vertex 0.000000e+000 0.000000e+000 -1.000000e-002
      vertex 1.333333e-001 -1.500000e-001 -1.000000e-002
      vertex 0.000000e+000 -7.500000e-002 -1.000000e-002
    endloop
  endfacet
  facet normal 0.000000e+000 0.000000e+000 -1.000000e+000
    outer loop
      vertex 0.000000e+000 0.000000e+000 -1.000000e-002
      vertex 2.000000e-001 1.500000e-001 -1.000000e-002
      vertex 2.000000e-001 -1.500000e-001 -1.000000e-002
    endloop
  endfacet
  facet normal 0.000000e+000 0.000000e+000 -1.000000e+000
    outer loop
      vertex 2.000000e-001 -1.500000e-001 -1.000000e-002
      vertex 2.000000e-001 1.500000e-001 -1.000000e-002
      vertex 4.000000e-001 0.000000e+000 -1.000000e-002
    endloop
  endfacet
  facet normal 0.000000e+000 0.000000e+000 1.000000e+000
    outer loop
      vertex 0.000000e+000 -1.500000e-001 1.000000e-002
      vertex 6.666667e-002 -1.500000e-001 1.000000e-002
      vertex 0.000000e+000 -7.500000e-002 1.000000e-002
    endloop
  endfacet
  facet normal -2.602085e-017 -2.312965e-017 1.000000e+000
    outer loop
      vertex 6.666667e-002 -1.500000e-001 1.000000e-002
      vertex 1.333333e-001 -1.500000e-001 1.000000e-002
      vertex 0.000000e+000 -7.500000e-002 1.000000e-002
    endloop
  endfacet
  facet normal 2.602085e-017 3.469447e-017 1.000000e+000
    outer loop
      vertex 1.333333e-001 -1.500000e-001 1.000000e-002
      vertex 2.000000e-001 -1.500000e-001 1.000000e-002
      vertex 0.000000e+000 0.000000e+000 1.000000e-002
    endloop
  endfacet
  facet normal 0.000000e+000 0.000000e+000 1.000000e+000
    outer loop
      vertex 2.000000e-001 -1.500000e-001 1.000000e-002
      vertex 2.666667e-001 -1.500000e-001 1.000000e-002
      vertex 4.000000e-001 0.000000e+000 1.000000e-002
    endloop
  endfacet
  facet normal 0.000000e+000 0.000000e+000 1.000000e+000
    outer loop
      vertex 2.666667e-001 -1.500000e-001 1.000000e-002
      vertex 3.333333e-001 -1.500000e-001 1.000000e-002
      vertex 4.000000e-001 -7.500000e-002 1.000000e-002
    endloop
  endfacet
  facet normal 0.000000e+000 0.000000e+000 1.000000e+000
    outer loop
      vertex 3.333333e-001 -1.500000e-001 1.000000e-002
      vertex 4.000000e-001 -1.500000e-001 1.000000e-002
      vertex 4.000000e-001 -7.500000e-002 1.000000e-002
    endloop
  endfacet
  facet normal 0.000000e+000 0.000000e+000 1.000000e+000
    outer loop
      vertex 4.000000e-001 -7.500000e-002 1.000000e-002
      vertex 4.000000e-001 0.000000e+000 1.000000e-002
      vertex 2.666667e-001 -1.500000e-001 1.000000e-002
    endloop
  endfacet
  facet normal 1.301043e-017 0.000000e+000 1.000000e+000
    outer loop
      vertex 4.000000e-001 0.000000e+000 1.000000e-002
      vertex 4.000000e-001 7.500000e-002 1.000000e-002
      vertex 2.666667e-001 1.500000e-001 1.000000e-002
    endloop
  endfacet
  facet normal 0.000000e+000 0.000000e+000 1.000000e+000
    outer loop
      vertex 4.000000e-001 7.500000e-002 1.000000e-002
      vertex 4.000000e-001 1.500000e-001 1.000000e-002
      vertex 3.333333e-001 1.500000e-001 1.000000e-002
    endloop
  endfacet
  facet normal 2.602085e-017 2.312965e-017 1.000000e+000
    outer loop
      vertex 3.333333e-001 1.500000e-001 1.000000e-002
      vertex 2.666667e-001 1.500000e-001 1.000000e-002
      vertex 4.000000e-001 7.500000e-002 1.000000e-002
    endloop
  endfacet
  facet normal -2.602085e-017 -3.469447e-017 1.000000e+000
    outer loop
      vertex 2.666667e-001 1.500000e-001 1.000000e-002
      vertex 2.000000e-001 1.500000e-001 1.000000e-002
      vertex 4.000000e-001 0.000000e+000 1.000000e-002
    endloop
  endfacet
  facet normal 0.000000e+000 0.000000e+000 1.000000e+000
    outer loop
      vertex 2.000000e-001 1.500000e-001 1.000000e-002
      vertex 1.333333e-001 1.500000e-001 1.000000e-002
      vertex 0.000000e+000 0.000000e+000 1.000000e-002
    endloop
  endfacet
  facet normal 0.000000e+000 0.000000e+000 1.000000e+000
    outer loop
      vertex 1.333333e-001 1.500000e-001 1.000000e-002
      vertex 6.666667e-002 1.500000e-001 1.000000e-002
      vertex 0.000000e+000 7.500000e-002 1.000000e-002
    endloop
  endfacet
  facet normal 0.000000e+000 0.000000e+000 1.000000e+000
    outer loop
      vertex 6.666667e-002 1.500000e-001 1.000000e-002
      vertex 0.000000e+000 1.500000e-001 1.000000e-002
      vertex 0.000000e+000 7.500000e-002 1.000000e-002
    endloop
  endfacet
  facet normal 0.000000e+000 0.000000e+000 1.000000e+000
    outer loop
      vertex 0.000000e+000 7.500000e-002 1.000000e-002
      vertex 0.000000e+000 0.000000e+000 1.000000e-002
      vertex 1.333333e-001 1.500000e-001 1.000000e-002
    endloop
  endfacet
  facet normal -1.301043e-017 0.000000e+000 1.000000e+000
    outer loop
      vertex 0.000000e+000 0.000000e+000 1.000000e-002
      vertex 0.000000e+000 -7.500000e-002 1.000000e-002
      vertex 1.333333e-001 -1.500000e-001 1.000000e-002
    endloop
  endfacet
  facet normal 0.000000e+000 0.000000e+000 1.000000e+000
    outer loop
      vertex 0.000000e+000 0.000000e+000 1.000000e-002
      vertex 2.000000e-001 -1.500000e-001 1.000000e-002
      vertex 2.000000e-001 1.500000e-001 1.000000e-002
    endloop
  endfacet
  facet normal 0.000000e+000 0.000000e+000 1.000000e+000
    outer loop
      vertex 2.000000e-001 -1.500000e-001 1.000000e-002
      vertex 4.000000e-001 0.000000e+000 1.000000e-002
      vertex 2.000000e-001 1.500000e-001 1.000000e-002
    endloop
  endfacet
  facet normal 0.000000e+000 -1.000000e+000 0.000000e+000
    outer loop
      vertex 0.000000e+000 -1.500000e-001 -1.000000e-002
      vertex 6.666667e-002 -1.500000e-001 -1.000000e-002
      vertex 6.666667e-002 -1.500000e-001 1.000000e-002
    endloop
  endfacet
  facet normal 0.000000e+000 -1.000000e+000 0.000000e+000
    outer loop
      vertex 6.666667e-002 -1.500000e-001 -1.000000e-002
      vertex 1.333333e-001 -1.500000e-001 -1.000000e-002
      vertex 1.333333e-001 -1.500000e-001 1.000000e-002
    endloop
  endfacet
  facet normal 0.000000e+000 -1.000000e+000 0.000000e+000
    outer loop
      vertex 1.333333e-001 -1.500000e-001 -1.000000e-002
      vertex 2.000000e-001 -1.500000e-001 -1.000000e-002
      vertex 2.000000e-001 -1.500000e-001 1.000000e-002
    endloop
  endfacet
  facet normal 0.000000e+000 -1.000000e+000 0.000000e+000
    outer loop
      vertex 2.000000e-001 -1.500000e-001 -1.000000e-002
      vertex 2.666667e-001 -1.500000e-001 -1.000000e-002
      vertex 2.666667e-001 -1.500000e-001 1.000000e-002
    endloop
  endfacet
  facet normal 0.000000e+000 -1.000000e+000 0.000000e+000
    outer loop
      vertex 2.666667e-001 -1.500000e-001 -1.000000e-002
      vertex 3.333333e-001 -1.500000e-001 -1.000000e-002
      vertex 3.333333e-001 -1.500000e-001 1.000000e-002
    endloop
  endfacet
  facet normal 0.000000e+000 -1.000000e+000 0.000000e+000
    outer loop
      vertex 3.333333e-001 -1.500000e-001 -1.000000e-002
      vertex 4.000000e-001 -1.500000e-001 -1.000000e-002
      vertex 4.000000e-001 -1.500000e-001 1.000000e-002
    endloop
  endfacet
  facet normal 0.000000e+000 -1.000000e+000 0.000000e+000
    outer loop
      vertex 4.000000e-001 -1.500000e-001 1.000000e-002
      vertex 3.333333e-001 -1.500000e-001 1.000000e-002
      vertex 3.333333e-001 -1.500000e-001 -1.000000e-002
    endloop
  endfacet
  facet normal 0.000000e+000 -1.000000e+000 0.000000e+000
    outer loop
      vertex 3.333333e-001 -1.500000e-001 1.000000e-002
      vertex 2.666667e-001 -1.500000e-001 1.000000e-002
      vertex 2.666667e-001 -1.500000e-001 -1.000000e-002
    endloop
  endfacet
  facet normal 0.000000e+000 -1.000000e+000 0.000000e+000
    outer loop
      vertex 2.666667e-001 -1.500000e-001 1.000000e-002
      vertex 2.000000e-001 -1.500000e-001 1.000000e-002
      vertex 2.000000e-001 -1.500000e-001 -1.000000e-002
    endloop
  endfacet
  facet normal 0.000000e+000 -1.000000e+000 0.000000e+000
    outer loop
      vertex 2.000000e-001 -1.500000e-001 1.000000e-002
      vertex 1.333333e-001 -1.500000e-001 1.000000e-002
      vertex 1.333333e-001 -1.500000e-001 -1.000000e-002
    endloop
  endfacet
  facet normal 0.000000e+000 -1.000000e+000 0.000000e+000
    outer loop
      vertex 1.333333e-001 -1.500000e-001 1.000000e-002
      vertex 6.666667e-002 -1.500000e-001 1.000000e-002
      vertex 6.666667e-002 -1.500000e-001 -1.000000e-002
    endloop
  endfacet
  facet normal 0.000000e+000 -1.000000e+000 0.000000e+000
    outer loop
      vertex 6.666667e-002 -1.500000e-001 1.000000e-002
      vertex 0.000000e+000 -1.500000e-001 1.000000e-002
      vertex 0.000000e+000 -1.500000e-001 -1.000000e-002
    endloop
  endfacet
  facet normal 1.000000e+000 0.000000e+000 0.000000e+000
    outer loop
      vertex 4.000000e-001 -1.500000e-001 -1.000000e-002
      vertex 4.000000e-001 -7.500000e-002 -1.000000e-002
      vertex 4.000000e-001 -7.500000e-002 1.000000e-002
    endloop
  endfacet
  facet normal 1.000000e+000 0.000000e+000 0.000000e+000
    outer loop
      vertex 4.000000e-001 -7.500000e-002 -1.000000e-002
      vertex 4.000000e-001 0.000000e+000 -1.000000e-002
      vertex 4.000000e-001 0.000000e+000 1.000000e-002
    endloop
  endfacet
  facet normal 1.000000e+000 0.000000e+000 0.000000e+000
    outer loop
      vertex 4.000000e-001 0.000000e+000 -1.000000e-002
      vertex 4.000000e-001 7.500000e-002 -1.000000e-002
      vertex 4.000000e-001 7.500000e-002 1.000000e-002
    endloop
  endfacet
  facet normal 1.000000e+000 0.000000e+000 0.000000e+000
    outer loop
      vertex 4.000000e-001 7.500000e-002 -1.000000e-002
      vertex 4.000000e-001 1.500000e-001 -1.000000e-002
      vertex 4.000000e-001 1.500000e-001 1.000000e-002
    endloop
  endfacet
  facet normal 1.000000e+000 0.000000e+000 0.000000e+000
    outer loop
      vertex 4.000000e-001 1.500000e-001 1.000000e-002
      vertex 4.000000e-001 7.500000e-002 1.000000e-002
      vertex 4.000000e-001 7.500000e-002 -1.000000e-002
    endloop
  endfacet
  facet normal 1.000000e+000 0.000000e+000 0.000000e+000
    outer loop
      vertex 4.000000e-001 7.500000e-002 1.000000e-002
      vertex 4.000000e-001 0.000000e+000 1.000000e-002
      vertex 4.000000e-001 0.000000e+000 -1.000000e-002
    endloop
  endfacet
  facet normal 1.000000e+000 0.000000e+000 0.000000e+000
    outer loop
      vertex 4.000000e-001 0.000000e+000 1.000000e-002
      vertex 4.000000e-001 -7.500000e-002 1.000000e-002
      vertex 4.000000e-001 -7.500000e-002 -1.000000e-002
    endloop
  endfacet
  facet normal 1.000000e+000 0.000000e+000 0.000000e+000
    outer loop
      vertex 4.000000e-001 -7.500000e-002 1.000000e-002
      vertex 4.000000e-001 -1.500000e-001 1.000000e-002
      vertex 4.000000e-001 -1.500000e-001 -1.000000e-002
    endloop
  endfacet
  facet normal 0.000000e+000 1.000000e+000 0.000000e+000
    outer loop
      vertex 4.000000e-001 1.500000e-001 -1.000000e-002
      vertex 3.333333e-001 1.500000e-001 -1.000000e-002
      vertex 3.333333e-001 1.500000e-001 1.000000e-002
    endloop
  endfacet
  facet normal 0.000000e+000 1.000000e+000 0.000000e+000
    outer loop
      vertex 3.333333e-001 1.500000e-001 -1.000000e-002
      vertex 2.666667e-001 1.500000e-001 -1.000000e-002
      vertex 2.666667e-001 1.500000e-001 1.000000e-002
    endloop
  endfacet
  facet normal 0.000000e+000 1.000000e+000 0.000000e+000
    outer loop
      vertex 2.666667e-001 1.500000e-001 -1.000000e-002
      vertex 2.000000e-001 1.500000e-001 -1.000000e-002
      vertex 2.000000e-001 1.500000e-001 1.000000e-002
    endloop
  endfacet
  facet normal 0.000000e+000 1.000000e+000 0.000000e+000
    outer loop
      vertex 2.000000e-001 1.500000e-001 -1.000000e-002
      vertex 1.333333e-001 1.500000e-001 -1.000000e-002
      vertex 1.333333e-001 1.500000e-001 1.000000e-002
    endloop
  endfacet
  facet normal 0.000000e+000 1.000000e+000 0.000000e+000
    outer loop
      vertex 1.333333e-001 1.500000e-001 -1.000000e-002
      vertex 6.666667e-002 1.500000e-001 -1.000000e-002
      vertex 6.666667e-002 1.500000e-001 1.000000e-002
    endloop
  endfacet
  facet normal 0.000000e+000 1.000000e+000 0.000000e+000
    outer loop
      vertex 6.666667e-002 1.500000e-001 -1.000000e-002
      vertex 0.000000e+000 1.500000e-001 -1.000000e-002
      vertex 0.000000e+000 1.500000e-001 1.000000e-002
    endloop
  endfacet
  facet normal 0.000000e+000 1.000000e+000 0.000000e+000
    outer loop
      vertex 0.000000e+000 1.500000e-001 1.000000e-002
      vertex 6.666667e-002 1.500000e-001 1.000000e-002
      vertex 6.666667e-002 1.500000e-001 -1.000000e-002
    endloop
  endfacet
  facet normal 0.000000e+000 1.000000e+000 0.000000e+000
    outer loop
      vertex 6.666667e-002 1.500000e-001 1.000000e-002
      vertex 1.333333e-001 1.500000e-001 1.000000e-002
      vertex 1.333333e-001 1.500000e-001 -1.000000e-002
    endloop
  endfacet
  facet normal 0.000000e+000 1.000000e+000 0.000000e+000
    outer loop
      vertex 1.333333e-001 1.500000e-001 1.000000e-002
      vertex 2.000000e-001 1.500000e-001 1.000000e-002
      vertex 2.000000e-001 1.500000e-001 -1.000000e-002
    endloop
  endfacet
  facet normal 0.000000e+000 1.000000e+000 0.000000e+000
    outer loop
      vertex 2.000000e-001 1.500000e-001 1.000000e-002
      vertex 2.666667e-001 1.500000e-001 1.000000e-002
      vertex 2.666667e-001 1.500000e-001 -1.000000e-002
    endloop
  endfacet
  facet normal 0.000000e+000 1.000000e+000 0.000000e+000
    outer loop
      vertex 2.666667e-001 1.500000e-001 1.000000e-002
      vertex 3.333333e-001 1.500000e-001 1.000000e-002
      vertex 3.333333e-001 1.500000e-001 -1.000000e-002
    endloop
  endfacet
  facet normal 0.000000e+000 1.000000e+000 0.000000e+000
    outer loop
      vertex 3.333333e-001 1.500000e-001 1.000000e-002
      vertex 4.000000e-001 1.500000e-001 1.000000e-002
      vertex 4.000000e-001 1.500000e-001 -1.000000e-002
    endloop
  endfacet
  facet normal -1.000000e+000 0.000000e+000 0.000000e+000
    outer loop
      vertex 0.000000e+000 1.500000e-001 -1.000000e-002
      vertex 0.000000e+000 7.500000e-002 -1.000000e-002
      vertex 0.000000e+000 7.500000e-002 1.000000e-002
    endloop
  endfacet
  facet normal -1.000000e+000 0.000000e+000 0.000000e+000
    outer loop
      vertex 0.000000e+000 7.500000e-002 -1.000000e-002
      vertex 0.000000e+000 0.000000e+000 -1.000000e-002
      vertex 0.000000e+000 0.000000e+000 1.000000e-002
    endloop
  endfacet
  facet normal -1.000000e+000 0.000000e+000 0.000000e+000
    outer loop
      vertex 0.000000e+000 0.000000e+000 -1.000000e-002
      vertex 0.000000e+000 -7.500000e-002 -1.000000e-002
      vertex 0.000000e+000 -7.500000e-002 1.000000e-002
    endloop
  endfacet
  facet normal -1.000000e+000 0.000000e+000 0.000000e+000
    outer loop
      vertex 0.000000e+000 -7.500000e-002 -1.000000e-002
      vertex 0.000000e+000 -1.500000e-001 -1.000000e-002
      vertex 0.000000e+000 -1.500000e-001 1.000000e-002
    endloop
  endfacet
  facet normal -1.000000e+000 0.000000e+000 0.000000e+000
    outer loop
      vertex 0.000000e+000 -1.500000e-001 1.000000e-002
      vertex 0.000000e+000 -7.500000e-002 1.000000e-002
      vertex 0.000000e+000 -7.500000e-002 -1.000000e-002
    endloop
  endfacet
  facet normal -1.000000e+000 0.000000e+000 0.000000e+000
    outer loop
      vertex 0.000000e+000 -7.500000e-002 1.000000e-002
      vertex 0.000000e+000 0.000000e+000 1.000000e-002
      vertex 0.000000e+000 0.000000e+000 -1.000000e-002
    endloop
  endfacet
  facet normal -1.000000e+000 0.000000e+000 0.000000e+000
    outer loop
      vertex 0.000000e+000 0.000000e+000 1.000000e-002
      vertex 0.000000e+000 7.500000e-002 1.000000e-002
      vertex 0.000000e+000 7.500000e-002 -1.000000e-002
    endloop
  endfacet
  facet normal -1.000000e+000 0.000000e+000 0.000000e+000
    outer loop
      vertex 0.000000e+000 7.500000e-002 1.000000e-002
      vertex 0.000000e+000 1.500000e-001 1.000000e-002
      vertex 0.000000e+000 1.500000e-001 -1.000000e-002
    endloop
  endfacet
endsolid OBJECT
