solid OBJECT
  facet normal -8.883374e-001 3.381747e-001 3.106357e-001
    outer loop
      vertex -7.833316e-001 4.402088e-001 4.388711e-001
      vertex -8.632744e-001 4.739825e-001 1.734877e-001
      vertex -9.587954e-001 2.326511e-001 1.630488e-001
    endloop
  endfacet
  facet normal -8.883374e-001 3.381747e-001 3.106357e-001
    outer loop
      vertex -7.833316e-001 4.402088e-001 4.388711e-001
      vertex -9.587954e-001 2.326511e-001 1.630488e-001
      vertex -8.742260e-001 1.969228e-001 4.437907e-001
    endloop
  endfacet
  facet normal -8.551322e-001 1.268297e-001 5.026561e-001
    outer loop
      vertex -8.060016e-001 1.761134e-001 5.651066e-001
      vertex -8.742260e-001 1.969228e-001 4.437907e-001
      vertex -8.968337e-001 7.665661e-002 4.356755e-001
    endloop
  endfacet
  facet normal -8.551322e-001 1.268297e-001 5.026561e-001
    outer loop
      vertex -8.060016e-001 1.761134e-001 5.651066e-001
      vertex -8.968337e-001 7.665661e-002 4.356755e-001
      vertex -8.284423e-001 5.579623e-002 5.572881e-001
    endloop
  endfacet
  facet normal -1.679802e-001 9.797742e-001 1.087434e-001
    outer loop
      vertex 0.000000e+000 1.000000e+000 -6.639955e-016
      vertex -3.331043e-001 9.428900e-001 0.000000e+000
      vertex 0.000000e+000 9.756630e-001 2.192753e-001
    endloop
  endfacet
  facet normal -3.836120e-001 6.691929e-001 6.364139e-001
    outer loop
      vertex -3.331043e-001 9.428900e-001 0.000000e+000
      vertex -6.453153e-001 7.639163e-001 0.000000e+000
      vertex -8.632744e-001 4.739825e-001 1.734877e-001
    endloop
  endfacet
  facet normal -7.690203e-001 6.326852e-001 9.119900e-002
    outer loop
      vertex -6.453153e-001 7.639163e-001 0.000000e+000
      vertex -8.739533e-001 4.860099e-001 0.000000e+000
      vertex -8.632744e-001 4.739825e-001 1.734877e-001
    endloop
  endfacet
  facet normal -9.432426e-001 3.312434e-001 2.389954e-002
    outer loop
      vertex -8.739533e-001 4.860099e-001 0.000000e+000
      vertex -9.859338e-001 1.671363e-001 0.000000e+000
      vertex -9.587954e-001 2.326511e-001 1.630488e-001
    endloop
  endfacet
  facet normal -9.878873e-001 8.314066e-002 1.310206e-001
    outer loop
      vertex -9.859338e-001 1.671363e-001 0.000000e+000
      vertex -1.000000e+000 0.000000e+000 4.024558e-016
      vertex -9.587954e-001 2.326511e-001 1.630488e-001
    endloop
  endfacet
  facet normal -9.826915e-001 4.880098e-002 1.787062e-001
    outer loop
      vertex -1.000000e+000 0.000000e+000 4.024558e-016
      vertex -9.359757e-001 0.000000e+000 3.520646e-001
      vertex -9.587954e-001 2.326511e-001 1.630488e-001
    endloop
  endfacet
  facet normal -8.348280e-001 -2.302665e-001 5.000395e-001
    outer loop
      vertex -9.359757e-001 0.000000e+000 3.520646e-001
      vertex -7.521010e-001 0.000000e+000 6.590478e-001
      vertex -8.284423e-001 5.579623e-002 5.572881e-001
    endloop
  endfacet
  facet normal -7.862612e-001 4.775342e-002 6.160462e-001
    outer loop
      vertex -7.521010e-001 0.000000e+000 6.590478e-001
      vertex -7.415816e-001 7.491496e-002 6.666667e-001
      vertex -8.284423e-001 5.579623e-002 5.572881e-001
    endloop
  endfacet
  facet normal -7.027604e-001 2.287112e-001 6.736609e-001
    outer loop
      vertex -7.415816e-001 7.491496e-002 6.666667e-001
      vertex -6.523906e-001 3.783259e-001 6.567008e-001
      vertex -8.060016e-001 1.761134e-001 5.651066e-001
    endloop
  endfacet
  facet normal -6.424745e-001 5.431999e-001 5.405186e-001
    outer loop
      vertex -6.523906e-001 3.783259e-001 6.567008e-001
      vertex -4.829288e-001 6.628835e-001 5.721584e-001
      vertex -7.833316e-001 4.402088e-001 4.388711e-001
    endloop
  endfacet
  facet normal -5.886311e-001 7.859578e-001 1.891661e-001
    outer loop
      vertex -4.829288e-001 6.628835e-001 5.721584e-001
      vertex -2.517298e-001 8.734094e-001 4.168790e-001
      vertex -8.632744e-001 4.739825e-001 1.734877e-001
    endloop
  endfacet
  facet normal -2.274123e-001 9.523786e-001 2.031222e-001
    outer loop
      vertex -2.517298e-001 8.734094e-001 4.168790e-001
      vertex 0.000000e+000 9.756630e-001 2.192753e-001
      vertex -3.331043e-001 9.428900e-001 0.000000e+000
    endloop
  endfacet
  facet normal -6.492189e-001 7.050677e-001 2.852970e-001
    outer loop
      vertex -8.632744e-001 4.739825e-001 1.734877e-001
      vertex -7.833316e-001 4.402088e-001 4.388711e-001
      vertex -4.829288e-001 6.628835e-001 5.721584e-001
    endloop
  endfacet
  facet normal -9.278715e-001 3.636982e-001 8.232875e-002
    outer loop
      vertex -9.587954e-001 2.326511e-001 1.630488e-001
      vertex -8.632744e-001 4.739825e-001 1.734877e-001
      vertex -8.739533e-001 4.860099e-001 0.000000e+000
    endloop
  endfacet
  facet normal -9.400697e-001 1.562639e-001 3.030687e-001
    outer loop
      vertex -8.742260e-001 1.969228e-001 4.437907e-001
      vertex -9.587954e-001 2.326511e-001 1.630488e-001
      vertex -8.968337e-001 7.665661e-002 4.356755e-001
    endloop
  endfacet
  facet normal -8.046664e-001 3.108617e-001 5.058429e-001
    outer loop
      vertex -7.833316e-001 4.402088e-001 4.388711e-001
      vertex -8.742260e-001 1.969228e-001 4.437907e-001
      vertex -8.060016e-001 1.761134e-001 5.651066e-001
    endloop
  endfacet
  facet normal -8.746148e-001 -7.572023e-002 4.788689e-001
    outer loop
      vertex -8.284423e-001 5.579623e-002 5.572881e-001
      vertex -8.968337e-001 7.665661e-002 4.356755e-001
      vertex -9.359757e-001 0.000000e+000 3.520646e-001
    endloop
  endfacet
  facet normal -7.876340e-001 1.074796e-001 6.066966e-001
    outer loop
      vertex -8.060016e-001 1.761134e-001 5.651066e-001
      vertex -8.284423e-001 5.579623e-002 5.572881e-001
      vertex -7.415816e-001 7.491496e-002 6.666667e-001
    endloop
  endfacet
  facet normal -5.964993e-001 7.646636e-001 2.438815e-001
    outer loop
      vertex -3.331043e-001 9.428900e-001 0.000000e+000
      vertex -8.632744e-001 4.739825e-001 1.734877e-001
      vertex -2.517298e-001 8.734094e-001 4.168790e-001
    endloop
  endfacet
  facet normal -9.413614e-001 1.522779e-001 3.010816e-001
    outer loop
      vertex -9.587954e-001 2.326511e-001 1.630488e-001
      vertex -9.359757e-001 0.000000e+000 3.520646e-001
      vertex -8.968337e-001 7.665661e-002 4.356755e-001
    endloop
  endfacet
  facet normal -7.646470e-001 3.301781e-001 5.534414e-001
    outer loop
      vertex -8.060016e-001 1.761134e-001 5.651066e-001
      vertex -6.523906e-001 3.783259e-001 6.567008e-001
      vertex -7.833316e-001 4.402088e-001 4.388711e-001
    endloop
  endfacet
  facet normal -4.407486e-001 2.853782e-001 8.510581e-001
    outer loop
      vertex -3.128506e-001 3.813608e-001 8.698784e-001
      vertex -4.827585e-001 4.177997e-001 7.696672e-001
      vertex -5.615275e-001 1.891136e-001 8.055575e-001
    endloop
  endfacet
  facet normal -4.407486e-001 2.853782e-001 8.510581e-001
    outer loop
      vertex -3.128506e-001 3.813608e-001 8.698784e-001
      vertex -5.615275e-001 1.891136e-001 8.055575e-001
      vertex -3.793421e-001 1.500417e-001 9.130099e-001
    endloop
  endfacet
  facet normal -8.152543e-002 9.237713e-001 3.741659e-001
    outer loop
      vertex 0.000000e+000 9.756630e-001 2.192753e-001
      vertex -2.517298e-001 8.734094e-001 4.168790e-001
      vertex 0.000000e+000 8.532457e-001 5.215091e-001
    endloop
  endfacet
  facet normal -1.354155e-001 6.801245e-001 7.204813e-001
    outer loop
      vertex -2.517298e-001 8.734094e-001 4.168790e-001
      vertex -4.829288e-001 6.628835e-001 5.721584e-001
      vertex -3.128506e-001 3.813608e-001 8.698784e-001
    endloop
  endfacet
  facet normal -5.535252e-001 5.223558e-001 6.486557e-001
    outer loop
      vertex -4.829288e-001 6.628835e-001 5.721584e-001
      vertex -6.523906e-001 3.783259e-001 6.567008e-001
      vertex -4.827585e-001 4.177997e-001 7.696672e-001
    endloop
  endfacet
  facet normal -6.801019e-001 2.228638e-001 6.984218e-001
    outer loop
      vertex -6.523906e-001 3.783259e-001 6.567008e-001
      vertex -7.415816e-001 7.491496e-002 6.666667e-001
      vertex -5.615275e-001 1.891136e-001 8.055575e-001
    endloop
  endfacet
  facet normal -6.771271e-001 2.027174e-002 7.355868e-001
    outer loop
      vertex -7.415816e-001 7.491496e-002 6.666667e-001
      vertex -7.521010e-001 0.000000e+000 6.590478e-001
      vertex -5.946554e-001 0.000000e+000 8.039807e-001
    endloop
  endfacet
  facet normal -1.040160e-001 1.621580e-001 9.812673e-001
    outer loop
      vertex 0.000000e+000 0.000000e+000 1.000000e+000
      vertex 0.000000e+000 3.217215e-001 9.468343e-001
      vertex -2.096478e-001 0.000000e+000 9.777770e-001
    endloop
  endfacet
  facet normal -1.231874e-001 4.768228e-001 8.703246e-001
    outer loop
      vertex 0.000000e+000 3.217215e-001 9.468343e-001
      vertex 0.000000e+000 6.247899e-001 7.807930e-001
      vertex -3.128506e-001 3.813608e-001 8.698784e-001
    endloop
  endfacet
  facet normal -3.678298e-001 6.977014e-001 6.147471e-001
    outer loop
      vertex 0.000000e+000 6.247899e-001 7.807930e-001
      vertex 0.000000e+000 8.532457e-001 5.215091e-001
      vertex -3.128506e-001 3.813608e-001 8.698784e-001
    endloop
  endfacet
  facet normal -5.035552e-001 8.103821e-002 8.601541e-001
    outer loop
      vertex -5.946554e-001 0.000000e+000 8.039807e-001
      vertex -4.099776e-001 0.000000e+000 9.120956e-001
      vertex -5.615275e-001 1.891136e-001 8.055575e-001
    endloop
  endfacet
  facet normal -3.110289e-001 5.772515e-002 9.486458e-001
    outer loop
      vertex -4.099776e-001 0.000000e+000 9.120956e-001
      vertex -2.096478e-001 0.000000e+000 9.777770e-001
      vertex -3.793421e-001 1.500417e-001 9.130099e-001
    endloop
  endfacet
  facet normal -3.088761e-001 5.966713e-001 7.406611e-001
    outer loop
      vertex -4.827585e-001 4.177997e-001 7.696672e-001
      vertex -3.128506e-001 3.813608e-001 8.698784e-001
      vertex -4.829288e-001 6.628835e-001 5.721584e-001
    endloop
  endfacet
  facet normal -5.757122e-001 3.166118e-001 7.538650e-001
    outer loop
      vertex -5.615275e-001 1.891136e-001 8.055575e-001
      vertex -4.827585e-001 4.177997e-001 7.696672e-001
      vertex -6.523906e-001 3.783259e-001 6.567008e-001
    endloop
  endfacet
  facet normal -4.905517e-001 9.488237e-002 8.662311e-001
    outer loop
      vertex -3.793421e-001 1.500417e-001 9.130099e-001
      vertex -5.615275e-001 1.891136e-001 8.055575e-001
      vertex -4.099776e-001 0.000000e+000 9.120956e-001
    endloop
  endfacet
  facet normal -1.902868e-001 2.325397e-001 9.537905e-001
    outer loop
      vertex -3.128506e-001 3.813608e-001 8.698784e-001
      vertex -3.793421e-001 1.500417e-001 9.130099e-001
      vertex 0.000000e+000 3.217215e-001 9.468343e-001
    endloop
  endfacet
  facet normal -2.369401e-001 6.737910e-001 6.999037e-001
    outer loop
      vertex 0.000000e+000 8.532457e-001 5.215091e-001
      vertex -2.517298e-001 8.734094e-001 4.168790e-001
      vertex -3.128506e-001 3.813608e-001 8.698784e-001
    endloop
  endfacet
  facet normal -6.490671e-001 1.074206e-001 7.531087e-001
    outer loop
      vertex -5.615275e-001 1.891136e-001 8.055575e-001
      vertex -7.415816e-001 7.491496e-002 6.666667e-001
      vertex -5.946554e-001 0.000000e+000 8.039807e-001
    endloop
  endfacet
  facet normal -1.808155e-001 2.102339e-001 9.607848e-001
    outer loop
      vertex -2.096478e-001 0.000000e+000 9.777770e-001
      vertex 0.000000e+000 3.217215e-001 9.468343e-001
      vertex -3.793421e-001 1.500417e-001 9.130099e-001
    endloop
  endfacet
  facet normal -4.380207e-015 -1.000000e+000 2.623626e-015
    outer loop
      vertex -7.521010e-001 0.000000e+000 6.590478e-001
      vertex -9.359757e-001 0.000000e+000 3.520646e-001
      vertex -1.000000e+000 -6.432461e-016 3.787682e-016
    endloop
  endfacet
  facet normal 1.873974e-015 -1.000000e+000 4.018039e-016
    outer loop
      vertex -4.287733e-017 4.018039e-016 1.000000e+000
      vertex -2.096478e-001 0.000000e+000 9.777770e-001
      vertex -2.143867e-017 2.009019e-016 5.000000e-001
    endloop
  endfacet
  facet normal 1.205258e-016 -1.000000e+000 -3.676066e-016
    outer loop
      vertex -2.096478e-001 0.000000e+000 9.777770e-001
      vertex -4.099776e-001 0.000000e+000 9.120956e-001
      vertex -2.143867e-017 2.009019e-016 5.000000e-001
    endloop
  endfacet
  facet normal 1.803584e-016 -1.000000e+000 -3.080815e-016
    outer loop
      vertex -4.099776e-001 0.000000e+000 9.120956e-001
      vertex -5.946554e-001 0.000000e+000 8.039807e-001
      vertex -2.143867e-017 2.009019e-016 5.000000e-001
    endloop
  endfacet
  facet normal 2.172194e-016 -1.000000e+000 -2.359730e-016
    outer loop
      vertex -5.946554e-001 0.000000e+000 8.039807e-001
      vertex -7.521010e-001 0.000000e+000 6.590478e-001
      vertex -2.143867e-017 2.009019e-016 5.000000e-001
    endloop
  endfacet
  facet normal 6.432461e-016 -1.000000e+000 7.340682e-016
    outer loop
      vertex -1.000000e+000 -6.432461e-016 3.787682e-016
      vertex -5.000000e-001 -3.216231e-016 1.893841e-016
      vertex -7.521010e-001 0.000000e+000 6.590478e-001
    endloop
  endfacet
  facet normal 6.432461e-016 -1.000000e+000 4.018039e-016
    outer loop
      vertex -5.000000e-001 -3.216231e-016 1.893841e-016
      vertex 0.000000e+000 0.000000e+000 0.000000e+000
      vertex -2.143867e-017 2.009019e-016 5.000000e-001
    endloop
  endfacet
  facet normal 4.029142e-016 -1.000000e+000 6.421357e-016
    outer loop
      vertex -2.143867e-017 2.009019e-016 5.000000e-001
      vertex -7.521010e-001 0.000000e+000 6.590478e-001
      vertex -5.000000e-001 -3.216231e-016 1.893841e-016
    endloop
  endfacet
  facet normal 1.000000e+000 1.636783e-015 -7.282848e-015
    outer loop
      vertex 0.000000e+000 9.756630e-001 2.192753e-001
      vertex -8.183913e-016 5.000000e-001 -1.659989e-016
      vertex -1.636783e-015 1.000000e+000 -3.319978e-016
    endloop
  endfacet
  facet normal 1.000000e+000 -1.261891e-016 4.287733e-017
    outer loop
      vertex -4.287733e-017 4.018039e-016 1.000000e+000
      vertex -2.143867e-017 2.009019e-016 5.000000e-001
      vertex 0.000000e+000 3.217215e-001 9.468343e-001
    endloop
  endfacet
  facet normal 1.000000e+000 -1.885034e-017 -3.440673e-017
    outer loop
      vertex 0.000000e+000 3.217215e-001 9.468343e-001
      vertex -2.143867e-017 2.009019e-016 5.000000e-001
      vertex 0.000000e+000 6.247899e-001 7.807930e-001
    endloop
  endfacet
  facet normal 1.000000e+000 -1.006942e-015 -8.872201e-016
    outer loop
      vertex 0.000000e+000 6.247899e-001 7.807930e-001
      vertex -8.183913e-016 5.000000e-001 -1.659989e-016
      vertex 0.000000e+000 8.532457e-001 5.215091e-001
    endloop
  endfacet
  facet normal 1.000000e+000 -1.449818e-015 -5.872368e-016
    outer loop
      vertex 0.000000e+000 8.532457e-001 5.215091e-001
      vertex -8.183913e-016 5.000000e-001 -1.659989e-016
      vertex 0.000000e+000 9.756630e-001 2.192753e-001
    endloop
  endfacet
  facet normal 1.000000e+000 1.636783e-015 4.287733e-017
    outer loop
      vertex 0.000000e+000 0.000000e+000 0.000000e+000
      vertex -8.183913e-016 5.000000e-001 -1.659989e-016
      vertex -2.143867e-017 2.009019e-016 5.000000e-001
    endloop
  endfacet
  facet normal 1.000000e+000 4.705464e-016 -1.123359e-015
    outer loop
      vertex -2.143867e-017 2.009019e-016 5.000000e-001
      vertex -8.183913e-016 5.000000e-001 -1.659989e-016
      vertex 0.000000e+000 6.247899e-001 7.807930e-001
    endloop
  endfacet
  facet normal -9.397579e-016 -3.319978e-016 -1.000000e+000
    outer loop
      vertex -1.636783e-015 1.000000e+000 -3.319978e-016
      vertex -8.183913e-016 5.000000e-001 -1.659989e-016
      vertex -3.331043e-001 9.428900e-001 0.000000e+000
    endloop
  endfacet
  facet normal -1.501295e-016 2.618937e-016 -1.000000e+000
    outer loop
      vertex -3.331043e-001 9.428900e-001 0.000000e+000
      vertex -8.183913e-016 5.000000e-001 -1.659989e-016
      vertex -6.453153e-001 7.639163e-001 0.000000e+000
    endloop
  endfacet
  facet normal 2.447451e-016 -2.013557e-016 -1.000000e+000
    outer loop
      vertex -6.453153e-001 7.639163e-001 0.000000e+000
      vertex -5.000000e-001 -3.216231e-016 1.893841e-016
      vertex -8.739533e-001 4.860099e-001 0.000000e+000
    endloop
  endfacet
  facet normal 3.477311e-016 -1.221146e-016 -1.000000e+000
    outer loop
      vertex -8.739533e-001 4.860099e-001 0.000000e+000
      vertex -5.000000e-001 -3.216231e-016 1.893841e-016
      vertex -9.859338e-001 1.671363e-001 0.000000e+000
    endloop
  endfacet
  facet normal -3.787682e-016 -2.234346e-015 -1.000000e+000
    outer loop
      vertex -9.859338e-001 1.671363e-001 0.000000e+000
      vertex -5.000000e-001 -3.216231e-016 1.893841e-016
      vertex -1.000000e+000 -6.432461e-016 3.787682e-016
    endloop
  endfacet
  facet normal -3.787682e-016 -3.319978e-016 -1.000000e+000
    outer loop
      vertex -5.000000e-001 -3.216231e-016 1.893841e-016
      vertex -8.183913e-016 5.000000e-001 -1.659989e-016
      vertex 0.000000e+000 0.000000e+000 0.000000e+000
    endloop
  endfacet
  facet normal -3.888796e-016 -3.218863e-016 -1.000000e+000
    outer loop
      vertex -8.183913e-016 5.000000e-001 -1.659989e-016
      vertex -5.000000e-001 -3.216231e-016 1.893841e-016
      vertex -6.453153e-001 7.639163e-001 0.000000e+000
    endloop
  endfacet
  facet normal -2.349806e-001 -9.174690e-001 -3.209902e-001
    outer loop
      vertex -4.022676e-001 -7.831002e-001 -4.742729e-001
      vertex -1.555454e-001 -8.189759e-001 -5.523442e-001
      vertex -1.666667e-001 -9.831632e-001 -7.491496e-002
    endloop
  endfacet
  facet normal -3.177917e-001 -6.149234e-001 -7.217185e-001
    outer loop
      vertex -5.338505e-001 -3.930224e-001 -7.486902e-001
      vertex -1.061397e-001 -4.552155e-001 -8.840324e-001
      vertex -1.555454e-001 -8.189759e-001 -5.523442e-001
    endloop
  endfacet
  facet normal -3.177917e-001 -6.149234e-001 -7.217185e-001
    outer loop
      vertex -5.338505e-001 -3.930224e-001 -7.486902e-001
      vertex -1.555454e-001 -8.189759e-001 -5.523442e-001
      vertex -4.022676e-001 -7.831002e-001 -4.742729e-001
    endloop
  endfacet
  facet normal -3.544645e-001 -9.028899e-001 -2.431971e-001
    outer loop
      vertex -5.811226e-001 -7.685194e-001 -2.677209e-001
      vertex -4.022676e-001 -7.831002e-001 -4.742729e-001
      vertex -1.666667e-001 -9.831632e-001 -7.491496e-002
    endloop
  endfacet
  facet normal -6.380066e-001 -5.752942e-001 -5.118438e-001
    outer loop
      vertex -8.439083e-001 -3.677455e-001 -3.906175e-001
      vertex -5.338505e-001 -3.930224e-001 -7.486902e-001
      vertex -4.022676e-001 -7.831002e-001 -4.742729e-001
    endloop
  endfacet
  facet normal -6.380066e-001 -5.752942e-001 -5.118438e-001
    outer loop
      vertex -8.439083e-001 -3.677455e-001 -3.906175e-001
      vertex -4.022676e-001 -7.831002e-001 -4.742729e-001
      vertex -5.811226e-001 -7.685194e-001 -2.677209e-001
    endloop
  endfacet
  facet normal -9.660921e-001 -1.562567e-001 -2.055480e-001
    outer loop
      vertex -1.000000e+000 -1.286492e-015 0.000000e+000
      vertex -9.133853e-001 0.000000e+000 -4.070962e-001
      vertex -9.490135e-001 -3.152354e-001 0.000000e+000
    endloop
  endfacet
  facet normal -7.959985e-001 -1.763325e-001 -5.790452e-001
    outer loop
      vertex -9.133853e-001 0.000000e+000 -4.070962e-001
      vertex -6.685453e-001 0.000000e+000 -7.436714e-001
      vertex -8.439083e-001 -3.677455e-001 -3.906175e-001
    endloop
  endfacet
  facet normal -5.147807e-001 -1.656818e-001 -8.411602e-001
    outer loop
      vertex -6.685453e-001 0.000000e+000 -7.436714e-001
      vertex -3.580004e-001 0.000000e+000 -9.337214e-001
      vertex -5.338505e-001 -3.930224e-001 -7.486902e-001
    endloop
  endfacet
  facet normal -1.796853e-001 -1.603888e-001 -9.705610e-001
    outer loop
      vertex -3.580004e-001 0.000000e+000 -9.337214e-001
      vertex 0.000000e+000 0.000000e+000 -1.000000e+000
      vertex 0.000000e+000 -3.217215e-001 -9.468343e-001
    endloop
  endfacet
  facet normal 8.508628e-002 -4.787400e-001 -8.738240e-001
    outer loop
      vertex 0.000000e+000 -3.217215e-001 -9.468343e-001
      vertex 0.000000e+000 -6.247899e-001 -7.807930e-001
      vertex -1.061397e-001 -4.552155e-001 -8.840324e-001
    endloop
  endfacet
  facet normal -3.423259e-002 -7.498631e-001 -6.607068e-001
    outer loop
      vertex 0.000000e+000 -6.247899e-001 -7.807930e-001
      vertex 0.000000e+000 -8.532457e-001 -5.215091e-001
      vertex -1.555454e-001 -8.189759e-001 -5.523442e-001
    endloop
  endfacet
  facet normal -2.727162e-001 -8.917236e-001 -3.611853e-001
    outer loop
      vertex 0.000000e+000 -8.532457e-001 -5.215091e-001
      vertex 0.000000e+000 -9.756630e-001 -2.192753e-001
      vertex -1.666667e-001 -9.831632e-001 -7.491496e-002
    endloop
  endfacet
  facet normal -5.075491e-002 -9.926161e-001 -1.101687e-001
    outer loop
      vertex 0.000000e+000 -9.756630e-001 -2.192753e-001
      vertex -7.494005e-016 -1.000000e+000 0.000000e+000
      vertex -1.666667e-001 -9.831632e-001 -7.491496e-002
    endloop
  endfacet
  facet normal -1.250105e-001 -9.906028e-001 5.548362e-002
    outer loop
      vertex -7.494005e-016 -1.000000e+000 0.000000e+000
      vertex -2.484363e-001 -9.686482e-001 0.000000e+000
      vertex -1.666667e-001 -9.831632e-001 -7.491496e-002
    endloop
  endfacet
  facet normal -3.871434e-001 -8.872961e-001 -2.506504e-001
    outer loop
      vertex -2.484363e-001 -9.686482e-001 0.000000e+000
      vertex -5.411216e-001 -8.409443e-001 0.000000e+000
      vertex -1.666667e-001 -9.831632e-001 -7.491496e-002
    endloop
  endfacet
  facet normal -6.720239e-001 -7.339956e-001 -9.815444e-002
    outer loop
      vertex -5.411216e-001 -8.409443e-001 0.000000e+000
      vertex -7.900748e-001 -6.130105e-001 0.000000e+000
      vertex -5.811226e-001 -7.685194e-001 -2.677209e-001
    endloop
  endfacet
  facet normal -8.691283e-001 -4.639010e-001 -1.714988e-001
    outer loop
      vertex -7.900748e-001 -6.130105e-001 0.000000e+000
      vertex -9.490135e-001 -3.152354e-001 0.000000e+000
      vertex -8.439083e-001 -3.677455e-001 -3.906175e-001
    endloop
  endfacet
  facet normal -1.416170e-001 -9.350936e-001 -3.248764e-001
    outer loop
      vertex -1.666667e-001 -9.831632e-001 -7.491496e-002
      vertex -1.555454e-001 -8.189759e-001 -5.523442e-001
      vertex 0.000000e+000 -8.532457e-001 -5.215091e-001
    endloop
  endfacet
  facet normal -3.263578e-001 -2.791433e-001 -9.030889e-001
    outer loop
      vertex -1.061397e-001 -4.552155e-001 -8.840324e-001
      vertex -5.338505e-001 -3.930224e-001 -7.486902e-001
      vertex -3.580004e-001 0.000000e+000 -9.337214e-001
    endloop
  endfacet
  facet normal -2.890434e-001 -6.232895e-001 -7.266114e-001
    outer loop
      vertex -1.555454e-001 -8.189759e-001 -5.523442e-001
      vertex -1.061397e-001 -4.552155e-001 -8.840324e-001
      vertex 0.000000e+000 -6.247899e-001 -7.807930e-001
    endloop
  endfacet
  facet normal -3.813598e-001 -9.051330e-001 -1.878802e-001
    outer loop
      vertex -5.811226e-001 -7.685194e-001 -2.677209e-001
      vertex -1.666667e-001 -9.831632e-001 -7.491496e-002
      vertex -5.411216e-001 -8.409443e-001 0.000000e+000
    endloop
  endfacet
  facet normal -7.412578e-001 -2.460659e-001 -6.244905e-001
    outer loop
      vertex -5.338505e-001 -3.930224e-001 -7.486902e-001
      vertex -8.439083e-001 -3.677455e-001 -3.906175e-001
      vertex -6.685453e-001 0.000000e+000 -7.436714e-001
    endloop
  endfacet
  facet normal -7.687271e-001 -5.840099e-001 -2.607509e-001
    outer loop
      vertex -8.439083e-001 -3.677455e-001 -3.906175e-001
      vertex -5.811226e-001 -7.685194e-001 -2.677209e-001
      vertex -7.900748e-001 -6.130105e-001 0.000000e+000
    endloop
  endfacet
  facet normal -9.540777e-001 -1.906063e-001 -2.310951e-001
    outer loop
      vertex -9.490135e-001 -3.152354e-001 0.000000e+000
      vertex -9.133853e-001 0.000000e+000 -4.070962e-001
      vertex -8.439083e-001 -3.677455e-001 -3.906175e-001
    endloop
  endfacet
  facet normal -2.511712e-001 -2.412879e-001 -9.373864e-001
    outer loop
      vertex -3.580004e-001 0.000000e+000 -9.337214e-001
      vertex 0.000000e+000 -3.217215e-001 -9.468343e-001
      vertex -1.061397e-001 -4.552155e-001 -8.840324e-001
    endloop
  endfacet
  facet normal 1.000000e+000 -3.231671e-017 1.098078e-017
    outer loop
      vertex 1.098078e-017 -2.300735e-017 -1.000000e+000
      vertex 5.490390e-018 -1.150368e-017 -5.000000e-001
      vertex 0.000000e+000 -3.217215e-001 -9.468343e-001
    endloop
  endfacet
  facet normal 1.000000e+000 -4.827526e-018 -8.811479e-018
    outer loop
      vertex 0.000000e+000 -3.217215e-001 -9.468343e-001
      vertex 5.490390e-018 -1.150368e-017 -5.000000e-001
      vertex 0.000000e+000 -6.247899e-001 -7.807930e-001
    endloop
  endfacet
  facet normal 1.000000e+000 4.512210e-016 3.975724e-016
    outer loop
      vertex 0.000000e+000 -6.247899e-001 -7.807930e-001
      vertex -3.667295e-016 -5.000000e-001 -6.408818e-017
      vertex 0.000000e+000 -8.532457e-001 -5.215091e-001
    endloop
  endfacet
  facet normal 1.000000e+000 6.496782e-016 2.631468e-016
    outer loop
      vertex 0.000000e+000 -8.532457e-001 -5.215091e-001
      vertex -3.667295e-016 -5.000000e-001 -6.408818e-017
      vertex 0.000000e+000 -9.756630e-001 -2.192753e-001
    endloop
  endfacet
  facet normal 1.000000e+000 -7.334590e-016 3.263518e-015
    outer loop
      vertex 0.000000e+000 -9.756630e-001 -2.192753e-001
      vertex -3.667295e-016 -5.000000e-001 -6.408818e-017
      vertex -7.334590e-016 -1.000000e+000 -1.281764e-016
    endloop
  endfacet
  facet normal 1.000000e+000 -7.334590e-016 1.098078e-017
    outer loop
      vertex 0.000000e+000 0.000000e+000 0.000000e+000
      vertex -3.667295e-016 -5.000000e-001 -6.408818e-017
      vertex 5.490390e-018 -1.150368e-017 -5.000000e-001
    endloop
  endfacet
  facet normal 1.000000e+000 -2.368904e-016 5.075494e-016
    outer loop
      vertex 5.490390e-018 -1.150368e-017 -5.000000e-001
      vertex -3.667295e-016 -5.000000e-001 -6.408818e-017
      vertex 0.000000e+000 -6.247899e-001 -7.807930e-001
    endloop
  endfacet
  facet normal 4.997570e-016 -1.281764e-016 1.000000e+000
    outer loop
      vertex -7.334590e-016 -1.000000e+000 -1.281764e-016
      vertex -3.667295e-016 -5.000000e-001 -6.408818e-017
      vertex -2.484363e-001 -9.686482e-001 0.000000e+000
    endloop
  endfacet
  facet normal 4.845863e-017 1.110626e-016 1.000000e+000
    outer loop
      vertex -2.484363e-001 -9.686482e-001 0.000000e+000
      vertex -3.667295e-016 -5.000000e-001 -6.408818e-017
      vertex -5.411216e-001 -8.409443e-001 0.000000e+000
    endloop
  endfacet
  facet normal 7.015622e-017 7.662579e-017 1.000000e+000
    outer loop
      vertex -5.411216e-001 -8.409443e-001 0.000000e+000
      vertex -3.667295e-016 -5.000000e-001 -6.408818e-017
      vertex -7.900748e-001 -6.130105e-001 0.000000e+000
    endloop
  endfacet
  facet normal -3.068083e-016 -1.637602e-016 1.000000e+000
    outer loop
      vertex -7.900748e-001 -6.130105e-001 0.000000e+000
      vertex -5.000000e-001 -3.216231e-016 1.893841e-016
      vertex -9.490135e-001 -3.152354e-001 0.000000e+000
    endloop
  endfacet
  facet normal 3.787682e-016 -1.140278e-015 1.000000e+000
    outer loop
      vertex -9.490135e-001 -3.152354e-001 0.000000e+000
      vertex -5.000000e-001 -3.216231e-016 1.893841e-016
      vertex -1.000000e+000 -6.432461e-016 3.787682e-016
    endloop
  endfacet
  facet normal 3.787682e-016 -1.281764e-016 1.000000e+000
    outer loop
      vertex 0.000000e+000 0.000000e+000 0.000000e+000
      vertex -5.000000e-001 -3.216231e-016 1.893841e-016
      vertex -3.667295e-016 -5.000000e-001 -6.408818e-017
    endloop
  endfacet
  facet normal 1.344039e-016 -3.725406e-016 1.000000e+000
    outer loop
      vertex -3.667295e-016 -5.000000e-001 -6.408818e-017
      vertex -5.000000e-001 -3.216231e-016 1.893841e-016
      vertex -7.900748e-001 -6.130105e-001 0.000000e+000
    endloop
  endfacet
  facet normal -6.432461e-016 1.000000e+000 1.443225e-015
    outer loop
      vertex -1.000000e+000 -6.432461e-016 3.787682e-016
      vertex -5.000000e-001 -3.216231e-016 1.893841e-016
      vertex -9.133853e-001 0.000000e+000 -4.070962e-001
    endloop
  endfacet
  facet normal 4.532932e-016 1.000000e+000 3.297459e-016
    outer loop
      vertex -9.133853e-001 0.000000e+000 -4.070962e-001
      vertex -5.000000e-001 -3.216231e-016 1.893841e-016
      vertex -6.685453e-001 0.000000e+000 -7.436714e-001
    endloop
  endfacet
  facet normal 1.078427e-017 1.000000e+000 1.762168e-017
    outer loop
      vertex -6.685453e-001 0.000000e+000 -7.436714e-001
      vertex 5.490390e-018 -1.150368e-017 -5.000000e-001
      vertex -3.580004e-001 0.000000e+000 -9.337214e-001
    endloop
  endfacet
  facet normal 6.000679e-017 1.000000e+000 -2.300735e-017
    outer loop
      vertex -3.580004e-001 0.000000e+000 -9.337214e-001
      vertex 5.490390e-018 -1.150368e-017 -5.000000e-001
      vertex 1.098078e-017 -2.300735e-017 -1.000000e+000
    endloop
  endfacet
  facet normal -6.432461e-016 1.000000e+000 -2.300735e-017
    outer loop
      vertex 5.490390e-018 -1.150368e-017 -5.000000e-001
      vertex -5.000000e-001 -3.216231e-016 1.893841e-016
      vertex 0.000000e+000 0.000000e+000 0.000000e+000
    endloop
  endfacet
  facet normal -1.530675e-016 1.000000e+000 4.671712e-016
    outer loop
      vertex -5.000000e-001 -3.216231e-016 1.893841e-016
      vertex 5.490390e-018 -1.150368e-017 -5.000000e-001
      vertex -6.685453e-001 0.000000e+000 -7.436714e-001
    endloop
  endfacet
  facet normal 6.841408e-001 4.142450e-001 -6.002936e-001
    outer loop
      vertex 4.700314e-001 6.228220e-001 -6.254304e-001
      vertex 7.588818e-001 5.524710e-001 -3.447814e-001
      vertex 8.602056e-001 2.140093e-001 -4.628675e-001
    endloop
  endfacet
  facet normal 6.841408e-001 4.142450e-001 -6.002936e-001
    outer loop
      vertex 4.700314e-001 6.228220e-001 -6.254304e-001
      vertex 8.602056e-001 2.140093e-001 -4.628675e-001
      vertex 5.024455e-001 3.011437e-001 -8.104696e-001
    endloop
  endfacet
  facet normal 5.633373e-001 7.238575e-001 -3.983484e-001
    outer loop
      vertex 3.592565e-001 8.757568e-001 -3.224668e-001
      vertex 5.263272e-001 8.350658e-001 -1.601398e-001
      vertex 7.588818e-001 5.524710e-001 -3.447814e-001
    endloop
  endfacet
  facet normal 5.633373e-001 7.238575e-001 -3.983484e-001
    outer loop
      vertex 3.592565e-001 8.757568e-001 -3.224668e-001
      vertex 7.588818e-001 5.524710e-001 -3.447814e-001
      vertex 4.700314e-001 6.228220e-001 -6.254304e-001
    endloop
  endfacet
  facet normal 3.804503e-001 2.258269e-001 -8.968053e-001
    outer loop
      vertex 2.428363e-001 1.528051e-001 -9.579567e-001
      vertex 2.660483e-001 3.479612e-001 -8.989668e-001
      vertex 5.024455e-001 3.011437e-001 -8.104696e-001
    endloop
  endfacet
  facet normal 1.687728e-001 1.172457e-001 -9.786568e-001
    outer loop
      vertex 1.087801e-001 1.770705e-001 -9.781682e-001
      vertex 2.428363e-001 1.528051e-001 -9.579567e-001
      vertex 2.281222e-001 5.715338e-002 -9.719536e-001
    endloop
  endfacet
  facet normal 1.687728e-001 1.172457e-001 -9.786568e-001
    outer loop
      vertex 1.087801e-001 1.770705e-001 -9.781682e-001
      vertex 2.281222e-001 5.715338e-002 -9.719536e-001
      vertex 9.313852e-002 8.158665e-002 -9.923048e-001
    endloop
  endfacet
  facet normal 2.692030e-001 7.854485e-001 -5.573154e-001
    outer loop
      vertex 1.284838e-001 9.187540e-001 -3.733403e-001
      vertex 3.592565e-001 8.757568e-001 -3.224668e-001
      vertex 4.700314e-001 6.228220e-001 -6.254304e-001
    endloop
  endfacet
  facet normal 4.920037e-002 3.797026e-002 -9.980669e-001
    outer loop
      vertex 0.000000e+000 0.000000e+000 -1.000000e+000
      vertex 0.000000e+000 7.597763e-002 -9.971095e-001
      vertex 9.313852e-002 8.158665e-002 -9.923048e-001
    endloop
  endfacet
  facet normal -5.506955e-002 2.408162e-001 -9.690072e-001
    outer loop
      vertex 0.000000e+000 7.597763e-002 -9.971095e-001
      vertex 0.000000e+000 3.996332e-001 -9.166752e-001
      vertex 1.087801e-001 1.770705e-001 -9.781682e-001
    endloop
  endfacet
  facet normal 1.611429e-001 5.485112e-001 -8.204684e-001
    outer loop
      vertex 0.000000e+000 3.996332e-001 -9.166752e-001
      vertex 0.000000e+000 6.943182e-001 -7.196681e-001
      vertex 2.660483e-001 3.479612e-001 -8.989668e-001
    endloop
  endfacet
  facet normal 1.589589e-001 8.005673e-001 -5.777751e-001
    outer loop
      vertex 0.000000e+000 6.943182e-001 -7.196681e-001
      vertex 0.000000e+000 9.017615e-001 -4.322340e-001
      vertex 1.284838e-001 9.187540e-001 -3.733403e-001
    endloop
  endfacet
  facet normal -6.983827e-004 9.612110e-001 -2.758134e-001
    outer loop
      vertex 0.000000e+000 9.017615e-001 -4.322340e-001
      vertex 0.000000e+000 9.937454e-001 -1.116696e-001
      vertex 1.284838e-001 9.187540e-001 -3.733403e-001
    endloop
  endfacet
  facet normal 1.250105e-001 9.906028e-001 -5.548362e-002
    outer loop
      vertex 0.000000e+000 9.937454e-001 -1.116696e-001
      vertex -1.600969e-015 1.000000e+000 0.000000e+000
      vertex 2.484363e-001 9.686482e-001 0.000000e+000
    endloop
  endfacet
  facet normal 3.989167e-001 9.142795e-001 -7.041568e-002
    outer loop
      vertex 2.484363e-001 9.686482e-001 0.000000e+000
      vertex 5.411216e-001 8.409443e-001 0.000000e+000
      vertex 5.263272e-001 8.350658e-001 -1.601398e-001
    endloop
  endfacet
  facet normal 6.725986e-001 7.346233e-001 -8.910476e-002
    outer loop
      vertex 5.411216e-001 8.409443e-001 0.000000e+000
      vertex 7.900748e-001 6.130105e-001 0.000000e+000
      vertex 5.263272e-001 8.350658e-001 -1.601398e-001
    endloop
  endfacet
  facet normal 8.707774e-001 4.647812e-001 -1.603908e-001
    outer loop
      vertex 7.900748e-001 6.130105e-001 0.000000e+000
      vertex 9.490135e-001 3.152354e-001 0.000000e+000
      vertex 7.588818e-001 5.524710e-001 -3.447814e-001
    endloop
  endfacet
  facet normal 9.716384e-001 1.571538e-001 -1.766962e-001
    outer loop
      vertex 9.490135e-001 3.152354e-001 0.000000e+000
      vertex 1.000000e+000 0.000000e+000 5.852317e-016
      vertex 9.359757e-001 0.000000e+000 -3.520646e-001
    endloop
  endfacet
  facet normal 8.572727e-001 3.766289e-002 -5.134832e-001
    outer loop
      vertex 9.359757e-001 0.000000e+000 -3.520646e-001
      vertex 7.521010e-001 0.000000e+000 -6.590478e-001
      vertex 8.602056e-001 2.140093e-001 -4.628675e-001
    endloop
  endfacet
  facet normal 6.651762e-001 1.881059e-001 -7.226042e-001
    outer loop
      vertex 7.521010e-001 0.000000e+000 -6.590478e-001
      vertex 5.946554e-001 0.000000e+000 -8.039807e-001
      vertex 5.024455e-001 3.011437e-001 -8.104696e-001
    endloop
  endfacet
  facet normal 5.006016e-001 1.348582e-001 -8.551089e-001
    outer loop
      vertex 5.946554e-001 0.000000e+000 -8.039807e-001
      vertex 4.099776e-001 0.000000e+000 -9.120956e-001
      vertex 5.024455e-001 3.011437e-001 -8.104696e-001
    endloop
  endfacet
  facet normal 3.115461e-001 -3.886126e-003 -9.502231e-001
    outer loop
      vertex 4.099776e-001 0.000000e+000 -9.120956e-001
      vertex 2.096478e-001 0.000000e+000 -9.777770e-001
      vertex 2.281222e-001 5.715338e-002 -9.719536e-001
    endloop
  endfacet
  facet normal 1.053741e-001 -2.653327e-002 -9.940786e-001
    outer loop
      vertex 2.096478e-001 0.000000e+000 -9.777770e-001
      vertex 0.000000e+000 0.000000e+000 -1.000000e+000
      vertex 9.313852e-002 8.158665e-002 -9.923048e-001
    endloop
  endfacet
  facet normal 8.998881e-001 3.568626e-001 -2.507002e-001
    outer loop
      vertex 8.602056e-001 2.140093e-001 -4.628675e-001
      vertex 7.588818e-001 5.524710e-001 -3.447814e-001
      vertex 9.490135e-001 3.152354e-001 0.000000e+000
    endloop
  endfacet
  facet normal 7.052737e-001 2.513840e-001 -6.628688e-001
    outer loop
      vertex 5.024455e-001 3.011437e-001 -8.104696e-001
      vertex 8.602056e-001 2.140093e-001 -4.628675e-001
      vertex 7.521010e-001 0.000000e+000 -6.590478e-001
    endloop
  endfacet
  facet normal 3.891185e-001 4.884724e-001 -7.810131e-001
    outer loop
      vertex 4.700314e-001 6.228220e-001 -6.254304e-001
      vertex 5.024455e-001 3.011437e-001 -8.104696e-001
      vertex 2.660483e-001 3.479612e-001 -8.989668e-001
    endloop
  endfacet
  facet normal 3.616344e-001 9.215670e-001 -1.411907e-001
    outer loop
      vertex 5.263272e-001 8.350658e-001 -1.601398e-001
      vertex 3.592565e-001 8.757568e-001 -3.224668e-001
      vertex 2.484363e-001 9.686482e-001 0.000000e+000
    endloop
  endfacet
  facet normal 6.962011e-001 6.936561e-001 -1.847842e-001
    outer loop
      vertex 7.588818e-001 5.524710e-001 -3.447814e-001
      vertex 5.263272e-001 8.350658e-001 -1.601398e-001
      vertex 7.900748e-001 6.130105e-001 0.000000e+000
    endloop
  endfacet
  facet normal 1.902452e-001 2.632543e-001 -9.457822e-001
    outer loop
      vertex 2.660483e-001 3.479612e-001 -8.989668e-001
      vertex 2.428363e-001 1.528051e-001 -9.579567e-001
      vertex 1.087801e-001 1.770705e-001 -9.781682e-001
    endloop
  endfacet
  facet normal 4.077030e-001 1.771065e-001 -8.957743e-001
    outer loop
      vertex 2.428363e-001 1.528051e-001 -9.579567e-001
      vertex 5.024455e-001 3.011437e-001 -8.104696e-001
      vertex 4.099776e-001 0.000000e+000 -9.120956e-001
    endloop
  endfacet
  facet normal 3.356813e-001 8.563185e-002 -9.380753e-001
    outer loop
      vertex 2.281222e-001 5.715338e-002 -9.719536e-001
      vertex 2.428363e-001 1.528051e-001 -9.579567e-001
      vertex 4.099776e-001 0.000000e+000 -9.120956e-001
    endloop
  endfacet
  facet normal 1.576600e-001 4.952728e-002 -9.862507e-001
    outer loop
      vertex 9.313852e-002 8.158665e-002 -9.923048e-001
      vertex 2.281222e-001 5.715338e-002 -9.719536e-001
      vertex 2.096478e-001 0.000000e+000 -9.777770e-001
    endloop
  endfacet
  facet normal 4.263493e-002 1.394854e-001 -9.893059e-001
    outer loop
      vertex 1.087801e-001 1.770705e-001 -9.781682e-001
      vertex 9.313852e-002 8.158665e-002 -9.923048e-001
      vertex 0.000000e+000 7.597763e-002 -9.971095e-001
    endloop
  endfacet
  facet normal 2.216933e-001 9.546345e-001 -1.988090e-001
    outer loop
      vertex 3.592565e-001 8.757568e-001 -3.224668e-001
      vertex 1.284838e-001 9.187540e-001 -3.733403e-001
      vertex 2.484363e-001 9.686482e-001 0.000000e+000
    endloop
  endfacet
  facet normal 2.356372e-001 7.733387e-001 -5.885766e-001
    outer loop
      vertex 1.284838e-001 9.187540e-001 -3.733403e-001
      vertex 4.700314e-001 6.228220e-001 -6.254304e-001
      vertex 0.000000e+000 6.943182e-001 -7.196681e-001
    endloop
  endfacet
  facet normal 1.247334e-001 3.204142e-001 -9.390295e-001
    outer loop
      vertex 1.087801e-001 1.770705e-001 -9.781682e-001
      vertex 0.000000e+000 3.996332e-001 -9.166752e-001
      vertex 2.660483e-001 3.479612e-001 -8.989668e-001
    endloop
  endfacet
  facet normal 2.440534e-001 5.870490e-001 -7.718882e-001
    outer loop
      vertex 2.660483e-001 3.479612e-001 -8.989668e-001
      vertex 0.000000e+000 6.943182e-001 -7.196681e-001
      vertex 4.700314e-001 6.228220e-001 -6.254304e-001
    endloop
  endfacet
  facet normal 1.817538e-001 9.653212e-001 -1.874048e-001
    outer loop
      vertex 1.284838e-001 9.187540e-001 -3.733403e-001
      vertex 0.000000e+000 9.937454e-001 -1.116696e-001
      vertex 2.484363e-001 9.686482e-001 0.000000e+000
    endloop
  endfacet
  facet normal 9.487867e-001 2.170877e-001 -2.295142e-001
    outer loop
      vertex 9.490135e-001 3.152354e-001 0.000000e+000
      vertex 9.359757e-001 0.000000e+000 -3.520646e-001
      vertex 8.602056e-001 2.140093e-001 -4.628675e-001
    endloop
  endfacet
  facet normal 4.964651e-016 -1.000000e+000 1.319869e-015
    outer loop
      vertex 1.000000e+000 4.964651e-016 6.390622e-016
      vertex 5.000000e-001 2.482326e-016 3.195311e-016
      vertex 9.359757e-001 0.000000e+000 -3.520646e-001
    endloop
  endfacet
  facet normal -3.837543e-016 -1.000000e+000 2.298585e-016
    outer loop
      vertex 9.359757e-001 0.000000e+000 -3.520646e-001
      vertex 5.000000e-001 2.482326e-016 3.195311e-016
      vertex 7.521010e-001 0.000000e+000 -6.590478e-001
    endloop
  endfacet
  facet normal 1.243802e-017 -1.000000e+000 -1.351185e-017
    outer loop
      vertex 7.521010e-001 0.000000e+000 -6.590478e-001
      vertex 5.490390e-018 -1.150368e-017 -5.000000e-001
      vertex 5.946554e-001 0.000000e+000 -8.039807e-001
    endloop
  endfacet
  facet normal 1.032735e-017 -1.000000e+000 -1.764079e-017
    outer loop
      vertex 5.946554e-001 0.000000e+000 -8.039807e-001
      vertex 5.490390e-018 -1.150368e-017 -5.000000e-001
      vertex 4.099776e-001 0.000000e+000 -9.120956e-001
    endloop
  endfacet
  facet normal 6.901325e-018 -1.000000e+000 -2.104921e-017
    outer loop
      vertex 4.099776e-001 0.000000e+000 -9.120956e-001
      vertex 5.490390e-018 -1.150368e-017 -5.000000e-001
      vertex 2.096478e-001 0.000000e+000 -9.777770e-001
    endloop
  endfacet
  facet normal 1.073040e-016 -1.000000e+000 2.300735e-017
    outer loop
      vertex 2.096478e-001 0.000000e+000 -9.777770e-001
      vertex 5.490390e-018 -1.150368e-017 -5.000000e-001
      vertex 1.098078e-017 -2.300735e-017 -1.000000e+000
    endloop
  endfacet
  facet normal 4.964651e-016 -1.000000e+000 2.300735e-017
    outer loop
      vertex 5.490390e-018 -1.150368e-017 -5.000000e-001
      vertex 5.000000e-001 2.482326e-016 3.195311e-016
      vertex 0.000000e+000 0.000000e+000 0.000000e+000
    endloop
  endfacet
  facet normal 1.033033e-016 -1.000000e+000 4.161692e-016
    outer loop
      vertex 5.000000e-001 2.482326e-016 3.195311e-016
      vertex 5.490390e-018 -1.150368e-017 -5.000000e-001
      vertex 7.521010e-001 0.000000e+000 -6.590478e-001
    endloop
  endfacet
  facet normal -6.390622e-016 1.923891e-015 1.000000e+000
    outer loop
      vertex 1.000000e+000 4.964651e-016 6.390622e-016
      vertex 9.490135e-001 3.152354e-001 0.000000e+000
      vertex 5.000000e-001 2.482326e-016 3.195311e-016
    endloop
  endfacet
  facet normal 5.176506e-016 2.762982e-016 1.000000e+000
    outer loop
      vertex 9.490135e-001 3.152354e-001 0.000000e+000
      vertex 7.900748e-001 6.130105e-001 0.000000e+000
      vertex 5.000000e-001 2.482326e-016 3.195311e-016
    endloop
  endfacet
  facet normal -1.817161e-016 -1.984733e-016 1.000000e+000
    outer loop
      vertex 7.900748e-001 6.130105e-001 0.000000e+000
      vertex 5.411216e-001 8.409443e-001 0.000000e+000
      vertex -8.183913e-016 5.000000e-001 -1.659989e-016
    endloop
  endfacet
  facet normal -1.255158e-016 -2.876704e-016 1.000000e+000
    outer loop
      vertex 5.411216e-001 8.409443e-001 0.000000e+000
      vertex 2.484363e-001 9.686482e-001 0.000000e+000
      vertex -8.183913e-016 5.000000e-001 -1.659989e-016
    endloop
  endfacet
  facet normal -1.294452e-015 3.319978e-016 1.000000e+000
    outer loop
      vertex 2.484363e-001 9.686482e-001 0.000000e+000
      vertex -1.636783e-015 1.000000e+000 -3.319978e-016
      vertex -8.183913e-016 5.000000e-001 -1.659989e-016
    endloop
  endfacet
  facet normal -6.390622e-016 3.319978e-016 1.000000e+000
    outer loop
      vertex 0.000000e+000 0.000000e+000 0.000000e+000
      vertex 5.000000e-001 2.482326e-016 3.195311e-016
      vertex -8.183913e-016 5.000000e-001 -1.659989e-016
    endloop
  endfacet
  facet normal -3.053298e-016 6.657302e-016 1.000000e+000
    outer loop
      vertex 5.000000e-001 2.482326e-016 3.195311e-016
      vertex 7.900748e-001 6.130105e-001 0.000000e+000
      vertex -8.183913e-016 5.000000e-001 -1.659989e-016
    endloop
  endfacet
  facet normal -1.000000e+000 0.000000e+000 0.000000e+000
    outer loop
      vertex 0.000000e+000 7.500000e-001 -2.500000e-001
      vertex 0.000000e+000 7.500000e-001 -5.000000e-001
      vertex 0.000000e+000 5.000000e-001 -5.000000e-001
    endloop
  endfacet
  facet normal -1.000000e+000 0.000000e+000 0.000000e+000
    outer loop
      vertex 0.000000e+000 7.500000e-001 -2.500000e-001
      vertex 0.000000e+000 5.000000e-001 -5.000000e-001
      vertex 0.000000e+000 5.000000e-001 -2.500000e-001
    endloop
  endfacet
  facet normal -1.000000e+000 0.000000e+000 0.000000e+000
    outer loop
      vertex 0.000000e+000 5.000000e-001 -5.000000e-001
      vertex 0.000000e+000 5.000000e-001 -7.500000e-001
      vertex 0.000000e+000 2.500000e-001 -7.500000e-001
    endloop
  endfacet
  facet normal -1.000000e+000 0.000000e+000 0.000000e+000
    outer loop
      vertex 0.000000e+000 5.000000e-001 -5.000000e-001
      vertex 0.000000e+000 2.500000e-001 -7.500000e-001
      vertex 0.000000e+000 2.500000e-001 -5.000000e-001
    endloop
  endfacet
  facet normal -1.000000e+000 0.000000e+000 0.000000e+000
    outer loop
      vertex 0.000000e+000 2.500000e-001 -7.500000e-001
      vertex 0.000000e+000 2.500000e-001 -8.750000e-001
      vertex 0.000000e+000 1.250000e-001 -8.750000e-001
    endloop
  endfacet
  facet normal -1.000000e+000 0.000000e+000 0.000000e+000
    outer loop
      vertex 0.000000e+000 2.500000e-001 -7.500000e-001
      vertex 0.000000e+000 1.250000e-001 -8.750000e-001
      vertex 0.000000e+000 1.250000e-001 -7.500000e-001
    endloop
  endfacet
  facet normal -1.000000e+000 -1.467681e-016 5.892186e-017
    outer loop
      vertex 1.098078e-017 -2.300735e-017 -1.000000e+000
      vertex 0.000000e+000 1.250000e-001 -8.750000e-001
      vertex 0.000000e+000 7.597763e-002 -9.971095e-001
    endloop
  endfacet
  facet normal -1.000000e+000 0.000000e+000 0.000000e+000
    outer loop
      vertex 0.000000e+000 7.597763e-002 -9.971095e-001
      vertex 0.000000e+000 2.500000e-001 -8.750000e-001
      vertex 0.000000e+000 3.996332e-001 -9.166752e-001
    endloop
  endfacet
  facet normal -1.000000e+000 0.000000e+000 0.000000e+000
    outer loop
      vertex 0.000000e+000 3.996332e-001 -9.166752e-001
      vertex 0.000000e+000 5.000000e-001 -7.500000e-001
      vertex 0.000000e+000 6.943182e-001 -7.196681e-001
    endloop
  endfacet
  facet normal -1.000000e+000 0.000000e+000 0.000000e+000
    outer loop
      vertex 0.000000e+000 6.943182e-001 -7.196681e-001
      vertex 0.000000e+000 7.500000e-001 -5.000000e-001
      vertex 0.000000e+000 9.017615e-001 -4.322340e-001
    endloop
  endfacet
  facet normal -1.000000e+000 0.000000e+000 0.000000e+000
    outer loop
      vertex 0.000000e+000 9.017615e-001 -4.322340e-001
      vertex 0.000000e+000 7.500000e-001 -2.500000e-001
      vertex 0.000000e+000 9.937454e-001 -1.116696e-001
    endloop
  endfacet
  facet normal -1.000000e+000 8.591447e-015 -1.513858e-014
    outer loop
      vertex 0.000000e+000 9.937454e-001 -1.116696e-001
      vertex 0.000000e+000 7.500000e-001 -2.500000e-001
      vertex -1.636783e-015 1.000000e+000 -3.319978e-016
    endloop
  endfacet
  facet normal -1.000000e+000 -2.196156e-017 -1.098078e-017
    outer loop
      vertex 0.000000e+000 0.000000e+000 0.000000e+000
      vertex 0.000000e+000 2.500000e-001 -5.000000e-001
      vertex 5.490390e-018 -1.150368e-017 -5.000000e-001
    endloop
  endfacet
  facet normal -1.000000e+000 -6.588468e-017 -1.098078e-017
    outer loop
      vertex 5.490390e-018 -1.150368e-017 -5.000000e-001
      vertex 0.000000e+000 1.250000e-001 -7.500000e-001
      vertex 1.098078e-017 -2.300735e-017 -1.000000e+000
    endloop
  endfacet
  facet normal -1.000000e+000 -1.636783e-015 -4.910348e-015
    outer loop
      vertex -1.636783e-015 1.000000e+000 -3.319978e-016
      vertex 0.000000e+000 7.500000e-001 -2.500000e-001
      vertex -8.183913e-016 5.000000e-001 -1.659989e-016
    endloop
  endfacet
  facet normal -1.000000e+000 -1.636783e-015 -3.273565e-015
    outer loop
      vertex -8.183913e-016 5.000000e-001 -1.659989e-016
      vertex 0.000000e+000 5.000000e-001 -2.500000e-001
      vertex 0.000000e+000 0.000000e+000 0.000000e+000
    endloop
  endfacet
  facet normal -1.000000e+000 0.000000e+000 -3.273565e-015
    outer loop
      vertex 0.000000e+000 5.000000e-001 -2.500000e-001
      vertex -8.183913e-016 5.000000e-001 -1.659989e-016
      vertex 0.000000e+000 7.500000e-001 -2.500000e-001
    endloop
  endfacet
  facet normal -1.000000e+000 0.000000e+000 0.000000e+000
    outer loop
      vertex 0.000000e+000 5.000000e-001 -5.000000e-001
      vertex 0.000000e+000 2.500000e-001 -5.000000e-001
      vertex 0.000000e+000 5.000000e-001 -2.500000e-001
    endloop
  endfacet
  facet normal -1.000000e+000 0.000000e+000 0.000000e+000
    outer loop
      vertex 0.000000e+000 7.500000e-001 -5.000000e-001
      vertex 0.000000e+000 6.943182e-001 -7.196681e-001
      vertex 0.000000e+000 5.000000e-001 -5.000000e-001
    endloop
  endfacet
  facet normal -1.000000e+000 0.000000e+000 0.000000e+000
    outer loop
      vertex 0.000000e+000 7.500000e-001 -2.500000e-001
      vertex 0.000000e+000 9.017615e-001 -4.322340e-001
      vertex 0.000000e+000 7.500000e-001 -5.000000e-001
    endloop
  endfacet
  facet normal -1.000000e+000 0.000000e+000 0.000000e+000
    outer loop
      vertex 0.000000e+000 2.500000e-001 -7.500000e-001
      vertex 0.000000e+000 1.250000e-001 -7.500000e-001
      vertex 0.000000e+000 2.500000e-001 -5.000000e-001
    endloop
  endfacet
  facet normal -1.000000e+000 0.000000e+000 0.000000e+000
    outer loop
      vertex 0.000000e+000 5.000000e-001 -7.500000e-001
      vertex 0.000000e+000 3.996332e-001 -9.166752e-001
      vertex 0.000000e+000 2.500000e-001 -7.500000e-001
    endloop
  endfacet
  facet normal -1.000000e+000 0.000000e+000 0.000000e+000
    outer loop
      vertex 0.000000e+000 5.000000e-001 -5.000000e-001
      vertex 0.000000e+000 6.943182e-001 -7.196681e-001
      vertex 0.000000e+000 5.000000e-001 -7.500000e-001
    endloop
  endfacet
  facet normal -1.000000e+000 -8.784625e-017 1.848893e-032
    outer loop
      vertex 0.000000e+000 1.250000e-001 -8.750000e-001
      vertex 1.098078e-017 -2.300735e-017 -1.000000e+000
      vertex 0.000000e+000 1.250000e-001 -7.500000e-001
    endloop
  endfacet
  facet normal -1.000000e+000 0.000000e+000 0.000000e+000
    outer loop
      vertex 0.000000e+000 2.500000e-001 -8.750000e-001
      vertex 0.000000e+000 7.597763e-002 -9.971095e-001
      vertex 0.000000e+000 1.250000e-001 -8.750000e-001
    endloop
  endfacet
  facet normal -1.000000e+000 0.000000e+000 0.000000e+000
    outer loop
      vertex 0.000000e+000 2.500000e-001 -7.500000e-001
      vertex 0.000000e+000 3.996332e-001 -9.166752e-001
      vertex 0.000000e+000 2.500000e-001 -8.750000e-001
    endloop
  endfacet
  facet normal -1.000000e+000 0.000000e+000 0.000000e+000
    outer loop
      vertex 0.000000e+000 0.000000e+000 0.000000e+000
      vertex 0.000000e+000 5.000000e-001 -2.500000e-001
      vertex 0.000000e+000 2.500000e-001 -5.000000e-001
    endloop
  endfacet
  facet normal -1.000000e+000 -2.196156e-017 1.098078e-017
    outer loop
      vertex 0.000000e+000 2.500000e-001 -5.000000e-001
      vertex 0.000000e+000 1.250000e-001 -7.500000e-001
      vertex 5.490390e-018 -1.150368e-017 -5.000000e-001
    endloop
  endfacet
  facet normal 2.587619e-001 -8.077289e-001 5.297324e-001
    outer loop
      vertex 4.668452e-001 -6.995996e-001 5.409400e-001
      vertex 2.099626e-001 -6.691516e-001 7.128477e-001
      vertex 6.215087e-002 -8.970178e-001 4.376029e-001
    endloop
  endfacet
  facet normal 2.587619e-001 -8.077289e-001 5.297324e-001
    outer loop
      vertex 4.668452e-001 -6.995996e-001 5.409400e-001
      vertex 6.215087e-002 -8.970178e-001 4.376029e-001
      vertex 2.323062e-001 -9.171861e-001 3.237337e-001
    endloop
  endfacet
  facet normal 4.306868e-001 -5.222149e-001 7.360710e-001
    outer loop
      vertex 6.364274e-001 -3.626489e-001 6.807686e-001
      vertex 3.301983e-001 -3.263520e-001 8.856994e-001
      vertex 2.099626e-001 -6.691516e-001 7.128477e-001
    endloop
  endfacet
  facet normal 4.306868e-001 -5.222149e-001 7.360710e-001
    outer loop
      vertex 6.364274e-001 -3.626489e-001 6.807686e-001
      vertex 2.099626e-001 -6.691516e-001 7.128477e-001
      vertex 4.668452e-001 -6.995996e-001 5.409400e-001
    endloop
  endfacet
  facet normal 4.539780e-001 -8.250955e-001 3.363353e-001
    outer loop
      vertex 6.525066e-001 -7.100283e-001 2.647545e-001
      vertex 4.668452e-001 -6.995996e-001 5.409400e-001
      vertex 2.323062e-001 -9.171861e-001 3.237337e-001
    endloop
  endfacet
  facet normal 4.539780e-001 -8.250955e-001 3.363353e-001
    outer loop
      vertex 6.525066e-001 -7.100283e-001 2.647545e-001
      vertex 2.323062e-001 -9.171861e-001 3.237337e-001
      vertex 3.552857e-001 -9.240939e-001 1.407924e-001
    endloop
  endfacet
  facet normal 6.860430e-001 -5.452009e-001 4.817686e-001
    outer loop
      vertex 8.577540e-001 -3.750810e-001 3.515286e-001
      vertex 6.364274e-001 -3.626489e-001 6.807686e-001
      vertex 4.668452e-001 -6.995996e-001 5.409400e-001
    endloop
  endfacet
  facet normal 6.860430e-001 -5.452009e-001 4.817686e-001
    outer loop
      vertex 8.577540e-001 -3.750810e-001 3.515286e-001
      vertex 4.668452e-001 -6.995996e-001 5.409400e-001
      vertex 6.525066e-001 -7.100283e-001 2.647545e-001
    endloop
  endfacet
  facet normal 9.911662e-001 -8.341662e-002 1.031077e-001
    outer loop
      vertex 1.000000e+000 9.929302e-016 0.000000e+000
      vertex 9.785886e-001 0.000000e+000 2.058259e-001
      vertex 9.859338e-001 -1.671363e-001 0.000000e+000
    endloop
  endfacet
  facet normal 9.351563e-001 -1.835825e-001 3.029524e-001
    outer loop
      vertex 9.785886e-001 0.000000e+000 2.058259e-001
      vertex 9.133853e-001 0.000000e+000 4.070962e-001
      vertex 8.577540e-001 -3.750810e-001 3.515286e-001
    endloop
  endfacet
  facet normal 8.479661e-001 -1.985759e-001 4.914480e-001
    outer loop
      vertex 9.133853e-001 0.000000e+000 4.070962e-001
      vertex 8.072977e-001 0.000000e+000 5.901444e-001
      vertex 8.577540e-001 -3.750810e-001 3.515286e-001
    endloop
  endfacet
  facet normal 7.299121e-001 -1.790665e-001 6.596693e-001
    outer loop
      vertex 8.072977e-001 0.000000e+000 5.901444e-001
      vertex 6.685453e-001 0.000000e+000 7.436714e-001
      vertex 6.364274e-001 -3.626489e-001 6.807686e-001
    endloop
  endfacet
  facet normal 5.876620e-001 -1.885258e-001 7.868363e-001
    outer loop
      vertex 6.685453e-001 0.000000e+000 7.436714e-001
      vertex 5.233136e-001 0.000000e+000 8.521402e-001
      vertex 6.364274e-001 -3.626489e-001 6.807686e-001
    endloop
  endfacet
  facet normal 4.363064e-001 -1.672648e-001 8.841149e-001
    outer loop
      vertex 5.233136e-001 0.000000e+000 8.521402e-001
      vertex 3.580004e-001 0.000000e+000 9.337214e-001
      vertex 3.301983e-001 -3.263520e-001 8.856994e-001
    endloop
  endfacet
  facet normal 2.668171e-001 -1.625129e-001 9.499464e-001
    outer loop
      vertex 3.580004e-001 0.000000e+000 9.337214e-001
      vertex 1.805210e-001 0.000000e+000 9.835711e-001
      vertex 3.301983e-001 -3.263520e-001 8.856994e-001
    endloop
  endfacet
  facet normal 8.998809e-002 -1.191294e-001 9.887924e-001
    outer loop
      vertex 1.805210e-001 0.000000e+000 9.835711e-001
      vertex 0.000000e+000 3.518271e-016 1.000000e+000
      vertex 0.000000e+000 -2.375119e-001 9.713846e-001
    endloop
  endfacet
  facet normal 1.578423e-001 -3.157366e-001 9.356261e-001
    outer loop
      vertex 0.000000e+000 -2.375119e-001 9.713846e-001
      vertex 0.000000e+000 -3.996332e-001 9.166752e-001
      vertex 3.301983e-001 -3.263520e-001 8.856994e-001
    endloop
  endfacet
  facet normal 1.853790e-001 -4.706782e-001 8.626104e-001
    outer loop
      vertex 0.000000e+000 -3.996332e-001 9.166752e-001
      vertex 0.000000e+000 -5.545890e-001 8.321244e-001
      vertex 3.301983e-001 -3.263520e-001 8.856994e-001
    endloop
  endfacet
  facet normal 9.995445e-002 -6.238401e-001 7.751340e-001
    outer loop
      vertex 0.000000e+000 -5.545890e-001 8.321244e-001
      vertex 0.000000e+000 -6.943182e-001 7.196681e-001
      vertex 2.099626e-001 -6.691516e-001 7.128477e-001
    endloop
  endfacet
  facet normal 1.111903e-001 -7.513728e-001 6.504426e-001
    outer loop
      vertex 0.000000e+000 -6.943182e-001 7.196681e-001
      vertex 0.000000e+000 -8.117108e-001 5.840596e-001
      vertex 2.099626e-001 -6.691516e-001 7.128477e-001
    endloop
  endfacet
  facet normal 2.157322e-002 -8.598926e-001 5.100189e-001
    outer loop
      vertex 0.000000e+000 -8.117108e-001 5.840596e-001
      vertex 0.000000e+000 -9.017615e-001 4.322340e-001
      vertex 6.215087e-002 -8.970178e-001 4.376029e-001
    endloop
  endfacet
  facet normal 4.082566e-002 -9.346539e-001 3.532073e-001
    outer loop
      vertex 0.000000e+000 -9.017615e-001 4.322340e-001
      vertex 0.000000e+000 -9.622469e-001 2.721779e-001
      vertex 6.215087e-002 -8.970178e-001 4.376029e-001
    endloop
  endfacet
  facet normal 1.595698e-001 -9.778249e-001 1.356314e-001
    outer loop
      vertex 0.000000e+000 -9.622469e-001 2.721779e-001
      vertex -7.777074e-016 -1.000000e+000 0.000000e+000
      vertex 2.323062e-001 -9.171861e-001 3.237337e-001
    endloop
  endfacet
  facet normal 7.869996e-002 -9.468548e-001 3.118851e-001
    outer loop
      vertex -7.777074e-016 -1.000000e+000 0.000000e+000
      vertex 1.650939e-001 -9.862778e-001 0.000000e+000
      vertex 3.552857e-001 -9.240939e-001 1.407924e-001
    endloop
  endfacet
  facet normal 2.490384e-001 -9.643487e-001 8.950727e-002
    outer loop
      vertex 1.650939e-001 -9.862778e-001 0.000000e+000
      vertex 3.331043e-001 -9.428900e-001 0.000000e+000
      vertex 3.552857e-001 -9.240939e-001 1.407924e-001
    endloop
  endfacet
  facet normal 4.155951e-001 -9.078412e-001 5.572295e-002
    outer loop
      vertex 3.331043e-001 -9.428900e-001 0.000000e+000
      vertex 4.960314e-001 -8.683046e-001 0.000000e+000
      vertex 3.552857e-001 -9.240939e-001 1.407924e-001
    endloop
  endfacet
  facet normal 5.666118e-001 -8.103021e-001 1.495382e-001
    outer loop
      vertex 4.960314e-001 -8.683046e-001 0.000000e+000
      vertex 6.453153e-001 -7.639163e-001 0.000000e+000
      vertex 6.525066e-001 -7.100283e-001 2.647545e-001
    endloop
  endfacet
  facet normal 7.068380e-001 -6.966700e-001 1.226007e-001
    outer loop
      vertex 6.453153e-001 -7.639163e-001 0.000000e+000
      vertex 7.731860e-001 -6.341794e-001 0.000000e+000
      vertex 6.525066e-001 -7.100283e-001 2.647545e-001
    endloop
  endfacet
  facet normal 8.082877e-001 -5.497017e-001 2.109477e-001
    outer loop
      vertex 7.731860e-001 -6.341794e-001 0.000000e+000
      vertex 8.739533e-001 -4.860099e-001 0.000000e+000
      vertex 6.525066e-001 -7.100283e-001 2.647545e-001
    endloop
  endfacet
  facet normal 8.997754e-001 -4.025146e-001 1.684820e-001
    outer loop
      vertex 8.739533e-001 -4.860099e-001 0.000000e+000
      vertex 9.448115e-001 -3.276145e-001 0.000000e+000
      vertex 8.577540e-001 -3.750810e-001 3.515286e-001
    endloop
  endfacet
  facet normal 9.487072e-001 -2.431050e-001 2.021250e-001
    outer loop
      vertex 9.448115e-001 -3.276145e-001 0.000000e+000
      vertex 9.859338e-001 -1.671363e-001 0.000000e+000
      vertex 8.577540e-001 -3.750810e-001 3.515286e-001
    endloop
  endfacet
  facet normal 2.055311e-001 -8.052095e-001 5.562326e-001
    outer loop
      vertex 6.215087e-002 -8.970178e-001 4.376029e-001
      vertex 2.099626e-001 -6.691516e-001 7.128477e-001
      vertex 0.000000e+000 -8.117108e-001 5.840596e-001
    endloop
  endfacet
  facet normal 1.089500e-001 -9.380419e-001 3.289486e-001
    outer loop
      vertex 2.323062e-001 -9.171861e-001 3.237337e-001
      vertex 6.215087e-002 -8.970178e-001 4.376029e-001
      vertex 0.000000e+000 -9.622469e-001 2.721779e-001
    endloop
  endfacet
  facet normal 5.233089e-001 -2.251493e-001 8.218610e-001
    outer loop
      vertex 3.301983e-001 -3.263520e-001 8.856994e-001
      vertex 6.364274e-001 -3.626489e-001 6.807686e-001
      vertex 5.233136e-001 0.000000e+000 8.521402e-001
    endloop
  endfacet
  facet normal 2.071471e-001 -4.974290e-001 8.424099e-001
    outer loop
      vertex 2.099626e-001 -6.691516e-001 7.128477e-001
      vertex 3.301983e-001 -3.263520e-001 8.856994e-001
      vertex 0.000000e+000 -5.545890e-001 8.321244e-001
    endloop
  endfacet
  facet normal 1.534655e-001 -9.781719e-001 1.401005e-001
    outer loop
      vertex 3.552857e-001 -9.240939e-001 1.407924e-001
      vertex 2.323062e-001 -9.171861e-001 3.237337e-001
      vertex -7.777074e-016 -1.000000e+000 0.000000e+000
    endloop
  endfacet
  facet normal 5.202831e-001 -8.325408e-001 1.902142e-001
    outer loop
      vertex 6.525066e-001 -7.100283e-001 2.647545e-001
      vertex 3.552857e-001 -9.240939e-001 1.407924e-001
      vertex 4.960314e-001 -8.683046e-001 0.000000e+000
    endloop
  endfacet
  facet normal 8.012866e-001 -2.406668e-001 5.477402e-001
    outer loop
      vertex 6.364274e-001 -3.626489e-001 6.807686e-001
      vertex 8.577540e-001 -3.750810e-001 3.515286e-001
      vertex 8.072977e-001 0.000000e+000 5.901444e-001
    endloop
  endfacet
  facet normal 8.082270e-001 -5.498628e-001 2.107607e-001
    outer loop
      vertex 8.577540e-001 -3.750810e-001 3.515286e-001
      vertex 6.525066e-001 -7.100283e-001 2.647545e-001
      vertex 8.739533e-001 -4.860099e-001 0.000000e+000
    endloop
  endfacet
  facet normal 9.508718e-001 -2.228518e-001 2.148950e-001
    outer loop
      vertex 9.859338e-001 -1.671363e-001 0.000000e+000
      vertex 9.785886e-001 0.000000e+000 2.058259e-001
      vertex 8.577540e-001 -3.750810e-001 3.515286e-001
    endloop
  endfacet
  facet normal 1.959000e-001 -1.981706e-001 9.603914e-001
    outer loop
      vertex 3.301983e-001 -3.263520e-001 8.856994e-001
      vertex 1.805210e-001 0.000000e+000 9.835711e-001
      vertex 0.000000e+000 -2.375119e-001 9.713846e-001
    endloop
  endfacet
  facet normal 0.000000e+000 0.000000e+000 -1.000000e+000
    outer loop
      vertex 7.500000e-001 -2.500000e-001 0.000000e+000
      vertex 7.500000e-001 -5.000000e-001 0.000000e+000
      vertex 5.000000e-001 -5.000000e-001 0.000000e+000
    endloop
  endfacet
  facet normal 0.000000e+000 0.000000e+000 -1.000000e+000
    outer loop
      vertex 7.500000e-001 -2.500000e-001 0.000000e+000
      vertex 5.000000e-001 -5.000000e-001 0.000000e+000
      vertex 5.000000e-001 -2.500000e-001 0.000000e+000
    endloop
  endfacet
  facet normal 0.000000e+000 0.000000e+000 -1.000000e+000
    outer loop
      vertex 5.000000e-001 -5.000000e-001 0.000000e+000
      vertex 5.000000e-001 -7.500000e-001 0.000000e+000
      vertex 2.500000e-001 -7.500000e-001 0.000000e+000
    endloop
  endfacet
  facet normal 0.000000e+000 0.000000e+000 -1.000000e+000
    outer loop
      vertex 5.000000e-001 -5.000000e-001 0.000000e+000
      vertex 2.500000e-001 -7.500000e-001 0.000000e+000
      vertex 2.500000e-001 -5.000000e-001 0.000000e+000
    endloop
  endfacet
  facet normal 8.002874e-016 -2.875820e-016 -1.000000e+000
    outer loop
      vertex -7.334590e-016 -1.000000e+000 -1.281764e-016
      vertex 2.500000e-001 -7.500000e-001 0.000000e+000
      vertex 1.650939e-001 -9.862778e-001 0.000000e+000
    endloop
  endfacet
  facet normal 0.000000e+000 0.000000e+000 -1.000000e+000
    outer loop
      vertex 1.650939e-001 -9.862778e-001 0.000000e+000
      vertex 2.500000e-001 -7.500000e-001 0.000000e+000
      vertex 3.331043e-001 -9.428900e-001 0.000000e+000
    endloop
  endfacet
  facet normal 0.000000e+000 0.000000e+000 -1.000000e+000
    outer loop
      vertex 3.331043e-001 -9.428900e-001 0.000000e+000
      vertex 2.500000e-001 -7.500000e-001 0.000000e+000
      vertex 4.960314e-001 -8.683046e-001 0.000000e+000
    endloop
  endfacet
  facet normal 0.000000e+000 0.000000e+000 -1.000000e+000
    outer loop
      vertex 4.960314e-001 -8.683046e-001 0.000000e+000
      vertex 5.000000e-001 -7.500000e-001 0.000000e+000
      vertex 6.453153e-001 -7.639163e-001 0.000000e+000
    endloop
  endfacet
  facet normal 0.000000e+000 0.000000e+000 -1.000000e+000
    outer loop
      vertex 6.453153e-001 -7.639163e-001 0.000000e+000
      vertex 5.000000e-001 -5.000000e-001 0.000000e+000
      vertex 7.731860e-001 -6.341794e-001 0.000000e+000
    endloop
  endfacet
  facet normal 0.000000e+000 0.000000e+000 -1.000000e+000
    outer loop
      vertex 7.731860e-001 -6.341794e-001 0.000000e+000
      vertex 7.500000e-001 -5.000000e-001 0.000000e+000
      vertex 8.739533e-001 -4.860099e-001 0.000000e+000
    endloop
  endfacet
  facet normal 0.000000e+000 0.000000e+000 -1.000000e+000
    outer loop
      vertex 8.739533e-001 -4.860099e-001 0.000000e+000
      vertex 7.500000e-001 -2.500000e-001 0.000000e+000
      vertex 9.448115e-001 -3.276145e-001 0.000000e+000
    endloop
  endfacet
  facet normal 0.000000e+000 0.000000e+000 -1.000000e+000
    outer loop
      vertex 9.448115e-001 -3.276145e-001 0.000000e+000
      vertex 7.500000e-001 -2.500000e-001 0.000000e+000
      vertex 9.859338e-001 -1.671363e-001 0.000000e+000
    endloop
  endfacet
  facet normal -1.383811e-015 3.940060e-015 -1.000000e+000
    outer loop
      vertex 9.859338e-001 -1.671363e-001 0.000000e+000
      vertex 7.500000e-001 -2.500000e-001 0.000000e+000
      vertex 1.000000e+000 4.964651e-016 6.390622e-016
    endloop
  endfacet
  facet normal 6.390622e-016 1.917186e-015 -1.000000e+000
    outer loop
      vertex 1.000000e+000 4.964651e-016 6.390622e-016
      vertex 7.500000e-001 -2.500000e-001 0.000000e+000
      vertex 5.000000e-001 2.482326e-016 3.195311e-016
    endloop
  endfacet
  facet normal 6.390622e-016 1.278124e-015 -1.000000e+000
    outer loop
      vertex 5.000000e-001 2.482326e-016 3.195311e-016
      vertex 5.000000e-001 -2.500000e-001 0.000000e+000
      vertex 0.000000e+000 0.000000e+000 0.000000e+000
    endloop
  endfacet
  facet normal 2.563527e-016 1.281764e-016 -1.000000e+000
    outer loop
      vertex 0.000000e+000 0.000000e+000 0.000000e+000
      vertex 2.500000e-001 -5.000000e-001 0.000000e+000
      vertex -3.667295e-016 -5.000000e-001 -6.408818e-017
    endloop
  endfacet
  facet normal 3.845291e-016 1.281764e-016 -1.000000e+000
    outer loop
      vertex -3.667295e-016 -5.000000e-001 -6.408818e-017
      vertex 2.500000e-001 -7.500000e-001 0.000000e+000
      vertex -7.334590e-016 -1.000000e+000 -1.281764e-016
    endloop
  endfacet
  facet normal 0.000000e+000 1.278124e-015 -1.000000e+000
    outer loop
      vertex 5.000000e-001 -2.500000e-001 0.000000e+000
      vertex 5.000000e-001 2.482326e-016 3.195311e-016
      vertex 7.500000e-001 -2.500000e-001 0.000000e+000
    endloop
  endfacet
  facet normal 0.000000e+000 0.000000e+000 -1.000000e+000
    outer loop
      vertex 5.000000e-001 -5.000000e-001 0.000000e+000
      vertex 2.500000e-001 -5.000000e-001 0.000000e+000
      vertex 5.000000e-001 -2.500000e-001 0.000000e+000
    endloop
  endfacet
  facet normal 0.000000e+000 0.000000e+000 -1.000000e+000
    outer loop
      vertex 7.500000e-001 -5.000000e-001 0.000000e+000
      vertex 7.731860e-001 -6.341794e-001 0.000000e+000
      vertex 5.000000e-001 -5.000000e-001 0.000000e+000
    endloop
  endfacet
  facet normal 0.000000e+000 0.000000e+000 -1.000000e+000
    outer loop
      vertex 7.500000e-001 -2.500000e-001 0.000000e+000
      vertex 8.739533e-001 -4.860099e-001 0.000000e+000
      vertex 7.500000e-001 -5.000000e-001 0.000000e+000
    endloop
  endfacet
  facet normal 2.563527e-016 0.000000e+000 -1.000000e+000
    outer loop
      vertex 2.500000e-001 -7.500000e-001 0.000000e+000
      vertex -3.667295e-016 -5.000000e-001 -6.408818e-017
      vertex 2.500000e-001 -5.000000e-001 0.000000e+000
    endloop
  endfacet
  facet normal 0.000000e+000 0.000000e+000 -1.000000e+000
    outer loop
      vertex 5.000000e-001 -7.500000e-001 0.000000e+000
      vertex 4.960314e-001 -8.683046e-001 0.000000e+000
      vertex 2.500000e-001 -7.500000e-001 0.000000e+000
    endloop
  endfacet
  facet normal 0.000000e+000 0.000000e+000 -1.000000e+000
    outer loop
      vertex 5.000000e-001 -5.000000e-001 0.000000e+000
      vertex 6.453153e-001 -7.639163e-001 0.000000e+000
      vertex 5.000000e-001 -7.500000e-001 0.000000e+000
    endloop
  endfacet
  facet normal 0.000000e+000 0.000000e+000 -1.000000e+000
    outer loop
      vertex 5.000000e-001 -2.500000e-001 0.000000e+000
      vertex 2.500000e-001 -5.000000e-001 0.000000e+000
      vertex 0.000000e+000 0.000000e+000 0.000000e+000
    endloop
  endfacet
  facet normal -1.000000e+000 -1.753613e-016 -4.287733e-017
    outer loop
      vertex -4.287733e-017 4.018039e-016 1.000000e+000
      vertex -2.143867e-017 2.009019e-016 5.000000e-001
      vertex 0.000000e+000 -2.375119e-001 9.713846e-001
    endloop
  endfacet
  facet normal -1.000000e+000 -1.311737e-017 3.887088e-017
    outer loop
      vertex 0.000000e+000 -2.375119e-001 9.713846e-001
      vertex -2.143867e-017 2.009019e-016 5.000000e-001
      vertex 0.000000e+000 -3.996332e-001 9.166752e-001
    endloop
  endfacet
  facet normal -1.000000e+000 -1.842962e-017 3.377590e-017
    outer loop
      vertex 0.000000e+000 -3.996332e-001 9.166752e-001
      vertex -2.143867e-017 2.009019e-016 5.000000e-001
      vertex 0.000000e+000 -5.545890e-001 8.321244e-001
    endloop
  endfacet
  facet normal -1.000000e+000 0.000000e+000 0.000000e+000
    outer loop
      vertex 0.000000e+000 -5.545890e-001 8.321244e-001
      vertex 0.000000e+000 -8.117108e-001 5.840596e-001
      vertex 0.000000e+000 -6.943182e-001 7.196681e-001
    endloop
  endfacet
  facet normal -1.000000e+000 -5.572314e-016 3.305047e-016
    outer loop
      vertex 0.000000e+000 -8.117108e-001 5.840596e-001
      vertex -3.667295e-016 -5.000000e-001 -6.408818e-017
      vertex 0.000000e+000 -9.017615e-001 4.322340e-001
    endloop
  endfacet
  facet normal -1.000000e+000 -6.489599e-016 2.452431e-016
    outer loop
      vertex 0.000000e+000 -9.017615e-001 4.322340e-001
      vertex -3.667295e-016 -5.000000e-001 -6.408818e-017
      vertex 0.000000e+000 -9.622469e-001 2.721779e-001
    endloop
  endfacet
  facet normal -1.000000e+000 7.334590e-016 2.593041e-015
    outer loop
      vertex 0.000000e+000 -9.622469e-001 2.721779e-001
      vertex -3.667295e-016 -5.000000e-001 -6.408818e-017
      vertex -7.334590e-016 -1.000000e+000 -1.281764e-016
    endloop
  endfacet
  facet normal -1.000000e+000 7.334590e-016 -4.287733e-017
    outer loop
      vertex -3.667295e-016 -5.000000e-001 -6.408818e-017
      vertex -2.143867e-017 2.009019e-016 5.000000e-001
      vertex 0.000000e+000 0.000000e+000 0.000000e+000
    endloop
  endfacet
  facet normal -1.000000e+000 -2.385150e-017 2.472233e-017
    outer loop
      vertex -2.143867e-017 2.009019e-016 5.000000e-001
      vertex 0.000000e+000 -8.117108e-001 5.840596e-001
      vertex 0.000000e+000 -5.545890e-001 8.321244e-001
    endloop
  endfacet
  facet normal -1.000000e+000 4.087133e-017 6.497103e-016
    outer loop
      vertex 0.000000e+000 -8.117108e-001 5.840596e-001
      vertex -2.143867e-017 2.009019e-016 5.000000e-001
      vertex -3.667295e-016 -5.000000e-001 -6.408818e-017
    endloop
  endfacet
  facet normal -4.964651e-016 1.000000e+000 2.360418e-015
    outer loop
      vertex 1.000000e+000 4.964651e-016 6.390622e-016
      vertex 5.000000e-001 2.482326e-016 3.195311e-016
      vertex 9.785886e-001 0.000000e+000 2.058259e-001
    endloop
  endfacet
  facet normal 4.552489e-016 1.000000e+000 1.474820e-016
    outer loop
      vertex 9.785886e-001 0.000000e+000 2.058259e-001
      vertex 5.000000e-001 2.482326e-016 3.195311e-016
      vertex 9.133853e-001 0.000000e+000 4.070962e-001
    endloop
  endfacet
  facet normal 3.822948e-016 1.000000e+000 2.215631e-016
    outer loop
      vertex 9.133853e-001 0.000000e+000 4.070962e-001
      vertex 5.000000e-001 2.482326e-016 3.195311e-016
      vertex 8.072977e-001 0.000000e+000 5.901444e-001
    endloop
  endfacet
  facet normal 0.000000e+000 1.000000e+000 0.000000e+000
    outer loop
      vertex 8.072977e-001 0.000000e+000 5.901444e-001
      vertex 5.233136e-001 0.000000e+000 8.521402e-001
      vertex 6.685453e-001 0.000000e+000 7.436714e-001
    endloop
  endfacet
  facet normal 1.624267e-016 1.000000e+000 3.291354e-016
    outer loop
      vertex 5.233136e-001 0.000000e+000 8.521402e-001
      vertex -2.143867e-017 2.009019e-016 5.000000e-001
      vertex 3.580004e-001 0.000000e+000 9.337214e-001
    endloop
  endfacet
  facet normal 1.056170e-016 1.000000e+000 3.760271e-016
    outer loop
      vertex 3.580004e-001 0.000000e+000 9.337214e-001
      vertex -2.143867e-017 2.009019e-016 5.000000e-001
      vertex 1.805210e-001 0.000000e+000 9.835711e-001
    endloop
  endfacet
  facet normal 2.189234e-015 1.000000e+000 -4.018039e-016
    outer loop
      vertex 1.805210e-001 0.000000e+000 9.835711e-001
      vertex -2.143867e-017 2.009019e-016 5.000000e-001
      vertex -4.287733e-017 4.018039e-016 1.000000e+000
    endloop
  endfacet
  facet normal -4.964651e-016 1.000000e+000 -4.018039e-016
    outer loop
      vertex 0.000000e+000 0.000000e+000 0.000000e+000
      vertex -2.143867e-017 2.009019e-016 5.000000e-001
      vertex 5.000000e-001 2.482326e-016 3.195311e-016
    endloop
  endfacet
  facet normal 2.143523e-016 1.000000e+000 3.090135e-016
    outer loop
      vertex 5.000000e-001 2.482326e-016 3.195311e-016
      vertex -2.143867e-017 2.009019e-016 5.000000e-001
      vertex 8.072977e-001 0.000000e+000 5.901444e-001
    endloop
  endfacet
  facet normal 2.219892e-016 1.000000e+000 2.406200e-016
    outer loop
      vertex 8.072977e-001 0.000000e+000 5.901444e-001
      vertex -2.143867e-017 2.009019e-016 5.000000e-001
      vertex 5.233136e-001 0.000000e+000 8.521402e-001
    endloop
  endfacet
endsolid OBJECT
