<?xml version="1.0" encoding="UTF-8" standalone="no"?>
<!-- Created with Inkscape (http://www.inkscape.org/) -->

<svg
   xmlns:dc="http://purl.org/dc/elements/1.1/"
   xmlns:cc="http://creativecommons.org/ns#"
   xmlns:rdf="http://www.w3.org/1999/02/22-rdf-syntax-ns#"
   xmlns:svg="http://www.w3.org/2000/svg"
   xmlns="http://www.w3.org/2000/svg"
   xmlns:sodipodi="http://sodipodi.sourceforge.net/DTD/sodipodi-0.dtd"
   xmlns:inkscape="http://www.inkscape.org/namespaces/inkscape"
   width="33.523003cm"
   height="28.213772cm"
   viewBox="0 0 335.23 282.13771"
   version="1.1"
   id="svg8"
   inkscape:version="0.92.2 (5c3e80d, 2017-08-06)"
   sodipodi:docname="AMMR_Logo2.svg"
   inkscape:export-filename="C:\Users\mel\Documents\AMMRs\ammr\Docs\_static\AMMR_Logo.png"
   inkscape:export-xdpi="18.905661"
   inkscape:export-ydpi="18.905661">
  <defs
     id="defs2">
    <filter
       inkscape:label="Light Eraser"
       style="color-interpolation-filters:sRGB"
       id="filter4768">
      <feColorMatrix
         values="1 0 0 0 0 0 1 0 0 0 0 0 1 0 0 -0.2125 -0.7154 -0.0721 7.8 0 "
         result="colormatrix"
         id="feColorMatrix4764" />
      <feComposite
         in2="colormatrix"
         operator="arithmetic"
         k2="1"
         result="fbSourceGraphic"
         id="feComposite4766"
         k1="0"
         k3="0"
         k4="0" />
      <feColorMatrix
         result="fbSourceGraphicAlpha"
         in="fbSourceGraphic"
         values="0 0 0 -1 0 0 0 0 -1 0 0 0 0 -1 0 0 0 0 1 0"
         id="feColorMatrix4794" />
      <feColorMatrix
         id="feColorMatrix4796"
         values="1 0 0 0 0 0 1 0 0 0 0 0 1 0 0 -0.2125 -0.7154 -0.0721 7.8125 0 "
         result="colormatrix"
         in="fbSourceGraphic" />
      <feComposite
         in2="colormatrix"
         id="feComposite4798"
         operator="arithmetic"
         k2="1"
         result="fbSourceGraphic"
         k1="0"
         k3="0"
         k4="0" />
      <feColorMatrix
         result="fbSourceGraphicAlpha"
         in="fbSourceGraphic"
         values="0 0 0 -1 0 0 0 0 -1 0 0 0 0 -1 0 0 0 0 1 0"
         id="feColorMatrix4800" />
      <feColorMatrix
         id="feColorMatrix4802"
         values="1 0 0 0 0 0 1 0 0 0 0 0 1 0 0 -0.2125 -0.7154 -0.0721 7.8 0 "
         result="colormatrix"
         in="fbSourceGraphic" />
      <feComposite
         in2="colormatrix"
         id="feComposite4804"
         operator="arithmetic"
         k2="1"
         result="composite"
         k1="0"
         k3="0"
         k4="0" />
    </filter>
    <clipPath
       clipPathUnits="userSpaceOnUse"
       id="clipPath4566">
      <rect
         style="fill:#1a1a1a;fill-opacity:1;stroke:none;stroke-width:7.69999981;stroke-linecap:round;stroke-linejoin:round;stroke-miterlimit:4;stroke-dasharray:none;stroke-opacity:1"
         id="rect4568"
         width="102.80952"
         height="212.42261"
         x="405.19046"
         y="234.25594" />
    </clipPath>
  </defs>
  <sodipodi:namedview
     id="base"
     pagecolor="#ffffff"
     bordercolor="#666666"
     borderopacity="1.0"
     inkscape:pageopacity="0.0"
     inkscape:pageshadow="2"
     inkscape:zoom="0.35355339"
     inkscape:cx="752.10769"
     inkscape:cy="207.09439"
     inkscape:document-units="mm"
     inkscape:current-layer="layer1"
     showgrid="true"
     units="cm"
     inkscape:window-width="1920"
     inkscape:window-height="1017"
     inkscape:window-x="297"
     inkscape:window-y="1432"
     inkscape:window-maximized="1"
     inkscape:snap-nodes="true"
     inkscape:snap-global="false"
     fit-margin-top="1.5"
     fit-margin-left="2.5"
     fit-margin-bottom="3.6"
     fit-margin-right="3.1"
     showguides="true"
     inkscape:guide-bbox="true"
     inkscape:pagecheckerboard="false">
    <inkscape:grid
       type="xygrid"
       id="grid4485"
       empspacing="8"
       originx="148.57447"
       originy="49.711756" />
    <sodipodi:guide
       position="303.44399,145.52083"
       orientation="1,0"
       id="guide4530"
       inkscape:locked="false" />
    <sodipodi:guide
       position="68.626298,122.36979"
       orientation="1,0"
       id="guide4532"
       inkscape:locked="false" />
    <sodipodi:guide
       position="229.85676,23.977864"
       orientation="0,1"
       id="guide4534"
       inkscape:locked="false" />
  </sodipodi:namedview>
  <metadata
     id="metadata5">
    <rdf:RDF>
      <cc:Work
         rdf:about="">
        <dc:format>image/svg+xml</dc:format>
        <dc:type
           rdf:resource="http://purl.org/dc/dcmitype/StillImage" />
        <dc:title></dc:title>
      </cc:Work>
    </rdf:RDF>
  </metadata>
  <g
     inkscape:label="Layer 1"
     inkscape:groupmode="layer"
     id="layer1"
     transform="translate(35.39205,-42.718141)">
    <g
       id="g4522"
       transform="translate(24.555787,-5.4840633)" />
    <flowRoot
       style="font-style:normal;font-weight:normal;font-size:40px;line-height:125%;font-family:sans-serif;letter-spacing:0px;word-spacing:0px;fill:#000000;fill-opacity:1;stroke:none;stroke-width:1px;stroke-linecap:butt;stroke-linejoin:miter;stroke-opacity:1"
       id="flowRoot364"
       xml:space="preserve"
       transform="matrix(0.57699736,0,0,0.57699736,-129.28461,88.691067)"><flowRegion
         id="flowRegion366"><rect
           y="91.153938"
           x="-57.578693"
           height="272.74118"
           width="850.54846"
           id="rect368" /></flowRegion><flowPara
         id="flowPara370" /></flowRoot>    <g
       id="g854"
       transform="matrix(1.1575448,0,0,1.1575448,-43.850731,-64.559516)">
      <path
         d="m 66.403265,126.38974 c -0.516137,0.34404 -0.687988,0.68822 -1.032086,1.37616 L 33.203182,254.20134 v 1.47384 c 0.0455,0.13355 0.09947,0.27275 0.171851,0.41846 0.344061,0.34403 0.860047,0.86004 1.548258,0.86004 l 12.557384,3.61263 c 0.344042,0 0.688255,0.34403 1.204391,0 0.344021,0 0.687953,-0.1719 1.204154,-0.68826 0.344042,-0.17189 0.515855,-0.68795 0.515855,-1.03203 l 9.633289,-40.08103 h 30.791798 l 9.805058,40.08103 c 0,0.34402 0.17189,0.86001 0.34405,1.03203 0.34402,0.51618 0.85997,0.68826 1.20411,0.68826 0.34403,0.34403 0.86004,0.34403 1.20416,0 l 12.55761,-3.26853 c 0.68797,-0.34401 1.20417,-0.86002 1.37623,-1.20414 0.51588,-0.6882 0.51588,-1.20411 0.51588,-1.89234 L 85.497487,127.7659 c -0.171893,-0.68794 -0.516137,-1.03202 -0.860256,-1.37616 -0.49153,-0.32772 -0.983372,-0.50122 -1.474923,-0.51613 -0.02167,-5.7e-4 -0.04875,0 -0.07355,0 H 67.77899 c -0.03188,0 -0.06209,-5.7e-4 -0.09355,0 -0.640004,0.0125 -1.118741,0.18835 -1.282653,0.51613 z m -2.408207,76.20527 11.525294,-47.82165 11.181509,47.82165 z"
         style="fill:#953337;fill-opacity:1;fill-rule:evenodd;stroke-width:2.61879969"
         id="path147"
         inkscape:connector-curvature="0" />
      <path
         d="m 186.47231,173.63366 h -10.48554 c -0.57456,0 -1.00546,0.28743 -1.43669,0.5746 -0.43052,0.43051 -0.57452,0.86195 -0.57452,1.43619 l 0.43052,60.90456 -28.4411,-61.62267 c -0.14397,-0.43053 -0.2874,-0.86159 -0.71782,-1.00546 -0.14398,-0.28741 -0.57456,-0.28741 -1.00546,-0.28741 h -13.21501 c -0.57456,0 -1.00554,0.28741 -1.29282,0.57456 -0.43128,0.43053 -0.71858,0.86197 -0.71858,1.43624 v 83.16883 c 0,0.4313 0.28741,1.00546 0.71858,1.43669 0.28738,0.43053 0.7178,0.57454 1.29282,0.57454 h 10.62941 c 0.57452,0 1.00546,-0.14334 1.43627,-0.57454 0.28741,-0.43129 0.57456,-1.00543 0.57456,-1.43669 l -0.57456,-60.61671 28.44104,61.4787 c 0,0.43052 0.4313,0.57452 0.57456,0.7178 0.43053,0.28739 0.86203,0.43057 1.29282,0.43057 h 13.07115 c 0.71857,0 1.00545,-0.14356 1.43673,-0.57458 0.43056,-0.43132 0.57456,-1.00546 0.57456,-1.43667 v -83.16886 c 0,-0.57452 -0.14398,-1.00546 -0.57456,-1.43623 -0.43128,-0.28739 -0.71779,-0.57458 -1.43673,-0.57458 z"
         style="fill:#953337;fill-opacity:1;fill-rule:evenodd;stroke-width:4.37353039"
         id="path188"
         inkscape:connector-curvature="0" />
      <path
         d="m 214.39826,172.62779 c -0.43053,-0.57456 -0.71781,-0.71781 -1.14898,-1.00546 -0.57453,-0.14335 -1.00545,-0.14335 -1.58016,0.2874 l -10.05475,5.17127 c -0.57456,0.14335 -1.00548,0.57456 -1.00548,1.14889 -0.14397,0.57451 -0.14397,1.00552 0.2867,1.58014 l 26.57397,47.5456 v 31.45747 c 0,0.43128 0.14356,1.00546 0.57456,1.43667 0.28637,0.43057 0.71781,0.57456 1.29283,0.57456 h 10.62947 c 0.57452,0 1.00546,-0.14334 1.43629,-0.57456 0.4305,-0.43127 0.57456,-1.00545 0.57456,-1.43667 v -31.45747 l 26.71736,-47.5456 c 0.14335,-0.28738 0.14335,-0.71782 0.14335,-1.00546 0,-0.2874 0,-0.71782 -0.14335,-1.00546 -0.14397,-0.2874 -0.57458,-0.57456 -0.86196,-0.7178 l -10.05477,-5.17126 c -0.43131,-0.43053 -1.00548,-0.43053 -1.43671,-0.28741 -0.57452,0.28741 -1.00546,0.43128 -1.14895,1.00548 l -20.39725,39.35775 z"
         style="fill:#953337;fill-opacity:1;fill-rule:evenodd;stroke-width:4.37353039"
         id="path190"
         inkscape:connector-curvature="0" />
      <path
         d="m 234.79549,165.44598 c -2.87294,0 -5.02735,1.00546 -7.03837,2.87257 -1.72358,2.01098 -2.72947,4.30924 -2.72947,6.89486 0,2.87296 1.00589,5.31474 2.72947,7.03835 2.01102,2.01135 4.16543,3.01679 7.03837,3.01679 2.58566,0 5.02733,-1.00544 7.03835,-3.01679 1.72401,-1.72361 2.72947,-4.16539 2.72947,-7.03835 0,-2.58562 -1.00546,-4.88388 -2.72947,-6.89486 -2.01102,-1.86711 -4.45269,-2.87257 -7.03835,-2.87257 z"
         style="fill:#999999;fill-opacity:1;fill-rule:evenodd;stroke-width:4.37353039"
         id="path197"
         inkscape:connector-curvature="0" />
      <flowRoot
         xml:space="preserve"
         id="flowRoot5411"
         style="font-style:normal;font-variant:normal;font-weight:normal;font-stretch:normal;font-size:40px;line-height:1.25;font-family:Calibri;-inkscape-font-specification:Calibri;letter-spacing:0px;word-spacing:0px;fill:#953337;fill-opacity:1;stroke:none"
         transform="matrix(0.82424255,0,0,0.82424255,31.210961,-599.15072)"><flowRegion
           id="flowRegion5413"
           style="fill:#953337;fill-opacity:1"><rect
             id="rect5415"
             width="1056"
             height="160"
             x="0"
             y="1056"
             style="fill:#953337;fill-opacity:1" /></flowRegion><flowPara
           style="font-size:38.52021408px;letter-spacing:-2.45651364px"
           id="flowPara5417">MODEL</flowPara></flowRoot>      <text
         xml:space="preserve"
         style="font-style:normal;font-variant:normal;font-weight:normal;font-stretch:normal;font-size:30.15791702px;line-height:1.25;font-family:Calibri;-inkscape-font-specification:Calibri;letter-spacing:0px;word-spacing:0px;fill:#999999;fill-opacity:1;stroke:none;stroke-width:0.75394791"
         x="126.53617"
         y="300.23813"
         id="text5421"><tspan
           dx="0"
           sodipodi:role="line"
           id="tspan5419"
           x="126.53617"
           y="300.23813"
           style="font-size:31.75px;letter-spacing:-2.11666656px;fill:#999999;fill-opacity:1;stroke-width:0.75394791">REPOSITORY</tspan><tspan
           sodipodi:role="line"
           x="126.53617"
           y="338.53256"
           style="fill:#999999;fill-opacity:1;stroke-width:0.75394791"
           id="tspan5423" /></text>
    </g>
  </g>
</svg>
