solid SaddlePin
   facet normal -4.146905e-01 9.099625e-01 -4.012666e-06
      outer loop
         vertex -1.388808e-01 3.678769e-01 7.858329e-03
         vertex -1.369981e-01 3.687350e-01 1.212436e-02
         vertex -1.337048e-01 3.702358e-01 1.151392e-02
      endloop
   endfacet
   facet normal -4.146905e-01 9.099625e-01 -3.791383e-06
      outer loop
         vertex -1.337048e-01 3.702358e-01 1.151392e-02
         vertex -1.369981e-01 3.687350e-01 1.212436e-02
         vertex -1.306284e-01 3.716378e-01 1.400000e-02
      endloop
   endfacet
   facet normal -4.146931e-01 9.099614e-01 0.000000e+00
      outer loop
         vertex -1.337048e-01 3.702358e-01 1.151392e-02
         vertex -1.306284e-01 3.716378e-01 1.400000e-02
         vertex -1.306284e-01 3.716378e-01 1.200000e-02
      endloop
   endfacet
   facet normal -4.146931e-01 9.099614e-01 0.000000e+00
      outer loop
         vertex -1.306284e-01 3.716378e-01 1.200000e-02
         vertex -1.306284e-01 3.716378e-01 1.400000e-02
         vertex -1.275520e-01 3.730398e-01 1.151392e-02
      endloop
   endfacet
   facet normal -4.146954e-01 9.099603e-01 -3.552870e-06
      outer loop
         vertex -1.275520e-01 3.730398e-01 1.151392e-02
         vertex -1.306284e-01 3.716378e-01 1.400000e-02
         vertex -1.242586e-01 3.745407e-01 1.212436e-02
      endloop
   endfacet
   facet normal -4.146960e-01 9.099600e-01 3.666072e-07
      outer loop
         vertex -1.275520e-01 3.730398e-01 1.151392e-02
         vertex -1.242586e-01 3.745407e-01 1.212436e-02
         vertex -1.223759e-01 3.753987e-01 7.858329e-03
      endloop
   endfacet
   facet normal -4.146861e-01 9.099645e-01 5.644598e-06
      outer loop
         vertex -1.223759e-01 3.753987e-01 7.858329e-03
         vertex -1.242586e-01 3.745407e-01 1.212436e-02
         vertex -1.195957e-01 3.766657e-01 7.000000e-03
      endloop
   endfacet
   facet normal -4.146876e-01 9.099638e-01 -1.669417e-07
      outer loop
         vertex -1.223759e-01 3.753987e-01 7.858329e-03
         vertex -1.195957e-01 3.766657e-01 7.000000e-03
         vertex -1.198200e-01 3.765635e-01 1.707778e-03
      endloop
   endfacet
   facet normal -4.146905e-01 9.099625e-01 -1.993324e-08
      outer loop
         vertex -1.198200e-01 3.765635e-01 1.707778e-03
         vertex -1.195957e-01 3.766657e-01 7.000000e-03
         vertex -1.178889e-01 3.774435e-01 -3.965877e-18
      endloop
   endfacet
   facet normal -4.146913e-01 9.099622e-01 -1.093454e-06
      outer loop
         vertex -1.198200e-01 3.765635e-01 1.707778e-03
         vertex -1.178889e-01 3.774435e-01 -3.965877e-18
         vertex -1.206956e-01 3.761644e-01 -4.984980e-03
      endloop
   endfacet
   facet normal -4.146948e-01 9.099606e-01 1.278678e-06
      outer loop
         vertex -1.206956e-01 3.761644e-01 -4.984980e-03
         vertex -1.178889e-01 3.774435e-01 -3.965877e-18
         vertex -1.195957e-01 3.766657e-01 -7.000000e-03
      endloop
   endfacet
   facet normal -4.146937e-01 9.099610e-01 1.950521e-06
      outer loop
         vertex -1.206956e-01 3.761644e-01 -4.984980e-03
         vertex -1.195957e-01 3.766657e-01 -7.000000e-03
         vertex -1.247248e-01 3.743282e-01 -1.009504e-02
      endloop
   endfacet
   facet normal -4.146946e-01 9.099607e-01 3.661309e-06
      outer loop
         vertex -1.247248e-01 3.743282e-01 -1.009504e-02
         vertex -1.195957e-01 3.766657e-01 -7.000000e-03
         vertex -1.242586e-01 3.745407e-01 -1.212436e-02
      endloop
   endfacet
   facet normal -4.146945e-01 9.099607e-01 3.687040e-06
      outer loop
         vertex -1.247248e-01 3.743282e-01 -1.009504e-02
         vertex -1.242586e-01 3.745407e-01 -1.212436e-02
         vertex -1.306284e-01 3.716378e-01 -1.200000e-02
      endloop
   endfacet
   facet normal -4.146946e-01 9.099607e-01 0.000000e+00
      outer loop
         vertex -1.306284e-01 3.716378e-01 -1.200000e-02
         vertex -1.242586e-01 3.745407e-01 -1.212436e-02
         vertex -1.306284e-01 3.716378e-01 -1.400000e-02
      endloop
   endfacet
   facet normal -4.146940e-01 9.099609e-01 0.000000e+00
      outer loop
         vertex -1.306284e-01 3.716378e-01 -1.200000e-02
         vertex -1.306284e-01 3.716378e-01 -1.400000e-02
         vertex -1.365319e-01 3.689474e-01 -1.009504e-02
      endloop
   endfacet
   facet normal -4.146894e-01 9.099630e-01 8.267265e-06
      outer loop
         vertex -1.365319e-01 3.689474e-01 -1.009504e-02
         vertex -1.306284e-01 3.716378e-01 -1.400000e-02
         vertex -1.369981e-01 3.687350e-01 -1.212436e-02
      endloop
   endfacet
   facet normal -4.146845e-01 9.099653e-01 6.889624e-06
      outer loop
         vertex -1.365319e-01 3.689474e-01 -1.009504e-02
         vertex -1.369981e-01 3.687350e-01 -1.212436e-02
         vertex -1.405611e-01 3.671112e-01 -4.984980e-03
      endloop
   endfacet
   facet normal -4.146975e-01 9.099593e-01 -9.877851e-07
      outer loop
         vertex -1.405611e-01 3.671112e-01 -4.984980e-03
         vertex -1.369981e-01 3.687350e-01 -1.212436e-02
         vertex -1.416611e-01 3.666099e-01 -7.000000e-03
      endloop
   endfacet
   facet normal -4.146994e-01 9.099585e-01 2.661263e-07
      outer loop
         vertex -1.405611e-01 3.671112e-01 -4.984980e-03
         vertex -1.416611e-01 3.666099e-01 -7.000000e-03
         vertex -1.414368e-01 3.667121e-01 1.707778e-03
      endloop
   endfacet
   facet normal -4.146905e-01 9.099625e-01 -1.286168e-08
      outer loop
         vertex -1.414368e-01 3.667121e-01 1.707778e-03
         vertex -1.416611e-01 3.666099e-01 -7.000000e-03
         vertex -1.433678e-01 3.658321e-01 1.500626e-17
      endloop
   endfacet
   facet normal -4.146872e-01 9.099640e-01 -4.439956e-06
      outer loop
         vertex -1.414368e-01 3.667121e-01 1.707778e-03
         vertex -1.433678e-01 3.658321e-01 1.500626e-17
         vertex -1.388808e-01 3.678769e-01 7.858329e-03
      endloop
   endfacet
   facet normal -4.146961e-01 9.099600e-01 1.665310e-06
      outer loop
         vertex -1.388808e-01 3.678769e-01 7.858329e-03
         vertex -1.433678e-01 3.658321e-01 1.500626e-17
         vertex -1.416611e-01 3.666099e-01 7.000000e-03
      endloop
   endfacet
   facet normal -4.146953e-01 9.099604e-01 -1.499312e-06
      outer loop
         vertex -1.388808e-01 3.678769e-01 7.858329e-03
         vertex -1.416611e-01 3.666099e-01 7.000000e-03
         vertex -1.369981e-01 3.687350e-01 1.212436e-02
      endloop
   endfacet
   facet normal 4.146930e-01 -9.099614e-01 -2.120193e-07
      outer loop
         vertex 3.524892e-02 7.653292e-03 1.400000e-02
         vertex 3.832531e-02 9.055283e-03 1.151392e-02
         vertex 4.161866e-02 1.055614e-02 1.212436e-02
      endloop
   endfacet
   facet normal 4.146931e-01 -9.099614e-01 -4.858237e-07
      outer loop
         vertex 4.161866e-02 1.055614e-02 1.212436e-02
         vertex 3.832531e-02 9.055283e-03 1.151392e-02
         vertex 4.350136e-02 1.141414e-02 7.858329e-03
      endloop
   endfacet
   facet normal 4.146927e-01 -9.099615e-01 -6.550012e-07
      outer loop
         vertex 4.161866e-02 1.055614e-02 1.212436e-02
         vertex 4.350136e-02 1.141414e-02 7.858329e-03
         vertex 4.628162e-02 1.268118e-02 7.000000e-03
      endloop
   endfacet
   facet normal 4.146929e-01 -9.099614e-01 9.932793e-09
      outer loop
         vertex 4.628162e-02 1.268118e-02 7.000000e-03
         vertex 4.350136e-02 1.141414e-02 7.858329e-03
         vertex 4.798838e-02 1.345900e-02 -3.965877e-18
      endloop
   endfacet
   facet normal 4.146930e-01 -9.099614e-01 6.443720e-08
      outer loop
         vertex 4.798838e-02 1.345900e-02 -3.965877e-18
         vertex 4.350136e-02 1.141414e-02 7.858329e-03
         vertex 4.605732e-02 1.257896e-02 1.707778e-03
      endloop
   endfacet
   facet normal 4.146929e-01 -9.099614e-01 -1.588690e-08
      outer loop
         vertex 4.798838e-02 1.345900e-02 -3.965877e-18
         vertex 4.605732e-02 1.257896e-02 1.707778e-03
         vertex 4.628162e-02 1.268118e-02 -7.000000e-03
      endloop
   endfacet
   facet normal 4.146928e-01 -9.099615e-01 -1.884822e-08
      outer loop
         vertex 4.628162e-02 1.268118e-02 -7.000000e-03
         vertex 4.605732e-02 1.257896e-02 1.707778e-03
         vertex 4.518168e-02 1.217991e-02 -4.984980e-03
      endloop
   endfacet
   facet normal 4.146932e-01 -9.099613e-01 1.946666e-07
      outer loop
         vertex 4.628162e-02 1.268118e-02 -7.000000e-03
         vertex 4.518168e-02 1.217991e-02 -4.984980e-03
         vertex 4.161866e-02 1.055614e-02 -1.212436e-02
      endloop
   endfacet
   facet normal 4.146933e-01 -9.099613e-01 1.424930e-07
      outer loop
         vertex 4.161866e-02 1.055614e-02 -1.212436e-02
         vertex 4.518168e-02 1.217991e-02 -4.984980e-03
         vertex 4.115247e-02 1.034369e-02 -1.009504e-02
      endloop
   endfacet
   facet normal 4.146931e-01 -9.099614e-01 8.711618e-08
      outer loop
         vertex 4.161866e-02 1.055614e-02 -1.212436e-02
         vertex 4.115247e-02 1.034369e-02 -1.009504e-02
         vertex 3.524892e-02 7.653292e-03 -1.400000e-02
      endloop
   endfacet
   facet normal 4.146931e-01 -9.099613e-01 0.000000e+00
      outer loop
         vertex 3.524892e-02 7.653292e-03 -1.400000e-02
         vertex 4.115247e-02 1.034369e-02 -1.009504e-02
         vertex 3.524892e-02 7.653292e-03 -1.200000e-02
      endloop
   endfacet
   facet normal 4.146933e-01 -9.099612e-01 0.000000e+00
      outer loop
         vertex 3.524892e-02 7.653292e-03 -1.400000e-02
         vertex 3.524892e-02 7.653292e-03 -1.200000e-02
         vertex 2.887920e-02 4.750439e-03 -1.212436e-02
      endloop
   endfacet
   facet normal 4.146933e-01 -9.099612e-01 2.203226e-07
      outer loop
         vertex 2.887920e-02 4.750439e-03 -1.212436e-02
         vertex 3.524892e-02 7.653292e-03 -1.200000e-02
         vertex 2.934538e-02 4.962891e-03 -1.009504e-02
      endloop
   endfacet
   facet normal 4.146934e-01 -9.099612e-01 2.087936e-07
      outer loop
         vertex 2.887920e-02 4.750439e-03 -1.212436e-02
         vertex 2.934538e-02 4.962891e-03 -1.009504e-02
         vertex 2.421623e-02 2.625404e-03 -7.000000e-03
      endloop
   endfacet
   facet normal 4.146932e-01 -9.099613e-01 -1.900831e-07
      outer loop
         vertex 2.421623e-02 2.625404e-03 -7.000000e-03
         vertex 2.934538e-02 4.962891e-03 -1.009504e-02
         vertex 2.531617e-02 3.126673e-03 -4.984980e-03
      endloop
   endfacet
   facet normal 4.146931e-01 -9.099613e-01 -1.416158e-07
      outer loop
         vertex 2.421623e-02 2.625404e-03 -7.000000e-03
         vertex 2.531617e-02 3.126673e-03 -4.984980e-03
         vertex 2.250947e-02 1.847587e-03 1.500626e-17
      endloop
   endfacet
   facet normal 4.146932e-01 -9.099613e-01 -3.282410e-08
      outer loop
         vertex 2.250947e-02 1.847587e-03 1.500626e-17
         vertex 2.531617e-02 3.126673e-03 -4.984980e-03
         vertex 2.444054e-02 2.727625e-03 1.707778e-03
      endloop
   endfacet
   facet normal 4.146931e-01 -9.099613e-01 1.295064e-07
      outer loop
         vertex 2.250947e-02 1.847587e-03 1.500626e-17
         vertex 2.444054e-02 2.727625e-03 1.707778e-03
         vertex 2.421623e-02 2.625404e-03 7.000000e-03
      endloop
   endfacet
   facet normal 4.146931e-01 -9.099613e-01 1.287405e-07
      outer loop
         vertex 2.421623e-02 2.625404e-03 7.000000e-03
         vertex 2.444054e-02 2.727625e-03 1.707778e-03
         vertex 2.699649e-02 3.892441e-03 7.858329e-03
      endloop
   endfacet
   facet normal 4.146931e-01 -9.099613e-01 3.630174e-08
      outer loop
         vertex 2.421623e-02 2.625404e-03 7.000000e-03
         vertex 2.699649e-02 3.892441e-03 7.858329e-03
         vertex 2.887920e-02 4.750439e-03 1.212436e-02
      endloop
   endfacet
   facet normal 4.146932e-01 -9.099613e-01 9.487148e-09
      outer loop
         vertex 2.887920e-02 4.750439e-03 1.212436e-02
         vertex 2.699649e-02 3.892441e-03 7.858329e-03
         vertex 3.217254e-02 6.251301e-03 1.151392e-02
      endloop
   endfacet
   facet normal 4.146932e-01 -9.099613e-01 3.427577e-07
      outer loop
         vertex 2.887920e-02 4.750439e-03 1.212436e-02
         vertex 3.217254e-02 6.251301e-03 1.151392e-02
         vertex 3.524892e-02 7.653292e-03 1.400000e-02
      endloop
   endfacet
   facet normal 4.146935e-01 -9.099612e-01 0.000000e+00
      outer loop
         vertex 3.524892e-02 7.653292e-03 1.400000e-02
         vertex 3.217254e-02 6.251301e-03 1.151392e-02
         vertex 3.524892e-02 7.653292e-03 1.200000e-02
      endloop
   endfacet
   facet normal 4.146932e-01 -9.099613e-01 0.000000e+00
      outer loop
         vertex 3.524892e-02 7.653292e-03 1.400000e-02
         vertex 3.524892e-02 7.653292e-03 1.200000e-02
         vertex 3.832531e-02 9.055283e-03 1.151392e-02
      endloop
   endfacet
   facet normal 2.355152e-01 1.073305e-01 -9.659258e-01
      outer loop
         vertex 3.524892e-02 7.653292e-03 -1.400000e-02
         vertex -4.131999e-02 1.925484e-01 -1.212436e-02
         vertex 4.161866e-02 1.055614e-02 -1.212436e-02
      endloop
   endfacet
   facet normal 6.434397e-01 2.932324e-01 -7.071069e-01
      outer loop
         vertex 4.161866e-02 1.055614e-02 -1.212436e-02
         vertex -4.131999e-02 1.925484e-01 -1.212436e-02
         vertex -3.665703e-02 1.946734e-01 -7.000000e-03
      endloop
   endfacet
   facet normal 6.434398e-01 2.932324e-01 -7.071067e-01
      outer loop
         vertex 4.161866e-02 1.055614e-02 -1.212436e-02
         vertex -3.665703e-02 1.946734e-01 -7.000000e-03
         vertex 4.628162e-02 1.268118e-02 -7.000000e-03
      endloop
   endfacet
   facet normal 8.789552e-01 4.005629e-01 -2.588188e-01
      outer loop
         vertex 4.628162e-02 1.268118e-02 -7.000000e-03
         vertex -3.665703e-02 1.946734e-01 -7.000000e-03
         vertex -3.495026e-02 1.954512e-01 -3.965877e-18
      endloop
   endfacet
   facet normal 8.789551e-01 4.005629e-01 -2.588190e-01
      outer loop
         vertex 4.628162e-02 1.268118e-02 -7.000000e-03
         vertex -3.495026e-02 1.954512e-01 -3.965877e-18
         vertex 4.798838e-02 1.345900e-02 -3.965877e-18
      endloop
   endfacet
   facet normal 8.789552e-01 4.005630e-01 2.588188e-01
      outer loop
         vertex 4.798838e-02 1.345900e-02 -3.965877e-18
         vertex -3.495026e-02 1.954512e-01 -3.965877e-18
         vertex -3.665703e-02 1.946734e-01 7.000000e-03
      endloop
   endfacet
   facet normal 8.789551e-01 4.005629e-01 2.588190e-01
      outer loop
         vertex 4.798838e-02 1.345900e-02 -3.965877e-18
         vertex -3.665703e-02 1.946734e-01 7.000000e-03
         vertex 4.628162e-02 1.268118e-02 7.000000e-03
      endloop
   endfacet
   facet normal 6.434397e-01 2.932324e-01 7.071069e-01
      outer loop
         vertex 4.628162e-02 1.268118e-02 7.000000e-03
         vertex -3.665703e-02 1.946734e-01 7.000000e-03
         vertex -4.131999e-02 1.925484e-01 1.212436e-02
      endloop
   endfacet
   facet normal 6.434398e-01 2.932324e-01 7.071067e-01
      outer loop
         vertex 4.628162e-02 1.268118e-02 7.000000e-03
         vertex -4.131999e-02 1.925484e-01 1.212436e-02
         vertex 4.161866e-02 1.055614e-02 1.212436e-02
      endloop
   endfacet
   facet normal 2.355153e-01 1.073305e-01 9.659258e-01
      outer loop
         vertex 4.161866e-02 1.055614e-02 1.212436e-02
         vertex -4.131999e-02 1.925484e-01 1.212436e-02
         vertex -4.768972e-02 1.896455e-01 1.400000e-02
      endloop
   endfacet
   facet normal 2.355152e-01 1.073305e-01 9.659258e-01
      outer loop
         vertex 4.161866e-02 1.055614e-02 1.212436e-02
         vertex -4.768972e-02 1.896455e-01 1.400000e-02
         vertex 3.524892e-02 7.653292e-03 1.400000e-02
      endloop
   endfacet
   facet normal -2.355154e-01 -1.073305e-01 9.659258e-01
      outer loop
         vertex 3.524892e-02 7.653292e-03 1.400000e-02
         vertex -4.768972e-02 1.896455e-01 1.400000e-02
         vertex -5.405945e-02 1.867427e-01 1.212436e-02
      endloop
   endfacet
   facet normal -2.355154e-01 -1.073306e-01 9.659258e-01
      outer loop
         vertex 3.524892e-02 7.653292e-03 1.400000e-02
         vertex -5.405945e-02 1.867427e-01 1.212436e-02
         vertex 2.887920e-02 4.750439e-03 1.212436e-02
      endloop
   endfacet
   facet normal -6.434397e-01 -2.932324e-01 7.071069e-01
      outer loop
         vertex 2.887920e-02 4.750439e-03 1.212436e-02
         vertex -5.405945e-02 1.867427e-01 1.212436e-02
         vertex -5.872242e-02 1.846177e-01 7.000000e-03
      endloop
   endfacet
   facet normal -6.434397e-01 -2.932324e-01 7.071069e-01
      outer loop
         vertex 2.887920e-02 4.750439e-03 1.212436e-02
         vertex -5.872242e-02 1.846177e-01 7.000000e-03
         vertex 2.421623e-02 2.625404e-03 7.000000e-03
      endloop
   endfacet
   facet normal -8.789552e-01 -4.005630e-01 2.588188e-01
      outer loop
         vertex 2.421623e-02 2.625404e-03 7.000000e-03
         vertex -5.872242e-02 1.846177e-01 7.000000e-03
         vertex -6.042918e-02 1.838398e-01 1.500626e-17
      endloop
   endfacet
   facet normal -8.789551e-01 -4.005629e-01 2.588189e-01
      outer loop
         vertex 2.421623e-02 2.625404e-03 7.000000e-03
         vertex -6.042918e-02 1.838398e-01 1.500626e-17
         vertex 2.250947e-02 1.847587e-03 1.500626e-17
      endloop
   endfacet
   facet normal -8.789552e-01 -4.005630e-01 -2.588188e-01
      outer loop
         vertex 2.250947e-02 1.847587e-03 1.500626e-17
         vertex -6.042918e-02 1.838398e-01 1.500626e-17
         vertex -5.872242e-02 1.846177e-01 -7.000000e-03
      endloop
   endfacet
   facet normal -8.789551e-01 -4.005629e-01 -2.588189e-01
      outer loop
         vertex 2.250947e-02 1.847587e-03 1.500626e-17
         vertex -5.872242e-02 1.846177e-01 -7.000000e-03
         vertex 2.421623e-02 2.625404e-03 -7.000000e-03
      endloop
   endfacet
   facet normal -6.434397e-01 -2.932324e-01 -7.071069e-01
      outer loop
         vertex 2.421623e-02 2.625404e-03 -7.000000e-03
         vertex -5.872242e-02 1.846177e-01 -7.000000e-03
         vertex -5.405945e-02 1.867427e-01 -1.212436e-02
      endloop
   endfacet
   facet normal -6.434397e-01 -2.932324e-01 -7.071069e-01
      outer loop
         vertex 2.421623e-02 2.625404e-03 -7.000000e-03
         vertex -5.405945e-02 1.867427e-01 -1.212436e-02
         vertex 2.887920e-02 4.750439e-03 -1.212436e-02
      endloop
   endfacet
   facet normal -2.355154e-01 -1.073305e-01 -9.659258e-01
      outer loop
         vertex 2.887920e-02 4.750439e-03 -1.212436e-02
         vertex -5.405945e-02 1.867427e-01 -1.212436e-02
         vertex -4.768972e-02 1.896455e-01 -1.400000e-02
      endloop
   endfacet
   facet normal -2.355154e-01 -1.073306e-01 -9.659258e-01
      outer loop
         vertex 2.887920e-02 4.750439e-03 -1.212436e-02
         vertex -4.768972e-02 1.896455e-01 -1.400000e-02
         vertex 3.524892e-02 7.653292e-03 -1.400000e-02
      endloop
   endfacet
   facet normal 2.355153e-01 1.073305e-01 -9.659258e-01
      outer loop
         vertex 3.524892e-02 7.653292e-03 -1.400000e-02
         vertex -4.768972e-02 1.896455e-01 -1.400000e-02
         vertex -4.131999e-02 1.925484e-01 -1.212436e-02
      endloop
   endfacet
   facet normal 2.355153e-01 1.073305e-01 -9.659258e-01
      outer loop
         vertex -4.768972e-02 1.896455e-01 -1.400000e-02
         vertex -1.242586e-01 3.745407e-01 -1.212436e-02
         vertex -4.131999e-02 1.925484e-01 -1.212436e-02
      endloop
   endfacet
   facet normal 6.434399e-01 2.932325e-01 -7.071067e-01
      outer loop
         vertex -4.131999e-02 1.925484e-01 -1.212436e-02
         vertex -1.242586e-01 3.745407e-01 -1.212436e-02
         vertex -1.195957e-01 3.766657e-01 -7.000000e-03
      endloop
   endfacet
   facet normal 6.434397e-01 2.932324e-01 -7.071069e-01
      outer loop
         vertex -4.131999e-02 1.925484e-01 -1.212436e-02
         vertex -1.195957e-01 3.766657e-01 -7.000000e-03
         vertex -3.665703e-02 1.946734e-01 -7.000000e-03
      endloop
   endfacet
   facet normal 8.789552e-01 4.005630e-01 -2.588188e-01
      outer loop
         vertex -3.665703e-02 1.946734e-01 -7.000000e-03
         vertex -1.195957e-01 3.766657e-01 -7.000000e-03
         vertex -1.178889e-01 3.774435e-01 -3.965877e-18
      endloop
   endfacet
   facet normal 8.789552e-01 4.005630e-01 -2.588188e-01
      outer loop
         vertex -3.665703e-02 1.946734e-01 -7.000000e-03
         vertex -1.178889e-01 3.774435e-01 -3.965877e-18
         vertex -3.495026e-02 1.954512e-01 -3.965877e-18
      endloop
   endfacet
   facet normal 8.789552e-01 4.005630e-01 2.588188e-01
      outer loop
         vertex -3.495026e-02 1.954512e-01 -3.965877e-18
         vertex -1.178889e-01 3.774435e-01 -3.965877e-18
         vertex -1.195957e-01 3.766657e-01 7.000000e-03
      endloop
   endfacet
   facet normal 8.789552e-01 4.005630e-01 2.588188e-01
      outer loop
         vertex -3.495026e-02 1.954512e-01 -3.965877e-18
         vertex -1.195957e-01 3.766657e-01 7.000000e-03
         vertex -3.665703e-02 1.946734e-01 7.000000e-03
      endloop
   endfacet
   facet normal 6.434399e-01 2.932325e-01 7.071067e-01
      outer loop
         vertex -3.665703e-02 1.946734e-01 7.000000e-03
         vertex -1.195957e-01 3.766657e-01 7.000000e-03
         vertex -1.242586e-01 3.745407e-01 1.212436e-02
      endloop
   endfacet
   facet normal 6.434397e-01 2.932324e-01 7.071069e-01
      outer loop
         vertex -3.665703e-02 1.946734e-01 7.000000e-03
         vertex -1.242586e-01 3.745407e-01 1.212436e-02
         vertex -4.131999e-02 1.925484e-01 1.212436e-02
      endloop
   endfacet
   facet normal 2.355151e-01 1.073304e-01 9.659259e-01
      outer loop
         vertex -4.131999e-02 1.925484e-01 1.212436e-02
         vertex -1.242586e-01 3.745407e-01 1.212436e-02
         vertex -1.306284e-01 3.716378e-01 1.400000e-02
      endloop
   endfacet
   facet normal 2.355153e-01 1.073305e-01 9.659258e-01
      outer loop
         vertex -4.131999e-02 1.925484e-01 1.212436e-02
         vertex -1.306284e-01 3.716378e-01 1.400000e-02
         vertex -4.768972e-02 1.896455e-01 1.400000e-02
      endloop
   endfacet
   facet normal -2.355157e-01 -1.073307e-01 9.659257e-01
      outer loop
         vertex -4.768972e-02 1.896455e-01 1.400000e-02
         vertex -1.306284e-01 3.716378e-01 1.400000e-02
         vertex -1.369981e-01 3.687350e-01 1.212436e-02
      endloop
   endfacet
   facet normal -2.355154e-01 -1.073305e-01 9.659258e-01
      outer loop
         vertex -4.768972e-02 1.896455e-01 1.400000e-02
         vertex -1.369981e-01 3.687350e-01 1.212436e-02
         vertex -5.405945e-02 1.867427e-01 1.212436e-02
      endloop
   endfacet
   facet normal -6.434396e-01 -2.932323e-01 7.071070e-01
      outer loop
         vertex -5.405945e-02 1.867427e-01 1.212436e-02
         vertex -1.369981e-01 3.687350e-01 1.212436e-02
         vertex -1.416611e-01 3.666099e-01 7.000000e-03
      endloop
   endfacet
   facet normal -6.434397e-01 -2.932324e-01 7.071069e-01
      outer loop
         vertex -5.405945e-02 1.867427e-01 1.212436e-02
         vertex -1.416611e-01 3.666099e-01 7.000000e-03
         vertex -5.872242e-02 1.846177e-01 7.000000e-03
      endloop
   endfacet
   facet normal -8.789552e-01 -4.005629e-01 2.588188e-01
      outer loop
         vertex -5.872242e-02 1.846177e-01 7.000000e-03
         vertex -1.416611e-01 3.666099e-01 7.000000e-03
         vertex -1.433678e-01 3.658321e-01 1.500626e-17
      endloop
   endfacet
   facet normal -8.789552e-01 -4.005629e-01 2.588188e-01
      outer loop
         vertex -5.872242e-02 1.846177e-01 7.000000e-03
         vertex -1.433678e-01 3.658321e-01 1.500626e-17
         vertex -6.042918e-02 1.838398e-01 1.500626e-17
      endloop
   endfacet
   facet normal -8.789552e-01 -4.005629e-01 -2.588188e-01
      outer loop
         vertex -6.042918e-02 1.838398e-01 1.500626e-17
         vertex -1.433678e-01 3.658321e-01 1.500626e-17
         vertex -1.416611e-01 3.666099e-01 -7.000000e-03
      endloop
   endfacet
   facet normal -8.789552e-01 -4.005629e-01 -2.588188e-01
      outer loop
         vertex -6.042918e-02 1.838398e-01 1.500626e-17
         vertex -1.416611e-01 3.666099e-01 -7.000000e-03
         vertex -5.872242e-02 1.846177e-01 -7.000000e-03
      endloop
   endfacet
   facet normal -6.434395e-01 -2.932323e-01 -7.071070e-01
      outer loop
         vertex -5.872242e-02 1.846177e-01 -7.000000e-03
         vertex -1.416611e-01 3.666099e-01 -7.000000e-03
         vertex -1.369981e-01 3.687350e-01 -1.212436e-02
      endloop
   endfacet
   facet normal -6.434397e-01 -2.932324e-01 -7.071069e-01
      outer loop
         vertex -5.872242e-02 1.846177e-01 -7.000000e-03
         vertex -1.369981e-01 3.687350e-01 -1.212436e-02
         vertex -5.405945e-02 1.867427e-01 -1.212436e-02
      endloop
   endfacet
   facet normal -2.355157e-01 -1.073307e-01 -9.659257e-01
      outer loop
         vertex -5.405945e-02 1.867427e-01 -1.212436e-02
         vertex -1.369981e-01 3.687350e-01 -1.212436e-02
         vertex -1.306284e-01 3.716378e-01 -1.400000e-02
      endloop
   endfacet
   facet normal -2.355154e-01 -1.073305e-01 -9.659258e-01
      outer loop
         vertex -5.405945e-02 1.867427e-01 -1.212436e-02
         vertex -1.306284e-01 3.716378e-01 -1.400000e-02
         vertex -4.768972e-02 1.896455e-01 -1.400000e-02
      endloop
   endfacet
   facet normal 2.355151e-01 1.073304e-01 -9.659259e-01
      outer loop
         vertex -4.768972e-02 1.896455e-01 -1.400000e-02
         vertex -1.306284e-01 3.716378e-01 -1.400000e-02
         vertex -1.242586e-01 3.745407e-01 -1.212436e-02
      endloop
   endfacet
   facet normal -4.919623e-01 -2.242001e-01 -8.412535e-01
      outer loop
         vertex 4.350136e-02 1.141414e-02 7.858329e-03
         vertex 3.832531e-02 9.055283e-03 1.151392e-02
         vertex -4.461334e-02 1.910475e-01 1.151392e-02
      endloop
   endfacet
   facet normal -1.295009e-01 -5.901698e-02 -9.898214e-01
      outer loop
         vertex -4.461334e-02 1.910475e-01 1.151392e-02
         vertex 3.832531e-02 9.055283e-03 1.151392e-02
         vertex 3.524892e-02 7.653292e-03 1.200000e-02
      endloop
   endfacet
   facet normal 1.007876e-03 -2.211583e-03 -9.999970e-01
      outer loop
         vertex -4.461334e-02 1.910475e-01 1.151392e-02
         vertex 3.524892e-02 7.653292e-03 1.200000e-02
         vertex -5.076611e-02 1.882436e-01 1.151392e-02
      endloop
   endfacet
   facet normal 1.295011e-01 5.901704e-02 -9.898214e-01
      outer loop
         vertex -5.076611e-02 1.882436e-01 1.151392e-02
         vertex 3.524892e-02 7.653292e-03 1.200000e-02
         vertex 3.217254e-02 6.251301e-03 1.151392e-02
      endloop
   endfacet
   facet normal 4.919624e-01 2.242002e-01 -8.412534e-01
      outer loop
         vertex -5.076611e-02 1.882436e-01 1.151392e-02
         vertex 3.217254e-02 6.251301e-03 1.151392e-02
         vertex -5.594216e-02 1.858847e-01 7.858329e-03
      endloop
   endfacet
   facet normal 4.919622e-01 2.242001e-01 -8.412536e-01
      outer loop
         vertex -5.594216e-02 1.858847e-01 7.858329e-03
         vertex 3.217254e-02 6.251301e-03 1.151392e-02
         vertex 2.699649e-02 3.892441e-03 7.858329e-03
      endloop
   endfacet
   facet normal 8.277296e-01 3.772181e-01 -4.154157e-01
      outer loop
         vertex -5.594216e-02 1.858847e-01 7.858329e-03
         vertex 2.699649e-02 3.892441e-03 7.858329e-03
         vertex -5.849811e-02 1.847199e-01 1.707778e-03
      endloop
   endfacet
   facet normal 8.277299e-01 3.772183e-01 -4.154149e-01
      outer loop
         vertex -5.849811e-02 1.847199e-01 1.707778e-03
         vertex 2.699649e-02 3.892441e-03 7.858329e-03
         vertex 2.444054e-02 2.727625e-03 1.707778e-03
      endloop
   endfacet
   facet normal 9.006991e-01 4.104722e-01 1.423154e-01
      outer loop
         vertex -5.849811e-02 1.847199e-01 1.707778e-03
         vertex 2.444054e-02 2.727625e-03 1.707778e-03
         vertex -5.762248e-02 1.851189e-01 -4.984980e-03
      endloop
   endfacet
   facet normal 9.006992e-01 4.104723e-01 1.423148e-01
      outer loop
         vertex -5.762248e-02 1.851189e-01 -4.984980e-03
         vertex 2.444054e-02 2.727625e-03 1.707778e-03
         vertex 2.531617e-02 3.126673e-03 -4.984980e-03
      endloop
   endfacet
   facet normal 6.877031e-01 3.134044e-01 6.548604e-01
      outer loop
         vertex -5.762248e-02 1.851189e-01 -4.984980e-03
         vertex 2.531617e-02 3.126673e-03 -4.984980e-03
         vertex -5.359327e-02 1.869551e-01 -1.009504e-02
      endloop
   endfacet
   facet normal 6.877029e-01 3.134043e-01 6.548606e-01
      outer loop
         vertex -5.359327e-02 1.869551e-01 -1.009504e-02
         vertex 2.531617e-02 3.126673e-03 -4.984980e-03
         vertex 2.934538e-02 4.962891e-03 -1.009504e-02
      endloop
   endfacet
   facet normal 2.563657e-01 1.168326e-01 9.594930e-01
      outer loop
         vertex -5.359327e-02 1.869551e-01 -1.009504e-02
         vertex 2.934538e-02 4.962891e-03 -1.009504e-02
         vertex -4.768972e-02 1.896455e-01 -1.200000e-02
      endloop
   endfacet
   facet normal 2.563658e-01 1.168326e-01 9.594930e-01
      outer loop
         vertex -4.768972e-02 1.896455e-01 -1.200000e-02
         vertex 2.934538e-02 4.962891e-03 -1.009504e-02
         vertex 3.524892e-02 7.653292e-03 -1.200000e-02
      endloop
   endfacet
   facet normal -2.563656e-01 -1.168325e-01 9.594930e-01
      outer loop
         vertex -4.768972e-02 1.896455e-01 -1.200000e-02
         vertex 3.524892e-02 7.653292e-03 -1.200000e-02
         vertex -4.178618e-02 1.923359e-01 -1.009504e-02
      endloop
   endfacet
   facet normal -2.563657e-01 -1.168326e-01 9.594930e-01
      outer loop
         vertex -4.178618e-02 1.923359e-01 -1.009504e-02
         vertex 3.524892e-02 7.653292e-03 -1.200000e-02
         vertex 4.115247e-02 1.034369e-02 -1.009504e-02
      endloop
   endfacet
   facet normal -6.877031e-01 -3.134044e-01 6.548604e-01
      outer loop
         vertex -4.178618e-02 1.923359e-01 -1.009504e-02
         vertex 4.115247e-02 1.034369e-02 -1.009504e-02
         vertex -3.775696e-02 1.941722e-01 -4.984980e-03
      endloop
   endfacet
   facet normal -6.877029e-01 -3.134043e-01 6.548606e-01
      outer loop
         vertex -3.775696e-02 1.941722e-01 -4.984980e-03
         vertex 4.115247e-02 1.034369e-02 -1.009504e-02
         vertex 4.518168e-02 1.217991e-02 -4.984980e-03
      endloop
   endfacet
   facet normal -9.006991e-01 -4.104722e-01 1.423154e-01
      outer loop
         vertex -3.775696e-02 1.941722e-01 -4.984980e-03
         vertex 4.518168e-02 1.217991e-02 -4.984980e-03
         vertex -3.688133e-02 1.945712e-01 1.707778e-03
      endloop
   endfacet
   facet normal -9.006991e-01 -4.104723e-01 1.423151e-01
      outer loop
         vertex -3.688133e-02 1.945712e-01 1.707778e-03
         vertex 4.518168e-02 1.217991e-02 -4.984980e-03
         vertex 4.605732e-02 1.257896e-02 1.707778e-03
      endloop
   endfacet
   facet normal -8.277299e-01 -3.772183e-01 -4.154150e-01
      outer loop
         vertex -3.688133e-02 1.945712e-01 1.707778e-03
         vertex 4.605732e-02 1.257896e-02 1.707778e-03
         vertex -3.943729e-02 1.934064e-01 7.858329e-03
      endloop
   endfacet
   facet normal -8.277297e-01 -3.772182e-01 -4.154154e-01
      outer loop
         vertex -3.943729e-02 1.934064e-01 7.858329e-03
         vertex 4.605732e-02 1.257896e-02 1.707778e-03
         vertex 4.350136e-02 1.141414e-02 7.858329e-03
      endloop
   endfacet
   facet normal -4.919621e-01 -2.242000e-01 -8.412536e-01
      outer loop
         vertex -3.943729e-02 1.934064e-01 7.858329e-03
         vertex 4.350136e-02 1.141414e-02 7.858329e-03
         vertex -4.461334e-02 1.910475e-01 1.151392e-02
      endloop
   endfacet
   facet normal 4.919628e-01 2.242004e-01 -8.412531e-01
      outer loop
         vertex -1.388808e-01 3.678769e-01 7.858329e-03
         vertex -1.337048e-01 3.702358e-01 1.151392e-02
         vertex -5.076611e-02 1.882436e-01 1.151392e-02
      endloop
   endfacet
   facet normal 1.295010e-01 5.901699e-02 -9.898214e-01
      outer loop
         vertex -5.076611e-02 1.882436e-01 1.151392e-02
         vertex -1.337048e-01 3.702358e-01 1.151392e-02
         vertex -1.306284e-01 3.716378e-01 1.200000e-02
      endloop
   endfacet
   facet normal -1.007876e-03 2.211583e-03 -9.999970e-01
      outer loop
         vertex -5.076611e-02 1.882436e-01 1.151392e-02
         vertex -1.306284e-01 3.716378e-01 1.200000e-02
         vertex -4.461334e-02 1.910475e-01 1.151392e-02
      endloop
   endfacet
   facet normal -1.295010e-01 -5.901699e-02 -9.898214e-01
      outer loop
         vertex -4.461334e-02 1.910475e-01 1.151392e-02
         vertex -1.306284e-01 3.716378e-01 1.200000e-02
         vertex -1.275520e-01 3.730398e-01 1.151392e-02
      endloop
   endfacet
   facet normal -4.919620e-01 -2.242000e-01 -8.412536e-01
      outer loop
         vertex -4.461334e-02 1.910475e-01 1.151392e-02
         vertex -1.275520e-01 3.730398e-01 1.151392e-02
         vertex -3.943729e-02 1.934064e-01 7.858329e-03
      endloop
   endfacet
   facet normal -4.919613e-01 -2.241996e-01 -8.412542e-01
      outer loop
         vertex -3.943729e-02 1.934064e-01 7.858329e-03
         vertex -1.275520e-01 3.730398e-01 1.151392e-02
         vertex -1.223759e-01 3.753987e-01 7.858329e-03
      endloop
   endfacet
   facet normal -8.277299e-01 -3.772182e-01 -4.154150e-01
      outer loop
         vertex -3.943729e-02 1.934064e-01 7.858329e-03
         vertex -1.223759e-01 3.753987e-01 7.858329e-03
         vertex -3.688133e-02 1.945712e-01 1.707778e-03
      endloop
   endfacet
   facet normal -8.277305e-01 -3.772186e-01 -4.154134e-01
      outer loop
         vertex -3.688133e-02 1.945712e-01 1.707778e-03
         vertex -1.223759e-01 3.753987e-01 7.858329e-03
         vertex -1.198200e-01 3.765635e-01 1.707778e-03
      endloop
   endfacet
   facet normal -9.006991e-01 -4.104723e-01 1.423154e-01
      outer loop
         vertex -3.688133e-02 1.945712e-01 1.707778e-03
         vertex -1.198200e-01 3.765635e-01 1.707778e-03
         vertex -3.775696e-02 1.941722e-01 -4.984980e-03
      endloop
   endfacet
   facet normal -9.006992e-01 -4.104723e-01 1.423149e-01
      outer loop
         vertex -3.775696e-02 1.941722e-01 -4.984980e-03
         vertex -1.198200e-01 3.765635e-01 1.707778e-03
         vertex -1.206956e-01 3.761644e-01 -4.984980e-03
      endloop
   endfacet
   facet normal -6.877031e-01 -3.134044e-01 6.548604e-01
      outer loop
         vertex -3.775696e-02 1.941722e-01 -4.984980e-03
         vertex -1.206956e-01 3.761644e-01 -4.984980e-03
         vertex -4.178618e-02 1.923359e-01 -1.009504e-02
      endloop
   endfacet
   facet normal -6.877029e-01 -3.134043e-01 6.548607e-01
      outer loop
         vertex -4.178618e-02 1.923359e-01 -1.009504e-02
         vertex -1.206956e-01 3.761644e-01 -4.984980e-03
         vertex -1.247248e-01 3.743282e-01 -1.009504e-02
      endloop
   endfacet
   facet normal -2.563656e-01 -1.168325e-01 9.594930e-01
      outer loop
         vertex -4.178618e-02 1.923359e-01 -1.009504e-02
         vertex -1.247248e-01 3.743282e-01 -1.009504e-02
         vertex -4.768972e-02 1.896455e-01 -1.200000e-02
      endloop
   endfacet
   facet normal -2.563656e-01 -1.168325e-01 9.594930e-01
      outer loop
         vertex -4.768972e-02 1.896455e-01 -1.200000e-02
         vertex -1.247248e-01 3.743282e-01 -1.009504e-02
         vertex -1.306284e-01 3.716378e-01 -1.200000e-02
      endloop
   endfacet
   facet normal 2.563657e-01 1.168326e-01 9.594930e-01
      outer loop
         vertex -4.768972e-02 1.896455e-01 -1.200000e-02
         vertex -1.306284e-01 3.716378e-01 -1.200000e-02
         vertex -5.359327e-02 1.869551e-01 -1.009504e-02
      endloop
   endfacet
   facet normal 2.563658e-01 1.168327e-01 9.594929e-01
      outer loop
         vertex -5.359327e-02 1.869551e-01 -1.009504e-02
         vertex -1.306284e-01 3.716378e-01 -1.200000e-02
         vertex -1.365319e-01 3.689474e-01 -1.009504e-02
      endloop
   endfacet
   facet normal 6.877031e-01 3.134044e-01 6.548604e-01
      outer loop
         vertex -5.359327e-02 1.869551e-01 -1.009504e-02
         vertex -1.365319e-01 3.689474e-01 -1.009504e-02
         vertex -5.762248e-02 1.851189e-01 -4.984980e-03
      endloop
   endfacet
   facet normal 6.877029e-01 3.134043e-01 6.548607e-01
      outer loop
         vertex -5.762248e-02 1.851189e-01 -4.984980e-03
         vertex -1.365319e-01 3.689474e-01 -1.009504e-02
         vertex -1.405611e-01 3.671112e-01 -4.984980e-03
      endloop
   endfacet
   facet normal 9.006991e-01 4.104723e-01 1.423154e-01
      outer loop
         vertex -5.762248e-02 1.851189e-01 -4.984980e-03
         vertex -1.405611e-01 3.671112e-01 -4.984980e-03
         vertex -5.849811e-02 1.847199e-01 1.707778e-03
      endloop
   endfacet
   facet normal 9.006993e-01 4.104723e-01 1.423139e-01
      outer loop
         vertex -5.849811e-02 1.847199e-01 1.707778e-03
         vertex -1.405611e-01 3.671112e-01 -4.984980e-03
         vertex -1.414368e-01 3.667121e-01 1.707778e-03
      endloop
   endfacet
   facet normal 8.277296e-01 3.772181e-01 -4.154157e-01
      outer loop
         vertex -5.849811e-02 1.847199e-01 1.707778e-03
         vertex -1.414368e-01 3.667121e-01 1.707778e-03
         vertex -5.594216e-02 1.858847e-01 7.858329e-03
      endloop
   endfacet
   facet normal 8.277299e-01 3.772183e-01 -4.154149e-01
      outer loop
         vertex -5.594216e-02 1.858847e-01 7.858329e-03
         vertex -1.414368e-01 3.667121e-01 1.707778e-03
         vertex -1.388808e-01 3.678769e-01 7.858329e-03
      endloop
   endfacet
   facet normal 4.919624e-01 2.242002e-01 -8.412534e-01
      outer loop
         vertex -5.594216e-02 1.858847e-01 7.858329e-03
         vertex -1.388808e-01 3.678769e-01 7.858329e-03
         vertex -5.076611e-02 1.882436e-01 1.151392e-02
      endloop
   endfacet
endsolid SaddlePin