<?xml version="1.0" encoding="UTF-8" standalone="no"?>
<svg
   width="83.022301mm"
   height="46.061768mm"
   viewBox="0 0 83.022302 46.061769"
   version="1.1"
   id="svg130"
   inkscape:version="1.2 (dc2aedaf03, 2022-05-15)"
   sodipodi:docname="AMMR.svg"
   xml:space="preserve"
   xmlns:inkscape="http://www.inkscape.org/namespaces/inkscape"
   xmlns:sodipodi="http://sodipodi.sourceforge.net/DTD/sodipodi-0.dtd"
   xmlns="http://www.w3.org/2000/svg"
   xmlns:svg="http://www.w3.org/2000/svg"
   xmlns:rdf="http://www.w3.org/1999/02/22-rdf-syntax-ns#"
   xmlns:cc="http://creativecommons.org/ns#"
   xmlns:dc="http://purl.org/dc/elements/1.1/"><defs
     id="defs124" /><sodipodi:namedview
     id="base"
     pagecolor="#ffffff"
     bordercolor="#666666"
     borderopacity="1.0"
     inkscape:pageopacity="0.0"
     inkscape:pageshadow="2"
     inkscape:zoom="1.7282441"
     inkscape:cx="140.89444"
     inkscape:cy="30.666963"
     inkscape:document-units="mm"
     inkscape:current-layer="layer1"
     showgrid="false"
     inkscape:window-width="1920"
     inkscape:window-height="1009"
     inkscape:window-x="-8"
     inkscape:window-y="-8"
     inkscape:window-maximized="1"
     inkscape:document-rotation="0"
     fit-margin-top="0"
     fit-margin-left="0"
     fit-margin-right="0"
     fit-margin-bottom="0"
     inkscape:showpageshadow="2"
     inkscape:pagecheckerboard="0"
     inkscape:deskcolor="#d1d1d1"
     showguides="true"><sodipodi:guide
       position="147.74823,64.813665"
       orientation="1,0"
       id="guide1102"
       inkscape:locked="false" /><sodipodi:guide
       position="93.753699,8.8402667"
       orientation="0,-1"
       id="guide1104"
       inkscape:locked="false" /><sodipodi:guide
       position="55.138918,-9.2041169"
       orientation="0,-1"
       id="guide1106"
       inkscape:locked="false" /><sodipodi:guide
       position="55.896173,6.0924247"
       orientation="0,-1"
       id="guide1110"
       inkscape:locked="false" /></sodipodi:namedview><metadata
     id="metadata127"><rdf:RDF><cc:Work
         rdf:about=""><dc:format>image/svg+xml</dc:format><dc:type
           rdf:resource="http://purl.org/dc/dcmitype/StillImage" /></cc:Work></rdf:RDF></metadata><g
     inkscape:label="Layer 1"
     inkscape:groupmode="layer"
     id="layer1"
     transform="translate(-34.063488,-38.760211)"><path
       inkscape:connector-curvature="0"
       id="path147"
       style="fill:#953337;fill-opacity:1;fill-rule:evenodd;stroke-width:0.557505"
       d="m 57.157173,42.298159 c -0.109885,0.07326 -0.146457,0.146512 -0.219713,0.292968 L 50.089343,69.50743 v 0.313764 c 0.0094,0.02838 0.02119,0.05809 0.03663,0.08909 0.07326,0.07326 0.183085,0.183084 0.329598,0.183084 l 2.673294,0.769078 c 0.07326,0 0.146511,0.0732 0.256396,0 0.0732,0 0.146457,-0.03663 0.256341,-0.146512 0.0732,-0.03663 0.109828,-0.146457 0.109828,-0.219712 l 2.050784,-8.532676 h 6.555148 l 2.087356,8.532676 c 0,0.07326 0.03663,0.183084 0.07326,0.219712 0.07326,0.109885 0.183084,0.146512 0.256341,0.146512 0.07326,0.0732 0.183085,0.0732 0.25634,0 l 2.67335,-0.695822 c 0.146457,-0.07326 0.256341,-0.183085 0.292969,-0.25634 0.109829,-0.146513 0.109829,-0.256342 0.109829,-0.402854 L 61.222112,42.591127 c -0.03663,-0.146456 -0.109885,-0.219712 -0.183141,-0.292968 -0.104644,-0.0698 -0.209343,-0.106707 -0.313987,-0.109885 -0.0052,-1.11e-4 -0.01037,0 -0.01561,0 h -3.259228 c -0.007,0 -0.01327,-1.11e-4 -0.0199,0 -0.136254,0.0032 -0.238166,0.04009 -0.273065,0.109885 z m -0.512682,16.223016 2.453581,-10.180551 2.380381,10.180551 z" /><path
       inkscape:connector-curvature="0"
       id="path143"
       style="fill:#953337;fill-opacity:1;fill-rule:evenodd;stroke-width:0.463871"
       d="m 82.665122,53.097196 h -2.224307 c -0.121905,0 -0.213287,0.06096 -0.304717,0.121906 -0.09143,0.09138 -0.121859,0.182812 -0.121859,0.304717 l 0.09138,12.919361 -6.033105,-13.071743 c -0.03048,-0.09138 -0.06096,-0.182812 -0.152336,-0.213287 -0.03048,-0.06096 -0.121905,-0.06096 -0.213287,-0.06096 h -2.803264 c -0.121906,0 -0.213335,0.06096 -0.274241,0.121906 -0.09143,0.09138 -0.152381,0.182811 -0.152381,0.304716 v 17.642263 c 0,0.09143 0.06095,0.213287 0.152381,0.304718 0.06091,0.09138 0.152335,0.121858 0.274241,0.121858 h 2.254783 c 0.121859,0 0.213288,-0.03048 0.304717,-0.121858 0.06091,-0.09143 0.121859,-0.213289 0.121859,-0.304718 l -0.121859,-12.858453 6.033105,13.041267 c 0,0.09143 0.09138,0.121905 0.121859,0.152382 0.09143,0.0609 0.182857,0.09138 0.274241,0.09138 h 2.772787 c 0.152382,0 0.213289,-0.03048 0.304718,-0.12186 0.09143,-0.09143 0.121858,-0.213288 0.121858,-0.304716 V 53.523819 c 0,-0.121905 -0.03043,-0.213335 -0.121858,-0.304717 -0.09143,-0.06096 -0.152336,-0.121906 -0.304718,-0.121906 z" /><path
       inkscape:connector-curvature="0"
       id="path145"
       style="fill:#953337;fill-opacity:1;fill-rule:evenodd;stroke-width:0.463871"
       d="m 89.146943,52.883909 c -0.09143,-0.121859 -0.152336,-0.152335 -0.243765,-0.213288 -0.121859,-0.03048 -0.213287,-0.03048 -0.335193,0.06096 l -2.132879,1.096913 c -0.121904,0.03048 -0.213334,0.121905 -0.213334,0.243765 -0.03043,0.121904 -0.03043,0.213287 0.06096,0.335192 l 5.637006,10.085667 v 6.672969 c 0,0.09143 0.03048,0.213287 0.121905,0.304716 0.06091,0.09138 0.152335,0.121859 0.274194,0.121859 h 2.254831 c 0.121858,0 0.213287,-0.03048 0.30467,-0.121859 0.09143,-0.09143 0.121905,-0.213288 0.121905,-0.304716 v -6.672969 l 5.667477,-10.085667 c 0.0305,-0.06095 0.0305,-0.152382 0.0305,-0.213288 0,-0.06096 0,-0.152381 -0.0305,-0.213287 -0.0305,-0.06096 -0.1219,-0.121906 -0.18281,-0.152382 l -2.132925,-1.096916 c -0.09143,-0.09143 -0.213288,-0.09143 -0.304716,-0.06096 -0.121906,0.06096 -0.213288,0.09143 -0.243765,0.213289 l -4.326802,8.348887 z" /><path
       inkscape:connector-curvature="0"
       id="path152"
       style="fill:#999999;fill-opacity:1;fill-rule:evenodd;stroke-width:0.463871"
       d="m 93.473698,51.360417 c -0.609387,0 -1.066439,0.213289 -1.493015,0.609388 -0.365669,0.426575 -0.578958,0.914104 -0.578958,1.462584 0,0.609388 0.213289,1.127393 0.578958,1.493062 0.426576,0.426576 0.883628,0.639864 1.493015,0.639864 0.548481,0 1.066485,-0.213288 1.493061,-0.639864 0.36567,-0.365669 0.578957,-0.883674 0.578957,-1.493062 0,-0.54848 -0.213287,-1.036009 -0.578957,-1.462584 -0.426576,-0.396099 -0.94458,-0.609388 -1.493061,-0.609388 z" /><flowRoot
       style="font-style:normal;font-variant:normal;font-weight:normal;font-stretch:normal;font-size:40px;line-height:125%;font-family:Consolas;-inkscape-font-specification:Consolas;letter-spacing:0px;word-spacing:0px;fill:#000000;fill-opacity:1;stroke:none;stroke-width:1px;stroke-linecap:butt;stroke-linejoin:miter;stroke-opacity:1"
       id="flowRoot364"
       xml:space="preserve"
       transform="matrix(0.57699736,0,0,0.57699736,-0.12193543,26.38924)"><flowRegion
         id="flowRegion366"
         style="font-style:normal;font-variant:normal;font-weight:normal;font-stretch:normal;font-family:Consolas;-inkscape-font-specification:Consolas"><rect
           y="91.153938"
           x="-57.578693"
           height="272.74118"
           width="850.54846"
           id="rect368"
           style="-inkscape-font-specification:Consolas;font-family:Consolas;font-weight:normal;font-style:normal;font-stretch:normal;font-variant:normal" /></flowRegion><flowPara
         id="flowPara370" /></flowRoot><g
       id="g20811"
       transform="matrix(0.30717455,0,0,0.27909635,41.380112,58.808469)"><text
         id="text3009"
         y="64.474472"
         x="112.22561"
         style="font-style:oblique;font-variant:normal;font-weight:normal;font-stretch:normal;font-size:2.51244px;line-height:0%;font-family:Candara;-inkscape-font-specification:'Candara Oblique';text-align:start;letter-spacing:-0.0954412px;word-spacing:0px;writing-mode:lr-tb;text-anchor:start;fill:#999999;fill-opacity:1;stroke:#999999;stroke-width:0.397803;stroke-miterlimit:4;stroke-dasharray:none;stroke-opacity:1"
         xml:space="preserve"
         transform="scale(0.8443502,1.1843427)"><tspan
           style="font-style:normal;font-variant:normal;font-weight:normal;font-stretch:normal;font-size:17.8663px;font-family:Arial;-inkscape-font-specification:'Arial, Normal';font-variant-ligatures:normal;font-variant-caps:normal;font-variant-numeric:normal;font-variant-east-asian:normal;text-align:start;word-spacing:0px;writing-mode:lr-tb;text-anchor:start;fill:#999999;fill-opacity:1;stroke:#999999;stroke-width:0.397803;stroke-miterlimit:4;stroke-dasharray:none;stroke-opacity:1"
           y="64.474472"
           x="112.22561"
           id="tspan3011"
           sodipodi:role="line">REPOSITORY</tspan></text><text
         id="text3009-3"
         y="69.634682"
         x="31.256542"
         style="font-style:oblique;font-variant:normal;font-weight:normal;font-stretch:normal;font-size:2.64712px;line-height:0%;font-family:Candara;-inkscape-font-specification:'Candara Oblique';text-align:start;letter-spacing:-0.100558px;word-spacing:0px;writing-mode:lr-tb;text-anchor:start;fill:#953337;fill-opacity:1;stroke:#953337;stroke-width:0.419127;stroke-miterlimit:4;stroke-dasharray:none;stroke-opacity:1"
         xml:space="preserve"
         transform="scale(0.91740299,1.0900335)"><tspan
           style="font-style:normal;font-variant:normal;font-weight:normal;font-stretch:normal;font-size:18.8241px;font-family:Arial;-inkscape-font-specification:'Arial, Normal';font-variant-ligatures:normal;font-variant-caps:normal;font-variant-numeric:normal;font-variant-east-asian:normal;text-align:start;word-spacing:0px;writing-mode:lr-tb;text-anchor:start;fill:#953337;fill-opacity:1;stroke:#953337;stroke-width:0.419127;stroke-miterlimit:4;stroke-dasharray:none;stroke-opacity:1"
           y="69.634682"
           x="31.256542"
           id="tspan3011-2"
           sodipodi:role="line">MODEL</tspan></text></g><text
       xml:space="preserve"
       style="font-style:normal;font-variant:normal;font-weight:normal;font-stretch:normal;font-size:50.663px;line-height:1.25;font-family:Consolas;-inkscape-font-specification:Consolas;fill:#989898;fill-opacity:0.952941;stroke:none;stroke-width:1.26658"
       x="31.713398"
       y="74.135254"
       id="text20911"><tspan
         sodipodi:role="line"
         id="tspan20909"
         style="font-style:normal;font-variant:normal;font-weight:normal;font-stretch:normal;font-size:50.663px;font-family:Cambria;-inkscape-font-specification:'Cambria, Normal';font-variant-ligatures:normal;font-variant-caps:normal;font-variant-numeric:normal;font-variant-east-asian:normal;fill:#989898;fill-opacity:0.952941;stroke-width:1.26658"
         x="31.713398"
         y="74.135254">{</tspan></text><text
       xml:space="preserve"
       style="font-style:normal;font-variant:normal;font-weight:normal;font-stretch:normal;font-size:50.663px;line-height:1.25;font-family:Consolas;-inkscape-font-specification:Consolas;fill:#989898;fill-opacity:0.952941;stroke:none;stroke-width:1.26658"
       x="99.81881"
       y="74.135254"
       id="text20911-1"
       inkscape:transform-center-x="17.911966"
       inkscape:transform-center-y="2.1433122"><tspan
         sodipodi:role="line"
         id="tspan20909-3"
         style="font-style:normal;font-variant:normal;font-weight:normal;font-stretch:normal;font-size:50.663px;font-family:Cambria;-inkscape-font-specification:'Cambria, Normal';font-variant-ligatures:normal;font-variant-caps:normal;font-variant-numeric:normal;font-variant-east-asian:normal;fill:#989898;fill-opacity:0.952941;stroke-width:1.26658"
         x="99.81881"
         y="74.135254">}</tspan></text></g></svg>
